<svg width="200" height="200" viewBox="0 0 200 200" fill="none" xmlns="http://www.w3.org/2000/svg">
<path d="M150.423 183.005C150.423 183.005 186.275 170.596 172.17 142.03C158.064 113.463 126.603 130.341 126.603 130.341C126.603 130.341 126.737 119.964 103.298 121.828L79.8583 123.691C79.8583 123.691 64.2194 115.013 47.6279 122.972C31.0364 130.93 35.4722 151.221 35.4722 151.221C35.4722 151.221 11.2343 162.714 47.7964 182.085C84.3585 201.456 134.897 189.549 134.897 189.549L150.423 183.005Z" fill="#C3DEEA"/>
<path d="M112.971 151.691C112.948 151.704 111.847 152.502 110.469 153.503L110.311 153.29C107.994 149.408 104.523 146.172 99.8985 143.579C95.5408 140.737 90.5978 138.883 85.0699 138.017C83.2766 137.614 81.4832 137.211 79.6899 136.808C75.8179 136.739 71.946 136.669 68.074 136.6L67.6806 136.632C59.9095 137.297 52.8776 139.377 46.5844 142.873C45.2469 143.845 43.9092 144.817 42.5715 145.789C42.6753 139.909 44.5229 131.108 53.7963 126.66C68.4747 119.619 82.3103 127.296 82.3103 127.296L103.047 125.647C123.784 123.999 123.665 133.179 123.665 133.179C123.665 133.179 151.498 118.247 163.977 143.52C165.691 146.99 166.569 150.189 166.813 153.128C166.265 152.699 165.915 152.426 165.915 152.425C165.915 152.425 156.466 148.072 156.465 148.072C156.464 148.072 145.705 145.653 145.703 145.653C145.699 145.652 134.085 145.444 134.082 145.445C134.08 145.445 122.799 147.557 122.797 147.557L122.795 147.558L117.887 149.622C120.491 148.527 114.47 150.852 112.971 151.691Z" fill="#D9EAF1"/>
<path d="M127.06 129.073C128.133 128.521 129.39 128.149 130.581 127.757C131.953 127.305 133.346 126.88 134.759 126.505C137.274 125.838 139.856 125.309 142.502 125.044C147.173 124.577 151.864 125.146 156.04 126.797C163.883 129.898 169.078 135.947 172.168 142.03C174.309 146.244 175.468 150.785 174.905 155.305C174.835 155.873 173.65 155.92 173.707 155.334C174.08 151.434 173.116 147.603 171.426 143.927C169.969 140.76 167.991 137.723 165.408 134.99C160.495 129.794 153.159 125.841 144.37 126.265C141.507 126.403 138.711 126.934 136 127.626C134.583 127.987 133.181 128.388 131.794 128.81C130.428 129.226 129.057 129.744 127.625 130.002C126.879 130.136 126.402 129.412 127.06 129.073Z" fill="black"/>
<path d="M91.9758 123.221C93.1784 122.566 94.9896 122.301 96.3936 121.948C98.0194 121.539 99.6656 121.185 101.336 120.894C104.448 120.352 107.662 120.019 110.859 120.198C115.709 120.469 120.659 122.003 123.733 124.937C125.38 126.508 126.434 128.331 126.602 130.341C126.632 130.704 125.919 130.71 125.863 130.359C125.138 125.87 119.6 122.746 114.086 121.744C110.574 121.105 106.812 121.299 103.296 121.827C101.431 122.108 99.607 122.499 97.7806 122.895C96.8647 123.094 95.9534 123.305 95.0444 123.521C94.1616 123.731 93.2519 124.05 92.3209 124.075C91.6843 124.092 91.4985 123.481 91.9758 123.221Z" fill="black"/>
<path d="M37.4116 174.601C38.9783 175.996 40.6764 177.297 42.4795 178.518C44.2493 179.716 45.9338 180.962 47.7951 182.085C51.5853 184.371 55.7252 186.322 60.0735 187.946C69.1608 191.338 79.1354 193.255 89.2402 193.802C100.712 194.424 112.271 193.38 123.388 191.21C132.812 189.371 142.065 186.818 150.422 183.005C159.24 178.981 166.936 173.44 171.096 166.227C171.307 165.859 172.023 166.157 171.819 166.522C164.257 180.009 145.433 187.386 127.735 191.332C106.492 196.068 83.0786 196.81 62.4781 190.013C57.4809 188.364 52.7357 186.297 48.3699 183.831C46.1481 182.576 43.9829 181.222 42.0247 179.736C40.1124 178.284 38.4552 176.592 36.8774 174.933C36.6503 174.694 37.1542 174.372 37.4116 174.601Z" fill="black"/>
<path d="M29.754 154.955C31.1028 153.242 33.0139 151.845 35.2749 150.833C33.483 147.153 33.2505 142.957 34.0801 139.137C35.0256 134.783 37.5166 130.582 41.2785 127.196C44.9863 123.859 49.9622 121.429 55.5734 120.377C61.0705 119.346 66.9628 119.529 72.3399 120.855C78.2853 122.32 83.5631 125.195 86.7173 129.313C86.9332 129.595 86.3932 129.85 86.15 129.581C80.0501 122.854 68.4403 119.714 57.9387 121.211C46.7861 122.801 38.7269 129.672 36.2222 137.843C35.5278 140.108 35.2054 142.457 35.351 144.78C35.5025 147.196 36.2332 149.515 37.1798 151.817C37.3855 152.317 36.3487 152.716 36.0358 152.214C35.8332 151.888 35.6459 151.556 35.4705 151.221C30.6879 153.737 27.9413 158.52 29.0251 162.859C29.5736 165.054 31.0702 167.091 33.1519 168.671C35.2791 170.285 37.9337 171.236 40.6812 172.1C41.0208 172.207 40.8696 172.63 40.516 172.624C35.4984 172.538 31.0236 169.355 28.9715 166.103C26.7018 162.506 27.0651 158.369 29.754 154.955Z" fill="black"/>
<path d="M47.1861 156.442C46.904 155.247 44.1811 130.371 50.3577 117.518C56.5342 104.665 95.3146 89.0364 95.3146 89.0364C95.3146 89.0364 134.841 93.5825 148.052 113.375C161.262 133.168 152.949 161.393 152.491 162.535C152.033 163.678 143.241 172.159 143.241 172.159C143.241 172.159 126.07 167.949 101.936 167.419C77.8007 166.889 58.1556 173.992 58.1556 173.992L47.1861 156.442Z" fill="#E0C4A7"/>
<path d="M60.1314 150.437C59.9173 149.53 57.8504 130.647 62.5389 120.89C67.2275 111.133 96.6659 99.2693 96.6659 99.2693C96.6659 99.2693 126.67 102.72 136.699 117.745C146.727 132.77 140.417 154.195 140.069 155.062C139.721 155.93 133.047 162.368 133.047 162.368C133.047 162.368 120.013 159.172 101.692 158.77C83.3711 158.368 68.4584 163.759 68.4584 163.759L60.1314 150.437Z" fill="#C9AB8B"/>
<path d="M140.677 171.63C135.712 170.709 130.706 170.069 125.684 169.543C120.666 169.019 115.623 168.655 110.58 168.49C105.585 168.327 100.588 168.27 95.5903 168.247C90.6328 168.225 85.6549 168.111 80.7017 168.358C75.2198 168.631 69.755 169.398 64.7427 171.747C64.635 171.798 64.6986 171.965 64.8114 171.921C69.3694 170.123 74.3047 169.353 79.1745 169.066C84.0533 168.779 88.955 168.861 93.8399 168.864C103.868 168.872 113.916 168.98 123.924 169.662C129.536 170.045 135.126 170.721 140.667 171.696C140.709 171.703 140.72 171.638 140.677 171.63Z" fill="black"/>
<path d="M62.3757 111.822C63.2228 114.568 63.7756 145.887 70.6951 158.001C77.6146 170.116 82.3777 183.083 93.3171 177.394C109.195 169.136 93.4508 119.218 93.4508 119.218C93.4508 119.218 83.5396 102.951 73.5046 102.359C63.4696 101.767 62.3757 111.822 62.3757 111.822Z" fill="#E0C4A7"/>
<path d="M103.894 142.38C106.023 116.708 117.194 90.6354 132.207 102.334C147.219 114.032 137.947 143.512 132.841 153.842C127.734 164.172 125.127 170.423 118.73 171.411C110.828 172.632 101.766 168.052 103.894 142.38Z" fill="#E0C4A7"/>
<path d="M100.988 148.953C99.9964 140.542 97.62 132.323 94.8969 124.326C94.5669 123.357 94.233 122.389 93.8977 121.422C93.7005 120.853 92.8007 121.09 92.9877 121.673C95.4825 129.461 97.9845 137.29 99.2986 145.381C99.9431 149.349 100.284 153.375 100.183 157.397C100.09 161.081 99.6947 164.859 98.5837 168.388C97.7086 171.167 96.3325 173.947 94.0684 175.853C91.5957 177.935 88.3238 178.278 85.3375 177.175C81.9478 175.924 79.471 173.117 77.615 170.116C75.5995 166.858 73.9983 163.31 72.5087 159.786C69.4433 152.536 67.2984 144.977 65.7653 137.264C65.5733 136.299 65.3957 135.33 65.2304 134.36C65.192 134.134 64.8003 134.184 64.827 134.414C65.7607 142.492 67.8008 150.409 70.6956 158.002C72.1169 161.73 73.7293 165.415 75.617 168.933C77.3767 172.211 79.6025 175.402 82.8634 177.332C85.8582 179.105 89.5133 179.665 92.738 178.179C95.4936 176.909 97.4415 174.332 98.6961 171.642C100.184 168.453 100.823 164.96 101.175 161.479C101.596 157.312 101.477 153.108 100.988 148.953Z" fill="black"/>
<path d="M89.6512 174.055C89.4709 173.283 89.2793 172.514 89.0934 171.743C88.9718 171.239 88.0969 171.332 88.1665 171.869C88.267 172.643 88.3614 173.418 88.4674 174.192C88.5728 174.961 88.6225 175.757 89.1079 176.394C89.3012 176.648 89.7063 176.644 89.808 176.302C90.0341 175.543 89.8263 174.805 89.6512 174.055Z" fill="black"/>
<path d="M95.9718 172.424C95.8709 171.56 95.807 170.601 95.4697 169.791C95.2552 169.277 94.3979 169.274 94.4163 169.934C94.441 170.819 94.7565 171.716 95.0231 172.552C95.1794 173.042 96.0381 172.991 95.9718 172.424Z" fill="black"/>
<path d="M103.893 142.38C104.885 133.969 107.261 125.75 109.984 117.753C110.314 116.784 110.648 115.816 110.983 114.849C111.181 114.28 112.08 114.516 111.893 115.1C109.399 122.888 106.897 130.717 105.582 138.808C104.938 142.776 104.597 146.802 104.698 150.824C104.791 154.508 105.186 158.286 106.297 161.815C107.173 164.594 108.549 167.374 110.813 169.28C113.285 171.362 116.557 171.705 119.544 170.602C122.933 169.351 125.41 166.543 127.266 163.543C129.282 160.285 130.883 156.737 132.372 153.214C135.438 145.963 137.583 138.404 139.116 130.691C139.308 129.726 139.485 128.757 139.651 127.787C139.689 127.561 140.081 127.611 140.054 127.841C139.12 135.919 137.08 143.836 134.186 151.429C132.764 155.157 131.152 158.843 129.264 162.36C127.504 165.638 125.279 168.829 122.018 170.759C119.023 172.532 115.368 173.092 112.143 171.606C109.388 170.336 107.44 167.759 106.185 165.07C104.697 161.88 104.058 158.387 103.706 154.906C103.285 150.739 103.404 146.535 103.893 142.38Z" fill="black"/>
<path d="M115.232 167.482C115.413 166.71 115.604 165.941 115.79 165.17C115.912 164.666 116.786 164.759 116.717 165.296C116.616 166.07 116.522 166.845 116.416 167.619C116.311 168.388 116.261 169.185 115.776 169.821C115.582 170.075 115.177 170.071 115.075 169.73C114.849 168.971 115.057 168.232 115.232 167.482Z" fill="black"/>
<path d="M108.912 165.851C109.013 164.987 109.077 164.028 109.414 163.219C109.628 162.705 110.486 162.702 110.467 163.361C110.443 164.247 110.127 165.143 109.86 165.98C109.704 166.47 108.846 166.418 108.912 165.851Z" fill="black"/>
<path d="M64.5895 107.156C64.6894 106.723 64.0416 106.541 63.9215 106.972C63.2039 109.55 62.7224 112.224 62.5885 114.9C62.5225 116.22 62.5303 117.545 62.6062 118.864C62.6441 119.525 62.6998 120.183 62.7812 120.839C62.8647 121.512 62.9506 122.203 63.3019 122.798C63.4457 123.042 63.8733 123.016 63.935 122.716C64.0635 122.091 63.9788 121.465 63.907 120.839C63.8317 120.182 63.7661 119.524 63.717 118.864C63.621 117.576 63.5921 116.282 63.6293 114.99C63.7055 112.345 63.995 109.737 64.5895 107.156Z" fill="black"/>
<path d="M144.364 181.585C144.364 181.585 128.37 176.338 135.95 154.156C143.53 131.974 166.538 123.043 179.902 129.916C193.266 136.79 198.688 151.077 175.922 169.08C153.156 187.084 144.364 181.585 144.364 181.585Z" fill="#E0C4A7"/>
<path d="M153.436 169.863C153.436 169.863 145.358 167.213 149.186 156.011C153.015 144.808 164.634 140.297 171.383 143.769C178.133 147.24 180.871 154.455 169.374 163.548C157.876 172.64 153.436 169.863 153.436 169.863Z" fill="#F2E7DE"/>
<path d="M143.289 138.607C141.685 140.792 140.076 142.953 138.651 145.261C137.239 147.548 135.948 149.912 134.903 152.391C132.996 156.916 131.997 161.936 132.776 166.832C133.2 169.497 134.187 172.108 135.7 174.346C135.897 174.637 136.366 174.371 136.175 174.068C133.624 170.014 133.085 165.018 133.779 160.344C134.52 155.348 136.719 150.714 139.328 146.438C140.849 143.945 142.45 141.494 144.055 139.055C144.375 138.569 143.62 138.155 143.289 138.607Z" fill="black"/>
<path d="M164.553 126.461C163.062 126.102 161.327 126.656 159.965 127.266C158.912 127.737 157.943 128.386 157.105 129.176C156.92 128.933 156.655 128.744 156.329 128.662C155.637 128.489 154.94 128.838 154.39 129.222C153.702 129.702 153.044 130.234 152.395 130.765C149.703 132.971 147.272 135.444 145.008 138.086C144.817 138.309 145.125 138.629 145.335 138.413C147.069 136.622 148.923 134.993 150.828 133.389C151.787 132.582 152.773 131.811 153.774 131.056C154.246 130.701 154.709 130.316 155.215 130.011C155.435 129.877 155.793 129.66 156.058 129.766C156.091 129.779 156.272 129.928 156.312 130.014C156.272 130.061 156.232 130.108 156.193 130.155C155.82 130.613 156.313 131.457 156.883 131.05C156.923 131.021 156.96 130.99 156.996 130.958C156.996 130.959 156.997 130.96 156.998 130.96C157.003 130.954 157.009 130.947 157.015 130.94C157.083 130.877 157.142 130.808 157.192 130.736C158.086 129.729 159.171 128.918 160.412 128.38C161.052 128.102 161.729 127.902 162.414 127.772C163.124 127.637 163.843 127.643 164.553 127.506C165.083 127.404 165.055 126.582 164.553 126.461Z" fill="black"/>
<path d="M191.134 144.628C190.96 143.972 189.984 144.25 190.124 144.907C191.142 149.701 188.736 154.272 185.58 157.722C183.953 159.502 182.127 161.083 180.311 162.664C178.512 164.23 176.711 165.794 174.873 167.315C171.142 170.404 167.241 173.324 162.975 175.639C159.301 177.632 155.369 179.169 151.177 179.558C146.883 179.957 142.064 179.165 138.779 176.173C138.551 175.966 138.225 176.288 138.44 176.512C139.814 177.945 141.46 179.107 143.315 179.82C145.206 180.546 147.228 180.818 149.246 180.816C153.552 180.811 157.767 179.58 161.623 177.724C166.187 175.526 170.334 172.556 174.266 169.383C176.268 167.768 178.218 166.09 180.158 164.401C182.058 162.745 183.99 161.11 185.745 159.298C189.445 155.479 192.597 150.132 191.134 144.628Z" fill="black"/>
<path d="M189.803 141.193C189.035 139.326 188.311 137.456 187.338 135.684C186.39 133.955 185.323 132.293 183.996 130.829C181.549 128.128 178.224 126.137 174.523 125.905C172.551 125.782 170.645 126.181 169.093 127.447C168.904 127.601 169.064 127.93 169.306 127.832C172.436 126.564 175.816 126.682 178.855 128.151C182.141 129.741 184.473 132.694 186.298 135.774C187.38 137.6 188.398 139.477 189.373 141.362C189.506 141.62 189.918 141.474 189.803 141.193Z" fill="black"/>
<path d="M147.967 155.643C147.108 157.053 146.884 158.951 146.739 160.57C146.585 162.296 146.753 164.009 147.126 165.698C147.272 166.36 148.209 166.061 148.119 165.424C147.899 163.861 147.896 162.255 148.031 160.684C148.098 159.909 148.22 159.142 148.391 158.383C148.567 157.604 148.839 156.85 148.956 156.06C149.042 155.483 148.309 155.081 147.967 155.643Z" fill="black"/>
<path d="M156.568 145.713C155.85 146.079 155.336 147.105 154.859 147.741C154.715 147.932 154.567 148.125 154.419 148.319C154.554 147.614 154.724 146.913 154.847 146.234C154.906 145.911 154.71 145.593 154.357 145.59C152.409 145.573 150.765 146.928 149.919 148.609C148.876 150.679 149.004 153.094 149.138 155.34C149.164 155.77 149.824 155.778 149.813 155.34C149.763 153.37 149.677 151.233 150.551 149.408C151.184 148.088 152.338 146.96 153.781 146.676C153.651 147.854 153.558 149.086 153.187 150.185C153.014 150.699 153.693 151.017 154.05 150.688C154.731 150.059 155.309 149.259 155.886 148.534C156.386 147.904 157.243 147.159 157.416 146.365C157.526 145.861 157.024 145.481 156.568 145.713Z" fill="black"/>
<path d="M176.678 146.084C175.807 144.578 174.471 143.307 172.912 142.532C169.196 140.688 164.859 141.766 161.394 143.636C160.809 143.951 161.323 144.77 161.905 144.51C165.014 143.121 168.858 142.349 172.103 143.733C173.46 144.312 174.689 145.324 175.47 146.579C175.838 147.171 176.113 147.822 176.325 148.484C176.553 149.193 176.568 149.916 176.684 150.644C176.723 150.89 177.113 150.93 177.219 150.714C177.926 149.267 177.441 147.403 176.678 146.084Z" fill="black"/>
<path d="M176.482 155.116C175.371 156.34 174.424 157.702 173.268 158.891C172.077 160.115 170.837 161.282 169.449 162.282C167.07 163.997 164.418 165.291 161.59 166.033C160.87 165.746 159.966 165.937 159.775 166.827C159.662 167.357 160.099 167.807 160.634 167.686C160.785 167.652 160.935 167.615 161.085 167.578C161.072 167.631 161.052 167.685 161.016 167.739C160.738 168.165 160.232 168.426 159.794 168.655C158.807 169.172 157.701 169.356 156.595 169.329C154.325 169.273 152.053 168.39 149.985 167.52C149.67 167.388 149.451 167.917 149.753 168.072C152.658 169.563 156.181 171.086 159.5 170.153C160.748 169.802 162.744 168.759 162.524 167.187C165.304 166.35 167.954 165.077 170.313 163.379C171.736 162.355 173.106 161.208 174.253 159.876C175.376 158.572 176.51 157.11 177.091 155.47C177.212 155.128 176.721 154.853 176.482 155.116Z" fill="black"/>
<path d="M55.6357 179.273C55.6357 179.273 71.63 174.026 64.0498 151.844C56.4697 129.662 33.4621 120.73 20.0979 127.604C6.7337 134.477 1.31141 148.764 24.0774 166.768C46.8433 184.771 55.6357 179.273 55.6357 179.273Z" fill="#E0C4A7"/>
<path d="M46.5654 167.55C46.5654 167.55 54.643 164.901 50.8148 153.698C46.9866 142.496 35.3671 137.985 28.6178 141.456C21.8684 144.927 19.13 152.143 30.6275 161.235C42.125 170.328 46.5654 167.55 46.5654 167.55Z" fill="#F2E7DE"/>
<path d="M56.7134 136.295C58.3171 138.48 59.9262 140.641 61.3513 142.949C62.7634 145.236 64.0538 147.6 65.0987 150.079C67.0062 154.604 68.005 159.624 67.226 164.52C66.802 167.185 65.8151 169.796 64.3019 172.034C64.1053 172.325 63.6361 172.059 63.8266 171.756C66.3776 167.702 66.9168 162.706 66.2233 158.032C65.4819 153.036 63.283 148.402 60.6742 144.126C59.1532 141.633 57.5522 139.182 55.9468 136.743C55.6273 136.257 56.3821 135.843 56.7134 136.295Z" fill="black"/>
<path d="M35.4483 124.149C36.9391 123.79 38.6743 124.344 40.0359 124.954C41.0895 125.425 42.0581 126.075 42.8961 126.865C43.0813 126.622 43.3459 126.432 43.6726 126.35C44.3645 126.177 45.0613 126.526 45.6117 126.91C46.2995 127.39 46.9573 127.922 47.6059 128.453C50.2986 130.659 52.7295 133.132 54.9933 135.774C55.1843 135.997 54.8763 136.317 54.6668 136.101C52.932 134.311 51.0782 132.681 49.173 131.078C48.214 130.27 47.2282 129.499 46.2273 128.744C45.7558 128.389 45.2922 128.004 44.7865 127.699C44.5661 127.565 44.2088 127.348 43.9435 127.454C43.9104 127.467 43.7292 127.616 43.6897 127.702C43.7294 127.749 43.7695 127.796 43.8084 127.843C44.1812 128.301 43.6887 129.145 43.1187 128.738C43.0782 128.709 43.0411 128.678 43.0055 128.646C43.0049 128.647 43.0042 128.648 43.0036 128.649C42.9979 128.642 42.9919 128.635 42.9862 128.628C42.9179 128.565 42.8592 128.496 42.8096 128.424C41.915 127.418 40.83 126.606 39.5891 126.068C38.9488 125.79 38.2723 125.59 37.587 125.46C36.877 125.325 36.1577 125.331 35.4483 125.194C34.9181 125.092 34.946 124.27 35.4483 124.149Z" fill="black"/>
<path d="M8.86604 142.316C9.04038 141.66 10.0157 141.938 9.87631 142.595C8.85815 147.388 11.2642 151.959 14.4199 155.41C16.0472 157.19 17.8733 158.771 19.6893 160.352C21.4882 161.918 23.2893 163.482 25.1267 165.003C28.8584 168.092 32.7593 171.011 37.0253 173.327C40.6988 175.32 44.6309 176.857 48.8229 177.246C53.1175 177.645 57.9364 176.853 61.221 173.861C61.4486 173.653 61.7748 173.976 61.56 174.2C60.1857 175.633 58.5401 176.795 56.6851 177.508C54.7946 178.234 52.7724 178.506 50.754 178.504C46.4485 178.499 42.2326 177.268 38.377 175.412C33.8126 173.214 29.6662 170.244 25.7343 167.071C23.7324 165.456 21.7822 163.778 19.8425 162.088C17.9415 160.433 16.0105 158.798 14.2549 156.986C10.555 153.167 7.40297 147.82 8.86604 142.316Z" fill="black"/>
<path d="M10.1982 138.881C10.9656 137.013 11.6902 135.144 12.6627 133.371C13.611 131.643 14.6778 129.981 16.0046 128.516C18.452 125.815 21.7768 123.825 25.4776 123.593C27.4495 123.469 29.3554 123.869 30.9078 125.134C31.0972 125.289 30.937 125.618 30.6952 125.52C27.5648 124.251 24.1847 124.369 21.1463 125.839C17.8598 127.429 15.528 130.382 13.7028 133.462C12.621 135.288 11.6033 137.165 10.6281 139.05C10.4946 139.307 10.0826 139.162 10.1982 138.881Z" fill="black"/>
<path d="M52.0336 153.331C52.8925 154.741 53.1165 156.639 53.2609 158.259C53.4147 159.984 53.2469 161.698 52.8742 163.386C52.7279 164.049 51.7914 163.749 51.8811 163.112C52.1012 161.549 52.1039 159.943 51.9689 158.372C51.9024 157.598 51.78 156.83 51.6088 156.072C51.4329 155.293 51.1607 154.538 51.0437 153.749C50.9583 153.172 51.6913 152.769 52.0336 153.331Z" fill="black"/>
<path d="M43.4332 143.401C44.1518 143.767 44.6652 144.793 45.1427 145.429C45.286 145.62 45.4339 145.813 45.582 146.007C45.4472 145.302 45.2775 144.601 45.1542 143.922C45.0955 143.599 45.2912 143.281 45.6445 143.278C47.5925 143.261 49.2362 144.616 50.0823 146.297C51.1248 148.367 50.9974 150.782 50.8629 153.028C50.8372 153.458 50.1771 153.466 50.1881 153.028C50.2382 151.058 50.3244 148.921 49.4502 147.096C48.8174 145.776 47.6634 144.648 46.2209 144.364C46.3501 145.542 46.443 146.774 46.8143 147.873C46.9878 148.387 46.3086 148.705 45.9517 148.376C45.2706 147.747 44.692 146.947 44.1157 146.222C43.6156 145.592 42.7588 144.847 42.5854 144.053C42.4754 143.55 42.9771 143.169 43.4332 143.401Z" fill="black"/>
<path d="M23.3216 143.772C24.1931 142.266 25.5284 140.995 27.0881 140.221C30.8041 138.376 35.1408 139.455 38.6058 141.324C39.1903 141.639 38.677 142.458 38.095 142.198C34.9853 140.809 31.1422 140.037 27.8967 141.422C26.5395 142.001 25.311 143.012 24.5299 144.268C24.162 144.859 23.8871 145.51 23.6744 146.172C23.4466 146.881 23.4319 147.604 23.3161 148.332C23.277 148.578 22.8864 148.619 22.7806 148.402C22.0742 146.955 22.5588 145.091 23.3216 143.772Z" fill="black"/>
<path d="M23.5169 152.804C24.6285 154.028 25.5751 155.39 26.7316 156.579C27.9218 157.803 29.1625 158.97 30.5498 159.97C32.9288 161.685 35.5809 162.979 38.4087 163.721C39.1289 163.434 40.033 163.625 40.2237 164.515C40.3374 165.045 39.9004 165.495 39.3654 165.374C39.2145 165.34 39.0642 165.302 38.9139 165.266C38.927 165.319 38.9475 165.373 38.9827 165.427C39.2613 165.853 39.7669 166.114 40.2051 166.343C41.1922 166.86 42.2979 167.044 43.4044 167.017C45.6746 166.961 47.9462 166.078 50.0139 165.208C50.3288 165.076 50.5483 165.605 50.2465 165.76C47.3415 167.251 43.8177 168.774 40.4992 167.841C39.2516 167.49 37.2549 166.447 37.4751 164.875C34.6949 164.037 32.0456 162.765 29.6865 161.067C28.2634 160.043 26.893 158.895 25.7464 157.564C24.623 156.26 23.4896 154.798 22.9084 153.158C22.7869 152.816 23.2782 152.541 23.5169 152.804Z" fill="black"/>
<path d="M68.2682 17.7963C68.2682 17.7963 74.0354 5.20142 54.4538 5.62649C34.8722 6.05156 31.0742 29.1084 33.3169 35.7221C37.8048 48.9563 46.5918 47.7561 46.5918 47.7561C46.5918 47.7561 11.8885 80.5008 62.4576 103.116C113.027 125.73 146.845 105.027 154.688 93.7178C162.532 82.4086 155.036 65.6523 155.036 65.6523L149.297 55.0383C149.297 55.0383 160.483 63.1737 169.338 46.8929C180.455 26.4553 159.237 17.4632 159.237 17.4632L156.1 17.2669L152.588 14.7266L148.383 15.492L141.732 16.5798L138.467 27.0821C138.467 27.0821 133.614 16.7942 119.643 16.0605C105.672 15.3267 99.0621 11.5399 99.0621 11.5399L90.7762 11.6453C90.7762 11.6453 79.8157 14.487 75.9826 15.7646C72.1495 17.0419 68.2682 17.7963 68.2682 17.7963Z" fill="#E0C4A7"/>
<path d="M59.6371 30.2155C59.0247 33.794 55.2322 41.1029 50.9878 40.3759C46.7433 39.649 43.6172 29.296 44.2296 25.7175C44.8419 22.139 47.4268 21.533 51.6712 22.2599C55.9157 22.9869 60.2495 26.637 59.6371 30.2155Z" fill="#FFF5EB"/>
<path d="M144.388 39.3028C144.78 42.8921 148.121 50.2787 152.407 49.6444C156.693 49.0101 160.454 38.732 160.062 35.1426C159.67 31.5532 157.124 30.8914 152.838 31.5257C148.552 32.1598 143.996 35.7133 144.388 39.3028Z" fill="#FFF5EB"/>
<path d="M64.0265 8.87175C63.6015 7.95343 62.5827 7.22069 61.785 6.9676C60.6692 6.61361 59.4007 6.74095 58.485 7.50407C57.8069 6.11178 56.5286 5.13856 55.0007 5.00218C54.6468 4.9706 54.4429 5.28655 54.4525 5.62634C54.4605 5.91033 54.5078 6.1868 54.5874 6.44982C52.2831 5.74108 49.6934 6.17829 47.6655 7.69784C47.6651 7.69814 47.6648 7.69852 47.6644 7.69883C46.124 7.33337 44.3692 7.75107 42.9103 8.33704C41.2455 9.00569 39.7076 10.0961 38.4452 11.44C35.7225 14.3385 34.1996 18.2125 33.3155 22.1195C31.8596 28.5528 32.338 35.8181 35.5854 41.4527C37.4807 44.7414 40.5367 47.6937 44.2406 48.2934C44.6292 48.3564 44.6739 47.7397 44.308 47.655C41.2454 46.9459 38.5758 44.3097 36.8785 41.6145C35.2999 39.1077 34.3744 36.1934 33.9289 33.2044C33.4722 30.1391 33.5372 26.9847 34.0559 23.9094C34.6626 20.3122 35.8627 16.6444 37.9949 13.71C39.1755 12.0851 40.6633 10.7274 42.394 9.81998C43.2064 9.39408 44.0574 9.07433 44.9408 8.88336C45.8902 8.67812 46.8182 8.71054 47.7747 8.67113C48.1067 8.65747 48.3464 8.24576 48.2192 7.97871C50.5754 6.50874 53.5688 6.57632 55.8259 8.10104C56.3378 8.4217 56.9036 7.61424 56.3884 7.28393C55.9977 7.02592 55.6949 6.65552 55.5445 6.20889C56.6063 6.56418 57.4766 7.45949 57.7695 8.63348C57.8803 9.07753 58.4408 9.30433 58.7292 8.86324C59.3428 7.92488 60.4762 7.74287 61.4349 8.0671C61.9012 8.22473 62.3418 8.48321 62.6714 8.87076C63.0547 9.32142 63.0792 9.83229 63.2936 10.366C63.4434 10.7389 63.988 10.7199 64.1242 10.3303C64.2148 10.0712 64.2412 9.81483 64.2185 9.56554C67.4544 10.2998 69.3272 14.443 68.2668 17.7962C68.2018 18.0019 68.4753 18.191 68.5935 17.9838C70.7101 14.2731 67.7505 9.37025 64.0265 8.87175Z" fill="black"/>
<path d="M105.651 14.0339C102.517 11.5384 98.2994 10.8319 94.578 12.2432C94.4593 12.0609 94.296 11.9004 94.0935 11.7801C93.1416 11.2145 91.8087 11.5489 90.7752 11.6454C89.3897 11.7747 88.0045 11.9142 86.6227 12.0927C81.5613 12.7464 76.4979 13.9977 72.1484 17.0422C69.937 18.5901 68.0291 20.5609 66.6157 22.9528C66.4948 23.1573 66.7663 23.3732 66.8978 23.1705C71.7807 15.6463 80.7841 13.6414 88.6873 12.8202C89.902 12.694 91.1196 12.5699 92.3366 12.4814C92.7436 12.4518 93.2866 12.406 93.6467 12.6484C93.433 12.7528 93.2209 12.8628 93.0118 12.9822C92.8438 13.0782 92.6842 13.3057 92.7396 13.5217C92.967 14.4076 93.8434 14.396 94.4126 13.814C94.5858 13.637 94.6939 13.4408 94.7482 13.2401C98.1977 11.8987 102.237 12.4332 105.07 14.877C105.55 15.2904 106.147 14.4292 105.651 14.0339Z" fill="black"/>
<path d="M144.288 34.4048C143.837 33.7704 143.246 33.255 142.702 32.7114C142.11 32.1208 141.515 31.534 140.929 30.9378C139.818 29.8075 138.677 28.7101 137.546 27.6021C135.473 25.5714 133.414 23.5152 131.203 21.6532C129.059 19.8479 126.759 18.2355 124.231 17.0912C121.506 15.8581 118.598 15.251 115.644 14.9623C112.326 14.638 108.996 14.7575 105.663 14.9184C105.446 14.9288 105.454 15.3227 105.671 15.3264C111.482 15.4251 117.487 15.414 122.948 17.666C128.074 19.7802 132.169 23.8414 136.135 27.7423C137.388 28.975 138.627 30.2273 139.898 31.4385C140.534 32.0436 141.167 32.6509 141.798 33.2602C142.423 33.8629 143.026 34.5417 143.737 35.0246C144.112 35.2791 144.566 34.7954 144.288 34.4048Z" fill="black"/>
<path d="M153.404 13.7472C151.602 13.1578 149.821 14.2572 148.38 15.4918C148.094 14.4992 147.117 13.7035 146.133 13.6471C144.308 13.5427 142.856 15.2555 141.73 16.5796C139.308 19.428 137.294 23.2244 138.464 27.0819C138.984 28.7955 140.221 30.2722 141.827 30.8763C141.871 30.8926 141.912 30.8968 141.95 30.8927C141.999 30.9347 142.059 30.9505 142.119 30.946C142.112 30.9967 142.106 31.0473 142.1 31.0978C142.026 31.7732 142.865 31.8856 143.05 31.2606C143.462 29.8709 144.456 28.8756 145.364 27.8419C145.594 27.5799 145.371 27.0531 145.021 27.1371C143.607 27.4769 142.674 28.7498 142.28 30.1661C142.06 29.3798 142.1 28.5533 142.307 27.7382C142.419 27.2983 142.597 26.8499 142.83 26.4639C143.062 26.079 143.426 25.8171 143.504 25.3537C143.559 25.0306 143.299 24.7003 142.98 24.7524C141.978 24.9161 141.411 26.6393 141.265 27.5598C141.128 28.4298 141.251 29.2929 141.553 30.0882C140.269 29.314 139.509 27.8805 139.203 26.3285C138.828 24.4238 139.237 22.5008 140.083 20.7717C140.986 18.9264 142.358 17.1655 143.839 15.8076C144.488 15.2119 145.415 14.5297 146.309 14.7753C147.02 14.9706 147.684 15.766 147.306 16.5575C147.066 17.0585 147.734 17.5305 148.108 17.1746C149.322 16.0221 150.861 14.6053 152.586 14.7266C153.834 14.8144 155.39 16.4408 154.56 17.8283C154.232 18.3762 154.945 18.9424 155.316 18.4126C156.576 16.6147 155.136 14.3139 153.404 13.7472Z" fill="black"/>
<path d="M172.797 34.2444C172.164 29.3869 169.893 25.1285 166.409 22.0067C164.271 20.0904 161.811 18.6216 159.236 17.463C158.454 17.1107 156.769 16.1351 156.099 17.2668C155.716 17.9145 156.439 19.1107 157.092 18.4578C157.352 18.198 157.037 17.7767 156.749 18.008C156.713 18.0371 156.645 17.8521 156.643 17.8367C156.615 17.5777 156.873 17.6234 157.015 17.6363C157.259 17.6585 157.493 17.783 157.713 17.8879C158.21 18.1253 158.703 18.3742 159.193 18.6281C160.186 19.143 161.162 19.6995 162.113 20.2967C163.957 21.4557 165.697 22.826 167.169 24.4851C169.81 27.4618 171.355 31.2781 171.705 35.3907C172.038 39.3148 171.258 43.4521 169.338 46.8928C167.137 50.8384 163.41 54.144 159.427 55.8391C157.194 56.7897 154.721 57.1462 152.402 56.4976C151.299 56.1892 150.245 55.7023 149.296 55.0383C148.309 54.3473 147.518 53.4594 146.675 52.5919C146.299 52.2042 145.498 52.5842 145.802 53.1777C146.149 53.8558 146.615 54.4693 147.158 55.0148C146.888 54.8996 146.614 54.793 146.334 54.6971C145.991 54.5791 145.783 55.1262 146.124 55.2631C152.064 57.6531 155.16 64.1147 156.305 70.445C156.915 73.8127 157.148 77.3042 157.128 80.7467C157.109 83.8623 156.842 87.0297 156.029 90.0516C155.126 93.408 153.513 96.3522 151.268 98.9129C151.007 99.2111 151.442 99.5836 151.721 99.3694C156.74 95.5075 158.009 88.0291 158.16 81.9339C158.248 78.3758 158.044 74.7651 157.496 71.2691C156.941 67.7303 155.913 64.2826 154.075 61.283C153.179 59.8213 152.095 58.4915 150.846 57.3812C151.019 57.4496 151.192 57.5136 151.363 57.5722C153.666 58.3592 156.136 58.329 158.478 57.5863C160.957 56.7998 163.229 55.3791 165.261 53.6667C167.204 52.0294 168.964 50.0691 170.248 47.8036C172.549 43.7408 173.4 38.8711 172.797 34.2444Z" fill="black"/>
<path d="M159.568 29.4524C157.754 29.1069 155.735 29.6486 154.069 30.489C152.919 31.0698 151.865 31.8554 150.957 32.8039C151.164 32.4725 151.375 32.1346 151.497 31.7624C151.867 30.6275 150.924 29.8442 149.906 30.1915C148.621 30.6298 147.455 31.9165 146.67 33.048C145.804 34.2964 145.278 35.7841 145.071 37.3024C145.044 37.4993 145.313 37.5157 145.353 37.3295C145.643 35.9483 146.241 34.6917 147.052 33.5663C147.773 32.5667 148.856 31.4066 150.006 31.0099C151.426 30.52 150.354 32.1543 150.076 32.6091C149.685 33.2473 149.273 34.0552 149.684 34.7789C149.847 35.0661 150.215 35.158 150.431 34.8507C151.48 33.3551 152.864 32.1776 154.451 31.3993C156.071 30.6048 157.727 30.3898 159.477 30.3189C159.995 30.2979 160.093 29.5524 159.568 29.4524Z" fill="black"/>
<path d="M46.0307 48.2644C46.3413 47.9658 45.9614 47.4608 45.6294 47.7372C41.3907 51.2652 38.1923 56.2689 36.263 61.5713C34.3813 66.7434 33.4924 72.6721 34.4285 78.1086C34.6842 79.5932 35.0876 81.0795 35.7252 82.423C36.3102 83.6556 37.1482 85.1046 38.2811 85.8282C38.657 86.0682 39.1155 85.6049 38.8321 85.2084C38.4716 84.7039 38.0384 84.2686 37.6768 83.7628C37.3093 83.2488 36.9924 82.6989 36.7163 82.1225C36.1597 80.9606 35.7592 79.7269 35.4966 78.4474C34.9678 75.8695 34.9183 73.1701 35.1433 70.5315C35.6059 65.105 37.4577 59.7656 40.3151 55.2028C41.9255 52.6311 43.878 50.3342 46.0307 48.2644Z" fill="black"/>
<path d="M85.7173 109.516C84.12 109.219 82.4711 109.151 80.8614 108.913C79.2485 108.674 77.6427 108.381 76.0484 108.039C72.8586 107.355 69.7154 106.449 66.6409 105.34C60.462 103.11 54.5624 100.052 49.127 96.2488C47.618 95.1929 46.157 94.07 44.7151 92.9143C43.2566 91.7452 41.7258 90.6426 40.3222 89.4019C40.2418 89.3308 40.1147 89.4701 40.1919 89.5486C41.3561 90.7316 42.4586 91.9452 43.7121 93.0278C44.9913 94.1326 46.3341 95.1575 47.6953 96.1455C50.3681 98.0853 53.1593 99.8407 56.0452 101.405C61.9033 104.58 68.1484 106.95 74.5949 108.455C76.3967 108.876 78.2134 109.228 80.0431 109.502C81.8758 109.776 83.7988 110.125 85.6594 110.063C85.9872 110.052 86.0486 109.577 85.7173 109.516Z" fill="black"/>
<path d="M149.552 100.114C144.632 103.895 139.317 107.029 133.607 109.164C127.981 111.268 122.077 112.418 116.159 112.623C113.183 112.726 110.176 112.643 107.218 112.308C105.75 110.323 103.127 110.963 101.07 111.524C98.9095 112.113 96.092 113.292 94.1488 111.644C93.8582 111.398 93.4968 111.689 93.4407 112.016C93.2698 113.01 92.0002 113.295 91.2483 113.013C90.2099 112.624 89.5408 111.548 88.9452 110.627C88.7635 110.346 88.297 110.676 88.4667 110.97C89.1832 112.211 90.0679 113.69 91.5408 113.939C92.5417 114.108 93.5841 113.685 94.0837 112.788C95.9504 114.014 98.412 113.388 100.45 112.826C102.162 112.353 104.255 111.657 105.995 112.227C105.839 112.355 105.882 112.695 106.134 112.747C112.116 113.976 118.183 113.989 124.239 112.923C130.217 111.87 136.073 109.821 141.491 106.845C144.562 105.158 147.477 103.195 150.158 100.86C150.637 100.443 150.038 99.7411 149.552 100.114Z" fill="black"/>
<path d="M60.3508 30.4357C56.8416 37.0831 52.2637 43.0624 46.5898 47.7562C46.4821 47.8454 46.5978 48.0239 46.7093 47.9379C52.5453 43.44 57.4713 37.4854 60.5834 30.55C60.6566 30.3869 60.4323 30.2812 60.3508 30.4357Z" fill="black"/>
<path d="M116.981 94.3516C118.568 85.0773 109.888 75.8527 97.5958 73.7478C85.3031 71.643 74.0518 77.455 72.4652 86.7293C70.8787 96.0037 79.5577 105.228 91.8504 107.333C104.143 109.438 115.394 103.626 116.981 94.3516Z" fill="#FFF5EB"/>
<path d="M98.7838 72.3184C97.5677 71.7728 96.0447 71.4431 94.7082 71.4681C93.9913 71.4816 93.2979 71.6181 92.6764 71.8946C87.1048 71.793 81.6323 73.9663 77.9144 77.6753C76.8482 78.739 75.9313 79.9193 75.2062 81.2077C75.1494 81.3085 75.3204 81.3798 75.3806 81.2849C78.1858 76.8654 82.9859 73.6827 88.4737 72.6305C89.6345 72.4079 90.818 72.2876 92.0082 72.2675C91.887 72.3506 91.7697 72.4399 91.6574 72.5369C91.5341 72.6435 91.6707 72.8716 91.8366 72.8435C92.3599 72.7549 92.813 72.565 93.2108 72.2448C93.2705 72.1968 93.2938 72.1369 93.2887 72.081C93.8373 71.9181 94.4299 71.8591 95.0098 71.8825C96.2912 71.9342 97.4303 72.43 98.6681 72.6716C98.8965 72.7161 98.9916 72.4117 98.7838 72.3184Z" fill="black"/>
<path d="M105.019 74.5673C104.555 74.3508 103.948 74.3336 103.44 74.2869C103.338 74.2775 103.236 74.2702 103.134 74.263C103.212 74.1908 103.278 74.1096 103.328 74.0175C103.58 73.5526 103.233 73.0782 102.73 72.9231C102.057 72.7155 101.194 72.8601 100.519 72.9492C99.713 73.0557 98.9487 73.2609 98.2006 73.5423C98.0495 73.5992 98.1379 73.8115 98.2944 73.7648C99.2729 73.472 100.318 73.2975 101.358 73.2897C101.706 73.2871 102.484 73.2117 102.764 73.4831C103.206 73.9111 102.096 74.1874 101.826 74.2227C101.458 74.271 101.52 74.7575 101.892 74.7536C102.436 74.7479 102.979 74.7673 103.522 74.822C103.99 74.8691 104.481 75.0116 104.947 74.9845C105.188 74.9705 105.227 74.6643 105.019 74.5673Z" fill="black"/>
<path d="M112.151 79.0855C110.852 77.9917 109.416 77.0996 107.822 76.4279C107.654 76.3572 107.545 76.581 107.706 76.6611C110.361 77.9842 112.604 79.8711 114.275 82.1874C116.027 84.6162 116.935 87.428 117.073 90.2937C117.153 91.9499 116.902 93.5454 116.515 95.1448C116.472 95.3209 116.778 95.4146 116.849 95.2458C119.167 89.7388 116.892 83.0805 112.151 79.0855Z" fill="black"/>
<path d="M85.9745 106.214C84.2787 105.333 82.6183 104.474 81.0859 103.351C79.5751 102.243 78.2019 100.979 77.0384 99.5589C74.6632 96.661 73.2557 93.165 73.1843 89.5747C73.1434 87.5177 73.5243 85.4335 74.3496 83.5432C74.3842 83.4639 74.2576 83.4074 74.2164 83.4843C72.4375 86.8075 72.3688 90.6792 73.5509 94.2632C74.7045 97.7607 77.1066 100.852 80.1256 103.234C81.8041 104.559 83.7504 105.803 85.8003 106.563C86.0559 106.658 86.215 106.338 85.9745 106.214Z" fill="black"/>
<path d="M58.935 26.5581C58.6038 26.4505 58.3354 26.5127 58.12 26.6724C58.132 26.4749 58.1333 26.2845 58.1359 26.1233C58.1567 24.8233 57.8713 23.5154 57.3257 22.3676C56.8759 21.4214 56.1456 20.4117 55.0027 20.8504C54.5006 21.0431 54.173 21.4571 54.0404 21.9343C52.4588 20.9248 50.6586 20.3664 48.7831 20.2748C47.7179 20.2228 46.6419 20.3281 45.5992 20.6006C44.9646 20.7665 43.3045 21.0921 43.559 22.0983C43.6145 22.3176 43.9743 22.2844 43.9885 22.0497C44.0121 21.6559 45.1484 21.4938 45.4116 21.4327C45.8144 21.3393 46.2199 21.2618 46.6287 21.2118C47.5551 21.0986 48.4995 21.1108 49.415 21.2676C51.2199 21.5767 52.9108 22.3216 54.3465 23.513C54.8104 23.8979 55.4512 23.2837 55.1204 22.7523C54.8267 22.2804 55.2727 21.6663 55.7692 21.9744C56.2125 22.2496 56.4652 23.0886 56.6326 23.5724C56.8347 24.1565 56.9619 24.7631 57.0145 25.3863C57.0416 25.7065 57.0471 26.0267 57.039 26.3487C57.0363 26.4589 57.0453 26.8153 57.0354 27.042C57.0093 27.0611 56.9841 27.0829 56.9609 27.1092C56.9474 27.1244 56.934 27.1396 56.9206 27.1548C56.8093 27.2809 56.7864 27.4813 56.8381 27.6365C56.9605 28.0035 57.3208 28.1393 57.6181 27.962C57.727 28.0174 57.8824 27.9939 57.9453 27.8551C58.0189 27.6925 58.108 27.4309 58.2604 27.3319C58.4528 27.2069 58.6754 27.3336 58.8096 27.4839C59.0744 27.7802 59.1217 28.2825 59.2552 28.6549C59.3524 28.9261 59.7091 28.869 59.7706 28.5966C59.9524 27.7903 59.7492 26.8227 58.935 26.5581Z" fill="black"/>
<path d="M162.341 39.7068C162.444 38.4777 161.873 37.317 160.959 36.6589C161.881 35.9013 162.246 34.5109 161.56 33.3518C160.669 31.8458 158.613 32.0519 157.767 33.5434C157.602 33.8345 158.036 34.1216 158.229 33.8548C158.892 32.9365 160.182 32.8502 160.766 33.8591C161.313 34.8031 160.704 36.0042 159.685 36.1518C159.133 36.2316 159.095 37.0761 159.639 37.1877C160.736 37.4125 161.534 38.5893 161.352 39.7878C161.267 40.3506 160.995 40.8741 160.617 41.2792C160.422 41.488 160.188 41.6741 159.949 41.8196C159.708 41.9662 159.441 42.0189 159.22 42.1994C158.974 42.3991 159.062 42.7916 159.353 42.8578C160.053 43.0171 160.909 42.3616 161.379 41.8518C161.913 41.2745 162.275 40.5103 162.341 39.7068Z" fill="black"/>
<path d="M47.163 34.6472C47.0477 34.2061 46.6842 33.9528 46.4083 33.6283C46.1313 33.3025 45.8837 32.9446 45.6612 32.574C45.2286 31.8535 44.9039 31.0688 44.6576 30.2526C44.151 28.5739 44.1242 26.706 44.6367 25.0052C44.7266 24.707 44.2675 24.5664 44.1515 24.8479C43.3935 26.6868 43.1759 28.6824 43.552 30.6254C43.7379 31.5858 44.0691 32.4901 44.5341 33.3297C44.943 34.0683 45.6513 35.3446 46.5138 35.4813C46.9707 35.5538 47.2787 35.0899 47.163 34.6472Z" fill="black"/>
<path d="M147.712 47.4662C147.487 46.9678 147.031 46.6336 146.693 46.2207C146.336 45.7842 146.026 45.2997 145.781 44.7809C145.294 43.7469 144.959 42.5918 144.827 41.4352C144.795 41.1496 144.415 41.1401 144.355 41.423C144.078 42.7385 144.193 44.0901 144.734 45.3032C144.999 45.8971 145.319 46.4607 145.714 46.9654C146.088 47.4444 146.576 48.0371 147.178 48.152C147.508 48.2151 147.869 47.8162 147.712 47.4662Z" fill="black"/>
<path d="M64.1652 22.673C63.9533 22.0634 63.709 21.4654 63.4795 20.8634C63.3629 20.5574 62.8575 20.6509 62.9184 21.0094C63.0261 21.6434 63.1217 22.282 63.2454 22.9122C63.3527 23.4585 63.4268 24.1243 63.7602 24.5608C63.9714 24.8372 64.483 24.7867 64.5279 24.3666C64.5903 23.7822 64.3521 23.2107 64.1652 22.673Z" fill="black"/>
<path d="M66.2862 20.9193C66.3329 20.3848 66.4172 19.8572 66.5273 19.3321C66.6595 18.7025 65.7983 18.5916 65.628 19.1781C65.4685 19.7279 65.3375 20.2838 65.2494 20.8503C65.1713 21.3525 65.0313 21.9316 65.2318 22.4033C65.3973 22.7925 65.9149 22.8423 66.1089 22.4301C66.3276 21.9657 66.2421 21.4246 66.2862 20.9193Z" fill="black"/>
<path d="M132.301 91.5325C130.88 91.2924 129.413 91.5349 128.16 92.2106C128.21 92.0973 128.26 91.9843 128.309 91.8707C128.432 91.586 128.216 91.2893 127.91 91.3066C127.287 91.3419 126.673 91.4324 126.072 91.5737C126.559 90.956 126.909 90.1151 127.002 89.0712C127.083 87.3851 127.155 85.473 126.287 83.9665C125.862 83.3605 125.265 83.0658 124.64 83.0156C124.826 82.9209 125.02 82.8506 125.222 82.8106C126.085 82.6392 126.949 82.8981 127.627 83.448C128.372 84.0536 128.742 84.9601 129.103 85.8173C129.34 86.3827 130.151 86.3047 130.279 85.7052C130.864 82.961 127.282 80.5432 124.802 81.3195C123.641 81.6828 122.665 82.5901 122.204 83.7133C122.099 83.9692 122.025 84.224 121.978 84.4771C121.881 84.6534 121.802 84.8414 121.748 85.0411C120.107 89.8909 121.425 92.3056 123.154 92.7343C123.08 92.7773 123.005 92.8205 122.932 92.8653C122.619 93.0571 122.947 93.5005 123.258 93.3258C124.522 92.6157 125.896 92.215 127.327 92.1199C127.168 92.4766 127.01 92.8337 126.852 93.1906C126.702 93.5294 127.131 93.969 127.447 93.6888C128.749 92.5366 130.445 92.0515 132.155 92.3869C132.702 92.4942 132.852 91.6256 132.301 91.5325Z" fill="black"/>
<path d="M72.6969 76.4175C72.7729 75.9881 72.8098 75.5551 72.7736 75.1212C72.6992 74.2278 72.3938 73.3154 71.8301 72.609C70.5016 70.9442 68.2493 70.9856 66.4957 71.9322C65.7139 72.3542 64.9963 72.9603 64.4945 73.699C64.1563 74.1968 63.6545 75.6125 64.7087 75.6299C65.5189 75.6431 65.9997 74.4192 66.551 73.9518C67.2121 73.3911 68.03 73.0305 68.8964 72.9615C69.762 72.8927 70.3249 73.2302 70.6852 73.7761C69.2022 73.3916 67.8869 74.715 67.3303 76.2097C66.5064 77.8938 65.71 80.3684 66.7133 82.0206C66.1112 81.7927 65.4611 81.6763 64.8066 81.6803C64.689 81.681 64.5401 81.7835 64.5019 81.896C64.3781 82.2604 64.4429 82.5472 64.6987 82.8375C64.7658 82.9137 65.0589 83.0978 65.3129 83.2852C63.056 82.2233 60.482 82.0416 58.2143 83.2615C58.0962 83.3252 58.1761 83.5407 58.3075 83.5108C60.7683 82.9516 63.5317 82.9989 65.7972 84.2242C65.9194 84.2903 66.0716 84.2397 66.1599 84.1443C66.4324 83.8494 66.4394 83.5167 66.2167 83.1838C66.1312 83.0559 65.7535 82.8082 65.4783 82.588C66.7183 82.93 67.8157 83.5701 68.817 84.4109C69.0289 84.5888 69.2632 84.3204 69.1483 84.1059C69.0121 83.8517 68.8506 83.6181 68.6718 83.4018C70.735 83.8443 72.0512 81.4918 72.361 79.5478C72.5401 78.5844 72.7855 77.4522 72.6969 76.4175Z" fill="black"/>
<path d="M130.734 64.6595C130.987 64.1869 131.038 63.6005 130.779 63.1199C130.65 62.8813 130.353 62.69 130.428 62.3911C130.461 62.2568 130.518 62.1315 130.53 61.9924C130.544 61.8371 130.508 61.6897 130.435 61.5522C130.295 61.2844 130.034 61.0964 129.802 60.9148C129.528 60.7014 129.249 60.493 128.95 60.3159C128.349 59.9592 127.643 59.7503 126.957 59.9781C126.635 60.085 126.341 60.2793 126.141 60.54C126.115 60.5172 126.082 60.5019 126.043 60.5026C125.378 60.5137 125.08 61.3454 125.156 61.9044C125.249 62.5917 125.683 63.2218 126.069 63.7797C126.491 64.3912 127.006 64.9725 127.674 65.3202C128.213 65.6003 128.842 65.7269 129.442 65.6087C129.997 65.4995 130.467 65.1592 130.734 64.6595ZM129.755 65.102C128.681 65.6136 127.501 64.9053 126.81 64.0971C126.564 63.8085 126.35 63.4912 126.15 63.1694C125.974 62.8868 125.792 62.5988 125.673 62.2864C125.562 61.9955 125.505 61.6829 125.601 61.3797C125.665 61.1762 125.787 61.0222 125.944 60.898C125.902 61.0152 125.876 61.14 125.871 61.2725C125.867 61.3959 126.076 61.4152 126.089 61.2903C126.139 60.7979 126.526 60.4565 126.975 60.3021C127.498 60.1225 128.033 60.2426 128.516 60.4838C128.775 60.6133 129.018 60.7737 129.25 60.9462C129.482 61.1184 129.723 61.2929 129.93 61.4951C130.117 61.6775 130.206 61.8591 130.127 62.1162C130.045 62.3835 129.994 62.6098 130.141 62.8678C130.262 63.0792 130.447 63.236 130.522 63.4745C130.586 63.6786 130.584 63.8956 130.537 64.1032C130.44 64.5289 130.152 64.9132 129.755 65.102Z" fill="black"/>
<path d="M66.6472 56.127C67.1022 56.5359 67.7073 56.7495 68.3132 56.7848C69.0648 56.8284 69.8051 56.5931 70.481 56.2844C71.0977 56.0027 71.7934 55.684 72.225 55.1412C72.576 54.6998 72.7461 53.833 72.1805 53.4826C72.1475 53.4622 72.1114 53.4584 72.0774 53.4647C72.0384 53.1379 71.8856 52.8206 71.6639 52.5639C71.1917 52.017 70.478 51.8345 69.7789 51.8328C69.4317 51.8319 69.085 51.8679 68.7409 51.911C68.4481 51.9477 68.1279 51.9756 67.8703 52.1338C67.738 52.2149 67.6312 52.3228 67.5636 52.4632C67.5031 52.5891 67.4875 52.7257 67.4475 52.8582C67.3585 53.1531 67.0054 53.1652 66.7729 53.3043C66.3046 53.5845 66.0483 54.1145 66.0235 54.6498C65.9972 55.2159 66.2266 55.7489 66.6472 56.127ZM66.4774 54.2729C66.5432 54.0705 66.6525 53.883 66.8122 53.7407C66.9989 53.5744 67.2376 53.5343 67.4498 53.4145C67.7084 53.2686 67.7804 53.048 67.8467 52.7763C67.9105 52.515 68.0799 52.4048 68.3334 52.3436C68.6146 52.2758 68.9113 52.2496 69.1986 52.2205C69.4865 52.1913 69.7765 52.1777 70.0655 52.1992C70.6037 52.2393 71.1248 52.4104 71.482 52.8325C71.7888 53.1951 71.9466 53.6867 71.7379 54.1356C71.685 54.2494 71.8746 54.34 71.9338 54.2317C71.9975 54.1154 72.0389 53.9948 72.0627 53.8726C72.134 54.0597 72.1599 54.2544 72.1109 54.4621C72.0379 54.7717 71.8294 55.0111 71.5853 55.2042C71.3232 55.4116 71.0193 55.5655 70.7234 55.7181C70.3864 55.8918 70.0409 56.0551 69.6814 56.1767C68.6745 56.517 67.2985 56.5209 66.6375 55.531C66.3937 55.166 66.3424 54.6881 66.4774 54.2729Z" fill="black"/>
<path d="M95.3321 88.9183C95.3265 88.9578 95.3202 88.997 95.3144 89.0363L95.7387 89.1484C95.7418 89.118 95.7459 89.0877 95.7488 89.0573C97.2093 89.0398 101.265 86.4105 101.883 84.1754C102.769 80.9723 92.1267 79.9195 90.4709 81.7009C89.1048 83.0365 94.1783 88.0786 95.3321 88.9183Z" fill="black"/>
<path d="M96.943 85.3596C96.9348 84.9022 96.1898 84.8767 96.1369 85.3314C95.8244 88.0178 95.7876 91.2168 93.3666 92.9868C92.4072 93.6881 91.16 93.955 90.0584 93.4342C89.0077 92.9376 88.202 91.8552 88.4088 90.6581C88.4715 90.2947 87.9274 90.2057 87.8472 90.5619C87.5514 91.8771 88.2572 93.1325 89.3458 93.8499C90.4877 94.6024 91.8915 94.6425 93.1183 94.0627C96.3907 92.5162 97.0013 88.6182 96.943 85.3596Z" fill="black"/>
<path d="M96.4666 85.2779C96.6265 84.8493 97.3376 85.0732 97.2362 85.5196C96.6377 88.157 95.6088 91.1861 97.3034 93.661C97.9749 94.6417 99.0624 95.3084 100.274 95.184C101.43 95.0653 102.55 94.3126 102.753 93.1149C102.815 92.7512 103.358 92.8485 103.315 93.2111C103.156 94.5499 102.073 95.4989 100.808 95.8131C99.4812 96.1427 98.1439 95.7134 97.1798 94.7584C94.6079 92.2108 95.3283 88.3316 96.4666 85.2779Z" fill="black"/>
<path d="M153.773 92.5756C153.855 91.8565 153.856 91.132 153.782 90.4123C153.704 89.6546 153.639 88.8334 153.039 88.3018C152.595 87.9083 151.891 88.099 151.642 88.6098C151.345 89.2161 151.523 89.8856 151.538 90.5329C151.551 91.1147 151.504 91.702 151.433 92.2793C151.393 92.6028 151.337 92.92 151.267 93.2325C150.775 92.0907 148.788 92.3802 149.006 93.7759C149.092 94.3327 149.097 94.8871 149.019 95.4244C148.992 95.2524 148.97 95.0789 148.956 94.9023C148.795 93.6015 146.875 93.8006 146.937 95.1039C146.952 95.4307 146.982 95.7571 147.027 96.0814C147.041 96.5825 147.003 97.0813 146.904 97.5862C146.824 97.9975 146.697 98.3794 146.55 98.7536C146.193 98.274 145.912 97.7311 145.731 97.1886C145.622 96.8623 145.078 96.9791 145.136 97.3276C145.225 97.8667 145.285 98.4447 145.441 98.9665C145.607 99.5182 145.819 100.061 146.018 100.601C146.243 101.213 147.075 101.348 147.491 100.853C147.854 100.422 148.145 99.9296 148.373 99.4024C148.804 99.6441 149.352 99.6129 149.734 99.1617C150.216 98.5913 150.605 97.9512 150.889 97.2699C151.448 97.5874 152.224 97.2305 152.501 96.6964C153.165 95.4187 153.61 94.0075 153.773 92.5756Z" fill="#C9AB8B"/>
<path d="M155.783 77.1469C155.708 76.6366 155.63 76.126 155.533 75.6192C155.325 74.5309 155.077 73.4488 154.816 72.372C154.328 70.3568 153.762 68.3561 153.092 66.3933C151.976 63.1216 150.35 59.2339 147.24 57.4002C146.9 57.1303 146.398 57.6016 146.67 57.9616C147.722 59.3493 148.771 60.7214 149.598 62.2601C150.435 63.8145 151.046 65.4845 151.592 67.1595C152.215 69.0716 152.749 71.0171 153.198 72.9773C153.428 73.9847 153.624 74.9978 153.824 76.0114C153.917 76.483 154.017 76.9529 154.108 77.4251C154.206 77.9393 154.216 78.5428 154.577 78.9458C154.914 79.3209 155.539 79.3579 155.777 78.8391C156.03 78.2901 155.869 77.7229 155.783 77.1469Z" fill="#C9AB8B"/>
<path d="M50.5986 46.6356C47.4564 48.3858 44.8435 50.9194 42.6376 53.745C41.535 55.1574 40.5557 56.6735 39.6971 58.2459C39.2665 59.0344 38.8678 59.8369 38.5209 60.6658C38.3633 61.0424 38.1668 61.4322 38.0659 61.8282C37.9508 62.28 37.8852 62.7516 37.7665 63.2117C37.6258 63.7568 38.4673 63.9963 38.696 63.5035C38.8917 63.0819 39.133 62.7296 39.3594 62.3325C39.5772 61.9503 39.7231 61.5041 39.9124 61.1064C40.2703 60.3544 40.6371 59.6054 41.0349 58.8736C41.8475 57.3791 42.7805 55.9577 43.8058 54.601C45.8836 51.8517 48.424 49.4938 51.0647 47.2946C51.4692 46.9576 51.0496 46.3843 50.5986 46.6356Z" fill="#C9AB8B"/>
<path d="M39.3509 80.997C39.2628 79.2828 39.1576 77.4686 39.5116 75.7644C39.6514 75.3718 39.7623 74.9675 39.8458 74.5541C39.971 73.9341 39.3165 73.6718 38.885 73.9059C39.162 72.8403 39.4577 71.7791 39.7573 70.7197C39.9754 69.9484 38.6748 69.5342 38.4022 70.2942C38.2546 70.7056 38.089 71.1077 37.9088 71.5022C38.1074 70.2177 38.3801 68.9461 38.7559 67.6867C38.8883 67.243 38.1803 67.0456 37.9929 67.4471C36.944 69.6939 36.2287 72.1502 36.0833 74.6363C36.0545 75.1295 36.5182 75.5808 36.9573 75.5113C36.8556 76.1493 36.8742 76.7947 37.1872 77.3897C37.3162 77.6349 37.5736 77.8356 37.8456 77.8984C37.7367 78.9665 37.7539 80.0417 37.993 81.1325C38.1771 81.9729 39.397 81.8965 39.3509 80.997Z" fill="#C9AB8B"/>
<path d="M69.3886 77.4607C69.3715 77.296 69.3153 77.146 69.2202 77.0105C69.0674 76.8128 68.8624 76.6696 68.6111 76.6265C68.4843 76.5999 68.3606 76.6061 68.2402 76.6453C68.1188 76.663 68.0085 76.7099 67.909 76.786C67.8041 76.8545 67.7232 76.9431 67.6662 77.0517C67.5892 77.1523 67.5421 77.2669 67.5251 77.3954C67.5221 77.4794 67.5191 77.5635 67.5161 77.6477C67.5333 77.8124 67.5894 77.9624 67.6845 78.0979C67.8374 78.2955 68.0424 78.4388 68.2937 78.4819C68.4205 78.5086 68.5441 78.5023 68.6646 78.4632C68.7859 78.4455 68.8964 78.3986 68.9958 78.3225C69.1006 78.2539 69.1815 78.1654 69.2386 78.0568C69.3155 77.9562 69.3625 77.8416 69.3796 77.7131C69.3826 77.6289 69.3856 77.5449 69.3886 77.4607Z" fill="white"/>
<path d="M124.161 86.8245C124.168 86.7481 124.174 86.6715 124.181 86.5951C124.201 86.3636 124.173 86.1481 124.035 85.9531C123.914 85.7809 123.692 85.6289 123.479 85.6022C123.258 85.5745 123.018 85.6076 122.837 85.7479C122.648 85.8941 122.546 86.0732 122.486 86.3048C122.467 86.3791 122.448 86.4534 122.429 86.5278C122.376 86.7351 122.458 87.0146 122.578 87.1839C122.702 87.3599 122.929 87.5153 123.147 87.5426C123.373 87.5709 123.617 87.5371 123.803 87.3937C123.978 87.2579 124.141 87.0546 124.161 86.8245Z" fill="white"/>
<path d="M97.566 82.4391C97.3651 81.6888 95.938 81.4161 95.281 81.3375C94.2629 81.2158 93.4217 81.7402 92.6498 82.323C92.2486 82.6259 92.5792 83.317 93.0717 83.1188C93.7777 82.8349 94.5685 82.9016 95.3181 82.8066C95.6991 82.7583 96.0152 82.7599 96.397 82.8292C96.7294 82.8896 97.0467 83.0134 97.3691 82.8734C97.5483 82.7956 97.6153 82.6231 97.566 82.4391Z" fill="white"/>
<path d="M142.704 99.8399C141.691 100.497 140.703 101.188 139.699 101.857C139.225 102.173 138.674 102.391 138.176 102.689C137.627 103.017 137.06 103.304 136.502 103.616C134.472 104.751 132.367 105.761 130.184 106.565C125.718 108.208 121.033 109.116 116.268 109.166C113.55 109.195 110.896 108.76 108.194 108.598C107.617 108.563 107.254 109.372 107.867 109.639C110.11 110.615 112.69 110.945 115.115 111.093C117.654 111.247 120.196 111.182 122.715 110.818C127.659 110.105 132.62 108.522 136.878 105.87C137.471 105.5 138.037 105.112 138.592 104.69C139.153 104.262 139.755 103.871 140.211 103.331C140.644 102.817 141.256 102.428 141.74 101.954C142.256 101.45 142.723 100.91 143.166 100.342C143.408 100.032 143.035 99.6256 142.704 99.8399Z" fill="#C9AB8B"/>
<path d="M98.201 111.664C98.233 111.293 98.0363 111.012 97.6729 110.918C97.2071 110.796 96.7673 111.128 96.3184 111.232C95.9024 111.327 95.4935 111.358 95.0733 111.269C94.0955 111.06 93.4219 110 92.3278 110.42C91.9987 110.546 91.7248 110.796 91.5135 111.073C91.3912 111.232 91.1756 111.485 91.0466 111.718C90.9644 111.581 90.8552 111.435 90.8275 111.387C90.4759 110.787 90.1818 110.4 89.6411 109.982C89.4637 109.845 89.2291 109.98 89.2355 110.197C89.246 110.555 89.2237 110.822 89.3353 111.176C89.4453 111.526 89.6217 111.866 89.7696 112.2C90.0019 112.725 90.2686 113.281 90.8889 113.411C91.8117 113.605 92.259 112.778 92.7317 112.17C92.7778 112.111 92.8233 112.051 92.8736 111.995C92.8772 111.991 92.8795 111.99 92.8828 111.986C93.1253 112.085 93.3466 112.323 93.5683 112.458C94.0349 112.741 94.5763 112.928 95.119 112.993C95.7042 113.062 96.3339 113.038 96.8927 112.837C97.4232 112.647 98.1474 112.288 98.201 111.664Z" fill="#C9AB8B"/>
<path d="M110.299 101.177C109.798 98.153 106.354 101.289 104.816 101.813C97.1483 105.82 87.0689 103.983 80.1163 98.7166C79.4034 98.2005 78.4795 98.9723 78.9845 99.6746C85.4402 109.158 103.819 110.481 110.299 101.177Z" fill="#F5E5D5"/>
<path d="M115.105 98.7585C114.824 99.1068 114.558 99.4629 114.268 99.806C113.978 100.15 113.669 100.483 113.355 100.813C112.727 101.473 112.04 102.094 111.305 102.676C109.841 103.835 108.167 104.82 106.348 105.601C104.461 106.411 102.405 106.994 100.269 107.314C97.976 107.658 95.5879 107.722 93.2199 107.499C92.488 107.429 91.7588 107.333 91.0342 107.212C91.0491 107.311 91.0641 107.411 91.0777 107.51C91.4813 107.58 91.8864 107.642 92.2926 107.694C94.6985 108.005 97.138 108.034 99.4961 107.755C101.718 107.492 103.862 106.965 105.848 106.187C107.746 105.444 109.494 104.489 111.044 103.35C112.593 102.212 113.92 100.898 114.963 99.4189C115.09 99.2399 115.207 99.0591 115.314 98.8711C115.369 98.775 115.18 98.6659 115.105 98.7585Z" fill="black"/>
<path d="M59.1997 108.737C56.6465 109.618 54.4743 111.483 52.6637 113.44C50.8032 115.451 49.2706 117.771 48.1697 120.28C47.5453 121.704 47.0481 123.166 46.7805 124.699C46.7341 124.965 47.1144 125.081 47.1917 124.812C47.9315 122.24 48.9103 119.778 50.3604 117.518C51.7841 115.3 53.5729 113.32 55.634 111.677C56.8208 110.731 58.0852 109.89 59.3075 108.993C59.425 108.907 59.3619 108.681 59.1997 108.737Z" fill="black"/>
<path d="M154.476 125.742C154.342 125.076 154.18 124.419 154.004 123.763C153.652 122.453 153.143 121.2 152.561 119.975C151.401 117.538 149.91 115.335 148.054 113.375C147.001 112.264 145.836 111.25 144.626 110.313C144.455 110.18 144.21 110.407 144.381 110.558C146.368 112.316 147.968 114.369 149.407 116.587C150.106 117.664 150.762 118.759 151.329 119.912C151.911 121.095 152.338 122.319 152.817 123.544C153.083 124.224 153.307 124.916 153.503 125.62C153.706 126.349 153.951 127.052 154.163 127.777C154.239 128.037 154.658 127.997 154.647 127.711C154.621 127.039 154.608 126.404 154.476 125.742Z" fill="black"/>
<path d="M140.234 117.308C140.051 116.192 139.777 115.099 139.442 114.02C139.27 113.464 139.083 112.921 138.856 112.385C138.65 111.897 138.466 111.307 138.104 110.914C137.862 110.651 137.49 110.934 137.548 111.239C137.64 111.732 137.965 112.215 138.161 112.678C138.375 113.181 138.588 113.69 138.776 114.204C139.152 115.235 139.438 116.305 139.654 117.38C140.093 119.559 140.273 121.735 140.1 123.956C140.092 124.052 140.257 124.076 140.27 123.979C140.566 121.781 140.594 119.498 140.234 117.308Z" fill="black"/>
<path d="M56.8199 14.4858C56.6417 13.8753 56.3875 13.2759 56.1026 12.7084C55.5462 11.6 54.6633 10.7118 53.7201 9.92953C53.2134 9.50925 52.2874 10.0623 52.7308 10.6932C53.3456 11.568 53.7184 12.5648 54.0398 13.5784C54.1777 14.0134 54.3171 14.6205 54.3716 14.9705C54.4211 15.2884 54.4465 15.6029 54.5526 15.9058C54.6649 16.2265 54.8709 16.504 55.0338 16.8002C55.4443 17.5462 56.4145 17.259 56.6856 16.5841C56.9738 15.8672 57.0395 15.2379 56.8199 14.4858Z" fill="#EBD8C5"/>
<path d="M60.7574 14.7474C60.7156 14.4557 60.6627 14.166 60.5974 13.8787C60.4722 13.3275 60.3025 12.7878 60.094 12.2625C59.63 11.093 58.9672 10.0623 58.1572 9.10224C57.2902 8.0745 55.611 9.40422 56.3077 10.5299C56.8242 11.3645 57.1584 12.1512 57.4458 13.0763C57.5895 13.5388 57.7019 14.0106 57.7823 14.4882C57.7858 14.509 57.8051 14.6404 57.8132 14.6914C57.8183 14.7521 57.8385 14.9524 57.8414 14.9803C57.8898 15.4503 57.9842 15.831 58.2819 16.1549C58.3944 16.4982 58.5082 16.8357 58.6545 17.1727C58.9077 17.7559 59.8206 17.6801 60.097 17.1727C60.3081 16.785 60.4319 16.3932 60.5221 15.9711C60.7493 15.6092 60.8272 15.2359 60.7574 14.7474Z" fill="#EBD8C5"/>
<path d="M63.7151 15.168C63.6764 14.1046 63.4588 13.073 63.1225 12.0661C62.7297 10.8902 61.0338 11.3661 61.2739 12.576C61.4624 13.5258 61.48 14.4757 61.5361 15.4385C61.5647 15.9294 61.6317 16.4515 61.7125 16.9366C61.7941 17.4257 62.1408 17.9017 62.698 17.7811C63.5933 17.5871 63.7414 15.8947 63.7151 15.168Z" fill="#EBD8C5"/>
<path d="M96.0355 17.4427C94.893 17.1103 93.6647 17.6211 92.5636 18.1779C92.6913 17.9249 92.7467 17.6347 92.7092 17.3851C92.6084 16.7145 92.1007 16.3323 91.4451 16.2686C91.2064 16.2454 90.9677 16.2241 90.7286 16.2067C90.7452 16.2079 90.5847 16.1968 90.4966 16.1916C90.3377 16.1556 90.1767 16.131 90.0134 16.1194C89.5178 16.1029 89.0086 16.1724 88.5177 16.2329C87.4809 16.361 86.4503 16.5244 85.4305 16.753C83.4529 17.1962 81.5513 17.8643 79.7094 18.708C76.17 20.3292 72.9305 22.6463 70.2946 25.5149C68.7517 27.1941 67.597 29.1109 66.5796 31.1405C66.0468 32.2036 67.4924 33.0368 68.164 32.067C69.1985 30.5731 70.4774 29.2746 71.7403 27.9733C72.4058 27.2876 73.0973 26.6297 73.8245 26.0096C74.1381 25.7422 74.4579 25.4823 74.7821 25.2281C74.8546 25.1722 75.0619 25.0113 75.0534 25.0179C75.1025 24.9798 75.1345 24.9549 75.1545 24.9391C75.1702 24.9275 75.1885 24.9139 75.2104 24.8977C75.4021 24.7556 75.5931 24.6126 75.7869 24.4735C77.3007 23.387 78.9181 22.4443 80.6084 21.6604C80.8253 21.5598 81.0443 21.4638 81.2627 21.3666C81.2815 21.3582 81.3328 21.3364 81.3676 21.3216C81.43 21.2958 81.4923 21.2699 81.5549 21.2445C82.0192 21.056 82.4885 20.8817 82.9611 20.7152C83.8396 20.4057 84.7253 20.1229 85.6278 19.8914C86.6337 19.6334 87.6535 19.4304 88.6819 19.2853C88.6965 19.2835 88.7127 19.2815 88.731 19.2794C88.8732 19.2624 89.0156 19.2465 89.1577 19.2291C89.4623 19.1916 89.7674 19.156 90.0715 19.1151C90.4204 19.0682 90.7659 18.9907 91.1137 18.919C89.8641 19.5413 88.6135 20.1614 87.3625 20.7807C86.3591 21.2775 87.0624 22.9969 88.1327 22.6086C89.5662 22.0885 90.9998 21.5688 92.4347 21.0527C93.8189 20.5549 95.7987 20.0799 96.5348 18.6703C96.7855 18.19 96.5716 17.5987 96.0355 17.4427Z" fill="#EBD8C5"/>
<path d="M123.872 27.2307C124.02 27.3524 124.011 27.3442 123.968 27.3084C123.936 27.2827 123.904 27.2572 123.873 27.2312C123.872 27.231 123.872 27.2309 123.872 27.2307Z" fill="#EBD8C5"/>
<path d="M128.613 28.6465C128.562 28.4159 128.563 28.1755 128.51 27.9463C128.452 27.7023 128.325 27.4763 128.209 27.2553C127.989 26.8327 127.723 26.4457 127.441 26.062C127.368 25.9623 127.293 25.8639 127.219 25.7649C127.229 25.7894 127.239 25.8139 127.249 25.8384C127.337 26.052 127.288 25.9368 127.102 25.493C126.937 25.2105 126.677 24.988 126.44 24.7679C126.085 24.4383 125.719 24.1214 125.341 23.8181C123.69 22.4926 121.821 21.5119 119.85 20.7527C117.845 19.9807 115.721 19.5901 113.599 19.2995C111.601 19.0258 109.547 18.6926 107.524 18.7268C105.549 18.7602 103.701 19.333 102.332 20.688C102.304 20.4646 102.146 20.2658 101.877 20.2856C101.565 20.3086 101.281 20.2156 100.987 20.3629C100.682 20.5157 100.399 20.7377 100.114 20.9242C99.5611 21.2856 99.0066 21.6446 98.4528 22.0046C98.0709 22.2528 98.3056 22.9549 98.7799 22.7808C99.42 22.5458 100.06 22.3097 100.7 22.0767C100.984 21.9735 101.269 21.8748 101.549 21.7604C101.389 22.5576 102.441 23.3807 103.192 22.8813C103.343 22.7805 103.497 22.6847 103.658 22.5997C103.864 22.4914 103.969 22.4461 104.126 22.391C104.332 22.3188 104.812 22.1976 105.135 22.1401C105.248 22.1199 105.362 22.1042 105.475 22.0863C105.489 22.084 105.529 22.077 105.57 22.0697C105.618 22.0636 105.726 22.048 105.752 22.0454C105.845 22.0363 105.937 22.0288 106.03 22.0226C106.456 21.9944 106.881 22.004 107.308 22.0167C108.124 22.0409 108.93 22.1073 109.741 22.2063C109.838 22.2209 109.936 22.234 110.033 22.2481C110.298 22.2862 110.562 22.3247 110.826 22.3637C111.355 22.4418 111.884 22.5225 112.411 22.6095C114.404 22.9381 116.376 23.3706 118.281 24.0527C118.481 24.1246 118.68 24.1997 118.878 24.2779C118.919 24.294 118.959 24.3106 119 24.327C118.979 24.3184 119.008 24.3302 119.048 24.3466C119.087 24.3622 119.125 24.3776 119.163 24.393C119.12 24.3755 119.086 24.362 119.061 24.3517C119.093 24.3651 119.129 24.3802 119.149 24.3893C119.569 24.5789 119.985 24.7749 120.392 24.9894C121.164 25.3957 121.897 25.8583 122.617 26.3496C123.038 26.6373 123.46 26.9214 123.869 27.2267C123.871 27.2277 123.872 27.2291 123.874 27.2302C123.873 27.2297 123.873 27.2293 123.872 27.2288C123.873 27.2294 123.874 27.2301 123.874 27.2307C123.898 27.249 123.942 27.2842 123.97 27.3079C124.037 27.3619 124.105 27.4157 124.172 27.4705C124.289 27.567 124.406 27.6619 124.527 27.755C124.709 27.8961 124.937 27.947 125.134 28.0429C125.128 28.0555 125.257 28.1688 125.303 28.2008C125.406 28.2715 125.507 28.3431 125.608 28.4158C125.808 28.5604 126.003 28.712 126.207 28.8513C126.408 28.9879 126.605 29.1358 126.821 29.2446C127.042 29.3558 127.287 29.3915 127.506 29.4973C128.104 29.7858 128.758 29.3125 128.613 28.6465Z" fill="#EBD8C5"/>
<path d="M118.999 24.3269C119.008 24.3308 119.027 24.3385 119.061 24.352C119.056 24.3502 119.052 24.3485 119.048 24.3468C119.032 24.3402 119.015 24.3336 118.999 24.3269Z" fill="#EBD8C5"/>
<path d="M151.095 23.5905C151.539 23.3184 151.868 23.1673 152.34 23.0273C152.406 23.0075 152.613 22.9795 152.781 22.9415C152.873 22.9944 152.971 23.0364 153.071 23.0645C153.221 23.1136 153.394 23.1252 153.581 23.0943C153.637 23.0847 153.692 23.0764 153.747 23.0691C154.592 22.9479 154.843 21.8533 154.5 21.2176C153.579 19.5108 151.239 20.6816 150.121 21.5078C148.95 22.3742 148.111 23.5754 147.602 24.9401C147.382 25.5304 147.925 25.9462 148.438 25.9152C147.93 26.6339 148.883 27.6994 149.715 27.214C150.634 26.677 151.612 26.4283 152.674 26.4322C153.451 26.435 154.04 25.7311 153.938 24.9739C153.828 24.1601 153.096 23.77 152.332 23.9038C151.231 24.0969 150.197 24.5612 149.287 25.2026C149.774 24.5312 150.38 24.0285 151.095 23.5905Z" fill="#EBD8C5"/>
<path d="M169.571 31.8109C169.481 30.2253 169.093 28.6486 168.323 27.2527C167.589 25.9201 166.432 24.7288 165.019 24.1322C163.679 23.5665 162.205 23.4238 160.766 23.588C160.307 23.6404 159.848 23.706 159.394 23.7941C158.993 23.8722 158.662 24.07 158.314 24.2433C157.971 24.4139 157.573 24.5414 157.212 24.7024C156.855 24.8624 156.519 25.0705 156.163 25.2393C155.519 25.5442 155.825 26.6448 156.529 26.5923C156.928 26.5624 157.319 26.5801 157.717 26.5653C158.067 26.5524 158.429 26.5054 158.78 26.5288C158.698 26.5118 158.732 26.5178 158.883 26.5466C159.051 26.5817 159.221 26.6072 159.392 26.6232C159.596 26.6312 159.801 26.6025 160.004 26.5914C160.359 26.5722 160.714 26.566 161.069 26.5784C161.27 26.5854 161.469 26.604 161.669 26.6173C161.713 26.6223 161.747 26.6261 161.771 26.6287C161.842 26.6402 161.913 26.6515 161.984 26.665C162.321 26.7293 162.64 26.833 162.968 26.9293C163.023 26.9507 163.059 26.9645 163.081 26.9722C163.133 26.9962 163.184 27.0193 163.235 27.0448C163.409 27.1328 163.579 27.2306 163.747 27.3306C163.877 27.4085 164.005 27.4906 164.13 27.5772C164.139 27.5931 164.353 27.7688 164.394 27.8083C164.517 27.9257 164.626 28.0544 164.745 28.1757C164.779 28.2174 164.803 28.2462 164.819 28.2643C164.851 28.309 164.884 28.3532 164.914 28.3988C165.122 28.7056 165.277 29.0326 165.453 29.3566C165.456 29.3636 165.458 29.3684 165.461 29.3744C165.483 29.4327 165.507 29.4909 165.528 29.5498C165.595 29.7354 165.655 29.9236 165.709 30.1136C165.763 30.3037 165.81 30.4956 165.851 30.6888C165.859 30.7264 165.913 31.0184 165.926 31.0831C165.929 31.1067 165.932 31.1329 165.936 31.1642C165.949 31.287 165.96 31.41 165.969 31.5333C165.988 31.7802 166.003 32.0267 166.024 32.2735C166.067 32.7795 166.055 33.2949 166.122 33.7972C166.186 34.2705 166.255 34.6485 166.305 35.0598C166.34 35.3474 166.341 35.6599 166.427 35.9369C166.495 36.1585 166.599 36.3641 166.669 36.5856C166.891 37.2943 167.852 37.437 168.245 36.7918C168.474 36.4175 168.704 36.0961 168.86 35.6797C169 35.3066 169.123 34.9255 169.244 34.5456C169.512 33.6975 169.621 32.7035 169.571 31.8109Z" fill="#EBD8C5"/>
<path d="M48.5344 11.3777C45.766 11.4922 43.247 12.7102 41.167 14.496C40.1013 15.4109 39.193 16.4848 38.3931 17.6368C37.9819 18.2289 37.6037 18.8436 37.2526 19.4731C36.8815 20.1383 36.6583 20.8762 36.3629 21.5789C35.7311 23.0824 35.0031 24.6889 34.7682 26.3097C34.6551 27.09 35.5933 27.564 36.0696 26.8586C36.5684 26.1196 36.8953 25.2994 37.2636 24.4898C37.6321 23.6803 38.0164 22.8776 38.4325 22.0914C38.6436 21.6923 38.9253 21.3544 39.1485 20.9674C39.3426 20.6311 39.5212 20.2864 39.7202 19.9526C40.1409 19.2467 40.5945 18.551 41.1143 17.9136C42.963 15.6466 45.5334 13.7464 48.5342 13.5697C49.125 13.5349 49.6297 13.0908 49.6297 12.4737C49.6298 11.8989 49.1283 11.3532 48.5344 11.3777Z" fill="#EBD8C5"/>
<path d="M68.2376 109.245C67.8448 109.935 67.4348 110.64 67.149 111.382C66.8806 112.079 66.6542 112.795 66.4451 113.512C66.0264 114.948 65.7086 116.414 65.4929 117.894C65.2715 119.413 65.13 120.94 65.1072 122.475C65.096 123.223 65.1105 123.972 65.1509 124.719C65.1704 125.078 65.1912 125.438 65.2275 125.796C65.2767 126.281 65.5222 126.638 65.6154 127.088C65.9605 128.753 66.4092 130.36 67.1665 131.886C67.4193 132.396 68.3164 132.168 68.2637 131.589C68.1355 130.181 67.9419 128.777 67.8589 127.364C67.8438 127.107 67.7797 126.79 67.8211 126.536C67.858 126.311 67.9691 126.122 67.9732 125.879C67.977 125.661 67.932 125.434 67.9152 125.216C67.8597 124.498 67.8282 123.778 67.8206 123.057C67.7906 120.205 68.119 117.524 68.8438 114.777C69.0487 114.001 69.2827 113.232 69.5459 112.473C69.8166 111.692 70.0106 110.887 70.2647 110.1C70.6535 108.896 68.8553 108.16 68.2376 109.245Z" fill="#EBD8C5"/>
<path d="M79.7096 166.78C79.1871 165.946 78.7065 165.072 78.2511 164.2C77.3192 162.414 76.5971 160.533 75.8811 158.653C74.2906 154.477 72.9891 150.197 71.9602 145.848C71.3848 143.416 70.8509 140.98 70.4285 138.516C70.2455 137.448 68.3781 137.684 68.5188 138.774C69.1117 143.365 70.0077 147.884 71.2697 152.338C72.475 156.592 73.8678 160.894 75.8636 164.85C76.4079 165.929 77.0197 166.929 77.7618 167.883C78.4242 168.735 79.2812 169.899 80.4862 169.84C80.7196 169.829 80.8812 169.661 80.897 169.429C80.9655 168.424 80.2117 167.582 79.7096 166.78Z" fill="#EBD8C5"/>
<path d="M70.2692 54.2083C70.7535 53.2025 70.3186 51.5844 68.8872 51.8841C68.0141 52.0669 67.4864 53.068 67.6247 53.9094C67.6945 54.334 67.9373 54.7119 68.3386 54.8936C68.5628 54.9951 68.8094 55.0075 69.0536 54.9629C69.5677 54.9893 69.9436 54.7417 70.1766 54.3756C70.2227 54.324 70.2527 54.2673 70.2692 54.2083ZM68.7907 53.5253C68.8167 53.3377 68.9675 53.015 69.1477 52.9974C69.4291 52.9699 69.4942 53.4036 69.3667 53.7163C69.2811 53.7633 69.1926 53.8014 69.0914 53.8207C69.0201 53.8359 68.948 53.8415 68.8751 53.8376C68.933 53.9107 68.9286 53.9122 68.8617 53.8421C68.7843 53.7662 68.7728 53.6546 68.7907 53.5253Z" fill="#EBD8C5"/>
<path d="M31.9607 130.796C31.3168 130.391 30.5268 130.265 29.7887 130.117C28.9927 129.958 28.1852 129.799 27.3798 129.72C25.8132 129.567 24.2637 129.597 22.7405 130.017C20.1315 130.736 17.7737 132.374 16.3331 134.689C15.5672 135.92 15.1604 137.393 15.1211 138.836C15.0986 139.663 16.4843 139.891 16.6004 139.036C16.9831 136.219 19.0455 133.943 21.5572 132.759C22.2354 132.439 22.9822 132.202 23.7321 132.034C24.5655 131.847 25.4268 131.672 26.2779 131.607C27.1761 131.538 28.0957 131.502 28.9908 131.584C29.8723 131.666 30.782 131.951 31.6635 131.893C32.2408 131.855 32.4716 131.117 31.9607 130.796Z" fill="#EBD8C5"/>
<path d="M38.6638 131.903C38.0414 131.324 37.3745 130.79 36.6821 130.297C35.3691 129.362 33.8801 128.682 32.355 128.173C31.4959 127.886 30.9063 129.245 31.7325 129.65C33.0556 130.299 34.2904 131.114 35.4261 132.053C35.9878 132.517 36.5201 133.017 37.0188 133.548C37.2688 133.815 37.5085 134.091 37.7497 134.365C38.1398 134.809 38.4855 135.075 39.0964 135.12C39.6831 135.163 40.0319 134.623 40.096 134.12C40.2104 133.221 39.261 132.458 38.6638 131.903Z" fill="#EBD8C5"/>
<path d="M43.5488 133.559C43.4844 132.987 43.3699 132.582 43.0321 132.114C42.7653 131.743 42.4881 131.377 42.1953 131.027C41.6553 130.381 41.0109 129.81 40.363 129.275C39.3905 128.472 38.121 129.704 38.9687 130.67C39.4689 131.24 39.9009 131.842 40.3381 132.461C40.5585 132.772 40.7736 133.087 40.9756 133.411C41.2578 133.864 41.5414 134.155 41.9828 134.458C42.5948 134.877 43.6355 134.33 43.5488 133.559Z" fill="#EBD8C5"/>
<path d="M154.079 135.463C153.803 135.117 153.256 134.95 152.86 135.22C152.17 135.689 151.452 136.102 150.823 136.652C150.223 137.176 149.639 137.716 149.061 138.263C147.924 139.34 146.857 140.494 145.829 141.675C143.792 144.017 141.757 146.608 140.505 149.473C140.147 150.292 139.816 151.123 139.544 151.975C139.271 152.827 139.116 153.742 138.976 154.627C138.808 155.686 140.28 156.146 140.613 155.079C141.477 152.31 142.939 149.642 144.603 147.272C146.301 144.854 148.413 142.722 150.507 140.583C151.117 139.959 151.739 139.346 152.348 138.721C152.965 138.088 153.457 137.394 154.005 136.704C154.298 136.335 154.394 135.859 154.079 135.463Z" fill="#EBD8C5"/>
<path d="M159.638 132.565C158.136 132.969 156.797 133.732 155.662 134.793C154.541 135.84 153.789 137.126 153.355 138.594C153.141 139.317 154.216 139.785 154.581 139.111C155.755 136.948 157.816 135.24 160.199 134.6C161.508 134.247 160.953 132.212 159.638 132.565Z" fill="#EBD8C5"/>
<path d="M177.461 131.904C176.871 131.708 176.273 131.552 175.674 131.386C175.104 131.228 174.608 130.999 174.051 130.816C173.398 130.601 172.701 130.477 172.013 130.447C170.77 130.392 169.489 130.537 168.266 130.752C165.643 131.214 163.144 132.566 161.303 134.492C160.97 134.839 160.957 135.406 161.303 135.751C161.673 136.122 162.185 136.053 162.561 135.751C164.357 134.31 166.456 133.735 168.695 133.357C168.739 133.349 168.772 133.343 168.796 133.339C168.82 133.337 168.853 133.333 168.897 133.328C169.037 133.312 169.176 133.297 169.316 133.284C169.597 133.257 169.879 133.238 170.161 133.226C170.78 133.199 171.395 133.221 172.013 133.237C173.189 133.266 174.347 132.97 175.488 133.14C176.057 133.225 176.615 133.356 177.177 133.471C177.618 133.561 178.567 133.601 178.611 132.958C178.649 132.4 177.885 132.045 177.461 131.904Z" fill="#EBD8C5"/>
<path d="M125.538 117.864C125.472 117.314 125.04 116.873 124.446 117.031C123.782 117.208 123.421 117.82 122.968 118.289C122.78 118.483 122.555 118.66 122.371 118.884C122.282 118.993 122.189 119.099 122.098 119.207C122.496 117.797 120.231 116.857 119.564 118.232C119.027 119.338 118.402 120.307 117.652 121.187C117.676 120.887 117.739 120.565 117.82 120.233C117.945 120.121 118.034 119.969 118.063 119.777C118.116 119.433 118.163 119.089 118.224 118.747C118.314 118.236 118.164 117.719 117.694 117.443C117.28 117.201 116.619 117.236 116.295 117.624C115.869 118.135 115.571 118.628 115.35 119.259C115.311 119.371 115.276 119.482 115.244 119.595C115.077 118.892 113.881 118.724 113.58 119.588C110.606 128.138 108.794 137.05 108.126 146.079C108.082 146.677 108.058 147.277 108.035 147.877C108.01 148.517 108.138 149.132 108.141 149.767C108.147 151.058 108.233 152.353 108.312 153.641C108.362 154.45 109.525 154.453 109.572 153.641C109.638 152.498 109.72 151.357 109.822 150.218C109.866 149.729 109.966 149.264 110.047 148.781C110.147 148.19 110.15 147.576 110.194 146.978C110.358 144.761 110.519 142.548 110.781 140.34C111.301 135.955 112.129 131.612 113.17 127.322C113.708 125.109 114.318 122.915 114.996 120.742C114.984 120.821 114.973 120.901 114.963 120.981C114.806 122.17 114.883 123.367 115.237 124.517C115.571 125.603 116.768 125.795 117.586 125.137C118.095 124.728 118.578 124.284 119.033 123.812C119.451 124.536 120.439 124.819 121.145 124.139C122.047 123.271 122.887 122.354 123.664 121.373C123.874 121.109 124.08 120.842 124.283 120.573C124.495 120.294 124.643 120.002 124.802 119.704C125.101 119.142 125.619 118.536 125.538 117.864Z" fill="#EBD8C5"/>
<path d="M114.752 161.031C114.255 160.832 113.593 160.984 113.332 161.497C113.008 162.135 112.717 162.754 112.498 163.437C112.264 164.167 112.037 165.013 112.466 165.698C112.645 165.984 113.025 166.176 113.363 166.063C113.831 165.908 114.089 165.696 114.341 165.273C114.537 164.946 114.695 164.623 114.839 164.269C115.093 163.641 115.261 163.034 115.41 162.373C115.533 161.823 115.289 161.248 114.752 161.031Z" fill="#EBD8C5"/>
<path d="M92.5532 171.616C92.4211 170.353 91.592 169.205 91.7643 168.002C91.8492 167.409 91.6186 166.81 90.9896 166.637C90.3683 166.466 89.8358 166.848 89.6253 167.412C89.0049 169.073 88.968 171.635 90.6823 172.69C91.4278 173.149 92.6527 172.568 92.5532 171.616Z" fill="#EBD8C5"/>
<path d="M98.2458 165.388C98.2352 165.358 98.2221 165.329 98.2085 165.3C98.2178 165.144 98.2018 164.988 98.1598 164.831C98.1667 164.895 98.1724 164.947 98.1772 164.99C98.1368 164.78 98.1108 164.604 98.0385 164.429C98.1148 164.171 98.0763 163.875 97.943 163.647C97.7549 163.326 97.4473 163.192 97.0917 163.159C96.3529 163.089 95.7926 163.606 95.4972 164.227C95.0065 165.029 95.3494 166.225 96.2663 166.566C96.3681 166.632 96.521 166.676 96.6244 166.712C96.8928 166.805 97.202 166.833 97.475 166.746C98.0111 166.576 98.4536 165.969 98.2458 165.388Z" fill="#EBD8C5"/>
<path d="M120.232 163.792C120.176 163.897 120.12 164.001 120.064 164.106C120.153 164.127 120.114 164.169 119.946 164.232C119.785 164.439 119.71 164.651 119.636 164.9C119.5 165.362 119.398 165.837 119.279 166.303C119.115 166.952 120.112 167.439 120.406 166.778C120.6 166.342 120.795 165.907 120.987 165.47C121.187 165.015 121.155 164.656 121.233 164.214C121.336 163.64 120.546 163.207 120.232 163.792Z" fill="#EBD8C5"/>
<path d="M76.0146 117.724C75.3789 118.328 75.0031 119.104 74.5638 119.857C74.5111 119.948 74.4339 120.061 74.3564 120.177C74.3727 119.921 74.4045 119.667 74.4139 119.411C74.4407 118.682 74.2747 117.924 73.7023 117.426C73.0168 116.829 72.1402 117.275 72.0337 118.117C71.8589 119.5 71.5293 120.879 71.1008 122.223C70.8875 121.314 70.7336 120.391 70.6341 119.455C70.4357 117.589 70.5318 115.747 70.6464 113.881C70.6867 113.225 69.7322 113.151 69.5436 113.731C68.3416 117.432 68.8409 121.709 70.1375 125.315C70.3712 125.965 71.4591 126.318 71.8033 125.533C72.2629 124.485 72.6535 123.424 72.9865 122.347C73.1783 122.533 73.4095 122.678 73.686 122.759C74.7231 123.063 75.5818 122.372 76.0594 121.509C76.5721 120.584 77.2047 119.576 77.4107 118.537C77.5701 117.733 76.6444 117.125 76.0146 117.724Z" fill="#EBD8C5"/>
<path d="M49.9039 93.8528C49.3682 93.1184 48.5863 92.6078 47.9278 91.9818C47.2699 91.3564 46.6546 90.6863 46.0747 89.988C45.5157 89.3149 45.0219 88.6001 44.5463 87.8668C44.2918 87.4743 44.0312 87.0874 43.7921 86.685C43.6866 86.5076 43.5936 86.32 43.4825 86.1462C43.3475 85.935 43.1542 85.7886 42.9993 85.5931C42.7241 85.2458 42.2716 85.638 42.3313 85.9822C42.3727 86.2209 42.358 86.437 42.4435 86.6682C42.5242 86.8862 42.6247 87.1 42.7193 87.3124C42.9093 87.7389 43.1066 88.1676 43.3365 88.5742C43.8133 89.4178 44.3821 90.2135 44.9765 90.9771C45.5512 91.7152 46.1802 92.4074 46.8539 93.0561C47.5438 93.7204 48.2704 94.4656 49.1816 94.7927C49.6847 94.9733 50.2293 94.2989 49.9039 93.8528Z" fill="#C9AB8B"/>
<path d="M60.8241 101.707C60.6356 101.503 60.3876 101.437 60.1406 101.322C59.8928 101.207 59.6748 101.052 59.434 100.925C58.9523 100.67 58.4749 100.418 58.0231 100.112C57.1157 99.4969 56.2896 98.7108 55.5458 97.9079C54.7822 97.0838 54.0904 96.1979 53.4441 95.2795C53.1046 94.7971 52.7935 94.2934 52.4291 93.8295C52.1121 93.426 51.8633 92.9429 51.4148 92.6946C51.1018 92.4246 50.6599 92.724 50.6209 93.0932C50.561 93.6608 51.0332 94.3064 51.2959 94.7931C51.5781 95.3159 51.9313 95.8103 52.2657 96.301C52.9591 97.3181 53.7029 98.3086 54.5433 99.2095C55.3494 100.074 56.2386 100.821 57.2508 101.434C57.7667 101.746 58.3141 102.03 58.8859 102.226C59.3421 102.381 60.1705 102.603 60.63 102.442C60.946 102.332 61.058 101.96 60.8241 101.707Z" fill="#C9AB8B"/>
<path d="M63.4827 27.6753C62.6945 28.6947 62.125 29.8732 61.4868 30.9915C60.8394 32.126 60.1745 33.2505 59.4927 34.3646C58.1315 36.5887 56.7624 38.8143 55.3236 40.989C55.0476 41.4061 55.6916 41.7506 55.9793 41.3724C57.5669 39.2857 59.0941 37.1685 60.4972 34.9521C61.196 33.8482 61.8777 32.7336 62.5423 31.6088C63.1957 30.5028 63.9154 29.3906 64.3399 28.1746C64.5019 27.7107 63.7978 27.2675 63.4827 27.6753Z" fill="#C9AB8B"/>
<path d="M166.305 45.9129C166.08 45.5613 165.657 45.3665 165.244 45.4811C164.426 45.7085 164.202 46.5845 163.814 47.244C163.47 47.8282 163.144 48.286 162.763 48.7286C161.896 49.737 160.993 50.5641 159.98 51.2119C158.815 51.9569 157.874 52.3789 156.546 52.6849C155.866 52.8416 155.581 52.8798 154.877 52.8993C154.779 52.902 154.681 52.9025 154.584 52.9019C154.846 52.7464 155.103 52.5886 155.353 52.4357C156.063 52.0017 156.736 51.5451 157.374 51.0139C157.752 50.6992 158.068 50.3743 157.926 49.8341C157.813 49.4082 157.372 49.1654 156.946 49.2227C156.583 49.2716 156.193 49.5783 155.88 49.7695C155.515 49.9916 155.174 50.2622 154.816 50.4956C154.145 50.9326 153.458 51.349 152.758 51.7387C152.3 51.9941 151.844 52.2591 151.355 52.3809C151.344 52.3773 151.333 52.3741 151.323 52.3705C151.344 52.3607 151.365 52.351 151.387 52.3412C151.718 52.194 151.474 51.7101 151.151 51.7808C150.863 51.8441 150.596 51.8862 150.323 51.9067C149.986 51.709 149.663 51.4876 149.334 51.2792C149.331 51.2407 149.324 51.2017 149.309 51.162C149.006 50.3601 147.908 50.2903 147.451 51.0128C146.836 51.9844 148.337 52.9742 148.998 53.4294C150.601 54.5321 152.398 55.2583 154.356 55.3449C157.858 55.4998 161.322 53.8865 163.743 51.4056C164.416 50.7153 165.002 49.9041 165.491 49.0734C165.728 48.6709 165.94 48.2548 166.127 47.8272C166.397 47.2109 166.713 46.5508 166.305 45.9129Z" fill="#C9AB8B"/>
<path d="M51.3468 42.0871C50.6598 40.9428 49.8048 39.8853 48.8043 39.0002C48.2941 38.5488 47.7461 38.1024 47.1621 37.7491C46.6094 37.4146 45.8488 36.953 45.1935 37.0397C44.6174 37.1159 44.1356 37.6813 44.4917 38.2632C44.8384 38.8296 45.4556 39.0931 45.9861 39.465C46.4477 39.7886 46.9056 40.1025 47.33 40.4752C47.6414 40.7487 47.935 41.0371 48.2125 41.3392C47.784 41.1947 47.3765 40.9882 47.0056 40.7153C46.9087 40.6374 46.8095 40.5617 46.7077 40.4885C45.7706 39.8157 44.5453 41.381 45.4638 42.1013C45.4663 42.1033 45.4689 42.105 45.4713 42.107C45.1677 41.9757 44.7914 42.0187 44.5314 42.2259C44.1451 42.5338 44.1017 42.9843 44.2933 43.4191C44.3554 43.5599 44.4359 43.6855 44.5294 43.7986C43.9524 43.9074 43.3212 44.1468 42.9407 44.551C42.6609 44.8482 42.7546 45.242 43.0589 45.4683C43.8691 46.0707 44.8503 46.3638 45.8474 46.4538C46.7377 46.5342 48.1031 46.5127 48.6832 45.7136C49.1472 45.0744 48.9452 44.3276 48.4863 43.7788C48.5472 43.7153 48.5935 43.6421 48.6276 43.5633C49.2211 43.674 49.8325 43.7065 50.453 43.6459C51.2032 43.5722 51.7828 42.8133 51.3468 42.0871ZM45.8474 45.0224C45.2866 45.0057 44.7374 44.8788 44.2111 44.6886C44.2212 44.6779 44.2308 44.6666 44.2415 44.6565C44.4398 44.4691 44.7205 44.4071 44.9806 44.3605C45.0442 44.3491 45.0932 44.3196 45.129 44.2794C45.3901 44.4209 45.6792 44.5186 45.9662 44.5817C46.2496 44.6441 46.5576 44.6535 46.8324 44.7454C46.8651 44.7564 46.9663 44.821 47.0664 44.8883C46.9815 44.915 46.9047 44.9399 46.8833 44.9442C46.5428 45.0133 46.1944 45.0326 45.8474 45.0224Z" fill="#C9AB8B"/>
<path d="M146.706 27.8516C146.037 28.729 145.408 29.6394 144.761 30.5337C144.641 30.6989 144.659 30.8792 144.748 31.0244C144.608 31.2377 144.467 31.4498 144.321 31.6592C144.113 31.9589 144.242 32.3971 144.51 32.6044C144.821 32.8444 145.18 32.7763 145.472 32.5471C145.851 32.249 146.166 31.9204 146.489 31.5656C146.797 31.2277 147.141 30.955 147.295 30.5135C147.388 30.2464 147.224 30.011 146.997 29.9152C147.278 29.4474 147.56 28.9809 147.836 28.5123C148.277 27.7648 147.202 27.202 146.706 27.8516Z" fill="#C9AB8B"/>
<path d="M63.4418 23.6964C63.1398 23.995 62.6511 23.8504 62.3565 23.6023C61.9022 23.2198 61.8476 22.4307 61.7673 21.8884C61.6448 21.0625 60.3145 21.2726 60.3279 22.0833C60.3311 22.2817 60.3321 22.4802 60.3308 22.6786L60.0631 21.968C59.8115 21.3001 58.9226 21.4303 58.8478 22.1326C58.6571 23.9208 59.108 25.7381 60.0316 27.2739C60.2597 27.6532 60.8274 27.7064 61.1271 27.425C61.1687 27.5142 61.2102 27.6032 61.2511 27.6928C61.4418 28.1096 62.1425 27.8143 61.9938 27.3795C61.8293 26.8984 61.6762 26.4146 61.5184 25.9324C61.5726 25.588 61.6178 25.2427 61.6565 24.8967C61.7627 24.9605 61.876 25.0169 62.0006 25.061C62.8501 25.3619 63.9259 24.8708 64.0332 23.9415C64.0691 23.6297 63.638 23.5024 63.4418 23.6964Z" fill="#C9AB8B"/>
<path d="M60.0863 137.221C59.5695 135.517 59.1728 133.767 58.9569 131.998C58.8487 131.113 58.7541 130.221 58.6896 129.331C58.6237 128.421 58.5938 127.452 58.3789 126.566C58.2153 125.891 57.2784 125.961 57.0814 126.566C56.7942 127.447 56.7583 128.496 56.7676 129.42C56.7727 129.921 56.7947 130.419 56.8314 130.915C55.3163 129.254 53.4563 127.881 51.4877 126.897C50.9314 126.619 50.2296 126.97 50.0841 127.498C49.5467 127.475 49.0053 127.723 48.7305 128.221C48.6212 128.419 48.6239 128.746 48.8182 128.901C50.1407 129.959 51.5078 130.961 52.9006 131.927C54.6 134.132 56.4385 136.229 58.4141 138.195C59.1088 138.887 60.3806 138.191 60.0863 137.221ZM50.0618 128.365C50.1468 128.343 50.2417 128.344 50.342 128.368C50.4067 128.464 50.4717 128.561 50.5369 128.657C50.3788 128.559 50.2201 128.462 50.0618 128.365Z" fill="#C9AB8B"/>
<path d="M152.189 130.811C152.504 130.467 152.633 129.999 152.37 129.549C152.086 129.064 151.416 128.874 150.928 129.171C150.245 129.588 149.61 130.109 148.969 130.599C149.081 129.649 147.911 128.817 147.11 129.646C146.327 130.457 145.543 131.268 144.759 132.079C144.966 131.162 145.302 130.274 145.77 129.435C146.355 128.385 144.98 127.219 144.094 128.046C144.117 127.833 144.142 127.619 144.172 127.406C144.241 126.918 144.054 126.425 143.535 126.283C143.064 126.154 142.536 126.441 142.412 126.921C142.235 127.61 142.007 128.284 141.839 128.975C141.669 129.667 141.539 130.367 141.4 131.066C141.259 131.776 141.815 132.425 142.437 132.47C142.306 133.32 142.265 134.184 142.321 135.049C142.332 135.222 142.382 135.384 142.459 135.527C142.275 135.682 142.088 135.833 141.897 135.98C141.422 136.344 141.17 136.936 141.499 137.499C141.691 137.828 142.125 138.071 142.533 138.06C142.377 138.254 142.224 138.451 142.075 138.651C141.765 139.068 142.379 139.674 142.795 139.371C144.479 138.146 145.945 136.652 147.471 135.241C148.229 134.54 148.985 133.839 149.732 133.127C150.243 132.641 150.74 132.106 151.265 131.616C151.591 131.364 151.909 131.105 152.205 130.827L152.189 130.811Z" fill="#C9AB8B"/>
<path d="M136.855 113.796C136.787 113.432 136.485 113.296 136.186 113.324C136.187 113.255 136.183 113.184 136.171 113.11C136.122 112.794 136.122 112.61 135.89 112.362C135.658 112.112 135.321 112.209 135.159 112.437C134.546 112.321 133.939 112.197 133.309 112.147C132.514 112.083 131.721 112.088 130.926 112.156C130.096 112.227 129.267 112.345 128.451 112.514C128.053 112.596 127.633 112.671 127.249 112.804C126.824 112.952 126.514 113.325 126.209 113.642C125.878 113.985 125.978 114.711 126.514 114.8C126.933 114.869 127.421 115.021 127.837 114.938C128.181 114.869 128.52 114.752 128.863 114.674C129.573 114.514 130.29 114.394 131.014 114.33C131.776 114.261 132.544 114.225 133.309 114.222C133.662 114.221 134.014 114.225 134.367 114.234C134.732 114.243 135.176 114.287 135.529 114.174C135.465 115.187 135.356 116.201 135.211 117.206C135.135 117.73 134.998 118.257 134.952 118.783C134.893 119.454 135.475 120.054 136.159 119.845C136.471 119.75 136.763 119.5 136.835 119.169C137.224 117.39 137.193 115.576 136.855 113.796Z" fill="#C9AB8B"/>
<path d="M89.2682 113.909C89.3189 113.584 89.1192 113.33 88.8446 113.207C88.6505 113.068 88.4385 113.022 88.2234 113.038C87.8964 112.5 87.5692 111.963 87.2392 111.427C86.7174 110.58 85.2569 110.886 85.2982 111.953C85.3035 112.088 85.3012 112.22 85.2931 112.35C85.1885 112.127 84.994 111.952 84.6978 111.896C84.4977 111.859 84.2969 111.823 84.0958 111.789C83.8378 110.986 82.8486 111.02 82.4499 111.536C82.1708 111.498 81.8912 111.461 81.6113 111.427C81.5504 111.411 81.4875 111.403 81.4251 111.403C79.9317 111.22 78.4307 111.076 76.946 110.907C74.486 110.627 72.0562 110.32 69.6331 109.807C69.6317 109.812 69.6303 109.817 69.6289 109.822C68.9328 109.687 68.4071 110.699 69.1255 111.012C69.1777 111.034 69.2307 111.055 69.2831 111.077L69.2828 111.078C69.2841 111.078 69.2853 111.078 69.2866 111.079C71.575 112.04 74.07 112.393 76.5092 112.747C77.8003 112.934 79.0929 113.11 80.3854 113.286C80.7475 113.336 81.1096 113.388 81.4719 113.44C81.9944 114.378 82.6999 115.234 83.4813 115.93C83.9223 116.323 84.5348 116.198 84.8256 115.806C84.8315 115.81 84.837 115.814 84.8429 115.818C85.1812 116.041 85.8011 115.992 86.0673 115.66C86.3241 115.34 86.5465 115.002 86.7326 114.65C86.7771 114.724 86.8217 114.799 86.8661 114.873C87.1501 115.349 87.826 115.563 88.3119 115.253C88.779 114.954 89.3608 114.518 89.2682 113.909Z" fill="#C9AB8B"/>
<path d="M93.7864 125.463C93.4808 124.252 93.0587 123.065 92.6003 121.905C91.6663 119.54 90.4325 117.377 88.9516 115.314C88.7552 115.04 88.3175 115.279 88.4914 115.583C89.7087 117.708 90.7374 119.975 91.609 122.264C92.0447 123.409 92.4026 124.576 92.7532 125.748C93.102 126.915 93.2869 128.143 93.6867 129.29C93.8278 129.694 94.4612 129.648 94.4587 129.185C94.4522 127.945 94.0886 126.66 93.7864 125.463Z" fill="#C9AB8B"/>
<path d="M63.3025 163.514C63.235 163.066 62.5343 163.006 62.3407 163.388C62.1758 163.713 62.0597 164.048 61.9594 164.388C61.5738 164.453 61.2743 164.754 61.1178 165.141C60.1077 167.637 58.5373 169.886 56.5835 171.728C54.7801 172.983 52.5884 173.663 50.4027 173.76C48.8579 173.828 47.3313 173.593 45.8722 173.083C45.1672 172.837 44.6743 173.977 45.359 174.301C47.6583 175.391 50.2285 175.763 52.7245 175.382C52.8223 175.804 53.1687 176.167 53.6842 176.169C56.5896 176.18 59.1385 174.473 60.8174 172.196C61.7214 170.97 62.352 169.536 62.7802 168.079C62.9958 167.345 63.0972 166.563 63.2009 165.807C63.3076 165.029 63.4201 164.293 63.3025 163.514Z" fill="#C9AB8B"/>
<path d="M161.482 173.907C161.378 173.649 161.261 173.484 161.065 173.298C160.936 173.175 160.834 173.065 160.776 172.894C160.564 172.277 159.9 172.141 159.414 172.535C158.396 173.358 157.308 174.103 156.168 174.756C156.32 174.545 156.472 174.334 156.625 174.123C156.958 173.66 156.595 173.047 156.108 172.906C155.947 172.594 155.557 172.379 155.21 172.608C154.581 173.022 153.914 173.39 153.219 173.709C152.293 174.014 151.37 174.328 150.452 174.657C150.043 174.752 149.63 174.829 149.215 174.886C148.464 173.933 147.144 173.498 146.076 173.03C144.868 172.502 143.65 171.954 142.57 171.189C141.392 170.355 140.547 169.213 140.358 167.757C140.234 166.797 140.272 165.806 140.274 164.84C140.275 163.735 140.123 162.653 140.041 161.553C140.023 161.303 139.765 161.214 139.578 161.361C138.172 162.466 137.166 164.041 136.833 165.806C136.465 167.754 136.866 169.692 137.833 171.41C138.647 172.857 139.819 174.048 141.193 174.942C142.021 175.805 142.96 176.56 143.962 177.164C144.541 177.513 145.149 177.804 145.777 178.054C146.438 178.317 147.192 178.605 147.913 178.572C149.057 178.52 149.71 177.606 149.768 176.606C150.768 176.425 151.742 176.14 152.68 175.731C152.97 175.605 153.253 175.465 153.53 175.313C153.622 175.285 153.713 175.257 153.804 175.229C153.499 175.654 153.194 176.079 152.888 176.505C152.49 177.059 153.163 177.986 153.818 177.714C155.952 176.829 157.937 175.697 159.772 174.311C160.086 174.646 160.498 174.853 161.003 174.751C161.337 174.683 161.614 174.234 161.482 173.907ZM137.796 167.431C137.817 167.685 137.828 167.938 137.842 168.189C137.712 167.719 137.626 167.236 137.592 166.742C137.528 165.816 137.626 164.826 137.958 163.953C137.743 165.098 137.699 166.27 137.796 167.431ZM139.035 163.995C138.923 164.841 138.861 165.699 138.786 166.55C138.74 167.071 138.746 167.6 138.812 168.121C138.767 168.004 138.721 167.888 138.678 167.771C138.205 166.501 138.217 164.983 138.379 163.656C138.394 163.531 138.271 163.468 138.165 163.484C138.452 162.922 138.855 162.431 139.397 162.069C139.267 162.71 139.12 163.348 139.035 163.995ZM143.859 174.385C143.053 174.096 142.272 173.692 141.55 173.194C141.094 172.647 140.682 172.06 140.322 171.443C140.293 171.393 140.265 171.343 140.236 171.293C141.669 172.922 143.792 173.788 145.756 174.62C145.979 174.715 146.294 174.827 146.626 174.967C145.687 174.894 144.757 174.706 143.859 174.385ZM147.11 176.907C146.988 176.872 146.866 176.834 146.745 176.794C147.224 176.828 147.704 176.829 148.182 176.801C148.005 177.191 147.476 177.011 147.11 176.907Z" fill="#C9AB8B"/>
<path d="M44.4128 172.609C42.4338 173.105 40.4876 172.707 38.5939 172.077C38.0818 171.907 37.8179 172.644 38.2397 172.918C40.1161 174.136 42.5747 174.041 44.5792 173.213C44.9412 173.064 44.8156 172.508 44.4128 172.609Z" fill="#C9AB8B"/>
<path d="M19.1687 150.322C19.2264 149.589 19.2046 148.858 19.2286 148.124C19.2516 147.421 19.3284 146.722 19.3658 146.02C19.442 144.587 19.6797 143.205 19.9235 141.793C20.0832 140.868 18.7858 140.475 18.4975 141.399C18.0458 142.848 17.8223 144.375 17.6095 145.874C17.5226 146.486 17.5085 147.117 17.5047 147.739C17.114 147.182 16.726 146.623 16.3444 146.061C15.956 145.488 14.85 145.833 15.1443 146.567C15.6915 147.933 16.2388 149.298 16.786 150.664C17.0823 151.403 17.4016 152.132 17.7212 152.86C16.3359 151.528 15.1801 149.959 14.3034 148.247C14.0705 147.792 13.413 148.191 13.6246 148.644C14.781 151.117 16.5036 153.274 18.6555 154.953C18.9978 155.22 19.6837 154.992 19.4879 154.468C19.0664 153.34 18.6892 152.197 18.275 151.066C18.6868 151.126 19.1294 150.822 19.1687 150.322Z" fill="#C9AB8B"/>
<path d="M185.339 148.916C185.216 148.914 185.097 148.923 184.979 148.936C185.121 148.719 185.251 148.495 185.346 148.242C185.642 147.46 185.667 146.417 185.015 145.799C184.586 145.392 184.085 145.32 183.581 145.625C183.099 145.917 182.64 146.246 182.2 146.599C182.164 146.627 182.13 146.658 182.094 146.687C182.524 145.479 182.981 144.28 183.446 143.083C183.665 142.52 182.672 142.241 182.54 142.791C181.412 144.874 180.521 147.095 179.765 149.337C179.655 149.664 179.866 150.027 180.166 150.153C180.506 150.297 180.819 150.15 181.029 149.87C181.877 148.74 182.923 147.772 184.113 147.015C184.192 147.376 183.759 148.129 183.639 148.298C183.023 149.163 182.4 150.05 182.686 151.166C182.819 151.685 183.309 151.794 183.692 151.616C183.456 152.043 183.194 152.457 182.907 152.856C182.548 153.354 182.14 153.821 181.711 154.26C181.256 154.727 180.671 155.103 180.34 155.666C180.06 156.141 180.521 156.707 181.039 156.577C181.728 156.404 182.284 155.82 182.783 155.332C183.299 154.829 183.758 154.272 184.18 153.688C185.015 152.53 185.642 151.23 186.064 149.868C186.211 149.394 185.813 148.922 185.339 148.916Z" fill="#C9AB8B"/>
<path d="M138.012 121.926C138.007 121.583 137.486 121.582 137.479 121.926C137.392 126.597 135.851 131.143 134.573 135.593C133.278 140.103 131.907 144.591 130.464 149.056C129.656 151.558 128.733 154.107 128.267 156.701C128.213 157.006 128.641 157.244 128.803 156.927C129.879 154.824 130.595 152.494 131.307 150.248C132.016 148.013 132.686 145.764 133.347 143.515C134.682 138.972 136.021 134.41 137.071 129.791C137.66 127.203 138.05 124.586 138.012 121.926Z" fill="#C9AB8B"/>
</svg>
