<svg width="200" height="200" viewBox="0 0 200 200" fill="none" xmlns="http://www.w3.org/2000/svg">
<path d="M154.87 189.707C155.014 188.789 155.087 187.869 154.827 186.945C154.748 186.662 154.638 186.347 154.468 186.086C154.84 185.443 155.009 184.698 154.855 183.889C154.53 182.179 153.2 180.764 151.98 179.615C150.566 178.282 148.956 177.137 147.211 176.284C146.266 175.822 145.271 175.427 144.252 175.167C143.753 175.04 143.241 174.943 142.724 174.939C142.539 174.938 142.366 174.959 142.197 174.988C142.551 174.697 142.895 174.393 143.227 174.074C145.712 171.693 147.597 168.571 147.888 165.078C148.183 161.524 147.219 157.788 145.442 154.721C145.052 154.049 144.615 153.397 144.137 152.773C144.157 152.704 144.174 152.635 144.19 152.565C144.33 152.455 144.463 152.334 144.584 152.202C144.649 152.13 144.708 152.056 144.762 151.98C144.928 152.129 145.103 152.266 145.287 152.387C145.35 152.732 145.476 153.069 145.625 153.361C145.901 153.902 146.316 154.5 146.828 154.843C147.875 155.544 148.54 154.276 148.994 153.51C149.305 152.985 149.59 152.319 149.643 151.667C149.766 151.526 149.882 151.38 149.984 151.221C150.252 150.804 150.42 150.352 150.506 149.887C150.599 149.844 150.687 149.791 150.777 149.742C150.854 149.931 150.927 150.123 151.013 150.309C151.145 150.592 151.275 150.887 151.442 151.152C151.548 151.322 151.694 151.478 151.892 151.536C152.52 151.72 152.888 150.739 153.054 150.304C153.32 149.606 153.429 148.824 153.413 148.079C153.403 147.595 153.286 147.013 152.982 146.632C153.026 145.851 152.804 145.039 152.527 144.321C151.943 142.803 150.989 141.341 149.81 140.223C148.695 139.166 147.362 138.337 145.944 137.757C145.73 137.67 145.512 137.588 145.292 137.51C145.258 137.301 145.221 137.093 145.179 136.886C145.079 136.403 144.946 135.938 144.791 135.481C144.47 134.629 144.1 133.788 143.679 132.97C143.624 132.867 143.57 132.763 143.513 132.66C143.39 132.436 143.262 132.216 143.134 131.996C143.115 131.956 143.096 131.917 143.078 131.879C142.033 130.093 140.737 128.454 139.193 127.1C139.051 126.987 138.906 126.876 138.758 126.77C138.209 126.377 137.625 126.032 137.018 125.733C136.902 125.534 136.816 125.325 136.742 125.111C136.715 125.085 136.693 125.054 136.678 125.013C136.213 123.682 135.723 122.36 135.213 121.047C135.174 120.975 135.136 120.904 135.097 120.833C133.65 118.22 132.128 115.558 130.029 113.411C129.605 112.976 129.153 112.57 128.683 112.187C129.9 111.671 131.135 111.2 132.369 110.719C133.089 110.439 133.778 110.117 134.449 109.739C136.768 108.704 139.022 107.495 141.131 106.118C142.503 105.222 143.802 104.179 144.821 102.883C145.907 101.501 146.659 99.8341 147.036 98.1166C147.43 96.3234 147.404 94.4543 146.941 92.6768C146.475 90.8876 145.616 89.2301 144.979 87.5009C144.674 86.6745 144.416 85.8287 144.265 84.959C144.087 83.9393 144.054 82.8896 143.982 81.8582C143.843 79.866 143.714 77.8704 143.408 75.8955C142.804 71.9916 141.378 68.3334 139.718 64.7738C138.182 61.4822 136.48 58.2527 134.339 55.3136C133.751 54.5054 133.128 53.7273 132.478 52.9736C133.085 52.7915 133.68 52.5759 134.279 52.3643C134.962 52.1222 135.676 51.8669 136.243 51.3975C136.644 51.0654 136.941 50.6259 136.638 50.123C136.371 49.6779 135.851 49.382 135.411 49.1414C134.8 48.8078 134.16 48.496 133.514 48.2402C133.155 48.0978 132.788 47.9732 132.411 47.8877C132.842 47.7367 133.274 47.5877 133.693 47.4056C134.367 47.1132 135.013 46.7429 135.638 46.3599C138.262 44.7538 140.532 42.5277 142.119 39.8795C143.877 36.9455 144.938 33.6509 145.624 30.3115C146.315 26.9498 146.676 23.5204 147.001 20.1063C147.035 19.7426 147.075 19.3795 147.112 19.0158C147.131 18.8287 147.148 18.6237 147.032 18.464C146.891 18.2713 146.632 18.2077 146.41 18.1696C146.086 18.1136 145.754 18.1065 145.428 18.139C144.716 18.2097 144.04 18.434 143.368 18.6665C142.715 18.8918 142.061 19.1176 141.413 19.3551C138.714 20.3463 136.199 21.8166 133.989 23.6602C131.77 25.5105 129.884 27.7294 128.405 30.2154C126.857 32.8138 126.039 35.7488 125.871 38.7601C125.675 38.5943 125.448 38.458 125.268 38.3579C123.778 37.5258 122.101 37.0091 120.449 36.618C120.165 36.5509 119.88 36.4868 119.593 36.4252C119.61 36.3881 119.627 36.3505 119.643 36.3133C119.878 35.7926 120.088 35.258 120.369 34.7596C120.935 33.7547 121.713 32.8951 122.574 32.1368C123.446 31.3684 124.404 30.7097 125.373 30.072C125.968 29.6804 126.623 29.2577 126.938 28.5884C127.089 28.2685 127.08 27.9135 126.889 27.614C126.688 27.2997 126.323 27.172 125.966 27.1608C125.336 27.1405 124.657 27.3816 124.105 27.6735C123.597 27.942 123.11 28.2492 122.601 28.5177C122.062 28.8031 121.475 29.1047 120.865 29.1957C120.644 29.2282 120.408 29.2369 120.2 29.1443C120.003 29.0574 119.897 28.886 119.839 28.6769C119.573 27.6989 119.868 26.6502 120.151 25.7104C120.301 25.2109 120.443 24.709 120.59 24.2085C120.737 23.7106 120.915 23.2168 121.202 22.7819C121.872 21.7663 122.975 21.1 124.041 20.5752C125.182 20.0137 126.378 19.5763 127.465 18.907C128.145 18.489 129.594 17.5745 128.873 16.6011C128.375 15.9272 127.45 15.9272 126.705 16.06C125.606 16.2558 124.582 16.716 123.509 17.0085C123.082 17.1249 122.496 17.3162 122.088 17.0466C121.679 16.7765 121.765 16.1973 121.798 15.7797C121.896 14.5871 122.132 13.4107 122.285 12.2247C122.402 11.3174 122.495 10.4065 122.544 9.49259C122.578 8.84974 122.593 8.20434 122.559 7.56149C122.529 6.99798 122.472 6.42429 122.29 5.88774C122.171 5.5363 121.954 5.12842 121.567 5.02772C120.926 4.8609 120.346 5.48138 120.055 5.96962C119.474 6.94254 119.321 8.10517 119.148 9.20626C119.108 9.4575 119.064 9.7067 119.051 9.9615C119.039 10.198 119.041 10.436 119.02 10.6725C119.006 10.8434 118.989 11.0534 118.877 11.1928C118.815 11.2701 118.759 11.2899 118.674 11.2482C118.437 11.1318 118.274 10.8302 118.139 10.6125C118.016 10.4141 117.893 10.2163 117.771 10.0174C117.454 9.50124 117.14 8.96875 116.699 8.54662C116.501 8.35692 116.26 8.18451 115.982 8.1484C115.688 8.11076 115.439 8.27097 115.251 8.48457C114.65 9.17015 114.66 10.2112 114.799 11.0595C114.975 12.1372 115.447 13.1015 115.986 14.0388C116.571 15.0535 117.206 16.0655 117.383 17.2455C117.469 17.8191 117.439 18.4076 117.42 18.9853C117.398 19.619 117.361 20.2517 117.32 20.8844C117.24 22.133 117.18 23.3826 117.094 24.6306C116.924 27.0861 116.631 29.538 116.104 31.9431C115.814 33.2669 115.418 34.5633 114.942 35.8302C114.786 35.8271 114.63 35.8226 114.475 35.8241C113.752 35.8307 113.039 35.8866 112.334 36.0041C113.045 35.4767 113.639 34.7057 112.913 34.0471C112.649 33.8075 112.296 33.6636 111.968 33.536C111.609 33.3966 111.239 33.2939 110.861 33.2227C110.087 33.0762 109.298 33.0299 108.511 33.0421C105.362 33.0915 102.297 33.8686 99.5723 35.4701C98.8794 35.8775 98.2205 36.3444 97.6045 36.8621C97.8004 36.5005 97.9745 36.1257 98.1491 35.7742C98.3293 35.4126 98.5358 35.0637 98.6871 34.6879C98.8015 34.4021 98.9042 34.0695 98.8151 33.7618C98.682 33.3046 98.1845 33.2827 97.7908 33.358C97.2113 33.4693 96.6612 33.743 96.1454 34.0206C95.4951 34.3711 94.8589 34.754 94.2359 35.1594C93.9616 34.3065 93.7177 33.4434 93.5258 32.5671C92.999 30.1615 92.7059 27.7096 92.5359 25.2542C92.4499 24.0061 92.3896 22.7565 92.3091 21.5079C92.2687 20.8752 92.2312 20.2426 92.21 19.6089C92.1907 19.0306 92.1614 18.4427 92.2474 17.869C92.4245 16.6891 93.0592 15.6765 93.6437 14.6624C94.1838 13.725 94.6554 12.7608 94.8316 11.6831C94.9702 10.8342 94.9808 9.79367 94.3791 9.1081C94.1914 8.89398 93.9428 8.73378 93.6483 8.77192C93.371 8.80752 93.1295 8.98044 92.9316 9.17015C92.4908 9.59227 92.1765 10.1243 91.8592 10.641C91.7372 10.8398 91.6142 11.0377 91.4913 11.236C91.3566 11.4532 91.1937 11.7553 90.9563 11.8718C90.8713 11.9135 90.8156 11.8936 90.7529 11.8163C90.641 11.677 90.6248 11.4669 90.6101 11.296C90.5894 11.0595 90.5914 10.822 90.5793 10.585C90.5661 10.3302 90.5231 10.0815 90.4831 9.82978C90.3095 8.72869 90.1567 7.56607 89.5757 6.59315C89.2842 6.1049 88.7042 5.48392 88.0639 5.65124C87.6773 5.75194 87.4597 6.15983 87.3407 6.51126C87.159 7.04782 87.1013 7.62201 87.0719 8.18502C87.038 8.82838 87.0527 9.47377 87.0871 10.1166C87.1362 11.0306 87.2283 11.9414 87.3463 12.8487C87.4996 14.0343 87.735 15.2111 87.8331 16.4032C87.8676 16.8208 87.9536 17.4001 87.5436 17.6701C87.1347 17.9397 86.5486 17.7479 86.1225 17.632C85.0491 17.3396 84.0252 16.8793 82.926 16.6835C82.1815 16.5507 81.2563 16.5507 80.7578 17.2246C80.0376 18.198 81.4866 19.1125 82.1658 19.53C83.2534 20.1993 84.4488 20.6362 85.5901 21.1982C86.6569 21.723 87.7593 22.3893 88.4293 23.4049C88.7163 23.8398 88.8944 24.3336 89.0407 24.8315C89.1875 25.332 89.3297 25.8339 89.48 26.3334C89.7624 27.2727 90.0585 28.3219 89.7912 29.2994C89.7341 29.5085 89.6268 29.6799 89.4309 29.7668C89.2224 29.8589 88.9866 29.8507 88.7654 29.8182C88.1555 29.7277 87.5689 29.4261 87.0294 29.1408C86.5213 28.8722 86.0339 28.565 85.5258 28.2965C84.9736 28.0046 84.2945 27.7635 83.6648 27.7839C83.3075 27.7956 82.9421 27.9227 82.7417 28.237C82.5504 28.5371 82.5418 28.8916 82.6921 29.2115C83.0074 29.8808 83.6618 30.3034 84.2575 30.695C85.2262 31.3323 86.1847 31.9909 87.0568 32.7593C87.9172 33.5176 88.6955 34.3777 89.2619 35.3826C89.5428 35.881 89.7528 36.4156 89.9871 36.9364C90.1617 37.3249 90.3363 37.7135 90.5049 38.1046C89.7731 38.8003 89.0797 39.5347 88.444 40.3144C87.824 41.0752 87.2577 41.8783 86.7617 42.7261C86.4828 39.8205 85.6316 36.9603 84.2059 34.4173C82.3702 31.1426 79.8134 28.3418 77.0121 25.8756C74.1921 23.3932 71.1291 21.1906 68.0616 19.0311C67.7347 18.8007 67.4113 18.5658 67.0859 18.3343C66.9183 18.2153 66.7331 18.0872 66.518 18.1126C66.2584 18.1436 66.058 18.3577 65.9016 18.55C65.6738 18.8302 65.4871 19.145 65.3413 19.4756C65.0235 20.1968 64.8711 20.9663 64.7274 21.7373C64.5882 22.4854 64.4485 23.2356 64.3235 23.9863C63.8043 27.112 63.8402 30.3212 64.3954 33.4393C64.9531 36.5692 66.0408 39.579 67.6011 42.3447C69.3188 45.389 71.8225 47.8684 74.7878 49.6881C76.2631 50.5939 77.8315 51.3588 79.4414 51.9915C79.3433 52.1329 79.2421 52.2717 79.1459 52.4146C77.1873 55.3197 75.6786 58.5248 74.6183 61.8657C73.4294 65.6114 72.8272 69.5199 72.5437 73.434C72.2487 77.5082 72.2122 81.6252 72.3261 85.7077C72.354 86.7055 72.3737 87.7064 72.2887 88.7027C72.2032 89.7016 72.0002 90.6898 71.8418 91.679C71.5437 93.5389 71.3266 95.4125 71.5068 97.2968C71.7826 100.177 72.9365 102.917 74.8056 105.117C77.5567 108.356 81.471 110.34 85.453 111.605C86.5953 111.968 87.7953 112.13 88.9209 112.539C89.4406 112.728 89.9558 112.875 90.4721 113C90.3294 113.136 90.1836 113.269 90.0449 113.41C87.9461 115.557 86.4243 118.22 84.9773 120.833C84.9383 120.903 84.8998 120.975 84.8614 121.046C84.3512 122.36 83.8608 123.682 83.3957 125.013C83.381 125.054 83.3588 125.085 83.3324 125.11C83.2586 125.324 83.173 125.534 83.0561 125.733C82.4493 126.032 81.8652 126.376 81.3166 126.769C81.1683 126.876 81.0236 126.986 80.8808 127.1C79.3367 128.453 78.0416 130.093 76.996 131.878C76.9777 131.917 76.959 131.956 76.9403 131.995C76.9276 132.017 76.915 132.04 76.9018 132.062C76.6619 131.607 76.3289 131.132 75.835 131.023C75.0227 130.843 74.4553 131.746 74.1097 132.333C73.4866 133.389 73.0377 134.577 72.7351 135.764C72.5013 136.68 72.2938 137.638 72.2857 138.591C71.6743 138.411 71.07 138.21 70.4773 137.984C70.6692 137.026 70.9202 136.079 71.074 135.113C71.2396 134.073 71.4319 133.024 71.4314 131.967C71.4314 131.414 71.4435 130.511 70.9192 130.152C70.5436 129.895 70.0477 130.068 69.6883 130.264C68.5541 130.887 67.6603 132.011 66.8688 133.012C66.5297 133.44 66.1982 133.877 65.89 134.33C65.7306 134.564 65.5458 134.825 65.3879 135.101C65.0443 134.821 64.7097 134.529 64.3919 134.22C64.3013 134.132 64.2223 134.033 64.1343 133.943C64.484 133.698 64.7376 133.252 64.9092 132.847C65.0898 132.421 65.2194 131.976 65.3586 131.535C65.5458 130.939 65.7776 130.356 65.9887 129.768C66.4528 128.473 66.8734 127.164 67.2904 125.853C67.5116 125.158 67.8583 123.922 66.9559 123.558C66.3278 123.305 65.5489 123.612 64.9709 123.865C64.146 124.226 63.3726 124.709 62.6211 125.203C62.2946 125.418 61.9732 125.639 61.6488 125.856C61.2809 126.103 60.8851 126.281 60.4888 126.476C60.294 126.571 60.092 126.679 59.8977 126.797C59.6674 126.103 59.472 125.397 59.3126 124.683C59.4756 124.611 59.6315 124.527 59.7671 124.438C60.5804 123.898 61.1994 123.109 61.8462 122.389C62.6914 121.451 63.4505 120.431 64.0827 119.335C64.4668 118.669 64.9269 118.027 65.1986 117.303C65.2938 117.05 65.4067 116.701 65.268 116.443C65.1222 116.17 64.7609 116.084 64.4825 116.042C63.6479 115.919 62.7157 115.97 61.8821 116.052C60.9114 116.148 59.8461 116.296 58.9138 116.663C58.9472 116.363 58.9847 116.063 59.0262 115.763C59.135 115.687 59.2423 115.609 59.3481 115.53C60.8355 114.426 62.456 113.483 63.7907 112.183C64.4228 111.566 65.1151 110.78 65.2791 109.879C65.4203 109.103 64.8084 108.638 64.1525 108.408C63.284 108.103 62.3654 108.128 61.4656 108.012C61.297 107.99 61.125 107.972 60.9529 107.964C60.9565 107.948 60.9615 107.933 60.965 107.918C61.0607 107.476 61.2237 106.704 60.6973 106.464C60.2434 106.256 59.6451 106.523 59.2327 106.716C58.6 107.012 58.0054 107.395 57.4289 107.788C56.1034 108.693 54.8457 109.685 53.7181 110.833C50.9998 113.598 49.0478 117.047 47.6909 120.667C46.332 124.293 45.5313 128.138 45.173 131.991C44.8512 135.451 44.9848 138.952 45.5202 142.385C46.0638 145.869 47.0274 149.287 48.3898 152.537C49.7386 155.755 51.4725 158.813 53.5931 161.58C55.6899 164.317 58.1663 166.772 60.9656 168.781C63.7937 170.81 66.9518 172.373 70.2855 173.363C72.4713 174.012 74.7326 174.441 76.9777 174.822C77.2495 174.868 77.5228 174.907 77.7951 174.951C77.3583 174.977 76.9251 175.058 76.5015 175.166C75.4827 175.427 74.4872 175.822 73.5428 176.284C71.7977 177.137 70.1878 178.282 68.7732 179.614C67.553 180.763 66.2235 182.179 65.898 183.889C65.7442 184.698 65.9132 185.442 66.2857 186.085C66.1156 186.347 66.0048 186.662 65.9259 186.945C65.6667 187.868 65.7396 188.788 65.8834 189.706C65.8322 189.729 65.7948 189.777 65.7907 189.861C65.7715 190.252 65.8267 190.654 65.9259 191.033C66.0089 191.35 66.1395 191.712 66.4452 191.874C66.7093 192.015 66.9791 191.931 67.2317 191.81C67.6011 191.632 67.9539 191.423 68.2874 191.184C68.8932 190.75 69.4337 190.233 69.9677 189.715C70.2263 189.465 70.489 189.219 70.7476 188.968C70.8382 188.88 70.9212 188.786 70.9849 188.684C71.1206 188.695 71.2552 188.697 71.3893 188.691C71.2476 189.158 71.2491 189.711 71.2562 190.137C71.2704 191.037 71.4794 191.974 71.8666 192.786C72.4263 193.959 73.68 193.57 74.5884 193.069C75.048 192.816 75.4756 192.513 75.9033 192.209C76.2236 191.982 76.5557 191.77 76.8679 191.53C77.0223 191.411 77.201 191.274 77.3507 191.119C77.741 191.144 78.1504 191.163 78.5467 191.117C78.5183 191.325 78.4961 191.534 78.4783 191.742C78.4095 192.562 78.4004 193.474 78.7744 194.228C79.4106 195.509 80.9572 194.926 81.9102 194.4C82.4103 194.124 82.8946 193.801 83.3258 193.425C83.5789 193.203 83.8304 192.951 84.009 192.664C86.2956 191.758 87.7112 189.427 89.5433 187.841C90.6279 186.902 91.9929 186.55 93.2845 185.999C94.3417 185.548 95.7031 184.829 95.9238 183.57C96.1232 182.432 95.4268 181.293 94.7664 180.434C94.3402 179.879 93.8614 179.374 93.3528 178.898C93.5917 178.509 93.7314 178.063 93.8609 177.626C94.0244 177.076 94.1671 176.518 94.2952 175.959C94.3276 175.818 94.3534 175.675 94.3827 175.534C94.5933 175.513 94.8038 175.488 95.0143 175.464C95.4313 175.636 95.8509 175.803 96.2771 175.95C96.2831 175.962 96.2932 175.97 96.3089 175.97H96.3348C97.5535 176.387 98.8056 176.701 100.073 176.893C100.094 176.897 100.115 176.899 100.136 176.902C100.579 177.043 101.025 177.172 101.486 177.271C102.318 177.45 103.173 177.537 104.021 177.591C105.876 177.707 107.736 177.813 109.595 177.837C110.406 177.848 111.217 177.831 112.027 177.798C113.86 177.799 115.695 177.604 117.501 177.315C117.762 177.273 118.02 177.221 118.281 177.176C118.823 177.09 119.364 176.997 119.902 176.889C120.261 176.834 120.881 176.698 121.575 176.526C122.651 176.293 123.723 176.034 124.766 175.679C125.278 175.505 125.784 175.304 126.275 175.075C126.331 175.37 126.39 175.666 126.458 175.959C126.586 176.518 126.728 177.076 126.892 177.626C127.021 178.063 127.161 178.509 127.4 178.898C126.892 179.373 126.413 179.879 125.986 180.434C125.326 181.293 124.63 182.432 124.829 183.57C125.05 184.829 126.411 185.548 127.469 185.999C128.76 186.55 130.125 186.902 131.209 187.841C133.041 189.427 134.457 191.758 136.744 192.664C136.922 192.952 137.174 193.203 137.427 193.425C137.858 193.801 138.343 194.124 138.843 194.4C139.795 194.926 141.342 195.509 141.978 194.228C142.352 193.473 142.343 192.561 142.274 191.742C142.256 191.534 142.234 191.325 142.206 191.117C142.602 191.164 143.011 191.144 143.402 191.119C143.551 191.274 143.73 191.411 143.884 191.53C144.196 191.77 144.528 191.982 144.849 192.209C145.276 192.513 145.704 192.815 146.164 193.069C147.072 193.57 148.326 193.959 148.886 192.786C149.273 191.974 149.482 191.037 149.496 190.137C149.503 189.711 149.505 189.157 149.363 188.691C149.497 188.697 149.632 188.695 149.767 188.684C149.831 188.786 149.914 188.88 150.005 188.968C150.263 189.219 150.526 189.464 150.785 189.715C151.319 190.233 151.86 190.75 152.465 191.184C152.798 191.422 153.151 191.632 153.521 191.81C153.774 191.931 154.043 192.015 154.307 191.874C154.613 191.712 154.743 191.35 154.826 191.033C154.926 190.654 154.98 190.253 154.962 189.861C154.959 189.777 154.921 189.73 154.87 189.707Z" fill="#272727"/>
<path d="M102.928 108.415V105.832C102.928 103.81 103.159 102.048 103.621 100.544C104.084 99.041 104.859 97.6266 105.947 96.3008C107.035 94.9758 108.503 93.5885 110.353 92.1397C112.23 90.6368 113.732 89.3388 114.861 88.245C115.989 87.1521 116.812 86.0517 117.329 84.9448C117.846 83.8379 118.104 82.5466 118.104 81.0707C118.104 78.7749 117.322 77.0121 115.758 75.7822C114.194 74.5523 111.998 73.9374 109.17 73.9374C106.667 73.9374 104.315 74.2932 102.112 75.0033C99.909 75.7141 97.7329 76.6161 95.5846 77.709L92.1577 70.4527C94.6324 69.1137 97.325 68.0208 100.235 67.173C103.145 66.326 106.341 65.9021 109.823 65.9021C115.371 65.9021 119.661 67.255 122.694 69.9607C125.726 72.6665 127.243 76.2471 127.243 80.7017C127.243 83.1074 126.862 85.1777 126.1 86.9127C125.339 88.6485 124.217 90.2473 122.735 91.7092C121.252 93.172 119.464 94.7093 117.37 96.3213C115.656 97.6881 114.344 98.8704 113.433 99.8675C112.522 100.865 111.896 101.87 111.556 102.881C111.216 103.892 111.046 105.108 111.046 106.529V108.415L102.928 108.415ZM101.378 121.616C101.378 119.375 101.955 117.797 103.112 116.881C104.267 115.966 105.688 115.508 107.375 115.508C109.007 115.508 110.407 115.966 111.577 116.881C112.746 117.797 113.331 119.375 113.331 121.616C113.331 123.803 112.746 125.381 111.577 126.351C110.407 127.321 109.007 127.806 107.375 127.806C105.688 127.806 104.267 127.321 103.112 126.351C101.955 125.381 101.378 123.803 101.378 121.616Z" fill="white"/>
</svg>
