<svg width="200" height="200" viewBox="0 0 200 200" fill="none" xmlns="http://www.w3.org/2000/svg">
<path d="M74.964 66.1005C75.7741 65.3163 76.6315 64.6051 77.5784 63.9925C78.3225 63.5111 79.5034 62.5424 80.4197 62.9061C82.215 63.6186 83.1221 66.1706 83.6604 67.8425C83.7708 68.185 84.1725 69.1311 83.9539 69.4676C83.7952 69.7119 82.7431 69.6603 82.4626 69.6727C81.408 69.7195 80.3556 69.6555 79.3278 69.4056C78.3186 69.1603 77.3352 68.7661 76.4925 68.1473C76.2909 67.9992 75.8724 67.3717 75.7067 67.315C74.804 67.0058 75.2528 67.6557 75.3183 67.9214C75.3984 68.2462 75.3865 68.5508 75.3205 68.8812L77.8668 68.5475C77.5475 67.8427 77.6066 66.9897 77.9662 66.3129C78.0548 66.1366 78.1661 65.9764 78.3002 65.8322C77.7846 65.5634 77.5577 65.5868 77.6194 65.9025C77.3931 66.1797 77.5583 67.8697 78.5674 66.9822C78.6676 66.8942 78.7941 66.3052 78.9002 66.15C79.0276 65.9662 79.1755 65.801 79.344 65.6541C79.0338 65.5021 79.03 65.5772 79.3325 65.8793C79.4353 66.2123 79.6531 66.4994 79.7429 66.8517C79.8086 67.0744 79.8443 67.3017 79.85 67.5338C79.7347 68.1644 80.1006 68.2173 80.9479 67.6926C80.8915 67.7913 80.9537 65.9667 81.1335 66.1622C80.7939 66.2218 80.7174 66.3247 80.904 66.471C81.0071 66.5764 81.0832 66.6999 81.1326 66.8414C81.3266 67.3668 80.9584 68.2418 80.3461 67.7935C80.1616 67.6584 80.0814 67.3204 80.0335 67.1076C79.9905 66.9336 79.9737 66.757 79.9831 66.5776C80.0633 66.3151 80.0337 66.2719 79.8943 66.4482C80.1741 66.4609 80.7601 67.3121 80.8872 67.5324C81.0227 67.7249 81.1102 67.9372 81.1498 68.1694C81.0584 68.6879 81.2224 68.587 81.6417 67.867L82.7152 68.0078C81.9274 67.6608 81.3468 66.4077 81.0018 65.6588C80.8404 65.3082 80.7083 64.9505 80.5948 64.5815C80.521 64.34 80.4563 64.096 80.4007 63.8496C79.1823 64.0506 78.8777 64.3614 79.4869 64.782C79.8914 65.4867 80.6397 66.0621 81.0806 66.7817C81.3344 67.1957 81.5701 67.6262 81.7668 68.0707C81.8665 68.2942 81.9559 68.5219 82.0349 68.7537C82.1144 69.3326 82.3636 69.2159 82.7824 68.4037C80.9944 68.4654 80.9861 71.2594 82.7824 71.1974C85.0151 71.1204 85.1311 68.9728 84.4597 67.3289C83.7701 65.6402 82.7581 64.0881 81.4571 62.8066C80.9085 62.2661 80.2505 61.6455 79.4342 61.6229C78.5637 61.5987 77.8337 62.2079 77.6319 63.0362C77.2349 64.6659 78.3883 66.8999 79.2409 68.2252C80.0355 69.4605 81.6697 71.5968 83.2722 70.1406C84.5934 68.9399 83.7716 66.6939 82.8726 65.5366C81.8444 64.2129 80.0063 62.7653 78.3622 63.9834C77.066 64.9436 76.9857 66.8733 77.4837 68.2835C78.0272 69.8226 79.4392 70.9439 81.1174 70.6657C82.7003 70.4034 83.9132 69.0383 83.9886 67.4276C84.0652 65.7928 82.9811 63.9247 81.3062 63.5622C79.3101 63.1301 78.1645 65.2002 78.082 66.9185C78.006 68.5009 78.9713 70.6857 80.8904 70.3055C82.7323 69.9405 82.798 67.7579 82.4684 66.2826C82.113 64.6919 80.8903 62.5409 78.9802 62.8079C77.4526 63.0215 76.1587 64.8121 75.8549 66.2351C75.482 67.9811 76.8841 70.0581 78.8097 69.1255C80.4388 68.3365 80.8294 65.7538 79.9895 64.2834C78.8478 62.2845 76.7734 62.9894 75.7225 64.633C74.677 66.2681 74.6777 68.229 75.4609 69.9576C75.9499 71.0366 77.7811 70.756 78.0073 69.6239C78.3027 68.1446 78.1377 66.3793 76.9478 65.3077C75.7417 64.2215 73.9816 64.659 73.2377 66.0419C71.4996 69.2734 76.3749 71.604 78.7661 72.143C81.2893 72.7117 86.5084 73.2748 86.7351 69.6349C86.8414 67.9285 86.0954 66.2231 85.4044 64.6982C84.7696 63.2972 83.9011 61.98 82.6657 61.0435C81.1242 59.8751 79.5839 59.7553 77.8703 60.6077C76.07 61.5033 74.4366 62.7283 72.9938 64.125C71.7014 65.3761 73.673 67.3502 74.964 66.1005Z" fill="white"/>
<path d="M74.5206 64.7929C74.4712 64.7958 74.4235 64.7946 74.3742 64.7895L74.7446 64.8394C74.6832 64.8298 74.6257 64.8146 74.5676 64.7929L74.9004 64.9337C74.8318 64.9041 74.7704 64.868 74.7113 64.8223L74.9932 65.0407C74.9556 65.0083 74.922 64.9744 74.89 64.9365C74.6713 64.6766 74.2319 64.5273 73.9049 64.5273C73.5633 64.5273 73.1551 64.6795 72.9198 64.9365C72.6761 65.2027 72.4952 65.5522 72.5118 65.9242L72.5616 66.2955C72.6278 66.5322 72.7472 66.7376 72.9198 66.9119C73.0721 67.0928 73.2776 67.2491 73.4941 67.346C73.647 67.4144 73.8023 67.4933 73.9677 67.5276C74.1442 67.5643 74.3382 67.5971 74.5206 67.5867C74.8903 67.5655 75.2387 67.4453 75.5057 67.1775C75.7474 66.9353 75.9293 66.5378 75.9138 66.1898C75.8976 65.8286 75.7793 65.4539 75.5057 65.2021C75.2422 64.9595 74.8897 64.7718 74.5206 64.7929Z" fill="white"/>
<path d="M118.315 63.4843C119.301 62.7586 120.327 61.9002 121.498 62.6933C122.456 63.342 123.455 64.1272 124.278 64.9435C125.058 65.7174 125.369 66.5663 124.598 67.4839C123.833 68.395 122.544 68.6277 121.424 68.7386C120.135 68.8659 118.833 68.9009 117.541 68.975C117.324 68.9874 116.7 69.1181 116.469 69.0331C116.18 68.9268 116.339 69.1967 116.282 68.776C116.213 68.2712 116.537 67.5905 116.74 67.1474C117.004 66.5698 117.352 66.0262 117.707 65.5012C117.869 65.262 118.152 64.9749 118.259 64.7163L118.483 64.4086L117.976 64.2258C117.779 64.3155 117.425 65.3505 117.29 65.5773C117.083 65.9253 116.73 66.5928 116.236 66.4941L116.85 68.8288C118.188 67.7119 120.045 66.2293 121.782 65.8527L120.708 65.7119C120.565 64.6447 120.366 64.4333 120.11 65.0776C119.975 65.3094 119.826 65.5309 119.661 65.742C119.472 65.9539 119.053 66.4331 118.706 66.3306C118.096 66.1506 118.411 65.1992 118.573 64.7522L115.886 64.0095C115.763 64.5307 115.64 65.0519 115.516 65.5731L115.378 66.1594C115.17 66.7476 115.627 66.9249 116.748 66.6911C116.981 66.5034 117.178 65.7333 117.339 65.4452C117.565 65.0412 117.813 64.6526 118.081 64.2757C118.409 63.8147 118.232 63.9722 118.514 64.2858C118.843 64.6528 118.769 65.0758 118.895 65.4914L118.839 65.7363C119.507 66.4926 119.858 66.6029 119.892 66.0672C120.142 65.8309 120.288 65.4666 120.557 65.2199C120.964 64.8472 121.913 64.107 122.524 64.1308C123.359 64.1633 122.749 65.3308 122.334 65.6635C122.15 65.8108 121.66 65.8455 121.541 65.9744C121.258 66.4186 121.262 66.6406 121.553 66.6403C121.343 66.4704 121.203 66.5232 121.135 66.7988C120.851 67.0026 120.71 67.2314 120.388 67.3999C120.201 67.4988 120.005 67.569 119.798 67.6105C119.248 67.6095 119.373 67.8157 120.173 68.2291L120.033 69.3055C120.195 68.9591 121.156 68.5952 121.489 68.4681C121.731 68.3759 121.986 68.3016 122.238 68.2413C122.43 68.1884 122.624 68.1521 122.822 68.1322C123.135 68.1141 123.092 68.0824 122.694 68.0374L122.004 66.8312C122.022 66.5151 121.902 66.9841 121.801 67.1168C121.636 67.335 121.436 67.4969 121.222 67.6674C119.819 68.7852 121.802 70.7502 123.193 69.6429C124.102 68.9189 125.31 67.3442 124.6 66.1262C123.772 64.7073 121.552 65.4483 120.385 65.9173C119.357 66.3304 117.772 67.0341 117.486 68.2291C117.085 69.9127 118.884 70.5927 120.214 70.3635C122.491 69.9712 125.899 66.7115 123.408 64.5311C121.344 62.7238 117.369 64.9244 119.173 67.5983C120.963 70.2512 124.828 68.0945 125.534 65.6751C125.909 64.386 125.658 62.8489 124.61 61.9414C123.372 60.8696 121.748 61.3363 120.429 61.9809C118.572 62.8881 115.303 66.3104 118.034 68.1613C119.323 69.0349 120.826 68.0826 121.374 66.8406C121.943 65.5521 121.656 64.0385 120.919 62.8758C119.986 61.4013 118.14 60.5199 116.634 61.7418C115.474 62.6831 114.467 64.5219 114.061 65.9484C113.631 67.4603 114.668 69.4026 116.461 68.9376C118.136 68.5033 118.249 66.1202 118.573 64.7522C118.991 62.9829 116.492 62.3337 115.886 64.0095C115.29 65.6588 115.539 67.8423 117.216 68.7644C119.189 69.8496 121.226 68.4517 122.31 66.8167C122.775 66.1154 123.22 65.2718 123 64.4014C122.756 63.4393 121.799 62.9581 120.876 63.1944C118.704 63.7509 116.569 65.4431 114.88 66.8533C114.095 67.5089 114.512 68.9917 115.495 69.188C117.354 69.5593 118.77 68.5455 119.696 66.9873C120.544 65.562 121.32 63.6322 119.946 62.2503C117.001 59.2887 113.846 66.0169 113.556 68.2146C113.315 70.0428 114.124 71.7281 116.132 71.8245C118.153 71.9215 120.383 71.7044 122.386 71.417C124.141 71.1653 125.808 70.4935 126.906 69.0433C127.958 67.6552 128.18 65.8376 127.304 64.2964C126.823 63.4505 126.087 62.785 125.339 62.1829C124.491 61.5005 123.644 60.7229 122.719 60.1485C120.705 58.8987 118.642 59.7961 116.908 61.072C115.478 62.1249 116.866 64.5504 118.315 63.4843Z" fill="white"/>
<path d="M151.552 52.9832C150.939 49.6974 150.565 46.3668 149.806 43.1089C149.589 42.181 149.343 41.2595 149.048 40.3535C148.964 40.0974 148.877 39.8423 148.786 39.5889C148.767 39.5346 148.745 39.4812 148.725 39.427C148.392 39.0321 148.184 38.2144 147.974 37.7638C147.701 37.1801 147.427 36.5971 147.15 36.0153C146.017 33.6308 144.843 31.2644 143.577 28.9477C142.298 26.6086 140.925 24.318 139.403 22.1291C138.964 21.4983 138.462 20.9001 138.044 20.2575C139.083 21.8519 137.839 20.0206 137.521 19.6411C136.754 18.7268 135.952 17.8424 135.11 16.9981C134.118 16.0038 133.033 15.1439 131.985 14.2156C133.397 15.4666 131.979 14.2412 131.611 13.9882C131.081 13.6245 130.539 13.2781 129.986 12.9509C129.337 12.5668 128.673 12.2089 127.994 11.8798C127.862 11.8155 127.719 11.7577 127.577 11.6978C127.945 11.8986 128.168 12.1074 127.212 11.5323C125.949 11.0527 124.65 10.6505 123.347 10.2986C121.64 9.83791 119.908 9.47622 118.163 9.19468C117.867 9.14692 117.553 9.07508 117.246 9.03631C117.089 9.03033 116.931 9.02192 116.841 9.01171C116.152 8.93405 115.461 8.86768 114.77 8.81152C111.445 8.54137 108.103 8.50788 104.771 8.64189C103.001 8.71308 101.235 8.83889 99.4699 8.99291C98.9791 9.03575 97.6696 9.40157 97.2186 9.22044C96.9731 9.2602 96.7279 9.30197 96.4834 9.3468C94.843 9.64756 93.2798 10.1157 91.7004 10.6401C91.6759 10.6482 91.6553 10.6548 91.6336 10.6619C91.3201 10.8155 91.004 10.9617 90.6953 11.126C90.0403 11.4746 89.4153 11.8673 88.8071 12.2921C87.811 12.9878 86.6727 13.2183 85.5541 13.1055C85.5363 13.2014 85.519 13.2972 85.497 13.3941C84.8429 16.2738 81.1956 18.543 78.3418 17.4676C77.8043 17.265 77.2639 17.1174 76.7079 16.988C76.4882 16.9816 76.2671 16.9603 76.0475 16.9552C75.473 16.942 74.8984 16.9615 74.3255 17.0038C74.0774 17.0221 73.8304 17.0503 73.5831 17.0749C70.9955 17.5446 68.4183 18.0352 65.81 18.3817C65.6861 18.3982 65.5615 18.4054 65.4366 18.4067C64.0634 19.7777 62.501 20.903 60.7748 21.9483C59.8725 22.4946 58.9859 23.0561 58.1023 23.6315C57.995 23.7244 57.8872 23.8166 57.783 23.9138C57.6629 24.0257 57.5492 24.1434 57.4366 24.262C57.4024 24.3959 57.3354 24.5133 57.2617 24.6051C57.0228 24.9865 56.6333 25.4204 56.474 25.6941C56.158 26.237 55.8616 26.7915 55.5813 27.3538C55.2972 27.9237 55.0785 28.5418 54.7721 29.0979C54.8046 29.039 54.8336 28.9862 54.861 28.9361C55.0544 28.5401 55.358 28.0296 54.861 28.9361C54.8225 29.015 54.7883 29.0894 54.7658 29.147C54.6707 29.3905 54.5775 29.635 54.4863 29.8801C53.5778 32.3217 52.852 34.8272 52.1825 37.3437C51.5364 39.7725 51.0721 42.2125 50.7049 44.6984C50.7036 44.7071 50.7026 44.7139 50.7013 44.7224C50.6959 44.7674 50.6898 44.8184 50.6821 44.8809C50.6464 45.1707 50.6094 45.4603 50.5737 45.75C50.4845 46.4754 50.3988 47.2012 50.3116 47.9268C50.1272 49.4606 49.9302 50.9924 49.7221 52.5232C49.5378 53.879 49.3373 55.2374 49.0857 56.5854C49.4259 56.9145 49.6361 57.3857 49.6896 57.896C49.7056 58.0482 49.7206 58.1998 49.7349 58.3511C51.215 59.9974 50.9711 62.9989 50.0345 65.1441C49.8417 65.5858 49.4234 65.855 48.9595 65.9588C48.709 66.8745 48.4863 67.772 48.3367 68.6968C48.72 70.9536 49.0869 73.2319 50.3136 75.2088C51.5299 77.169 53.1349 78.3583 55.3008 79.0682C57.4915 79.7861 59.9848 80.1965 61.7782 81.7485C62.0227 81.9602 62.2401 82.1901 62.439 82.4318C63.2713 82.9892 64.0038 83.7178 64.5886 84.6788C64.8208 85.0604 65.0253 85.4548 65.2164 85.8553C66.2107 86.8239 67.0511 87.937 67.8714 89.0047C68.6958 89.5949 69.4347 90.3117 70.1859 91.0294C70.4148 91.2481 70.6502 91.4534 70.8895 91.6516C71.758 92.1452 72.5565 92.7409 73.3795 93.362C73.3966 93.3749 73.414 93.3868 73.431 93.3996C73.5454 93.4673 73.6596 93.535 73.7754 93.602C74.4836 94.0119 75.1976 94.4598 75.9211 94.9072C77.2671 95.2797 78.5798 95.7641 79.901 96.218C81.3798 96.726 82.8574 97.1274 84.3981 97.3941C85.1625 97.5265 85.9282 97.6558 86.6837 97.8334C87.4664 98.0175 88.2186 98.2959 88.9934 98.507C89.6352 98.682 90.3302 98.7863 90.9127 98.8567C91.39 98.9143 91.9364 98.9969 92.2054 99.4534C92.4825 99.9237 92.3365 100.613 91.932 100.963C91.5136 101.324 90.9292 101.399 90.3949 101.405C89.1361 101.757 87.8532 102.012 86.5807 102.307C86.5499 102.317 86.5187 102.326 86.4878 102.335C86.4111 102.382 86.3249 102.421 86.2264 102.449C85.7958 102.573 85.3762 102.718 84.9645 102.878C84.5173 103.255 83.9504 103.508 83.3362 103.619C81.5581 104.548 79.945 105.781 78.4186 107.14C77.4137 108.374 76.3757 109.586 75.4556 110.865C73.8581 113.086 72.372 115.365 70.8847 117.655C70.5841 118.535 70.237 119.381 69.7462 120.178C69.1792 122.194 68.1172 124.106 67.1563 125.974C66.8199 127.218 66.4306 128.446 65.9954 129.659C65.9958 129.661 65.9963 129.662 65.9966 129.663C66.0821 129.909 66.0917 130.175 65.989 130.428C65.9624 130.494 65.9402 130.56 65.9147 130.626C65.8254 130.958 65.7095 131.279 65.5813 131.594C65.472 131.956 65.3774 132.321 65.2935 132.688C65.2796 133.223 65.1753 133.748 64.9967 134.249C64.6872 136.219 64.5704 138.23 64.1926 140.194C64.1944 140.683 64.1563 141.174 64.0827 141.658C64.3085 141.997 64.4998 142.354 64.5815 142.761C64.7336 143.518 64.6742 144.326 64.6226 145.09C64.5165 146.664 64.2738 148.222 64.198 149.799C64.1242 151.336 64.1234 152.921 64.4144 154.437C64.545 155.118 64.7405 155.776 64.9755 156.42C65.6588 156.953 66.223 157.588 67.1853 157.722C68.6038 157.92 69.5236 157.63 70.5347 156.648C70.6701 156.516 70.816 156.392 70.9692 156.281C71.3078 155.778 71.6287 155.263 71.9098 154.724C71.9537 154.068 72.215 153.478 72.4778 152.887C72.4833 152.846 72.4887 152.806 72.4941 152.765C72.5203 152.672 72.5675 152.591 72.6357 152.522C72.6365 152.521 72.6372 152.52 72.638 152.52C72.7291 152.307 72.8156 152.092 72.8856 151.871C73.0456 151.367 73.0501 150.839 73.1171 150.318C73.1953 149.71 73.3207 149.141 73.5615 148.575C73.6472 148.374 73.9142 148.288 74.1101 148.312C74.3488 148.34 74.4814 148.5 74.5679 148.707C74.576 148.727 74.5824 148.747 74.5902 148.766C74.6413 148.757 74.695 148.757 74.7489 148.769C74.9375 148.812 75.0535 149.033 75.0012 149.215C74.9467 149.404 74.8798 149.591 74.8335 149.783C74.9334 150.699 74.7732 151.657 74.6714 152.556C74.5281 153.823 74.5735 155.108 74.5258 156.381C74.5043 156.954 74.4753 157.527 74.4443 158.1C74.5853 158.836 74.758 159.566 74.9125 160.274C75.1686 161.448 75.4837 162.607 75.8249 163.758C76.1913 164.587 76.4666 165.466 76.7463 166.303C77.0589 167.239 77.2758 168.203 77.4445 169.177C77.5473 169.559 77.6478 169.942 77.7423 170.329C77.9 170.975 78.0647 171.939 78.3592 172.731C78.5266 173.05 78.709 173.364 78.8769 173.684C78.8843 173.692 78.891 173.702 78.8984 173.71C79.099 173.935 79.1904 174.181 79.2025 174.422C79.3273 174.819 79.354 175.224 79.2539 175.643C79.1998 175.869 79.1114 176.085 79.0377 176.305C78.9997 176.419 78.9635 176.533 78.9337 176.649C78.926 176.679 78.895 176.833 78.8933 176.826C78.7994 177.527 78.9504 178.246 79.1861 178.906C79.3017 179.229 79.4579 179.546 79.6617 179.823C79.7127 179.893 79.7836 179.974 79.8609 180.051C80.4052 180.085 80.9376 180.188 81.3653 180.407C82.2408 180.857 82.3219 181.709 82.377 182.599C82.4276 183.418 82.5153 184.159 82.7565 184.943C82.8715 185.317 82.9643 185.684 82.9265 186.057C83.3217 187.222 81.4085 188.223 80.7184 188.99C80.4475 189.29 80.2062 189.625 79.9937 189.983C79.7441 190.587 79.5609 191.211 79.5401 191.862C79.5235 192.381 79.5335 193.158 79.7004 193.802C79.9181 194.112 80.2076 194.42 80.5442 194.69C81.0256 194.875 81.565 194.961 82.0783 194.999C82.8081 194.913 83.5543 194.919 84.2802 194.944C85.0135 194.969 85.7449 194.991 86.4773 195C87.2508 194.971 88.0231 194.912 88.7836 194.785C89.8457 194.607 91.1679 194.352 91.8658 193.446C92.4631 192.67 92.538 191.569 92.5919 190.627C92.6221 190.1 92.6287 189.573 92.6331 189.046C92.5524 188.877 92.5176 188.669 92.5479 188.422C92.6066 187.943 92.65 187.463 92.686 186.982C92.6938 186.859 92.7012 186.736 92.7119 186.613C92.8105 185.137 92.8456 183.657 92.9862 182.186C93.0608 181.405 93.3478 180.7 94.0266 180.261C94.2014 180.148 94.3637 180.039 94.5188 179.931C94.5902 179.816 94.6609 179.698 94.7285 179.571C95.1711 178.743 95.3164 177.685 95.3336 176.758C95.3381 176.517 95.3079 176.293 95.261 176.079C95.0734 175.459 94.82 174.871 94.7476 174.218C94.6603 173.429 94.8325 172.661 94.9814 171.889C95.2996 170.241 95.5493 168.579 95.9104 166.939C96.0871 166.137 96.3442 165.351 96.4524 164.535C96.5481 163.814 96.5458 163.069 96.8459 162.395C96.862 162.359 96.8804 162.325 96.8976 162.29C96.9488 162.039 96.9996 161.788 97.0415 161.536C97.1683 160.773 97.2876 160.055 97.9219 159.54C99.0044 158.662 101.466 158.929 102.232 160.149C102.701 160.897 102.826 162.019 103.034 162.854C103.332 164.046 103.606 165.245 103.979 166.416C104.642 168.498 105.429 170.493 105.572 172.682C105.681 173.235 105.687 173.8 105.536 174.376C105.462 175.13 105.075 175.802 104.931 176.732C104.911 176.86 104.897 176.991 104.886 177.122C104.899 177.336 104.925 177.558 104.974 177.802C105.066 178.259 105.19 178.79 105.462 179.18C105.737 179.571 106.062 179.58 106.455 179.794C107.396 180.306 107.161 181.215 107.349 182.126C107.618 183.425 108.126 184.646 108.316 185.967C108.511 187.327 108.514 188.704 108.692 190.065C108.764 190.612 108.855 191.157 108.908 191.707C109.005 192.044 109.105 192.382 109.208 192.718C109.719 193.498 110.248 194.014 111.268 194.283C112.366 194.573 113.596 194.552 114.724 194.555C116.376 194.559 118.057 194.548 119.684 194.233C120.283 194.118 121.069 194.048 121.46 193.517C121.633 193.281 121.73 192.971 121.829 192.697C121.949 190.699 121.091 188.64 119.548 187.339C119.003 186.88 118.352 186.653 118.052 185.992C118.302 185.329 118.335 184.571 118.415 183.867C118.554 182.647 118.7 181.425 118.768 180.197C119.122 180.096 119.508 180 119.839 179.836C120.179 179.668 120.484 179.343 120.57 178.966C120.851 177.738 120.93 176.148 120.301 175.033C122.971 167.337 124.375 158.985 124.093 150.843C124.032 149.076 123.876 147.281 123.7 145.522C123.594 144.472 123.369 143.403 123.447 142.346C123.694 142.72 123.717 143.405 123.939 143.858C124.076 144.138 124.323 144.557 124.618 144.696C124.811 144.787 125.275 144.691 125.547 144.787C125.469 145.599 125.58 146.716 125.765 147.514C125.899 148.09 126.248 148.518 126.418 149.061C126.998 150.908 127.116 153.395 128.377 154.966L128.511 155.125C128.976 155.789 129.56 156.392 130.391 156.559C131.248 156.731 132.128 156.564 132.946 156.307L133.288 156.081C134.488 155.276 134.946 154.175 135.439 152.876L135.775 151.398C135.962 149.972 136.049 148.428 135.876 146.995C135.65 145.119 135.078 143.333 134.557 141.525C135.336 141.114 135.923 140.644 136.447 139.934C136.428 138.903 136.341 137.906 136.209 136.922C136.136 136.66 136.065 136.404 136.007 136.156C135.815 135.334 135.628 134.515 135.432 133.697C135.384 133.534 135.345 133.369 135.311 133.203C135.178 132.66 135.042 132.119 134.894 131.578C134.048 128.479 133.2 125.366 132.181 122.319C132.058 121.951 131.928 121.587 131.795 121.225C130.951 119.544 130.032 117.902 129 116.325C126.754 113.334 124.244 110.552 121.838 107.674C121.785 107.61 121.738 107.544 121.695 107.478C120.608 106.678 119.531 105.866 118.501 104.991C118.366 104.877 118.232 104.76 118.1 104.64C115.776 103.254 113.751 101.35 111.033 100.773C110.831 100.73 110.674 100.621 110.556 100.478C110.237 100.336 109.925 100.177 109.601 100.044C109.532 100.015 109.478 99.9702 109.432 99.9198C109.393 99.9196 109.357 99.9148 109.322 99.905C109.14 100.035 108.89 99.955 108.699 99.8733C108.522 99.7978 108.36 99.6939 108.184 99.6177C108.134 99.5958 108.083 99.5223 108.071 99.4704C108.061 99.4271 108.061 99.3827 108.071 99.3394C108.095 99.2344 108.204 99.1587 108.308 99.1584C108.583 99.1577 108.855 99.1255 109.129 99.1175C109.18 99.0663 109.244 99.0238 109.328 98.9982C110.463 98.6521 111.605 98.3315 112.751 98.0282C114.174 97.6517 115.604 97.3008 117.035 96.9522C119.693 96.1256 122.248 95.0525 124.761 93.879C126.028 92.9696 127.345 92.1288 128.638 91.2569C131.033 89.3039 133.179 87.0571 135.25 84.7429C135.357 84.4584 135.473 84.1784 135.617 83.9127C135.87 83.4453 136.178 83.0627 136.527 82.7468C136.575 82.5418 136.621 82.3357 136.664 82.1265C136.869 81.1125 137.95 80.7347 138.842 80.8866C141.136 81.2777 143.413 81.1129 145.6 80.5475C145.746 80.4777 145.893 80.4101 146.038 80.3393C146.296 80.1356 146.548 79.9213 146.787 79.6868C148.369 78.1353 149.432 76.0444 150.14 73.9611C150.683 72.3652 150.997 70.7428 151.214 69.0954C150.769 66.1297 150.967 62.8075 152.282 60.0741C152.336 59.6619 152.388 59.2496 152.438 58.8371C152.46 58.6601 152.498 58.4878 152.553 58.3245C152.219 56.5441 151.883 54.764 151.552 52.9832Z" fill="black"/>
<path d="M129.094 154.988C127.818 153.393 127.24 150.851 126.989 148.864C127.253 148.776 127.274 148.846 127.52 148.948C128.382 149.902 128.465 151.585 128.679 152.809L129.094 154.988Z" fill="#E9E2D8"/>
<path d="M82.4767 29.7119C82.5104 30.2884 82.6228 31.0541 82.5359 31.621C82.4549 32.1499 82.0413 32.8299 81.8182 33.3205C80.1794 36.9265 78.1347 40.0992 75.5052 43.0594C74.5279 44.1597 73.4946 45.2117 72.427 46.2238C72.0894 46.5439 71.6961 47.0097 71.2858 47.2193C71.0413 47.2789 70.8477 47.3054 70.6552 47.4788C70.4125 47.6972 70.2312 47.923 69.937 48.086C70.494 47.4816 71.4058 46.9669 71.6062 46.1625C72.7732 44.9244 74.0124 43.7529 75.132 42.4706C77.0627 40.2599 78.8373 37.8454 80.1894 35.2328C81.1137 33.4469 81.801 31.6019 82.4767 29.7119Z" fill="#E4DDD2"/>
<path d="M71.6061 46.1628C71.4058 46.9672 70.494 47.4819 69.9369 48.0863C70.2311 47.9233 70.4125 47.6975 70.6551 47.4791C70.8476 47.3057 71.0412 47.2792 71.2857 47.2196L71.1924 47.3166C70.4682 48.0523 69.1496 48.7705 68.6536 49.6287C68.7829 49.8298 68.9009 49.9504 69.0883 50.0985C68.6114 50.9075 67.5772 51.5983 66.8469 52.1982C64.4154 54.1955 61.582 56.1942 60.1187 59.0575C59.7157 59.846 59.324 60.8227 59.2863 61.7155C59.037 61.5761 58.9854 61.5984 58.8586 61.3274C59.5803 55.8263 64.3578 52.4217 68.3186 49.1468C69.4568 48.2055 70.5207 47.1649 71.6061 46.1628Z" fill="#AA9665"/>
<path d="M135.314 137.978C135.673 138.325 135.643 139.239 135.678 139.719C134.949 140.504 133.989 141.051 133.057 141.562C130.406 143.017 127.882 143.817 124.863 144.09L124.362 141.944C125.979 141.657 127.564 141.377 129.122 140.836C131.286 140.086 133.263 138.978 135.314 137.978Z" fill="#E4DDD2"/>
<path d="M64.8606 138.605C66.3789 139.573 67.8888 140.368 69.6205 140.891C71.4126 141.433 73.2439 141.616 75.097 141.805C74.9108 142.584 74.9372 143.505 74.3556 144.102L73.6342 144.197C72.6625 144.267 71.6694 144.06 70.7207 143.876C68.3056 143.406 66.0678 142.714 64.1731 141.077L64.8606 138.605Z" fill="#E4DDD2"/>
<path d="M111.554 101.646L113.565 102.678C113.128 103.3 112.562 103.768 112.124 104.362C107.436 107.61 101.495 109.151 95.8454 108.277C92.0979 107.697 88.8412 105.801 86.6042 102.723L88.2786 102.237C88.7752 103.064 89.4367 103.548 90.2074 104.102C91.7721 105.226 93.2739 105.941 95.1433 106.399C99.4883 107.463 104.618 106.701 108.443 104.341C109.645 103.599 110.648 102.732 111.554 101.646Z" fill="#E4DDD2"/>
<path d="M122.711 146.179C122.864 146.144 122.955 146.159 123.109 146.179L123.505 153.759C121.065 153.561 118.915 153.213 116.85 151.82C115.239 150.586 114.611 149.086 114.007 147.197L122.711 146.179Z" fill="#415475"/>
<path d="M75.7584 144.207L83.9329 146.154C83.5428 148.184 82.9115 149.596 81.2827 150.928C80.3483 151.515 79.3021 151.945 78.2222 152.171L78.006 152.215C76.9386 152.438 75.8413 152.435 74.7546 152.474C74.8854 149.62 75.1626 147.002 75.7584 144.207Z" fill="#415475"/>
<path d="M116.14 175.876L120.039 175.798C120.064 176.812 120.163 178.033 119.901 179.013C118.6 180.207 110.954 179.737 109.091 179.67C108.138 179.656 106.897 179.652 106.022 179.266C105.346 178.453 105.433 176.934 105.397 175.923L116.14 175.876Z" fill="#DFB39D"/>
<path d="M107.969 180.885L107.901 180.385C108.327 180.243 108.884 180.333 109.33 180.347C110.243 180.375 111.155 180.401 112.068 180.408C114.144 180.426 116.229 180.471 118.294 180.21L117.564 186.166C116.625 185.881 115.676 185.955 114.716 186.027C112.775 186.173 110.924 186.579 108.962 186.499L107.969 180.885Z" fill="#FFE1CA"/>
<path d="M91.4125 180.654L92.85 180.553C92.6722 181.883 92.433 183.205 92.2675 184.536C92.192 185.143 92.2403 186.368 91.9175 186.845C91.628 187.025 91.3522 187.16 91.0041 187.174C90.1866 187.208 89.2148 186.895 88.3922 186.779C86.9438 186.576 85.579 186.504 84.1206 186.523C83.8299 186.588 83.7119 186.658 83.4198 186.557L82.3223 180.732L91.4125 180.654Z" fill="#FFE1CA"/>
<path d="M93.5208 175.771L94.666 175.668C94.7486 175.811 94.8025 175.936 94.8148 176.103C94.875 176.911 94.9488 178.891 94.3177 179.472C93.756 179.988 92.1467 179.974 91.3891 180.023C89.4763 180.147 87.5549 180.144 85.6389 180.142C84.0235 180.14 82.3998 180.161 80.7926 179.981C80.4341 179.896 80.2578 179.819 79.9651 179.595C79.5662 178.757 79.5167 177.657 79.4189 176.743C79.6711 176.478 79.8446 176.43 80.2121 176.403C81.9268 176.278 83.7128 176.388 85.4364 176.367C88.1335 176.333 90.8485 176.141 93.5208 175.771Z" fill="#DFB39D"/>
<path d="M83.9851 187.136C85.0843 187.034 86.2485 187.036 87.35 187.126C88.617 187.228 90.3654 187.831 91.5807 187.496C91.799 187.436 91.7748 187.419 92.0138 187.479L92.1103 188.145C92.2822 189.759 92.3558 191.964 91.2628 193.263C90.4012 194.287 88.9523 194.273 87.7291 194.346C85.938 194.445 83.8107 194.819 82.0393 194.592L81.8371 194.563L81.0244 194.424C80.6422 194.314 80.3703 194.109 80.1809 193.759C79.7513 192.963 79.7401 191.975 80.0178 191.125L80.0794 190.944C80.2233 190.507 80.3854 190.118 80.6215 189.723C81.4029 188.417 82.5014 187.499 83.9851 187.136Z" fill="#844E38"/>
<path d="M83.4927 31.7588L83.6123 31.9534C84.5146 33.4474 85.1101 35.1047 86.0591 36.5933C90.3992 43.4019 96.8409 47.6951 104.601 49.7061C110.394 51.2075 116.393 51.1861 122.181 52.5914C125.603 53.4223 129.019 54.9809 131.804 57.1488C133.537 58.498 135.122 60.1218 136.243 62.026C137.063 63.4177 137.842 65.0402 138.099 66.6477C137.416 66.1032 137.142 65.0593 136.647 64.329C135.44 62.5442 134.05 60.8245 132.387 59.4383C131.109 58.3727 129.642 57.6254 128.172 56.8669C126.749 56.1322 125.314 55.3825 123.822 54.797C123.143 54.5307 122.426 54.3554 121.716 54.1947C121.35 54.1118 120.896 54.0816 120.563 53.9081L120.455 53.8429C119.774 53.4071 118.887 53.3017 118.103 53.1487C116.283 52.7932 114.457 52.6281 112.623 52.37C109.238 51.8932 105.691 51.4059 102.395 50.5007C96.2035 48.8003 90.7173 45.6492 87.0631 40.2445C85.5508 38.0081 84.3248 35.5215 83.7381 32.8712L83.4927 31.7588Z" fill="#AA9665"/>
<path d="M133.956 141.82C135.115 145.508 135.831 148.96 134.988 152.809L135.439 152.875C134.946 154.174 134.488 155.276 133.288 156.081L132.947 156.307C132.128 156.563 131.248 156.731 130.391 156.559C129.56 156.392 128.976 155.789 128.512 155.124C128.794 155.061 128.827 155.035 129.088 155.149L129.095 154.988L128.68 152.808L128.999 152.526C128.877 151.462 128.759 149.232 127.891 148.508C127.595 148.261 127.161 148.223 126.791 148.196C126.048 147.344 125.825 146.17 125.87 145.06L125.907 144.679C128.804 144.153 131.416 143.346 133.956 141.82Z" fill="#FFE1CA"/>
<path d="M131.398 153.471L131.338 150.474L131.526 150.341C131.884 150.734 131.836 152.221 131.814 152.777C131.803 153.052 131.806 153.323 131.679 153.574L131.398 153.471Z" fill="black"/>
<path d="M128.998 152.526C129.113 153.434 129.127 155.186 129.895 155.782C130.251 156.058 130.618 156.132 131.056 156.105C131.173 155.496 130.616 154.448 130.426 153.813C130.15 152.89 129.136 148.887 129.771 148.372C130.011 148.763 129.908 149.483 129.978 149.959C130.098 150.781 130.354 151.586 130.514 152.402C130.649 153.092 130.721 154.526 131.142 155.033C131.285 154.506 131.304 154 131.398 153.471L131.679 153.574C131.349 154.26 131.517 155.359 131.685 156.081C132.101 156.043 132.498 155.929 132.871 155.737C133.977 155.167 134.632 153.949 134.987 152.809L135.439 152.875C134.946 154.174 134.487 155.276 133.288 156.081L132.946 156.307C132.128 156.563 131.248 156.731 130.39 156.559C129.56 156.392 128.976 155.789 128.511 155.124C128.794 155.061 128.827 155.035 129.088 155.149L129.094 154.988L128.68 152.808L128.998 152.526Z" fill="black"/>
<path d="M76.5846 141.57C79.7768 142.703 83.2369 143.472 86.5663 144.074C98.5429 146.241 110.852 145.792 122.53 142.3L122.863 145.17L122.819 145.439C121.578 145.782 120.246 145.88 118.971 146.025C117.146 146.231 115.332 146.436 113.501 146.6C110.236 146.893 106.94 147.201 103.661 147.268C97.0165 147.405 90.3496 146.812 83.8153 145.619C81.1281 145.128 78.4895 144.396 75.8191 143.826L76.5846 141.57Z" fill="#415475"/>
<path d="M107.562 180.837L107.969 180.884L108.962 186.498C110.924 186.579 112.775 186.173 114.716 186.027C115.676 185.955 116.625 185.881 117.564 186.166L117.652 186.194C117.928 186.2 117.895 186.162 118.052 185.992C118.352 186.653 119.003 186.88 119.548 187.339C121.091 188.64 121.949 190.698 121.829 192.697C121.73 192.97 121.633 193.281 121.46 193.517C121.069 194.048 120.283 194.118 119.684 194.233C118.057 194.548 116.376 194.559 114.724 194.555C113.596 194.552 112.366 194.573 111.268 194.283C110.085 193.971 109.563 193.328 108.963 192.324C107.879 190.248 108.62 188.014 108.35 185.809L107.562 180.837Z" fill="black"/>
<path d="M114.825 186.568C115.854 186.405 117.024 186.454 117.948 186.969C119.543 187.858 120.603 189.431 121.067 191.188C121.218 191.76 121.304 192.621 120.883 193.111C120.253 193.844 116.681 193.913 115.701 193.968C114.148 193.983 111.489 194.136 110.292 193.013C108.743 191.561 109.023 189.023 108.992 187.071C110.953 187.178 112.881 186.768 114.825 186.568Z" fill="#844E38"/>
<path d="M92.782 99.2024C95.8894 99.7413 99.3263 99.7702 102.467 99.6596C103.343 99.6289 104.22 99.58 105.093 99.5006C105.53 99.4608 106.121 99.3367 106.55 99.4168C107.967 99.6818 109.693 100.646 110.933 101.368C109.554 102.946 108.081 103.928 106.186 104.795C103.902 105.795 101.439 106.207 98.9603 106.205C95.1178 106.201 91.8063 104.959 89.0818 102.216C89.7626 102.066 90.4505 101.896 91.1402 101.791C91.5309 101.732 92.1518 101.749 92.4753 101.515C92.8547 101.241 92.7711 99.6624 92.782 99.2024Z" fill="#E4DDD2"/>
<path d="M143.131 62.9856C144.049 63.011 144.99 63.1316 145.854 63.4503C147.63 64.1052 149.14 65.4809 149.927 67.2062C150.818 69.1579 150.873 71.5893 150.127 73.5964C149.183 76.1338 146.992 78.5164 144.529 79.6432C142.82 80.4247 139.974 80.9525 138.17 80.2096C137.882 80.0911 137.881 79.9293 137.758 79.6611C137.673 79.8129 137.57 79.9053 137.447 80.0269L137.273 79.9766L139.13 75.1367L139.446 75.2393C139.653 75.2184 139.836 75.196 140.021 75.0873C140.62 74.7355 140.836 73.4867 141.061 72.8537C141.399 73.3824 141.73 73.8998 141.901 74.5113C142.01 74.8994 142.009 75.3539 142.207 75.7054L142.381 75.6784C142.42 75.538 142.432 75.5236 142.438 75.3541C142.476 74.245 141.783 73.3722 141.076 72.6191L142.11 67.6146C143.628 67.8374 144.958 68.2236 146.054 69.3592C147.103 70.4453 147.462 72.0242 147.459 73.4916L147.605 73.6243L147.672 73.4854C147.981 72.6652 147.671 71.4424 147.36 70.6621C146.844 69.3679 145.921 68.4355 144.63 67.9198L144.44 67.846C143.674 67.5436 142.927 67.4781 142.115 67.3955L143.131 62.9856Z" fill="#FFE1CA"/>
<path d="M55.7465 62.0152C56.6948 62.0008 57.5232 62.1379 58.4327 62.3982C58.5386 65.2047 58.6522 67.977 59.1637 70.7474C59.7233 73.7782 60.7481 76.6527 61.8527 79.5195C59.899 79.3556 58.2036 78.9852 56.3289 78.4004C55.1261 77.9962 53.8412 77.441 52.8453 76.6417C50.7837 74.9872 49.5695 72.7906 49.2819 70.1661C49.0657 68.1923 49.4054 66.1832 50.6938 64.6189C51.9952 63.0393 53.7348 62.2303 55.7465 62.0152Z" fill="#FFE1CA"/>
<path d="M56.1454 65.3623C56.4268 65.3553 56.5951 65.3399 56.8419 65.4871C56.5422 65.9385 55.4634 66.0801 54.9645 66.504C54.2651 67.0986 53.7336 67.9281 53.6839 68.8684C53.5492 71.4205 55.5598 72.5955 57.5587 73.5388C57.9565 73.7267 58.4464 73.8496 58.7364 74.1954L58.8692 74.3674L58.4615 74.5977C57.9404 74.5644 57.503 74.3453 57.0367 74.1246C55.3348 73.3184 53.9307 72.4048 53.2862 70.5235C52.9244 69.4675 52.9774 68.2503 53.5239 67.2641C54.1137 66.1997 55.0211 65.6889 56.1454 65.3623Z" fill="black"/>
<path d="M84.6859 146.332C87.5778 146.956 90.581 147.279 93.5263 147.538C94.7084 147.642 95.9936 147.841 97.1735 147.706C97.3249 147.623 97.3442 147.58 97.5214 147.599C97.8413 147.634 98.0744 147.589 98.3807 147.585C98.8918 147.578 100.065 147.547 100.499 147.729L100.684 147.66L100.776 147.709C101.055 147.818 101.453 147.765 101.751 147.765C102.407 147.766 103.064 147.762 103.721 147.758L103.895 147.642L105.753 147.613L106.062 147.609L106.179 147.751L113.454 147.259C113.774 149.285 114.537 151.096 116.246 152.331C118.412 153.896 120.932 154.191 123.5 154.517C123.152 161.412 121.794 168.683 119.511 175.195L105.999 175.119C105.874 172.884 105.449 170.613 105.01 168.422C104.643 166.595 104.281 164.766 103.77 162.972L103.474 163.854L102.363 159.063C100.961 159.503 99.0712 159.321 97.598 159.333L97.3182 160.943L96.8705 161.067C96.5369 161.812 96.3922 162.805 96.1946 163.607C95.2784 167.321 94.4676 171.252 94.2405 175.076C89.5328 175.802 84.6979 175.651 79.9475 175.805L75.8538 162.007C75.2842 159.522 74.9684 157.026 74.8426 154.482C74.8208 154.042 74.6661 153.166 74.8888 152.81C75.0051 152.87 75.0511 152.899 75.1888 152.938C75.6211 153.061 76.1268 153.021 76.5712 153.014C78.1511 152.986 79.9919 152.65 81.3727 151.834C83.5407 150.553 84.0766 148.59 84.6859 146.332Z" fill="#415475"/>
<path d="M97.3809 147.846L97.6971 147.909L97.8016 151.688L98.0143 154.801L97.8587 154.97C97.574 154.769 97.5924 154.74 97.5394 154.393L97.3885 151.843L97.3809 147.846Z" fill="black"/>
<path d="M97.1738 147.706C97.3252 147.623 97.3445 147.58 97.5216 147.599C97.8416 147.634 98.0747 147.589 98.381 147.585C98.892 147.578 100.065 147.546 100.5 147.729L100.684 147.66L100.776 147.709C101.056 147.818 101.453 147.765 101.751 147.765C102.408 147.766 103.064 147.762 103.721 147.758L103.896 147.642L105.753 147.613L106.063 147.608L106.179 147.751L100.796 147.88C100.768 150.065 101.165 153.935 99.4646 155.553C98.9297 156.062 98.296 156.267 97.5683 156.303L97.4878 156.139C97.8156 155.908 98.2034 155.803 98.5554 155.615C99.4895 155.117 99.8111 154.199 99.9768 153.218C100.267 151.504 100.325 149.619 100.302 147.879C99.5426 147.865 98.4084 147.702 97.697 147.909L97.3807 147.846L97.1738 147.706Z" fill="black"/>
<path d="M97.2901 159.331C96.5157 159.315 94.9631 159.453 94.3782 158.991L94.4704 158.642C94.5549 158.589 94.6278 158.51 94.7237 158.483C95.0195 158.401 95.8189 158.545 96.1714 158.559C97.3374 158.603 98.5184 158.609 99.6849 158.573C101.883 158.505 104.086 158.218 106.275 158.012L106.461 158.235L106.43 158.579C105.798 159.007 103.861 159.066 103.067 159.045L102.932 159.04C102.801 159.467 102.94 159.741 103.049 160.169C103.29 161.112 103.575 162.015 103.77 162.973L103.474 163.854L102.363 159.063C100.961 159.503 99.0712 159.322 97.598 159.333L97.3182 160.943L96.8705 161.067L97.2901 159.331Z" fill="black"/>
<path d="M86.0297 102.91L86.6037 102.723C88.8406 105.801 92.0973 107.697 95.8449 108.277C101.495 109.151 107.436 107.61 112.124 104.362L112.359 104.833C113.026 104.241 113.537 103.717 113.918 102.89L117.049 104.81C122.067 108.172 126.195 112.869 129.083 118.168C132.246 123.969 134.146 130.76 135.427 137.221C133.263 138.386 131.034 139.613 128.688 140.366C127.221 140.837 125.712 141.093 124.188 141.288C123.913 138.803 123.769 136.307 123.461 133.826C122.889 129.224 122.006 124.692 120.857 120.201C120.675 119.489 120.438 117.769 119.916 117.276L119.654 117.337C119.337 117.788 119.684 118.369 119.83 118.89C121.877 126.179 122.902 133.587 123.391 141.128C121.582 141.913 119.671 142.391 117.761 142.852C114.923 143.538 112.086 143.92 109.187 144.217C102.463 144.905 95.5416 144.809 88.8608 143.739C85.957 143.274 83.0558 142.692 80.2268 141.885C78.6256 141.428 77.0729 140.843 75.4901 140.33C75.762 134.193 77.3506 128.256 79.5592 122.549C79.9797 121.462 80.4304 120.397 80.9166 119.339C81.2412 118.632 81.6942 117.856 81.8194 117.085C81.5869 116.912 81.5721 116.81 81.273 116.853C78.2896 122.971 76.0861 129.544 75.1285 136.296C74.9416 137.614 74.6741 139.189 74.8713 140.505C74.8966 140.673 75.2453 140.835 75.3937 140.942L75.2196 141.087C71.5632 140.92 67.723 140.167 64.8701 137.706C65.1952 136.226 65.3877 134.718 65.7218 133.237C66.3578 130.418 67.2842 127.552 68.2949 124.849C71.5584 116.119 77.2742 106.917 86.0297 102.91Z" fill="#C2F4FF"/>
<path d="M86.03 102.91L86.604 102.723C88.8409 105.801 92.0976 107.697 95.8452 108.277C101.495 109.151 107.436 107.61 112.124 104.362L112.36 104.833L111.92 105.163C107.584 108.241 101.09 109.8 95.8522 108.879C91.6532 108.142 88.5242 106.458 86.03 102.91Z" fill="black"/>
<path d="M69.0883 50.0982C71.0698 48.4923 73.0904 46.9227 74.8859 45.1028C78.3685 41.5727 80.8493 37.4035 82.8591 32.9028C83.5835 35.0517 84.3026 37.2047 85.3686 39.2141C87.6158 43.4498 91.4497 46.8177 95.7106 48.9237C101.389 51.73 107.86 52.7206 114.112 53.2879C116.217 53.4791 118.366 53.5114 120.455 53.8425L120.563 53.9077C120.895 54.0811 121.349 54.1114 121.716 54.1943C122.426 54.3549 123.143 54.5302 123.822 54.7965C125.314 55.3821 126.749 56.1317 128.172 56.8665C129.642 57.625 131.109 58.3723 132.387 59.4378C134.05 60.824 135.439 62.5438 136.647 64.3285C137.142 65.0588 137.415 66.1027 138.099 66.6473C138.479 67.8591 138.699 69.252 138.727 70.5231C138.757 71.913 138.602 73.1739 139.053 74.5191C137.761 78.2613 136.03 82.0654 133.527 85.1634C131.3 87.9201 128.206 90.3348 125.202 92.1822C115.215 98.3258 103.783 99.7641 92.3367 98.2867C89.9683 97.981 87.5619 97.6192 85.2391 97.0556C76.8252 95.0143 69.1973 90.7704 64.6182 83.1826C61.3817 77.8196 59.4731 71.3992 59.2119 65.141C59.1655 64.0317 59.0187 62.8003 59.2864 61.7152C59.324 60.8224 59.7158 59.8457 60.1188 59.0572C61.5821 56.1939 64.4155 54.1952 66.847 52.1979C67.5772 51.598 68.6114 50.9072 69.0883 50.0982Z" fill="#FFEFE3"/>
<path d="M98.8916 73.8643C99.737 73.7819 100.571 73.7716 101.4 73.9863C102.274 74.2126 103.296 74.7867 103.716 75.6211C103.935 76.0557 104.164 77.0254 103.976 77.5006C103.917 77.6493 103.802 77.6337 103.663 77.6754L103.459 77.5497C103.424 77.0619 103.422 76.4664 103.207 76.0204C102.817 75.2113 102.012 74.8384 101.211 74.58L100.319 74.4594C99.3123 74.3583 98.0915 74.6135 97.3153 75.3012C96.6377 75.9011 96.7617 76.8149 96.6877 77.6239C96.4158 77.6966 96.4462 77.6768 96.2024 77.5965L96.1566 77.4996C95.9888 77.0054 96.1295 75.984 96.3619 75.5286C96.8637 74.545 97.9046 74.1532 98.8916 73.8643Z" fill="black"/>
<path d="M115.932 55.0145C118.195 54.9445 120.598 55.045 122.655 55.7737C123.78 56.1725 125.011 56.6498 125.377 57.5489C125.498 57.8455 125.457 57.7836 125.257 58.0206C124.216 58.0637 123.106 57.5866 122.135 57.3429C121.381 57.1536 120.603 57.0605 119.816 56.9678C118.421 56.9171 116.919 56.8866 115.536 57.0318L110.232 57.8704L109.98 57.7224C110.008 57.3997 110.187 57.1829 110.455 56.9266C111.699 55.7339 113.953 55.2783 115.932 55.0145Z" fill="black"/>
<path d="M79.8377 54.7936C81.4165 54.6639 83.3597 54.6355 84.8872 54.9973C85.6882 55.1871 86.7613 55.5558 87.1204 56.1972C87.3217 56.5567 87.3271 56.833 87.1627 57.195C86.9242 57.369 86.7354 57.5294 86.376 57.5249C85.7719 57.5175 84.6502 57.1005 84.0326 56.9625C81.6699 56.4335 79.319 56.5613 76.9107 56.8072C75.561 57.0549 74.2377 57.3184 72.9692 57.7647C72.3317 57.9892 71.6909 58.3402 71.0412 58.5186C70.6613 58.6229 70.6264 58.6136 70.2968 58.4753C70.2456 58.2061 70.181 58.2373 70.4106 57.9941C70.8599 57.5184 71.6317 57.1275 72.2615 56.8084C74.6019 55.6226 77.0974 55.0674 79.8377 54.7936Z" fill="black"/>
<path d="M74.016 147.552C74.3343 147.975 74.3596 148.026 74.3822 148.554L74.3162 148.652C74.1678 148.82 73.8718 149.251 73.6953 149.358C73.5839 149.425 73.1418 149.435 72.9906 149.456C72.9614 149.258 72.9544 149.157 73.0166 148.96L73.0719 148.81L72.9226 148.625L73.2465 148.568C73.6436 148.284 73.7945 147.981 74.016 147.552Z" fill="black"/>
<path d="M64.724 142.276C64.7985 142.541 64.7953 142.586 65.0029 142.759C65.1041 142.738 65.2035 142.687 65.3068 142.694C65.597 142.715 66.3254 143.193 66.6289 143.328C67.3141 143.632 68.029 143.87 68.7511 144.068C70.7674 144.621 72.6445 144.847 74.7224 144.946C74.5132 145.815 74.3395 146.719 74.0158 147.552C73.7943 147.981 73.6434 148.284 73.2463 148.568L72.9224 148.625L73.0717 148.81L73.0165 148.96C72.9542 149.157 72.9612 149.258 72.9905 149.456C73.0348 150.75 72.6791 152.075 72.2916 153.3C71.7069 154.802 70.8422 156.682 69.2991 157.408L68.4065 157.732C67.9909 157.757 67.5298 157.783 67.12 157.7C66.2655 157.526 65.5348 156.986 65.0618 156.26C63.3659 153.66 63.9064 149.434 64.1867 146.478C64.3207 145.063 64.4247 143.669 64.724 142.276Z" fill="#FFE1CA"/>
<path d="M68.5325 156.933C68.3246 155.452 68.3033 153.724 68.4721 152.24C68.525 151.772 68.6794 151.312 68.7526 150.843L68.9121 150.727L68.8115 154.905C68.6497 155.466 68.8171 156.514 68.5325 156.933Z" fill="black"/>
<path d="M71.7493 153.353C72.0671 152.261 72.2998 151.189 72.3297 150.046C72.3365 149.784 72.3762 149.479 72.2736 149.232C72.1844 149.018 72.1614 148.864 72.1254 148.631L72.3174 148.466L72.9223 148.625L73.0716 148.81L73.0163 148.96C72.9541 149.157 72.9611 149.258 72.9903 149.456C73.0347 150.751 72.679 152.075 72.2914 153.3L71.7493 153.353Z" fill="black"/>
<path d="M64.724 142.276C64.7985 142.541 64.7953 142.586 65.0028 142.759C64.7593 146.089 63.4657 153.666 65.6969 156.316C66.0143 156.692 66.341 156.918 66.7608 157.161L66.9656 157.282L67.0947 157.356C67.0886 156.155 67.083 154.954 67.0765 153.753C67.0745 153.342 66.9549 152.488 67.2094 152.192L67.4137 152.303C67.488 153.481 67.4525 154.677 67.4541 155.858C67.4548 156.218 67.3803 156.793 67.4555 157.129C67.4683 157.185 67.5857 157.301 67.6157 157.323L68.0511 157.503C68.3204 157.33 68.4014 157.225 68.5326 156.933C68.8173 156.514 68.6499 155.466 68.8117 154.905L68.8233 157.147L69.707 156.59C69.5545 155.368 69.5408 154.259 69.6225 153.026C69.658 152.492 69.6383 151.874 69.8215 151.369L70.0235 151.425L69.9627 156.465C70.3207 156.036 70.5972 155.587 70.8798 155.107L70.9462 150.377L71.1566 150.327C71.4211 150.757 71.1482 153.936 71.1719 154.687L71.7494 153.353L72.2916 153.3C71.7069 154.802 70.8422 156.682 69.2991 157.408L68.4065 157.732C67.9909 157.757 67.5298 157.783 67.12 157.7C66.2655 157.526 65.5348 156.986 65.0618 156.26C63.3659 153.66 63.9065 149.434 64.1867 146.478C64.3207 145.063 64.4247 143.669 64.724 142.276Z" fill="black"/>
<path d="M139.8 74.6853C140.09 74.4097 140.08 74.0507 140.156 73.6791C140.614 71.4118 140.476 68.836 139.987 66.5886C137.826 56.6616 125.797 52.7399 117.176 50.4984C113.797 49.6196 110.369 49.0028 107.03 47.9543C103.998 47.0021 100.971 45.7132 98.3057 43.9655C93.6085 40.8847 89.9677 35.9101 88.3359 30.5268C87.9196 29.1532 87.7306 27.7596 87.4417 26.3604L87.5838 26.2997C87.8188 26.9369 87.9391 27.6411 88.1297 28.2972C88.5502 29.7457 89.0394 31.2352 89.7049 32.5911C91.6126 36.4791 94.2398 40.0746 97.7454 42.6571C100.914 44.9915 104.983 46.5684 108.753 47.6253C112.18 48.5861 115.674 49.2568 119.108 50.1879C123.93 51.4949 128.664 53.3513 132.862 56.0854C136.794 58.647 139.466 61.7273 140.566 66.3346C140.81 67.3564 140.873 68.4036 141.09 69.4303C141.158 69.2965 141.171 69.2836 141.22 69.116C141.481 68.2211 141.448 67.1136 141.464 66.1812C141.537 61.9913 141.022 57.6953 139.028 53.9484C133.492 43.5448 121.334 44.3282 111.561 41.277C103.577 38.7836 96.1059 33.2178 92.1722 25.7202L92.2277 25.5495C93.2319 26.8912 94.1987 28.2541 95.3218 29.5029C98.8994 33.4811 103.214 36.8632 108.11 39.0486C110.849 40.2715 113.787 41.095 116.719 41.7012C120.766 42.5384 124.863 43.0881 128.768 44.507C131.444 45.4795 134.054 46.8223 136.15 48.78C140.545 52.8838 141.997 58.4957 142.233 64.3271C143.643 60.5114 144.398 56.5906 144.836 52.5448C145.064 56.0751 144.442 59.9445 143.379 63.3023L145.661 63.7667C147.835 64.3732 149.477 65.6145 150.554 67.6083C150.219 65.8381 150.282 64.126 150.754 62.3614C151.188 60.7396 151.845 59.1996 152.149 57.5415C152.183 57.3586 152.238 57.1991 152.308 57.0576C151.803 51.5088 151.466 45.9759 150.098 40.5104C149.19 36.8888 147.701 33.3566 146.042 30.0218C144.417 26.7566 142.427 23.512 140.046 20.7504C135.474 15.4479 129.482 11.8733 122.885 9.66976C112.063 6.05514 99.6967 5.31597 89.2792 10.5586C86.1186 12.1492 83.5618 14.159 81.2002 16.7721C79.3912 16.2203 77.3711 16.0758 75.4869 16.1118C71.5714 16.1868 68.0466 16.9949 64.576 18.8474C57.5432 22.6012 52.3082 30.2316 50.0536 37.7753C48.9382 41.5082 48.2604 45.371 47.8655 49.2442C47.7449 50.4256 47.6469 51.6079 47.5544 52.7901C47.6013 52.8555 47.6464 52.9243 47.6879 53.0003C48.6503 54.7648 50.5708 57.2744 51.0764 59.6678C51.1552 59.8034 51.2215 59.9555 51.2686 60.1293C51.7299 61.8335 51.2133 63.4117 50.526 64.9652C50.9042 64.5513 51.3311 64.1783 51.806 63.8582C53.7416 62.554 55.8543 62.3194 58.0988 62.7205C58.3977 61.0291 58.7009 59.4097 59.5781 57.9062C61.5044 54.6047 64.8372 52.0936 67.7594 49.7281C74.0889 44.6044 79.6845 38.0603 81.9653 30.0884C82.3579 28.7158 82.2901 27.3813 82.5439 26.0112L82.7078 25.997C82.7238 26.2559 82.745 26.5208 82.8381 26.7643C83.2263 27.7813 83.2523 28.9672 83.5342 30.0314C84.4265 33.4011 85.9812 36.6411 88.109 39.4018C90.4449 42.4327 93.4935 45.1983 96.8262 47.0808C100.673 49.2536 105.021 50.471 109.352 51.2062C112.024 51.6599 114.72 51.8504 117.404 52.2021C120.238 52.5737 123.133 53.0875 125.828 54.0674C132.782 56.5945 138.43 62.0705 139.349 69.6631C139.459 70.5709 139.423 74.1946 139.8 74.6853Z" fill="#E8D6A3"/>
<path d="M84.8641 12.0349C83.5282 12.8974 82.3624 14.001 81.424 15.2863C81.3357 15.4074 81.5371 15.5237 81.6245 15.4039C82.5384 14.152 83.6807 13.0756 84.9813 12.2359C85.1065 12.1551 84.9902 11.9534 84.8641 12.0349Z" fill="black"/>
<path d="M81.5263 15.6332C81.4628 15.6332 81.3982 15.6131 81.3417 15.5716C81.2133 15.4773 81.1872 15.3094 81.2809 15.1812C82.2379 13.8703 83.4112 12.7614 84.7681 11.8853C84.9049 11.7972 85.075 11.835 85.1634 11.9731C85.2544 12.1148 85.2168 12.2961 85.0778 12.3859C83.7856 13.2202 82.672 14.271 81.7682 15.5093C81.7088 15.5906 81.6187 15.6332 81.5263 15.6332Z" fill="black"/>
<path d="M113.16 5.75658C111.339 5.42934 109.495 5.23702 107.647 5.18188C105.8 5.1268 103.95 5.20711 102.115 5.41888C100.277 5.63097 98.4545 5.9725 96.665 6.44318C94.8842 6.91157 93.1373 7.50748 91.4413 8.22563C89.7321 8.94934 88.0753 9.79696 86.4918 10.7664C86.2955 10.8866 86.1004 11.0087 85.9064 11.1324C85.7806 11.2126 85.897 11.4141 86.0236 11.3334C87.5687 10.3484 89.1858 9.47866 90.8581 8.73124C92.5361 7.98131 94.2694 7.35586 96.0374 6.85578C97.8133 6.35347 99.6257 5.97667 101.455 5.73362C103.27 5.49245 105.102 5.38005 106.933 5.40013C108.769 5.42027 110.605 5.57315 112.418 5.86499C112.645 5.90153 112.872 5.94038 113.098 5.98108C113.244 6.00734 113.307 5.78303 113.16 5.75658Z" fill="black"/>
<path d="M85.964 11.5166C85.9225 11.5166 85.8812 11.5067 85.8433 11.4868C85.7537 11.44 85.6929 11.343 85.6885 11.2397C85.6842 11.1398 85.7328 11.0476 85.8185 10.9929C86.0134 10.8688 86.2093 10.746 86.4065 10.6253C87.9775 9.66356 89.6501 8.80496 91.3776 8.07333C93.0745 7.35489 94.8396 6.75263 96.6238 6.28326C98.4082 5.81401 100.25 5.46797 102.097 5.25471C103.942 5.04191 105.812 4.962 107.652 5.01667C109.503 5.07192 111.366 5.26608 113.189 5.59393C113.285 5.6112 113.361 5.67373 113.393 5.76137C113.427 5.85493 113.405 5.9669 113.338 6.04659C113.272 6.12537 113.172 6.16163 113.07 6.14321C112.844 6.10263 112.619 6.0641 112.393 6.0276C110.61 5.74068 108.772 5.58506 106.932 5.56483C105.12 5.54527 103.285 5.65668 101.477 5.89688C99.6695 6.13708 97.8545 6.51312 96.0826 7.01432C94.3135 7.51473 92.5784 8.1429 90.9256 8.88169C89.2629 9.6248 87.6434 10.4964 86.1123 11.4724C86.0662 11.5017 86.0149 11.5166 85.964 11.5166Z" fill="black"/>
<path d="M134.236 14.5248C133.365 13.7545 132.495 12.9841 131.624 12.2138C131.543 12.1414 131.393 12.2094 131.43 12.327C131.572 12.7725 131.757 13.2015 131.982 13.6092C130.529 12.6471 129.03 11.7543 127.486 10.9438C125.81 10.0633 124.086 9.27499 122.324 8.58241C121.321 8.18827 120.306 7.8261 119.281 7.49519C119.138 7.44917 119.077 7.67388 119.219 7.71969C121.026 8.30312 122.802 8.98466 124.535 9.76414C126.26 10.5405 127.943 11.4115 129.574 12.3722C130.495 12.9148 131.398 13.4864 132.284 14.085C132.38 14.1497 132.506 14.0215 132.443 13.9257C132.187 13.5327 131.972 13.1165 131.802 12.681C132.559 13.3505 133.315 14.0199 134.071 14.6894C134.183 14.7882 134.348 14.6242 134.236 14.5248Z" fill="black"/>
<path d="M134.149 14.8849C134.083 14.8849 134.016 14.8614 133.962 14.8134L132.277 13.3221C132.37 13.4977 132.472 13.6691 132.58 13.8355C132.652 13.9452 132.634 14.0886 132.537 14.1844C132.441 14.2789 132.299 14.2944 132.192 14.222C131.307 13.6245 130.398 13.0501 129.49 12.5146C127.871 11.561 126.181 10.6863 124.467 9.91488C122.757 9.14552 120.974 8.45982 119.168 7.877C119.071 7.84574 119.001 7.76855 118.98 7.67045C118.958 7.56939 118.993 7.46014 119.067 7.39217C119.138 7.32805 119.237 7.30805 119.331 7.33828C120.361 7.67102 121.388 8.03796 122.383 8.42901C124.148 9.12267 125.89 9.91977 127.562 10.7978C128.9 11.5006 130.244 12.2866 131.563 13.1388C131.452 12.8899 131.355 12.6354 131.273 12.3772C131.235 12.2572 131.278 12.1353 131.382 12.067C131.493 11.9951 131.636 12.0051 131.733 12.0904L134.344 14.4014C134.459 14.5033 134.469 14.6681 134.366 14.7845C134.308 14.851 134.228 14.8849 134.149 14.8849Z" fill="black"/>
<path d="M152.01 51.3824C151.874 50.5744 151.737 49.7665 151.601 48.9585C151.532 48.5497 151.463 48.141 151.394 47.7323C151.345 47.4448 151.303 47.1596 151.301 46.8673C151.297 46.3459 151.403 45.6685 151.98 45.496C152.036 45.4792 152.083 45.4129 152.061 45.3528C151.666 44.2965 151.271 43.2403 150.877 42.184L150.29 40.6132C150.192 40.3514 150.094 40.0896 149.996 39.8278C149.962 39.7349 149.918 39.6377 149.899 39.5386C149.928 39.5692 149.977 39.5821 150.017 39.5735C150.207 39.5321 150.176 39.3307 150.064 39.2196C149.805 37.5847 149.507 35.9659 148.854 34.4343C148.522 33.6551 148.13 32.9025 147.736 32.1536C147.35 31.4204 146.952 30.6931 146.544 29.9719C144.917 27.0951 143.116 24.3165 141.156 21.6561C140.058 20.1654 138.909 18.7118 137.714 17.2979C137.617 17.1835 137.454 17.3488 137.55 17.4625C139.671 19.9716 141.642 22.6071 143.449 25.3523C144.35 26.7215 145.211 28.1177 146.029 29.5383C146.852 30.9667 147.659 32.4161 148.363 33.9076C148.774 34.7764 149.105 35.6715 149.336 36.605C149.544 37.4487 149.687 38.3064 149.822 39.1646C149.813 39.1683 149.805 39.171 149.796 39.1761C149.638 39.2709 149.64 39.4795 149.682 39.6362C149.75 39.8877 149.864 40.1332 149.955 40.3772C150.356 41.4515 150.757 42.5258 151.159 43.6001L151.801 45.3184C151.374 45.5045 151.165 45.9367 151.1 46.3926C151.008 47.0272 151.147 47.6554 151.252 48.2789C151.541 49.9899 151.83 51.701 152.118 53.412C152.282 54.3815 152.446 55.3511 152.609 56.3207C152.634 56.4681 152.858 56.4056 152.833 56.2588C152.559 54.6333 152.285 53.0079 152.01 51.3824Z" fill="black"/>
<path d="M152.705 56.5699C152.577 56.5699 152.47 56.4813 152.447 56.3484L151.05 48.0786C150.953 47.5249 150.853 46.9522 150.937 46.3691C151.012 45.8479 151.243 45.4529 151.596 45.2394L149.801 40.4351C149.773 40.3606 149.743 40.2859 149.713 40.211C149.644 40.0395 149.573 39.8622 149.523 39.6794C149.456 39.4294 149.501 39.2143 149.643 39.0856C149.641 39.0745 149.64 39.0634 149.638 39.0522L149.633 39.025L149.634 39.0262C149.51 38.2487 149.371 37.4318 149.176 36.6449C148.955 35.7527 148.641 34.8804 148.215 33.9781C147.483 32.428 146.627 30.9057 145.887 29.6209C145.073 28.2086 144.207 26.803 143.312 25.4432C141.517 22.7166 139.536 20.0674 137.424 17.5692C137.321 17.4464 137.337 17.2672 137.462 17.1612C137.578 17.0619 137.741 17.0747 137.84 17.1912C139.034 18.6044 140.195 20.0736 141.288 21.5581C143.246 24.2153 145.063 27.0187 146.688 29.8905C147.093 30.6068 147.495 31.3423 147.881 32.0765C148.286 32.8451 148.677 33.5988 149.006 34.3694C149.671 35.9286 149.971 37.5827 150.219 39.1461C150.306 39.2552 150.34 39.3931 150.305 39.5108C150.279 39.6012 150.216 39.6711 150.128 39.7102L150.444 40.5554L152.215 45.295C152.24 45.3628 152.236 45.4371 152.202 45.5045C152.167 45.5759 152.101 45.6318 152.027 45.6541C151.649 45.7671 151.46 46.1749 151.465 46.8661C151.468 47.1553 151.512 47.439 151.556 47.7047L152.996 56.2313C153.023 56.3912 152.917 56.5381 152.754 56.5657C152.738 56.5686 152.722 56.5699 152.705 56.5699ZM149.906 39.3082L149.981 39.3869C149.976 39.3724 149.965 39.3539 149.948 39.3371L149.915 39.304L149.906 39.3082Z" fill="black"/>
<path d="M51.3961 34.299C50.1065 36.3017 49.096 38.4821 48.3891 40.7578C47.6821 43.0335 47.2776 45.4051 47.1937 47.7872C47.1463 49.1309 47.203 50.4773 47.3631 51.8122C47.3808 51.9591 47.6132 51.9609 47.5953 51.8122C47.3129 49.4578 47.3538 47.0656 47.713 44.7218C48.0722 42.3783 48.7408 40.0798 49.7054 37.9146C50.2455 36.7021 50.8782 35.5321 51.5966 34.4165C51.6779 34.2902 51.4769 34.1734 51.3961 34.299Z" fill="black"/>
<path d="M47.4937 52.1015C47.4516 52.1015 47.4088 52.093 47.3683 52.0755C47.2678 52.0324 47.2 51.9419 47.1871 51.8335C47.0262 50.4935 46.9688 49.1299 47.0165 47.7809C47.1008 45.3839 47.5057 43.0032 48.2197 40.7049C48.9372 38.3954 49.9558 36.2076 51.2471 34.2023C51.305 34.1125 51.4018 34.062 51.5067 34.0673C51.6144 34.0726 51.715 34.1368 51.7631 34.231C51.8088 34.3202 51.8024 34.4257 51.7462 34.5131C51.0342 35.6188 50.4023 36.7877 49.8679 37.9872C48.9145 40.1276 48.2486 42.4025 47.889 44.7488C47.531 47.0845 47.4916 49.4538 47.7721 51.791C47.7842 51.8919 47.7455 51.9867 47.6684 52.0446C47.6183 52.0822 47.5568 52.1015 47.4937 52.1015Z" fill="black"/>
<path d="M62.5097 19.6035C60.2509 21.0338 58.1047 22.662 56.2206 24.5662C54.3791 26.4275 52.7936 28.5577 51.6525 30.9218C51.0178 32.2366 50.5233 33.6189 50.2035 35.0445C50.1707 35.1905 50.3945 35.2528 50.4274 35.1064C50.9934 32.5833 52.1086 30.2121 53.5766 28.0923C55.0728 25.9316 56.9346 24.0443 58.9761 22.3997C60.1398 21.4622 61.365 20.6036 62.6269 19.8045C62.7529 19.7247 62.6365 19.5232 62.5097 19.6035Z" fill="black"/>
<path d="M50.3261 35.3681C50.2501 35.3681 50.1734 35.3392 50.1161 35.2862C50.0389 35.2148 50.0068 35.1099 50.0302 35.0055C50.345 33.6027 50.837 32.2026 51.4927 30.8443C52.5885 28.574 54.1368 26.4195 56.0945 24.4409C57.8515 22.665 59.9189 21.0335 62.4148 19.453C62.5528 19.3658 62.7233 19.4053 62.8109 19.5448C62.9003 19.6868 62.8612 19.8671 62.7218 19.9553C61.3777 20.8063 60.1889 21.6514 59.0875 22.5387C56.9132 24.2904 55.1083 26.1931 53.7227 28.194C52.1893 30.4082 51.1389 32.7471 50.6007 35.1456C50.5781 35.2469 50.5077 35.3252 50.4123 35.3551C50.3844 35.3639 50.3553 35.3681 50.3261 35.3681Z" fill="black"/>
<path d="M80.9653 15.3412L78.4812 14.003C78.4001 13.9593 78.2719 14.0338 78.3107 14.1345C78.4417 14.475 78.5728 14.8156 78.7039 15.1561C76.4328 14.8684 74.1404 14.9944 71.8665 15.1919C71.2895 15.2421 70.7119 15.2906 70.136 15.3515C69.5881 15.4095 69.0389 15.4873 68.51 15.6465C67.9747 15.8076 67.4703 16.0541 66.9705 16.3012C66.4513 16.5579 65.9276 16.8043 65.3986 17.0399C64.8013 17.306 64.1997 17.5624 63.5989 17.8205C63.2878 17.9541 62.9767 18.0878 62.6656 18.2215C62.5056 18.2902 62.3457 18.3592 62.1856 18.4277C62.1591 18.439 62.1012 18.466 62.0387 18.4879C62.047 18.4584 62.047 18.4269 62.0345 18.3931C62.0021 18.3054 61.9111 18.2751 61.8257 18.3C61.6863 18.3404 61.6282 18.4704 61.6619 18.5798C60.8659 19.4449 60.0699 20.3099 59.274 21.175C59.1728 21.285 59.3366 21.45 59.4382 21.3396C59.9711 20.7605 60.5039 20.1813 61.0368 19.6022C61.304 19.3118 61.5711 19.0215 61.8383 18.7312C61.9419 18.7567 62.0525 18.7317 62.1499 18.6938C62.3274 18.6246 62.5011 18.5435 62.6761 18.4683C63.3985 18.158 64.1216 17.8493 64.8429 17.5364C65.5493 17.2299 66.2518 16.9148 66.9425 16.574C67.6138 16.2428 68.2809 15.9177 69.0164 15.7559C69.756 15.5931 70.5175 15.5459 71.2701 15.4778C72.0465 15.4075 72.8234 15.3408 73.6016 15.2922C75.3492 15.183 77.111 15.1643 78.8492 15.4043C78.9261 15.4149 79.0279 15.3543 78.9921 15.2611C78.8757 14.9589 78.7593 14.6566 78.643 14.3543C79.378 14.7503 80.1131 15.1463 80.8481 15.5422C80.9797 15.6131 81.0971 15.4122 80.9653 15.3412Z" fill="black"/>
<path d="M59.3609 21.5544C59.3407 21.5544 59.3204 21.5521 59.3002 21.5476C59.1972 21.5243 59.1099 21.4425 59.0779 21.3394C59.0468 21.2393 59.0713 21.1327 59.1435 21.0543L61.4751 18.5204C61.4748 18.4548 61.4907 18.3889 61.5222 18.3303C61.5746 18.2329 61.6649 18.1614 61.7763 18.129C61.9262 18.0851 62.0728 18.1344 62.1559 18.247L63.8125 17.5352C64.3182 17.3182 64.8238 17.1012 65.3266 16.8773C65.846 16.6458 66.3726 16.3983 66.892 16.1416C67.3618 15.9093 67.8943 15.6459 68.459 15.476C69.0279 15.3048 69.6165 15.2275 70.1175 15.1745C70.6278 15.1205 71.1395 15.0763 71.6508 15.032L71.8512 15.0146C73.9615 14.8313 76.2133 14.6983 78.432 14.9445L78.1451 14.1988C78.1025 14.0882 78.1317 13.9701 78.2213 13.8908C78.3163 13.8065 78.4578 13.7881 78.5654 13.8462L81.0494 15.1844C81.141 15.2337 81.1976 15.3233 81.2008 15.424C81.2041 15.53 81.147 15.6352 81.0554 15.692C80.9664 15.747 80.8575 15.7497 80.7642 15.6994L78.9817 14.7392L79.158 15.1971C79.194 15.2908 79.1798 15.3886 79.1189 15.4656C79.0513 15.551 78.9374 15.5964 78.8249 15.581C77.3405 15.3758 75.6841 15.3407 73.6127 15.4702C72.8198 15.5196 72.0259 15.5884 71.2862 15.6554L70.9314 15.6865C70.3099 15.7399 69.6672 15.7953 69.0546 15.9301C68.3255 16.0905 67.6624 16.4177 67.021 16.734C66.4205 17.0304 65.7705 17.3283 64.9135 17.7002C64.3978 17.9239 63.8808 18.1456 63.364 18.3672L62.5774 18.7061C62.4571 18.7592 62.3366 18.8124 62.2144 18.86C62.105 18.9028 62.0033 18.9239 61.9072 18.9195L59.5689 21.4606C59.513 21.5213 59.4382 21.5544 59.3609 21.5544ZM61.8568 18.4797C61.8458 18.4851 61.8392 18.4917 61.8351 18.4993C61.8303 18.5083 61.829 18.5185 61.8318 18.5274L61.8381 18.5476L61.8568 18.4797Z" fill="black"/>
<path d="M143.317 49.3847C143.172 47.3404 142.811 45.3115 142.248 43.3413C141.683 41.3622 140.916 39.4401 139.964 37.6159C139.017 35.7996 137.884 34.0809 136.585 32.4981C135.284 30.9131 133.814 29.467 132.198 28.2067C132 28.0528 131.801 27.9016 131.6 27.7529C131.521 27.6946 131.434 27.7764 131.425 27.8535C131.381 28.234 131.338 28.6144 131.294 28.9949C129.995 26.9586 128.473 25.0664 126.761 23.3644C124.977 21.5909 122.992 20.0195 120.856 18.6944C119.65 17.9465 118.395 17.2785 117.102 16.695C116.967 16.634 116.849 16.8346 116.985 16.896C119.261 17.9228 121.415 19.2138 123.398 20.7321C125.385 22.2533 127.198 24.005 128.791 25.9369C129.693 27.0312 130.521 28.1852 131.272 29.3888C131.337 29.4934 131.475 29.4407 131.488 29.33C131.536 28.9094 131.584 28.4888 131.633 28.0682C133.203 29.2453 134.643 30.5949 135.929 32.0792C137.261 33.617 138.427 35.2981 139.412 37.0788C140.395 38.8556 141.198 40.7315 141.805 42.6701C142.413 44.6128 142.827 46.6181 143.023 48.6451C143.218 50.6592 143.201 52.6946 142.957 54.7037C142.951 54.7528 142.943 54.8018 142.937 54.8509C142.35 52.3802 141.571 49.9563 140.603 47.6092C139.562 45.0855 138.311 42.6496 136.862 40.337C136.045 39.0317 135.164 37.7666 134.224 36.5463C134.153 36.4538 134.02 36.4845 134.008 36.6051C133.912 37.5584 133.816 38.5117 133.721 39.4649C132.504 38.1701 131.261 36.9 129.989 35.6597C128.658 34.3617 127.297 33.0942 125.908 31.8586C124.518 30.623 123.101 29.4193 121.657 28.2486C120.219 27.0828 118.754 25.9495 117.265 24.8502C115.769 23.7464 114.248 22.677 112.704 21.6432C112.508 21.5121 112.312 21.3817 112.115 21.2517C112.036 21.1995 111.906 21.2883 111.945 21.3832C112.716 23.2611 113.5 25.1857 113.662 27.2288C111.33 26.145 109.045 24.9615 106.816 23.6774C104.52 22.354 102.282 20.9267 100.114 19.401C98.8902 18.5399 97.6885 17.6475 96.5103 16.7248C96.3938 16.6336 96.2284 16.7973 96.3461 16.8894C98.4347 18.5251 100.595 20.0679 102.822 21.509C105.055 22.9541 107.353 24.2979 109.707 25.5346C111.033 26.2307 112.376 26.8925 113.735 27.5202C113.808 27.5542 113.915 27.5156 113.909 27.4197C113.789 25.406 113.064 23.5128 112.309 21.6632C113.745 22.6189 115.162 23.6018 116.556 24.6177C118.065 25.7169 119.548 26.8509 121.004 28.0188C122.447 29.1765 123.864 30.3672 125.253 31.5895C126.642 32.8118 128.004 34.0659 129.336 35.3504C130.675 36.641 131.984 37.9623 133.262 39.3131C133.418 39.478 133.573 39.6434 133.728 39.8091C133.803 39.8891 133.917 39.8206 133.927 39.7268C134.021 38.788 134.115 37.8492 134.21 36.9105C135.796 38.9998 137.213 41.2178 138.439 43.5386C139.717 45.9564 140.788 48.4827 141.638 51.0828C142.114 52.5397 142.52 54.0192 142.854 55.5151C142.878 55.6218 143.061 55.6303 143.078 55.5151C143.384 53.4877 143.462 51.4299 143.317 49.3847Z" fill="black"/>
<path d="M142.991 55.8504L142.974 55.777H142.971C142.831 55.777 142.71 55.6849 142.681 55.5544C142.347 54.0653 141.939 52.5797 141.468 51.1387C140.625 48.5574 139.553 46.0285 138.282 43.6225C137.137 41.4554 135.812 39.3578 134.34 37.3815L134.103 39.745C134.091 39.8638 134.008 39.9695 133.896 40.0077C133.789 40.0437 133.676 40.0142 133.598 39.9313C133.444 39.766 133.288 39.6009 133.132 39.4361C131.865 38.0967 130.547 36.7654 129.213 35.4793C127.888 34.2025 126.517 32.9389 125.135 31.7239C123.754 30.5084 122.326 29.3088 120.892 28.1584C119.446 26.9981 117.952 25.8555 116.451 24.7623C115.261 23.8948 113.998 23.0119 112.69 22.1332C113.382 23.8634 113.977 25.5823 114.086 27.4095C114.092 27.5093 114.047 27.6022 113.966 27.6579C113.878 27.7179 113.759 27.7279 113.66 27.6825C112.295 27.0518 110.937 26.3825 109.625 25.6928C107.276 24.459 104.954 23.1019 102.725 21.6591C100.516 20.2294 98.3329 18.672 96.2364 17.0302C96.1565 16.9678 96.1169 16.8736 96.1302 16.7781C96.1446 16.6745 96.2173 16.5845 96.3199 16.5429C96.421 16.5018 96.5331 16.5173 96.6193 16.5848C97.7906 17.5021 99.0007 18.4006 100.216 19.2555C102.371 20.772 104.622 22.208 106.905 23.5234C109.013 24.7381 111.215 25.8854 113.455 26.9363C113.244 25.017 112.5 23.2059 111.78 21.4516C111.734 21.338 111.768 21.2118 111.866 21.1301C111.97 21.0452 112.109 21.0344 112.213 21.1035C112.41 21.2335 112.606 21.3642 112.802 21.4955C114.342 22.526 115.879 23.6066 117.37 24.7071C118.854 25.8024 120.334 26.9475 121.769 28.1105C123.208 29.278 124.641 30.4943 126.025 31.7257C127.414 32.9608 128.789 34.2415 130.113 35.5324C131.26 36.6516 132.427 37.8369 133.583 39.0596L133.831 36.5877C133.844 36.4599 133.925 36.3595 134.042 36.3258C134.159 36.2916 134.286 36.3359 134.365 36.438C135.306 37.6611 136.197 38.9411 137.013 40.2426C138.456 42.5468 139.72 45.0026 140.766 47.5415C141.606 49.5754 142.311 51.6902 142.869 53.8413C143.021 52.1374 143.014 50.3995 142.846 48.6626C142.653 46.6729 142.246 44.6748 141.635 42.7238C141.032 40.799 140.232 38.929 139.257 37.1657C138.267 35.3783 137.103 33.7064 135.795 32.1965C134.576 30.7896 133.224 29.5133 131.773 28.399L131.665 29.3507C131.65 29.4816 131.555 29.5884 131.43 29.6168C131.31 29.6442 131.188 29.5917 131.121 29.4836C130.373 28.2853 129.543 27.1304 128.653 26.0509C127.066 24.1259 125.262 22.3843 123.29 20.8742C121.311 19.3593 119.165 18.0757 116.912 17.059C116.767 16.9937 116.708 16.835 116.773 16.6898C116.844 16.5323 117.021 16.4634 117.175 16.5329C118.472 17.1183 119.742 17.7947 120.949 18.5433C123.092 19.8726 125.09 21.4522 126.886 23.2383C128.487 24.83 129.927 26.5925 131.174 28.483L131.248 27.8336C131.261 27.7241 131.335 27.6215 131.435 27.5783C131.524 27.5392 131.625 27.5509 131.705 27.6099C131.907 27.7595 132.108 27.9116 132.306 28.0665C133.912 29.3183 135.397 30.7713 136.722 32.3853C138.022 33.969 139.166 35.7012 140.121 37.5338C141.079 39.369 141.852 41.3066 142.419 43.2927C142.988 45.2856 143.35 47.3312 143.494 49.3725C143.64 51.4374 143.56 53.5131 143.254 55.5421C143.234 55.6697 143.131 55.7636 143 55.7756L142.991 55.8504Z" fill="black"/>
<path d="M79.1915 22.3687C79.1126 22.0695 78.9652 21.7998 78.7656 21.5647C78.6686 21.4504 78.5051 21.6157 78.6014 21.7293C79.542 22.8376 78.7955 24.4854 78.115 25.5197C77.2779 26.792 76.2624 27.936 75.1656 28.9882C72.9302 31.1328 70.3831 32.9207 67.9802 34.8661C65.481 36.8895 63.0641 39.0229 60.8397 41.349C59.7333 42.5061 58.6754 43.7104 57.6834 44.9677C56.6947 46.2208 55.7513 47.522 54.9974 48.9329C54.274 50.2868 53.7308 51.7458 53.5413 53.2757C53.3601 54.7379 53.4991 56.2604 54.0728 57.6251C54.2122 57.9566 54.3765 58.276 54.5653 58.5819C54.6438 58.7091 54.8448 58.5923 54.7658 58.4644C53.9686 57.1727 53.6525 55.6486 53.7047 54.1408C53.7585 52.5879 54.2076 51.0811 54.8755 49.6864C55.5684 48.2395 56.4812 46.9102 57.4532 45.6396C58.4309 44.3617 59.4794 43.1386 60.578 41.964C62.7821 39.6074 65.1882 37.4487 67.6825 35.4067C70.0901 33.4357 72.6509 31.6384 74.9374 29.5224C76.0555 28.4877 77.1002 27.3673 77.9836 26.1226C78.3888 25.5515 78.7608 24.9605 79.006 24.3008C79.2316 23.6935 79.3598 23.007 79.1915 22.3687Z" fill="black"/>
<path d="M54.6593 58.8146C54.559 58.8146 54.4676 58.7629 54.4135 58.6751C54.2209 58.3633 54.051 58.0331 53.9085 57.694C53.3554 56.3786 53.1672 54.8431 53.3643 53.2534C53.5401 51.8339 54.0367 50.3519 54.8401 48.8484C55.6696 47.2957 56.7205 45.8996 57.5432 44.8568C58.4979 43.6468 59.5636 42.425 60.7108 41.2253C62.7165 39.1278 65.0576 37.0023 67.8678 34.727C68.6149 34.1223 69.3882 33.5232 70.1359 32.9438C71.7932 31.6596 73.507 30.3316 75.042 28.8589C76.2498 27.7006 77.2061 26.5761 77.9659 25.4212C78.5425 24.5449 79.3741 22.915 78.4654 21.8444C78.3955 21.7621 78.3752 21.6526 78.4112 21.5517C78.4476 21.4492 78.5372 21.3709 78.6397 21.352C78.736 21.3344 78.8337 21.3705 78.9003 21.4488C79.1235 21.7119 79.279 22.0059 79.3625 22.3227C79.5188 22.9153 79.4547 23.6016 79.1718 24.3626C78.9025 25.0871 78.4929 25.7109 78.1276 26.2256C77.3123 27.3743 76.3081 28.4954 75.0572 29.653C73.5768 31.023 71.9586 32.278 70.3936 33.4917C69.535 34.1575 68.6471 34.8461 67.7942 35.5443C65.0099 37.8238 62.6916 39.9635 60.7068 42.0855C59.5707 43.3003 58.5233 44.5324 57.5936 45.7476C56.4184 47.2838 55.6293 48.5222 55.035 49.7632C54.3185 51.2591 53.9306 52.7339 53.8815 54.1466C53.827 55.7247 54.1848 57.1851 54.9163 58.3703C54.9711 58.4593 54.9754 58.5658 54.9276 58.6549C54.8774 58.7486 54.7756 58.8112 54.6682 58.8144C54.6652 58.8145 54.6623 58.8146 54.6593 58.8146Z" fill="black"/>
<path d="M73.084 22.0485C72.9597 21.7108 72.794 21.3915 72.5863 21.0979C72.5006 20.9767 72.2991 21.0928 72.3858 21.2154C73.2758 22.4738 73.3113 24.1504 72.7978 25.5654C72.2558 27.0592 71.1729 28.2847 70.0142 29.3365C67.5676 31.5572 64.6232 33.1082 61.7681 34.7231C59.0946 36.2352 56.4198 37.8592 54.284 40.1019C53.2405 41.1976 52.3431 42.438 51.6985 43.8114C51.0441 45.2058 50.6496 46.7068 50.4748 48.2357C50.1157 51.3771 50.6617 54.585 51.6498 57.5671C51.7727 57.9382 51.9034 58.3065 52.0406 58.6725C52.0928 58.8115 52.3173 58.7513 52.2645 58.6106C51.1486 55.6347 50.454 52.4355 50.6232 49.2432C50.7054 47.6906 51.0046 46.1468 51.5697 44.6964C52.1357 43.2437 52.9794 41.9165 54.0067 40.7486C56.0494 38.4265 58.6942 36.7464 61.3543 35.2259C64.2079 33.5948 67.1645 32.0783 69.6833 29.936C70.8701 28.9265 72.0042 27.7723 72.7061 26.3622C73.363 25.0426 73.6033 23.4583 73.084 22.0485Z" fill="black"/>
<path d="M52.155 58.9305C52.0325 58.9305 51.9203 58.8573 51.8747 58.7357C51.7333 58.3587 51.6011 57.9846 51.4815 57.6237C50.3675 54.2612 49.9694 51.096 50.2987 48.216C50.483 46.6028 50.9 45.0955 51.5382 43.7361C52.1571 42.4173 53.0378 41.1533 54.1558 39.9794C56.3558 37.6695 59.0796 36.0397 61.6811 34.5685C61.987 34.3955 62.2939 34.2231 62.6012 34.0507C65.1205 32.6365 67.7256 31.1742 69.8953 29.2049C71.3127 27.9184 72.1822 26.7427 72.6313 25.5049C73.1771 24.0007 73.0313 22.4358 72.2413 21.319C72.1821 21.2352 72.1711 21.1321 72.2118 21.0428C72.2552 20.9482 72.3531 20.8804 72.4612 20.8703C72.5683 20.8601 72.6692 20.9069 72.7317 20.9952C72.945 21.2968 73.1198 21.6306 73.2511 21.9872C73.7462 23.3314 73.6056 24.9553 72.8654 26.4423C72.075 28.0302 70.7366 29.2745 69.7986 30.0723C67.6827 31.8719 65.2317 33.2486 62.8612 34.5798C62.3872 34.8461 61.9136 35.1121 61.4427 35.3813C58.8552 36.8603 56.1796 38.5485 54.1405 40.867C53.0835 42.0686 52.2745 43.379 51.7357 44.7617C51.2006 46.1349 50.8862 47.6461 50.801 49.2531C50.6487 52.1299 51.1971 55.2572 52.4313 58.5484C52.4874 58.698 52.4167 58.8533 52.267 58.9098C52.2298 58.9238 52.1918 58.9305 52.155 58.9305Z" fill="black"/>
<path d="M143.283 30.0212C142.578 28.696 141.786 27.4182 140.914 26.1968C140.051 24.9868 139.112 23.8312 138.106 22.7374C137.09 21.6331 136.007 20.5917 134.866 19.6181C133.727 18.6463 132.531 17.7411 131.287 16.9083C130.044 16.0758 128.753 15.3156 127.423 14.6321C126.091 13.9476 124.719 13.3399 123.317 12.8135C121.763 12.2302 120.172 11.7495 118.557 11.3693C116.802 10.9561 115.019 10.6624 113.225 10.487C111.414 10.3101 109.591 10.2553 107.773 10.3236C105.963 10.3915 104.157 10.5817 102.372 10.893C101.937 10.9688 101.503 11.0522 101.071 11.1423C100.925 11.1728 100.987 11.3972 101.133 11.3668C104.669 10.6295 108.301 10.3792 111.905 10.6126C115.422 10.8405 118.913 11.5291 122.248 12.6757C125.052 13.6401 127.742 14.9331 130.253 16.5136C132.773 18.0999 135.11 19.9777 137.191 22.1101C139.268 24.2376 141.086 26.6184 142.565 29.2009C142.742 29.5107 142.915 29.8235 143.082 30.1387C143.153 30.271 143.353 30.1535 143.283 30.0212Z" fill="black"/>
<path d="M143.173 30.375C143.073 30.375 142.978 30.3206 142.926 30.2222C142.756 29.9035 142.583 29.5896 142.411 29.2894C140.961 26.7578 139.163 24.3842 137.064 22.2344C135.01 20.13 132.687 18.2558 130.158 16.6641C127.65 15.0849 124.969 13.7996 122.19 12.844C118.893 11.7102 115.429 11.0193 111.894 10.7901C108.287 10.5567 104.679 10.8092 101.169 11.5409C101.064 11.5626 100.959 11.5286 100.889 11.4494C100.817 11.3685 100.792 11.2516 100.824 11.1518C100.856 11.0575 100.934 10.9886 101.035 10.9675C101.477 10.8755 101.916 10.7912 102.341 10.7171C104.127 10.4056 105.953 10.2133 107.767 10.1453C109.586 10.077 111.428 10.1322 113.243 10.3093C115.048 10.4859 116.85 10.7841 118.598 11.1956C120.23 11.5797 121.838 12.0678 123.379 12.6463C124.782 13.1732 126.17 13.7879 127.504 14.4732C128.837 15.1581 130.143 15.9274 131.386 16.7598C132.635 17.596 133.844 18.5119 134.981 19.4822C136.131 20.463 137.226 21.5174 138.236 22.6162C139.249 23.7171 140.198 24.8867 141.059 26.0928C141.935 27.3204 142.736 28.6138 143.44 29.9371C143.517 30.0833 143.462 30.2596 143.314 30.3388C143.268 30.3633 143.22 30.375 143.173 30.375Z" fill="black"/>
<path d="M118.941 70.9384C119.914 70.9091 120.888 70.7177 121.754 70.258C122.034 70.1093 122.297 69.9325 122.542 69.7338C122.927 69.4219 123.267 69.0553 123.559 68.6541C124.107 67.9015 124.46 67.0163 124.42 66.0759C124.41 65.8465 124.241 65.7097 124.058 65.6854C123.872 65.6606 123.672 65.7522 123.61 65.9816C123.242 67.3537 122.578 68.5829 121.337 69.2999C120.992 69.4996 120.695 69.6142 120.287 69.7225C119.913 69.8214 119.533 69.8751 119.148 69.9037C121.442 69.3292 123.121 67.2279 123.075 64.7567C123.021 61.8832 120.654 59.5977 117.788 59.652C116.393 59.6784 115.137 60.2545 114.221 61.17C114.437 60.911 114.671 60.6664 114.926 60.4402C116.106 59.3973 117.738 58.8736 119.249 59.3832C119.555 59.4866 119.917 59.6708 120.241 59.8754C120.591 60.0965 120.846 60.2983 121.168 60.5803C121.797 61.1299 122.387 61.7214 122.95 62.3362C123.378 62.8029 123.79 63.1833 124.181 63.4937C126.238 65.1271 127.708 64.8111 127.812 64.7986C127.978 64.7785 128.116 64.7077 128.268 64.6393C128.594 64.4928 128.481 63.9539 128.156 63.8878C127.819 63.8192 127.523 63.8124 127.212 63.7623C125.211 63.5756 123.854 61.9398 123.445 61.4786C123.185 61.1858 120.819 58.788 119.573 58.3504C117.836 57.7401 115.903 58.2854 114.495 59.4019C112.989 60.5963 112.103 62.3506 111.52 64.1505C111.276 64.9054 111.047 65.734 110.944 66.5662C110.934 66.5678 110.874 67.0749 110.899 67.0707C110.84 68.1333 111.027 69.1785 111.696 70.0594C111.824 70.2281 112.014 70.2479 112.156 70.178C112.316 70.0997 112.416 69.9088 112.303 69.688C111.413 67.94 112.105 65.7826 112.204 65.4265C112.215 66.1021 112.311 66.7751 112.485 67.4104C112.708 68.2302 113.045 69.1255 113.642 69.7574C113.39 69.7528 113.139 69.7559 112.887 69.777C112.59 69.802 112.51 70.242 112.824 70.3183C113.341 70.4437 113.868 70.4881 114.396 70.5494C114.523 70.5642 114.649 70.5818 114.775 70.6005C115.048 70.641 115.319 70.6871 115.592 70.7245C115.734 70.744 115.877 70.7611 116.021 70.7737C116.991 70.8582 117.966 70.9678 118.941 70.9384ZM120.813 68.3552C120.265 68.3656 119.812 67.9286 119.802 67.3791C119.791 66.8296 120.227 66.3757 120.775 66.3654C121.323 66.355 121.776 66.792 121.786 67.3415C121.797 67.8909 121.361 68.3448 120.813 68.3552ZM120.349 61.1477C121.625 61.1235 122.678 62.1408 122.703 63.4197C122.727 64.6987 121.712 65.7551 120.437 65.7792C119.161 65.8034 118.107 64.7861 118.083 63.5072C118.059 62.2283 119.074 61.1718 120.349 61.1477ZM114.082 64.217C114.084 64.5454 114.047 64.8644 114.1 65.1684C114.121 65.287 114.181 65.4627 114.224 65.5995C114.258 65.7108 114.228 65.6209 114.273 65.7196C114.342 65.8729 114.353 65.9091 114.4 65.9989C114.564 66.3118 114.497 66.7063 114.183 66.8988C113.856 67.0988 113.499 66.9635 113.285 66.681C112.984 66.283 112.847 65.7732 112.873 65.2754C112.898 64.8082 113.04 64.2727 113.407 63.9515C113.651 63.7374 114.079 63.8536 114.082 64.217Z" fill="black"/>
<path d="M120.391 65.7882C121.667 65.7882 122.701 64.7512 122.701 63.472C122.701 62.1928 121.667 61.1558 120.391 61.1558C119.115 61.1558 118.081 62.1928 118.081 63.472C118.081 64.7512 119.115 65.7882 120.391 65.7882Z" fill="white"/>
<path d="M78.9278 72.183C79.9502 72.2138 80.9723 72.0989 81.9892 72.0103C82.14 71.9971 82.2897 71.9791 82.4388 71.9587C82.7251 71.9195 83.0093 71.8712 83.2954 71.8287C83.4275 71.8091 83.5599 71.7906 83.6932 71.7751C84.2468 71.7109 84.7989 71.6643 85.3407 71.5328C85.67 71.4528 85.5865 70.9915 85.2749 70.9653C85.011 70.9431 84.7472 70.94 84.4833 70.9447C85.1091 70.2822 85.4624 69.3435 85.6969 68.484C85.8787 67.8178 85.9793 67.1122 85.9907 66.4039C86.0948 66.7772 86.8201 69.0392 85.887 70.872C85.7691 71.1035 85.874 71.3036 86.0411 71.3858C86.1904 71.4591 86.3892 71.4382 86.5235 71.2613C87.2247 70.3378 87.4208 69.2419 87.3593 68.1278C87.3854 68.1322 87.3225 67.6005 87.3117 67.5988C87.2046 66.7263 86.9641 65.8575 86.7078 65.066C86.0967 63.1788 85.1679 61.3395 83.5888 60.0873C82.1126 58.9166 80.0858 58.3449 78.2646 58.9848C76.9586 59.4436 74.4775 61.9576 74.2052 62.2646C73.7764 62.7482 72.3534 64.4632 70.2556 64.659C69.9299 64.7116 69.6191 64.7187 69.2659 64.7906C68.9249 64.8599 68.8068 65.425 69.148 65.5786C69.3072 65.6502 69.4522 65.7245 69.6264 65.7455C69.7351 65.7587 71.2768 66.09 73.4333 64.3774C73.8432 64.0519 74.2751 63.6531 74.7236 63.1638C75.3147 62.5192 75.9334 61.899 76.5922 61.3227C76.9303 61.0271 77.1977 60.8155 77.5645 60.5837C77.904 60.3692 78.2833 60.1761 78.6048 60.0676C80.1889 59.5334 81.8998 60.0824 83.1367 61.1759C83.4049 61.413 83.6503 61.6695 83.876 61.9411C82.916 60.9811 81.5993 60.3771 80.1367 60.3494C77.1318 60.2926 74.6499 62.6888 74.5932 65.7016C74.5444 68.2926 76.3051 70.4958 78.7102 71.0981C78.3072 71.0682 77.9084 71.0119 77.5165 70.9081C77.0881 70.7946 76.7773 70.6744 76.4149 70.465C75.1137 69.7133 74.4185 68.4245 74.0318 66.9859C73.9671 66.7454 73.7571 66.6494 73.562 66.6753C73.3703 66.7008 73.193 66.8442 73.1829 67.0848C73.1414 68.0708 73.5107 68.9989 74.0851 69.788C74.3913 70.2086 74.7484 70.5929 75.1518 70.92C75.4087 71.1284 75.6845 71.3136 75.9783 71.4696C76.8866 71.9516 77.907 72.1523 78.9278 72.183ZM75.9443 68.4117C75.9551 67.8356 76.4297 67.3774 77.0043 67.3883C77.5789 67.3991 78.0358 67.875 78.025 68.4511C78.0142 69.0272 77.5396 69.4854 76.965 69.4745C76.3904 69.4637 75.9334 68.9878 75.9443 68.4117ZM79.8268 64.3915C79.8015 65.7325 78.6968 66.799 77.3595 66.7737C76.0221 66.7484 74.9584 65.6408 74.9836 64.2998C75.0089 62.9589 76.1135 61.8923 77.4509 61.9177C78.7883 61.943 79.8521 63.0506 79.8268 64.3915ZM84.7301 64.8574C85.1147 65.1941 85.2638 65.7557 85.2895 66.2455C85.3168 66.7674 85.1732 67.3019 84.8576 67.7192C84.6336 68.0154 84.2592 68.1573 83.9166 67.9476C83.587 67.7457 83.5171 67.3321 83.6888 67.0041C83.7381 66.9099 83.7497 66.8719 83.822 66.7112C83.8685 66.6077 83.837 66.702 83.8737 66.5853C83.9187 66.4418 83.9814 66.2576 84.003 66.1333C84.0583 65.8145 84.0199 65.48 84.0224 65.1358C84.0251 64.7548 84.4736 64.6329 84.7301 64.8574Z" fill="black"/>
<path d="M77.4077 66.7833C78.7453 66.7833 79.8297 65.696 79.8297 64.3548C79.8297 63.0136 78.7453 61.9263 77.4077 61.9263C76.07 61.9263 74.9856 63.0136 74.9856 64.3548C74.9856 65.696 76.07 66.7833 77.4077 66.7833Z" fill="white"/>
<path d="M110.296 81.0847C108.25 83.4244 105.284 84.872 102.18 85.0055C101.609 85.0301 101.606 85.9229 102.18 85.8982C105.509 85.755 108.726 84.2316 110.926 81.716C111.302 81.2856 110.675 80.6517 110.296 81.0847Z" fill="black"/>
</svg>
