<svg width="375" height="248" viewBox="0 0 375 248" fill="none" xmlns="http://www.w3.org/2000/svg">
<g clip-path="url(#clip0_501_16016)">
<mask id="mask0_501_16016" style="mask-type:luminance" maskUnits="userSpaceOnUse" x="-23" y="-175" width="422" height="427">
<path d="M398.241 -174.262H-22.687V251.633H398.241V-174.262Z" fill="white"/>
</mask>
<g mask="url(#mask0_501_16016)">
<path d="M398.241 -169.282H-22.687V251.646H398.241V-169.282Z" fill="#F9DDB4"/>
<path d="M407.629 214.339C407.629 214.339 213.519 228.667 171.251 209.893C136.629 194.515 109.364 134.325 100.632 113.059C98.7067 108.363 97.6816 105.564 97.6816 105.564C166.011 87.6544 209.869 73.3992 239.157 62.6673C248.1 59.3908 258.965 55.2408 274.25 54.7013C275.42 54.6598 276.565 54.6412 277.692 54.6453C303.598 54.7304 318.792 66.4459 357.235 78.9706C367.797 82.4109 384.378 87.3038 405.651 91.321L407.629 214.339Z" fill="url(#paint0_linear_501_16016)"/>
<path d="M317.711 132.931C325.845 138.741 334.794 145.949 343.895 154.82C356.982 167.575 366.803 180.272 374.055 191.164C359.347 195.455 336.352 199.634 311.183 192.263C304.435 190.288 298.772 187.844 278.794 177.431C264.564 170.013 244.822 159.462 221.217 145.999C253.381 141.644 285.546 137.288 317.711 132.935V132.931Z" fill="url(#paint1_linear_501_16016)"/>
<path d="M252.991 156.042C233.766 159.647 163.762 172.211 132.199 150.411C123.41 144.339 110.096 130.763 105.766 122.942C103.83 119.446 102.12 116.155 100.632 113.059C98.7067 108.363 97.6816 105.564 97.6816 105.564C166.011 87.6544 209.869 73.3992 239.157 62.6673C248.1 59.3908 258.965 55.2408 274.25 54.7013C275.42 54.6598 276.565 54.6412 277.692 54.6453H277.694C277.694 54.6453 232.241 69.0894 212.479 85.3927C204.225 92.2028 200.193 98.4963 201.359 103.839C203.208 112.318 218.204 115.511 239.157 119.483C294.599 129.991 317.138 130.238 317.71 134.798C318.445 140.642 282.761 150.458 252.991 156.042Z" fill="url(#paint2_linear_501_16016)"/>
<path d="M305.25 188.871C237.4 200.837 184.246 200.711 147.585 198.196C139.914 197.669 133.504 197.084 100.964 193.957C44.7858 188.56 -0.588273 184.159 -30.5928 181.241V124.423C19.1574 94.7551 54.7395 93.8857 78.5916 99.2267C111.651 106.628 122.851 126.112 177.895 139.739C195.126 144.005 202.565 144.206 215.955 146.786C223.862 148.309 227.77 149.29 232.735 150.608C245.669 154.038 267.707 160.089 289.993 176.155C293.632 178.78 299.089 182.976 305.25 188.871Z" fill="url(#paint3_linear_501_16016)"/>
<path d="M320.503 184.831C304.123 190.014 286.924 194.944 268.923 199.482C223.381 210.963 180.626 217.954 141.755 222.009C87.0825 211.053 34.6224 192.602 34.6224 192.602C30.599 175.869 33.7052 165.909 37.0916 159.995C46.7196 143.186 66.9903 144.431 76.1224 127.389C81.4385 117.466 80.2226 106.489 78.5916 99.2288C111.651 106.63 122.851 126.115 177.895 139.741C201.116 145.489 206.553 143.86 232.735 150.61C259.642 157.547 280.234 166.206 292.452 171.511C299.681 174.651 309.315 179.056 320.503 184.833V184.831Z" fill="url(#paint4_linear_501_16016)"/>
<path d="M407.628 189.713V254.887H-34.0498L-38.0027 176.948C-38.0027 176.948 -32.5413 176.051 -22.6871 175.433C-9.96943 174.634 10.0626 174.298 35.1162 176.948C62.0268 179.795 75.9086 182.517 97.6816 184.3C114.763 185.698 129.622 186.316 156.107 186.354H156.157C233.36 186.464 259.619 182.401 309.487 182.974C318.64 183.077 329.438 183.349 341.693 183.955C358.088 184.766 377.091 186.177 398.241 188.591C401.325 188.943 404.454 189.317 407.628 189.713Z" fill="url(#paint5_linear_501_16016)"/>
<path d="M398.241 188.591V251.633H4.33153C-6.971 251.021 -18.2735 250.409 -29.574 249.797C38.2578 234.046 81.9013 232.514 110.275 234.681C116.622 235.164 153.29 238.279 157.377 226.204C158.992 221.436 154.437 218.458 155.782 213.489C160.23 197.019 217.098 204.317 218.851 193.992C219.111 192.463 218.283 189.846 211.707 185.549C235.789 184.192 275.742 182.38 314.652 182.974C330.241 183.21 341.438 183.768 344.984 183.955C360.424 184.766 378.323 186.177 398.243 188.591H398.241Z" fill="url(#paint6_linear_501_16016)"/>
<path opacity="0.42" d="M-20.6121 -12.5474C-20.6121 -12.5474 -9.47763 -10.9434 7.5934 -10.9434C24.6644 -10.9434 23.1808 -13.9376 45.2629 -10.9434C67.3451 -7.94915 72.9123 -1.12448 91.467 1.45267C110.024 4.02982 122.43 -10.6114 153.524 -12.2735C184.618 -13.9376 186.101 -7.55906 208.742 -5.25789C231.38 -2.95671 228.411 -1.95863 252.906 -4.95286C277.399 -7.94708 287.42 -14.9357 297.44 -4.95286C307.46 5.02997 333.252 13.0146 351.716 15.0107C370.179 17.0069 403.58 15.0107 403.58 15.0107V71.1602C403.58 71.1602 334.551 51.2174 313.399 49.0864C292.244 46.9553 275.499 56.1289 249.729 45.5526C223.96 34.9764 212.825 41.1868 188.704 36.0865C164.582 30.9841 148.994 38.9707 119.675 40.9669C90.3569 42.963 83.3039 45.9573 62.5228 36.9746C41.7396 27.9919 -22.0916 36.0865 -22.0916 36.0865L-20.6079 -12.5432L-20.6121 -12.5474Z" fill="#FFC874"/>
<path d="M284.683 167.114C284.118 167.224 283.589 167.517 283.199 167.938C283.012 168.142 282.848 168.407 282.909 168.677C282.963 168.913 283.18 169.082 283.413 169.154C283.645 169.227 283.894 169.223 284.137 169.231C284.681 169.25 285.222 169.341 285.743 169.503C286.231 169.652 286.739 169.866 287.235 169.743C287.472 169.685 287.683 169.553 287.889 169.422C288.466 169.057 289.113 168.571 289.1 167.89C289.094 167.604 288.972 167.291 289.125 167.046C289.223 166.89 289.428 166.716 289.312 166.575C289.067 166.506 288.822 166.438 288.58 166.369C287.911 166.183 287.173 165.747 286.639 166.318C286.027 166.971 285.56 166.946 284.685 167.116L284.683 167.114Z" fill="#BA6932"/>
<path d="M289.416 174.715C289.617 174.842 289.829 174.956 290.053 175.035C290.557 175.211 291.105 175.207 291.638 175.172C292.877 175.087 294.145 174.827 295.155 174.113C296.168 173.398 296.867 172.146 296.639 170.934C296.55 170.463 296.334 170.028 296.104 169.609C295.84 169.127 295.51 168.619 294.985 168.451C294.429 168.272 293.815 168.538 293.377 168.924C292.939 169.31 292.62 169.81 292.215 170.231C291.81 170.652 291.271 171.007 290.688 170.97C290.501 170.957 290.312 170.903 290.167 170.785C289.997 170.65 289.899 170.445 289.839 170.237C289.669 169.64 289.794 168.996 289.696 168.382C289.601 167.768 289.125 167.11 288.505 167.187C288.04 167.245 287.731 167.677 287.482 168.069C287.096 168.677 286.866 169.075 286.841 169.806C286.818 170.457 286.918 171.111 287.121 171.729C287.524 172.953 288.327 174.014 289.414 174.717L289.416 174.715Z" fill="#BA6932"/>
<path d="M295.695 166.077C295.919 165.5 295.857 164.851 296.021 164.253C296.058 164.118 296.108 163.985 296.199 163.88C296.361 163.695 296.629 163.631 296.876 163.653C297.355 163.701 297.757 164.033 298.071 164.396C298.384 164.761 298.643 165.176 299.009 165.488C299.749 166.121 300.795 166.233 301.77 166.282C303.833 166.386 305.993 166.357 307.832 167.293C308.213 167.486 308.583 167.729 308.828 168.079C309.357 168.841 309.141 169.907 308.662 170.7C308.377 171.169 308.008 171.588 307.576 171.931C307.29 172.159 306.979 172.352 306.68 172.565C305.792 173.2 305.039 174.006 304.175 174.676C303.312 175.346 302.287 175.894 301.194 175.881C300.167 175.871 299.216 175.373 298.233 175.082C297.112 174.75 295.929 174.686 294.788 174.435C294.255 174.319 293.711 174.151 293.307 173.79C292.732 173.277 292.528 172.451 292.595 171.688C292.655 171.003 292.937 170.412 293.132 169.764C293.271 169.297 293.344 168.866 293.628 168.453C294.224 167.583 295.303 167.092 295.697 166.077H295.695Z" fill="#BA6932"/>
<path d="M302.71 164.969C302.812 164.761 302.889 164.537 303.034 164.357C303.408 163.896 304.14 163.865 304.665 164.141C305.19 164.417 305.547 164.927 305.848 165.438C306.147 165.948 306.418 166.49 306.846 166.901C307.01 167.058 307.207 167.22 307.226 167.444C307.255 167.805 306.827 168.017 306.468 168.084C304.895 168.374 303.308 167.874 301.864 167.297C301.364 167.098 300.459 166.772 301.212 166.343C301.843 165.984 302.38 165.647 302.71 164.967V164.969Z" fill="#BA6932"/>
<path d="M296.566 171.011C296.62 171.549 296.417 172.074 296.278 172.594C296.089 173.298 296.012 174.032 296.05 174.759C296.062 175.012 296.087 175.279 295.971 175.504C295.825 175.786 295.504 175.921 295.222 176.068C293.921 176.746 293.057 178.087 292.694 179.502C292.331 180.917 292.418 182.409 292.636 183.853C292.655 183.972 292.671 184.098 292.624 184.208C292.588 184.287 292.524 184.347 292.458 184.403C291.983 184.8 291.354 185.009 290.733 184.98C291.346 184.333 291.468 183.374 291.509 182.486C291.559 181.465 291.545 180.444 291.47 179.425C291.431 178.88 291.377 178.305 291.613 177.811C291.752 177.518 291.983 177.282 292.157 177.008C292.344 176.717 292.466 176.392 292.584 176.068C292.744 175.641 292.902 175.213 293.062 174.786C293.159 174.522 293.259 174.252 293.279 173.97C293.302 173.651 293.221 173.333 293.124 173.028C292.898 172.314 292.578 171.594 292.649 170.847C292.74 169.882 293.601 169.021 294.57 168.913C295.512 168.81 296.479 170.156 296.566 171.005V171.011Z" fill="#BA6932"/>
<path d="M296.236 174.539C296.487 174.983 296.792 175.396 297 175.86C297.176 176.255 297.282 176.678 297.384 177.097C297.722 178.481 298.062 179.863 298.401 181.247C298.533 181.789 298.668 182.341 298.639 182.897C298.61 183.455 298.396 184.028 297.95 184.368C297.689 184.567 297.315 184.75 297.33 185.078C298.025 185.287 298.768 185.333 299.484 185.212C299.063 184.414 299.758 183.474 299.729 182.573C299.714 182.108 299.502 181.668 299.473 181.206C299.434 180.567 299.741 179.936 299.652 179.303C299.594 178.884 299.368 178.51 299.231 178.11C298.903 177.143 299.114 176.089 299.162 175.068C299.199 174.267 299.133 173.462 298.963 172.677C298.832 172.069 298.631 171.457 298.241 170.972C297.851 170.484 297.241 170.138 296.616 170.192C294.524 170.37 295.647 173.499 296.232 174.537L296.236 174.539Z" fill="#BA6932"/>
<path d="M306.182 173.916C306.217 174.128 306.252 174.342 306.34 174.537C306.468 174.827 306.699 175.058 306.918 175.288C307.551 175.954 308.12 176.68 308.614 177.454C309.126 178.257 309.572 179.168 309.502 180.118C309.475 180.475 309.377 180.822 309.28 181.166C309.135 181.681 308.987 182.196 308.842 182.71C308.676 183.297 308.479 183.928 307.987 184.291C307.58 184.592 306.966 184.727 306.835 185.215C306.819 185.279 306.813 185.35 306.848 185.406C306.885 185.464 306.958 185.486 307.026 185.505C307.325 185.584 307.63 185.642 307.939 185.675C308.19 185.702 308.454 185.711 308.684 185.607C309.023 185.453 309.209 185.094 309.361 184.754C309.861 183.627 310.238 182.451 310.614 181.276C310.801 180.689 310.99 180.104 311.176 179.517C311.243 179.309 311.311 179.093 311.295 178.876C311.261 178.409 310.876 178.06 310.597 177.684C310 176.875 309.869 175.811 309.946 174.811C310.023 173.81 310.288 172.833 310.404 171.835C310.521 170.839 310.477 169.779 309.979 168.905C309.707 168.43 309.296 168.019 308.782 167.822C307.881 167.478 305.532 167.868 305.395 169.057C305.315 169.758 305.644 170.673 305.761 171.368C305.902 172.217 306.041 173.068 306.182 173.916Z" fill="#BA6932"/>
<path d="M309.911 172.964C309.996 173.373 310.029 173.794 310.155 174.192C310.282 174.591 310.519 174.979 310.894 175.165C311.344 175.39 311.903 175.284 312.367 175.479C312.662 175.603 312.894 175.836 313.139 176.041C313.411 176.267 313.708 176.464 313.99 176.68C315.38 177.745 316.372 179.268 316.99 180.899C317.084 181.143 317.169 181.392 317.287 181.629C317.347 181.749 317.418 181.868 317.457 181.996C317.605 182.474 317.322 182.967 317.051 183.391C317.775 183.584 318.613 183.131 318.841 182.422C318.875 182.32 318.895 182.212 318.883 182.106C318.858 181.901 318.713 181.733 318.578 181.573C317.426 180.218 316.642 178.558 316.329 176.811C316.279 176.531 316.235 176.236 316.071 176.004C315.793 175.605 315.258 175.499 314.837 175.253C314.424 175.012 314.114 174.63 313.841 174.24C312.587 172.451 311.867 170.308 310.427 168.667C310.17 168.374 309.867 168.086 309.481 168.015C309.045 167.936 308.379 168.218 308.157 168.619C307.929 169.03 308.267 169.414 308.475 169.785C309.039 170.802 309.668 171.812 309.906 172.966L309.911 172.964Z" fill="#BA6932"/>
<path d="M246.127 160.005C246.185 159.999 246.247 160.005 246.289 160.045C246.326 160.08 246.335 160.136 246.339 160.188C246.355 160.458 246.26 160.732 246.077 160.933C245.992 161.026 245.888 161.105 245.828 161.217C245.764 161.338 245.758 161.481 245.756 161.618C245.749 161.879 245.743 162.141 245.735 162.402C245.729 162.63 245.722 162.859 245.756 163.085C245.787 163.315 245.857 163.537 245.891 163.767C245.965 164.282 245.853 164.811 245.915 165.328C245.976 165.822 246.191 166.282 246.411 166.731C246.532 166.977 246.662 167.233 246.878 167.403C247.096 167.573 247.426 167.633 247.646 167.467C248.046 169.067 248.038 170.764 247.623 172.36C247.206 172.132 246.789 171.904 246.372 171.675C246.05 171.499 245.727 171.323 245.459 171.074C245.094 170.737 244.851 170.289 244.675 169.829C244.523 169.434 244.415 169.025 244.34 168.61C244.287 168.31 244.249 168.005 244.212 167.702C244.048 166.334 243.882 164.967 243.718 163.599C243.706 163.491 243.687 163.373 243.602 163.305C243.552 163.263 243.488 163.247 243.43 163.22C243.174 163.093 243.098 162.767 243.106 162.485C243.114 162.203 243.176 161.91 243.083 161.643C243.037 161.514 242.961 161.4 242.902 161.275C242.77 160.987 242.757 160.657 242.761 160.34C242.761 160.25 242.766 160.157 242.811 160.08C242.857 160.003 242.959 159.952 243.039 159.991C243.139 160.039 243.156 160.194 243.259 160.234C243.361 160.273 243.461 160.178 243.542 160.103C243.834 159.835 244.278 159.779 244.66 159.889C245.046 160.001 245.27 160.281 245.59 160.479C245.679 160.24 245.849 160.035 246.125 160.01L246.127 160.005Z" fill="#BA6932"/>
<path d="M248.754 170.524C248.619 171.113 248.484 171.725 248.604 172.318C248.727 172.926 249.105 173.449 249.316 174.032C249.858 175.522 249.268 177.159 248.696 178.637C248.432 179.319 248.165 180.046 248.291 180.768C248.308 180.863 248.333 180.959 248.391 181.035C248.526 181.21 248.8 181.22 248.995 181.121C249.192 181.019 249.327 180.834 249.457 180.656C249.63 180.419 249.806 180.17 249.86 179.884C249.908 179.637 249.86 179.382 249.864 179.131C249.872 178.807 249.974 178.492 250.074 178.182C250.327 177.398 250.582 176.614 250.835 175.829C250.951 175.47 251.076 175.097 251.348 174.831C251.738 174.452 252.362 174.364 252.707 173.945C252.867 173.752 252.947 173.507 253.024 173.271C253.242 172.601 253.462 171.93 253.68 171.26C253.817 170.839 253.956 170.416 254.002 169.976C254.037 169.633 254.012 169.27 253.838 168.971C253.404 168.229 252.283 168.195 251.729 167.536C251.539 167.309 251.402 167 251.117 166.913C250.43 166.706 249.71 167.791 249.466 168.274C249.107 168.98 248.926 169.762 248.752 170.528L248.754 170.524Z" fill="#BA6932"/>
<path d="M257.986 171.439C258.085 172.171 258.183 172.906 258.282 173.638C258.328 173.983 258.376 174.331 258.477 174.663C258.598 175.058 258.795 175.427 258.919 175.821C259.177 176.63 259.121 177.5 259.214 178.342C259.258 178.734 259.366 179.168 259.704 179.376C260.142 179.645 260.816 179.274 260.814 178.761C260.814 178.585 260.75 178.415 260.696 178.247C260.293 176.987 260.465 175.626 260.642 174.315C260.712 173.783 260.785 173.252 260.855 172.721C260.982 171.783 261.109 170.833 261.001 169.891C260.893 168.949 260.525 168.005 259.81 167.378C259.135 166.789 258.002 166.502 257.838 167.59C257.645 168.872 257.813 170.163 257.984 171.437L257.986 171.439Z" fill="#BA6932"/>
<path d="M249.335 181.183C248.922 182.694 248.796 184.281 248.962 185.837C248.136 185.937 247.299 185.947 246.474 185.868C246.484 185.632 246.667 185.443 246.824 185.265C247.505 184.493 247.885 183.503 248.125 182.503C248.26 181.938 248.356 181.368 248.457 180.797C248.518 180.459 248.522 179.511 248.823 179.301C249.072 179.127 249.449 179.372 249.559 179.606C249.76 180.033 249.453 180.764 249.337 181.185L249.335 181.183Z" fill="#BA6932"/>
<path d="M259.235 180.492C259.025 181.484 258.795 182.473 258.548 183.457C258.428 183.934 258.278 184.449 257.88 184.744C257.722 184.86 257.51 184.963 257.486 185.159C258.083 185.287 258.702 185.312 259.307 185.233C259.386 185.223 259.476 185.204 259.517 185.138C259.561 185.069 259.54 184.982 259.523 184.903C259.434 184.482 259.546 184.023 259.82 183.689C259.899 183.594 259.992 183.503 260.023 183.384C260.063 183.233 259.994 183.079 259.944 182.932C259.59 181.874 260.21 180.766 260.426 179.672C260.501 179.29 260.426 178 259.735 178.419C259.266 178.703 259.334 180.027 259.237 180.492H259.235Z" fill="#BA6932"/>
<path d="M248.538 175.344C248.889 176.014 249.349 176.645 249.513 177.383C249.621 177.875 249.592 178.396 249.764 178.869C249.893 179.22 250.125 179.523 250.312 179.849C250.632 180.403 250.823 181.019 251.011 181.629C251.275 182.486 251.518 183.492 250.984 184.216C250.706 184.594 250.231 184.87 250.171 185.333C250.165 185.389 250.165 185.451 250.202 185.493C250.25 185.547 250.331 185.547 250.403 185.544C250.987 185.513 251.568 185.482 252.151 185.451C252.093 185.094 252.122 184.721 252.24 184.378C252.283 184.252 252.337 184.127 252.354 183.994C252.385 183.76 252.292 183.528 252.211 183.303C251.881 182.39 251.713 181.419 251.717 180.45C251.717 180.023 251.752 179.587 251.634 179.176C251.536 178.836 251.339 178.535 251.18 178.22C250.8 177.473 250.619 176.628 250.659 175.794C250.667 175.607 250.69 175.414 250.792 175.259C250.868 175.14 250.982 175.053 251.097 174.97C252.111 174.223 253.215 173.59 254.375 173.092C255.012 172.818 255.68 172.578 256.207 172.127C256.824 171.603 257.251 170.795 258.029 170.563C258.369 170.461 258.749 170.484 259.065 170.32C259.471 170.109 259.675 169.623 259.677 169.166C259.679 168.71 259.517 168.27 259.357 167.841C259.145 167.274 258.917 166.683 258.467 166.276C257.971 165.826 257.266 165.666 256.593 165.678C255.921 165.691 255.263 165.857 254.603 165.983C252.831 166.322 251.018 166.367 249.231 166.62C249.059 166.645 248.883 166.672 248.737 166.768C248.42 166.975 248.37 167.405 248.272 167.768C248.059 168.565 247.528 168.998 246.936 169.517C246.449 169.945 246.023 170.582 246.278 171.248C246.517 171.87 247.127 172.364 247.451 172.951C247.874 173.723 248.133 174.57 248.542 175.348L248.538 175.344Z" fill="#BA6932"/>
<path d="M246.679 167.27C246.909 167.506 247.328 167.444 247.573 167.224C247.818 167.004 247.932 166.676 248.026 166.361C248.121 166.046 248.212 165.716 248.432 165.471C248.91 164.94 249.766 165.014 250.406 164.691C251.348 164.216 251.79 162.898 252.837 162.765C253.599 162.67 254.244 163.267 254.921 163.626C255.666 164.023 256.539 164.149 257.251 164.601C257.737 164.911 258.116 165.355 258.479 165.801C258.89 166.305 259.291 166.83 259.527 167.436C259.764 168.04 259.822 168.741 259.544 169.328C259.185 170.09 258.336 170.515 257.504 170.654C256.67 170.791 255.817 170.698 254.973 170.714C253.865 170.735 252.761 170.951 251.727 171.347C251.665 171.549 251.81 171.789 252.02 171.829C252.022 171.754 252.024 171.681 252.026 171.607C252.273 171.754 252.221 172.1 252.064 172.337C251.904 172.576 251.626 172.702 251.356 172.798C250.875 172.966 250.337 173.059 249.86 172.879C249.596 172.779 249.37 172.601 249.154 172.418C248.144 171.571 247.241 170.598 246.476 169.532C246.218 169.173 245.967 168.78 245.942 168.341C245.917 167.901 246.239 167.318 246.679 167.27Z" fill="#BA6932"/>
<path d="M255.305 173.281C255.319 173.746 255.365 174.225 255.599 174.628C255.807 174.985 256.141 175.248 256.469 175.501C257.145 176.024 257.826 176.551 258.585 176.944C258.897 177.103 259.225 177.244 259.492 177.469C259.754 177.689 259.947 177.977 260.133 178.263C260.37 178.624 260.611 178.992 260.727 179.407C260.806 179.691 260.824 179.988 260.833 180.282C260.866 181.314 260.804 182.353 260.955 183.374C260.978 183.532 261.007 183.694 260.988 183.853C260.936 184.266 260.563 184.611 260.592 185.028C260.752 185.049 260.914 185.069 261.073 185.09C261.239 185.111 261.409 185.132 261.571 185.09C261.733 185.049 261.887 184.928 261.914 184.766C261.947 184.575 261.808 184.38 261.86 184.194C261.907 184.013 262.109 183.918 262.204 183.758C262.32 183.559 262.254 183.301 262.134 183.104C262.013 182.907 261.845 182.741 261.744 182.536C261.605 182.258 261.6 181.934 261.598 181.623C261.594 180.845 261.588 180.064 261.584 179.286C261.582 178.878 261.578 178.458 261.436 178.075C261.322 177.765 261.127 177.493 260.965 177.205C260.127 175.705 260.287 173.875 260.021 172.179C259.909 171.466 259.708 170.741 259.243 170.187C258.778 169.633 258 169.289 257.309 169.507C256.855 169.65 256.502 170.003 256.199 170.366C255.902 170.723 255.485 171.169 255.363 171.625C255.228 172.13 255.288 172.767 255.305 173.283V173.281Z" fill="#BA6932"/>
<path d="M254.738 158.563C254.796 158.671 254.879 158.754 255.008 158.771C255.178 158.791 255.344 158.713 255.491 158.625C255.774 158.455 256.031 158.244 256.253 157.999C256.45 157.779 256.604 157.366 256.51 157.073C256.496 157.028 256.473 156.98 256.436 156.949C256.371 156.895 256.278 156.899 256.195 156.891C255.969 156.866 255.776 156.727 255.56 156.652C255.189 156.526 254.591 156.577 254.51 157.036C254.45 157.372 254.498 157.727 254.587 158.055C254.626 158.2 254.657 158.41 254.74 158.565L254.738 158.563Z" fill="#BA6932"/>
<path d="M253.84 159.3C253.742 159.383 253.643 159.468 253.578 159.58C253.529 159.667 253.504 159.767 253.479 159.862C253.28 160.661 253.08 161.46 252.883 162.259C252.817 162.524 252.75 162.8 252.798 163.072C252.829 163.249 252.908 163.412 252.995 163.57C253.242 164.008 253.576 164.4 253.971 164.716C255.025 165.558 256.425 165.811 257.766 165.979C257.851 165.99 257.942 166 258.019 165.961C258.1 165.919 258.145 165.834 258.185 165.753C259.075 163.95 259.216 161.796 258.573 159.891C258.498 159.671 258.411 159.449 258.253 159.281C258.114 159.13 257.928 159.032 257.751 158.928C257.27 158.648 256.82 158.314 256.411 157.937C256.017 157.573 255.516 157.773 255.17 158.111C254.742 158.528 254.294 158.916 253.838 159.304L253.84 159.3Z" fill="#BA6932"/>
<path d="M254.313 157.105C254.458 157.194 254.643 157.175 254.813 157.156C255.07 157.125 255.325 157.096 255.583 157.065C255.867 157.032 256.211 157.024 256.373 157.258C256.438 157.351 256.508 157.493 256.614 157.453C256.645 157.443 256.668 157.416 256.689 157.389C256.778 157.273 256.84 157.127 256.815 156.984C256.792 156.853 256.701 156.748 256.614 156.648C256.299 156.289 255.965 155.918 255.52 155.733C255.128 155.569 254.599 155.588 254.288 155.905C254.033 156.167 253.96 156.891 254.313 157.105Z" fill="#BA6932"/>
<path d="M252.788 162.136C252.674 162.242 252.549 162.354 252.393 162.369C252.267 162.379 252.146 162.323 252.022 162.292C251.9 162.261 251.746 162.267 251.671 162.369C251.644 162.406 251.63 162.452 251.601 162.485C251.561 162.533 251.497 162.551 251.447 162.587C251.346 162.655 251.294 162.78 251.281 162.9C251.271 163.022 251.296 163.143 251.321 163.263C251.333 163.319 251.346 163.377 251.383 163.421C251.418 163.462 251.468 163.483 251.518 163.504C251.7 163.579 251.887 163.643 252.076 163.695C252.124 163.707 252.176 163.722 252.223 163.709C252.277 163.695 252.317 163.651 252.354 163.61C252.516 163.421 252.669 163.203 252.902 163.11C253.026 163.06 253.172 163.043 253.261 162.944C253.327 162.869 253.346 162.765 253.36 162.666C253.383 162.51 253.406 162.352 253.383 162.197C253.369 162.099 253.302 161.863 253.182 161.84C253.053 161.815 252.877 162.055 252.79 162.136H252.788Z" fill="#BA6932"/>
</g>
</g>
<defs>
<linearGradient id="paint0_linear_501_16016" x1="180.252" y1="85.0897" x2="353.174" y2="190.201" gradientUnits="userSpaceOnUse">
<stop stop-color="#F7954E"/>
<stop offset="0.29" stop-color="#F69751"/>
<stop offset="0.52" stop-color="#F59F5A"/>
<stop offset="0.72" stop-color="#F2AC6B"/>
<stop offset="0.9" stop-color="#EFBE81"/>
<stop offset="1" stop-color="#EDCB91"/>
</linearGradient>
<linearGradient id="paint1_linear_501_16016" x1="278.686" y1="185.634" x2="371.928" y2="101.715" gradientUnits="userSpaceOnUse">
<stop stop-color="#F7954E"/>
<stop offset="0.29" stop-color="#F69751"/>
<stop offset="0.52" stop-color="#F59F5A"/>
<stop offset="0.72" stop-color="#F2AC6B"/>
<stop offset="0.9" stop-color="#EFBE81"/>
<stop offset="1" stop-color="#EDCB91"/>
</linearGradient>
<linearGradient id="paint2_linear_501_16016" x1="234.945" y1="29.3656" x2="197.649" y2="153.971" gradientUnits="userSpaceOnUse">
<stop offset="0.24" stop-color="#FFDA9C"/>
<stop offset="0.46" stop-color="#FED798"/>
<stop offset="0.62" stop-color="#FDCE8F"/>
<stop offset="0.77" stop-color="#FCBF7E"/>
<stop offset="0.91" stop-color="#F9AB68"/>
<stop offset="1" stop-color="#F89B56"/>
</linearGradient>
<linearGradient id="paint3_linear_501_16016" x1="141.138" y1="152.749" x2="36.2077" y2="260.12" gradientUnits="userSpaceOnUse">
<stop stop-color="#FFDA9C"/>
<stop offset="0.25" stop-color="#FED698"/>
<stop offset="0.48" stop-color="#FDCC8C"/>
<stop offset="0.71" stop-color="#FBBB79"/>
<stop offset="0.93" stop-color="#F8A35F"/>
<stop offset="1" stop-color="#F89B56"/>
</linearGradient>
<linearGradient id="paint4_linear_501_16016" x1="169.695" y1="211.235" x2="186.647" y2="132.402" gradientUnits="userSpaceOnUse">
<stop stop-color="#F7954E"/>
<stop offset="0.31" stop-color="#F79850"/>
<stop offset="0.54" stop-color="#F8A159"/>
<stop offset="0.75" stop-color="#FAB267"/>
<stop offset="0.94" stop-color="#FDC87B"/>
<stop offset="1" stop-color="#FFD182"/>
</linearGradient>
<linearGradient id="paint5_linear_501_16016" x1="-50.8739" y1="211.679" x2="444.159" y2="230.327" gradientUnits="userSpaceOnUse">
<stop stop-color="#FFDA9C"/>
<stop offset="0.27" stop-color="#FFD698"/>
<stop offset="0.52" stop-color="#FFCC8C"/>
<stop offset="0.77" stop-color="#FFBB7A"/>
<stop offset="1" stop-color="#FFA561"/>
</linearGradient>
<linearGradient id="paint6_linear_501_16016" x1="177.536" y1="159.96" x2="191.256" y2="279.515" gradientUnits="userSpaceOnUse">
<stop stop-color="#E88C4A"/>
<stop offset="0.21" stop-color="#EA934F"/>
<stop offset="0.53" stop-color="#F1A760"/>
<stop offset="0.92" stop-color="#FCC87B"/>
<stop offset="1" stop-color="#FFD182"/>
</linearGradient>
<clipPath id="clip0_501_16016">
<rect width="375" height="248" fill="white"/>
</clipPath>
</defs>
</svg>
