<svg width="375" height="248" viewBox="0 0 375 248" fill="none" xmlns="http://www.w3.org/2000/svg">
<g clip-path="url(#clip0_501_27005)">
<path d="M387 -194H-23V383.727H387V-194Z" fill="#E0F0E0"/>
<path d="M250.171 104.503C250.171 104.503 301.346 107.11 312.718 108.088C324.091 109.066 376.637 108.219 373.902 111.049C371.168 113.878 300.718 126.66 279.764 121.107C258.811 115.553 250.171 104.503 250.171 104.503Z" fill="#C4D6C9"/>
<path d="M29.999 99.8568C29.999 99.8568 228.268 100.31 260.405 105.654C292.541 110.999 342.295 115.847 342.295 115.847C342.295 115.847 234.02 144.472 163.511 139.16C93.0015 133.848 29.999 99.8568 29.999 99.8568Z" fill="#B0C9B7"/>
<path d="M387 80.2085V83.3847C326.548 87.8267 118.476 96.9884 -23 101.751V79.2765C117.961 76.4474 326.478 77.938 387 80.2085Z" fill="#F3FBF3"/>
<path d="M387 106.051V115.963C317.366 115.236 243.12 114.155 243.12 114.155C243.12 114.155 333.187 111.061 351.687 107.829C356.643 106.96 370.038 106.405 387 106.051Z" fill="#97C292"/>
<path d="M274.66 115.507C274.66 115.507 269.584 116.217 260.564 117.467C249.851 118.95 233.567 121.195 213.606 123.908C213.6 123.908 213.593 123.908 213.586 123.911C151.405 132.362 53.5278 145.371 -23 154.209V98.3302C-20.2656 98.2806 -17.5642 98.2442 -14.8992 98.2178C8.71876 97.9963 29.1791 98.7995 39.3232 101.563C67.7091 109.303 218.199 113.966 262.426 115.186C270.173 115.398 274.66 115.507 274.66 115.507Z" fill="#8CB096"/>
<path d="M387 107.426V112.582C370.134 111.703 358.435 111.048 358.435 111.048C347.045 110.311 361.438 108.516 387 107.426Z" fill="#75AE56"/>
<path d="M262.426 115.186C261.596 116.35 260.872 117.146 260.565 117.467C260.462 117.573 260.406 117.629 260.406 117.629C260.406 117.629 240.409 121.155 213.606 123.908C213.6 123.908 213.593 123.908 213.587 123.912C175.126 127.855 122.656 130.198 95.1562 118.22C76.1662 109.948 46.1254 103.643 22.3407 99.8569C9.63625 97.8345 -3.89297 98.9833 -14.8989 98.2181C8.71904 97.9967 29.1793 98.7998 39.3235 101.563C67.7094 109.303 218.199 113.967 262.426 115.186Z" fill="#76A182"/>
<path d="M79.3544 122.226C79.3544 122.226 30.3033 128.704 -23 134.799V121.869C22.1959 121.912 79.3544 122.226 79.3544 122.226Z" fill="#7E9B2C"/>
<path d="M387 110.03V273.509H-23V122.636C8.31207 121.413 43.7969 120.068 81.2193 118.719C183.931 115.014 301.25 111.286 387 110.03Z" fill="#B4CD54"/>
<path d="M387 115.526V212.639C267.72 214.123 93.3142 210.514 -23 194.283V138.431C48.7665 133.093 142.894 126.489 233.528 121.324C260.244 119.8 286.656 118.402 312.099 117.199C335.485 116.092 358.052 115.15 379.289 114.429L387 115.526Z" fill="#C4E570"/>
<path d="M387 114.175V151.826C375.08 152.229 355.225 147.843 355.225 147.843L379.289 114.429C381.882 114.34 384.451 114.254 387 114.175Z" fill="#C4BF70"/>
<path d="M233.528 121.324C153.928 128.773 33.537 140.173 -23 146.175V138.431C48.7665 133.093 142.894 126.49 233.528 121.324Z" fill="#D6ED9C"/>
<path d="M344.208 146.529L81.6196 144.753C81.6196 144.753 238.818 126.087 312.403 117.147C334.309 116.111 355.308 115.149 375.359 114.446L344.208 146.529Z" fill="#B4CD54"/>
<path d="M380.386 139.627C366.664 141.365 352.644 142.737 338.777 143.391C333.505 143.335 328.265 142.496 322.993 142.414C320.766 142.377 316.47 142.829 315.358 140.311C315.176 139.898 315.104 139.56 315.122 139.285C315.21 137.795 317.856 138.128 319.27 138.201C319.71 136.647 320.906 135.281 322.629 135.204C324.26 135.131 325.851 136.353 326.203 137.946C327.044 136.808 329.03 136.837 329.839 137.997C330.809 137.338 332.153 137.273 333.18 137.838C332.138 132.755 338.564 129.561 343.911 129.706L343.929 129.706C347.806 129.815 351.11 131.682 350.576 135.859C351.575 134.475 353.889 135.462 353.583 137.142C354.412 135.608 357.02 135.583 357.878 137.101C357.063 131.656 365.267 134.226 363.96 137.07C364.595 135.689 365.909 135.713 366.839 136.343C367.068 133.77 378.209 135.514 379.774 137.112C380.259 137.608 380.718 138.118 380.847 138.593C380.951 138.971 380.847 139.326 380.386 139.627Z" fill="#A1BC32"/>
<path d="M290.837 138.621C291.039 137.837 291.854 137.341 292.623 137.384C293.393 137.427 294.091 137.919 294.575 138.55C294.755 137.702 295.984 137.386 296.515 138.051C296.581 137.388 296.654 136.706 296.954 136.119C297.254 135.532 297.842 135.056 298.472 135.115C299.083 135.172 299.573 135.715 299.786 136.32C299.998 136.925 299.988 137.588 299.975 138.233C300.09 137.704 300.541 137.276 301.052 137.21C301.563 137.144 302.099 137.446 302.331 137.93C302.701 137.332 303.609 137.219 304.101 137.71C305.844 136.988 307.878 137.091 309.547 137.985C310.158 138.312 310.797 139.024 310.468 139.658C310.35 139.887 310.129 140.034 309.909 140.152C308.508 140.905 306.86 140.886 305.289 140.815C302.565 140.692 299.83 140.468 297.117 140.763C295.849 140.901 290.138 141.341 290.837 138.621Z" fill="#A1BC32"/>
<path d="M382.166 140.441C361.615 141.876 315.701 139.295 315.126 139.285C315.606 139.292 345.836 139.723 348.573 136.654C351.177 133.731 349.029 130.003 343.929 129.706C347.806 129.815 351.11 131.682 350.576 135.859C351.575 134.475 353.889 135.462 353.583 137.141C354.412 135.607 357.02 135.583 357.878 137.101C357.063 131.656 365.267 134.226 363.96 137.07C364.595 135.689 365.908 135.713 366.838 136.343C367.068 133.77 378.041 135.41 379.968 136.546C382.849 138.243 382.037 139.966 382.166 140.441Z" fill="#849B0D"/>
<path d="M387 139.389V273.509H-23V148.452C98.4359 143.851 281.838 137.919 387 139.389Z" fill="#B2D761"/>
<path d="M387 139.169V144.988C257.784 150.815 -11.6093 175.524 -11.6093 175.524L-23 177.596V148.452C98.4359 143.851 281.838 137.698 387 139.169Z" fill="#A1BC32"/>
<path d="M379.817 202.176H322.192V209.844H379.817V202.176Z" fill="#2D4143"/>
<path d="M380.632 202.465H321.379L321.483 202.277L323.501 198.629L336.355 198.57L378.507 198.372L379.977 201.205L380.632 202.465Z" fill="#E5EEDB"/>
<path d="M380.631 202.465H322.175C321.929 202.402 321.698 202.34 321.483 202.277L323.501 198.629L336.355 198.57L338.569 201.205H379.977L380.631 202.465Z" fill="#D0E0BD"/>
<path d="M293.272 189.308L285.877 200.975V206.288H300.668V200.975L293.272 189.308Z" fill="#2D4143"/>
<path d="M371.708 211.181C371.208 211.135 366.671 210.459 366.671 210.459C366.671 210.459 364.727 200.244 365.218 195.691C365.903 189.347 366.931 183.576 368.357 184.653C370.581 186.33 372.029 200.177 372.125 207.17C372.158 209.606 372.027 211.212 371.708 211.181Z" fill="#A1BC32"/>
<path d="M386.214 207.648C386.071 207.781 385.881 207.852 385.696 207.913C383.665 208.596 381.467 208.765 379.357 208.404C378.013 208.173 376.693 207.729 375.33 207.708C373.395 207.679 371.268 208.49 369.383 207.727C368.156 207.229 367.052 205.462 367.423 204.151C367.74 203.032 369.012 202.281 370.144 202.538C371.279 202.796 372.098 204.024 371.9 205.17C372.221 204.495 373.079 204.128 373.789 204.366C373.887 204.522 373.987 204.68 374.085 204.836C374.049 203.471 374.431 202.034 375.397 201.067C375.408 201.054 379.538 205.145 380.065 205.241C380.369 205.295 382.459 204.518 382.586 204.789C382.682 204.989 382.696 205.214 382.58 205.408C383.171 204.855 384.063 204.645 384.838 204.878C385.613 205.111 386.242 205.778 386.431 206.564C386.521 206.939 386.496 207.383 386.214 207.648Z" fill="#5C7D31"/>
<path d="M371.708 211.181C371.208 211.135 369.871 210.991 368.457 210.836C368.111 210.666 367.753 210.477 367.388 210.271C366.133 209.564 365.101 208.764 364.251 207.916C364.412 205.091 364.727 200.244 365.218 195.691C365.22 199.855 366.382 206.339 372.125 207.17C372.158 209.606 372.027 211.212 371.708 211.181Z" fill="#5C7D31"/>
<path d="M326.784 201.205L300.668 200.973L296.108 193.781L294.254 190.856L293.272 189.307H319.39L326.784 201.205Z" fill="#E5EEDB"/>
<path d="M287.922 206.159C287.49 206.464 286.954 206.581 286.43 206.665C285.194 206.859 282.037 206.421 281.922 206.348C280.766 205.605 283.244 200.953 283.797 201.309C283.915 201.385 284.028 201.471 284.134 201.565C284.736 202.097 285.088 202.921 284.977 203.715C285.313 202.978 286.136 202.496 286.944 202.561C287.75 202.626 288.483 203.236 288.696 204.015C288.909 204.797 288.585 205.693 287.922 206.159Z" fill="#5C7D31"/>
<path d="M326.784 201.205V207.434L300.668 206.288V200.974L326.784 201.205Z" fill="#D06845"/>
<path d="M326.784 201.205V202.109L300.668 201.745V200.974L326.784 201.205Z" fill="#2D4143"/>
<path d="M281.922 206.348C280.766 205.605 279.812 204.228 279.851 202.856C279.872 202.138 280.226 201.405 280.856 201.062C281.177 200.886 281.548 200.82 281.912 200.808C282.573 200.787 283.244 200.953 283.797 201.309C283.928 201.493 284.044 201.704 284.138 201.941C284.988 204.13 283.809 205.748 281.922 206.348Z" fill="#A1BC32"/>
<path d="M306.737 188.194V193.781L304.883 190.856V188.194H306.737Z" fill="#2C3642"/>
<path d="M307.152 188.194H306.737V193.781H307.152V188.194Z" fill="#D06845"/>
<path d="M382.586 204.789C381.986 205.506 381.03 205.943 380.109 205.797C379.705 205.733 379.247 205.447 379.307 205.043C378.228 205.837 376.549 205.485 375.728 204.428C374.96 203.436 374.943 202.169 375.397 201.067C375.408 201.054 375.422 201.04 375.435 201.027C376.426 200.056 378.078 199.714 379.246 200.462C380.557 201.304 380.838 203.176 380.371 204.662C380.832 204.395 381.353 204.139 381.88 204.236C382.184 204.289 382.459 204.518 382.586 204.789Z" fill="#A1BC32"/>
<path d="M387 110.03V113.679C384.619 113.709 382.218 113.739 379.798 113.768C256.134 115.318 81.2192 118.719 81.2192 118.719C154.801 116.065 235.882 113.398 307.48 111.637C335.822 110.939 362.681 110.384 387 110.03Z" fill="#FFE961"/>
<path d="M387 206.925V383.727H-23V209.857C44.4516 202.374 307.974 205.171 387 206.925Z" fill="#A1C94E"/>
<path d="M182.807 176.338C182.807 181.945 182.516 187.302 181.984 192.214C181.918 192.804 181.853 193.387 181.78 193.962C181.102 199.482 180.115 204.38 178.902 208.375C178.72 208.975 178.534 209.551 178.341 210.108C176.334 215.934 173.791 219.415 171.03 219.415C164.524 219.415 159.252 200.13 159.252 176.337C159.252 176.053 159.252 175.758 159.256 175.453C159.274 172.241 159.387 169.116 159.587 166.116C159.591 166.08 159.591 166.043 159.595 166.003C160.127 158.087 161.259 151.033 162.804 145.517C164.312 140.124 166.218 136.205 168.341 134.388C169.205 133.649 170.105 133.26 171.03 133.26C171.361 133.26 171.685 133.311 172.01 133.409C178.053 135.23 182.807 153.753 182.807 176.338Z" fill="#324C2F"/>
<path d="M0.579127 222.387C-4.49991 219.43 -9.22108 215.053 -10.4726 209.312C-10.9054 207.327 -10.8621 205.12 -9.7425 203.424C-8.62294 201.728 -6.19623 200.813 -4.44723 201.849C-6.83801 197.399 -4.72618 191.133 -0.128784 189.037C4.4685 186.94 10.587 189.452 12.3825 194.174C12.42 192.293 13.8385 190.525 15.667 190.081C17.4955 189.637 19.5675 190.556 20.4646 192.209C22.7068 189.431 25.4104 187.025 28.4313 185.12C30.5877 183.76 32.941 182.644 35.4565 182.23C40.335 181.426 45.4169 183.417 49.0295 186.791C52.6422 190.165 54.9053 194.784 56.1868 199.557C56.9252 202.308 57.3632 205.179 57.0296 208.007C56.7053 210.755 55.6641 213.372 54.4115 215.84C52.5421 219.523 50.1788 222.955 47.4049 226.016C46.527 226.985 45.586 227.933 44.4216 228.528C43.088 229.21 41.5544 229.382 40.0572 229.429C34.3351 229.611 28.6544 228.157 22.9325 228.342C20.2624 228.428 17.5676 228.875 14.8966 228.578C12.32 228.291 10.3274 226.815 8.01897 225.81C5.4902 224.709 2.98501 223.787 0.579127 222.387Z" fill="#5C7D31"/>
<path d="M129.79 135.654H68.8601L33.4513 157.016L29.6963 175.198L95.3486 175.176L129.79 135.654Z" fill="#E5EEDB"/>
<path d="M270.864 211.048C270.864 211.969 270.835 212.89 270.803 213.789C270.737 215.636 270.653 217.537 270.15 219.295C270.026 219.743 269.874 220.18 269.684 220.606H178.341V193.547C179.496 192.964 180.72 192.495 181.984 192.214C182.516 192.094 183.052 192.007 183.594 191.959C190.629 191.344 197.204 198.536 195.966 205.484C197.026 202.774 200.647 202.261 203.525 202.676C207.681 203.277 211.681 204.923 215.055 207.421C213.656 204.857 215.929 201.467 218.789 200.873C221.645 200.28 224.559 201.733 226.774 203.641C228.45 202.13 231.262 202.086 232.982 203.554C233.342 202.144 234.512 200.233 236.705 198.492C239.247 196.478 243.153 194.705 248.748 194.224C252.216 193.929 255.936 194.071 259.32 194.949C261.243 195.448 270.868 210.549 270.864 211.048Z" fill="#324C2F"/>
<path d="M270.865 211.047C265.417 212.582 256.028 208.444 250.918 208.234C244.384 207.965 236.031 204.755 243.928 198.731C248.29 195.407 254.568 194.814 259.318 194.949H259.321C263.169 195.947 266.585 197.893 268.717 201.226C270.287 203.687 270.757 206.593 270.848 209.55C270.865 210.049 270.868 210.548 270.865 211.047Z" fill="#A1BC32"/>
<path d="M163.511 174.808L160.505 157.016L129.79 135.654L97.2124 156.496L93.4854 174.808H163.511Z" fill="#E5EEDB"/>
<path d="M164.232 175.176V219.415H95.3479V175.176H95.3843L99.0746 157.016L129.788 137.56L136.906 142.068L156.855 154.704L160.505 157.016L164.196 175.176H164.232Z" fill="#D06845"/>
<path d="M95.3481 175.176V219.415L32.5549 211.164V175.198L95.3481 175.176Z" fill="#2D4143"/>
<path d="M164.232 175.176V219.415H137.569C136.498 217.991 135.682 216.4 135.194 214.671L156.855 154.704L160.505 157.016L164.196 175.176H164.232Z" fill="#C45028"/>
<path d="M102.445 205.924C102.317 208.375 100.652 210.458 98.9473 212.227C97.818 213.4 96.6049 214.536 95.1441 215.257C94.0658 215.789 92.8855 216.073 91.7161 216.357C90.0003 216.768 88.2663 217.187 86.503 217.169C84.7253 217.151 82.9913 216.688 81.3083 216.091C80.842 215.927 80.3793 215.749 79.9203 215.57C78.0952 214.853 75.8767 214.175 74.2593 213.057C72.8167 212.056 67.1421 194.095 74.365 190.098C74.7657 189.916 75.1737 189.749 75.5854 189.603C78.9915 188.387 83.108 188.39 85.8985 190.692C88.496 192.833 89.3665 196.391 89.8584 199.719C91.3047 198.164 93.5997 197.527 95.6871 197.898C97.7781 198.273 99.6398 199.577 100.897 201.288C101.88 202.625 102.532 204.263 102.445 205.924Z" fill="#A1BC32"/>
<path d="M154.491 173.672H108.211V212.081H154.491V173.672Z" fill="#E5EEDB"/>
<path d="M152.651 175.198H110.051V210.556H152.651V175.198Z" fill="#D06845"/>
<path d="M154.491 173.672V212.081H132.95C132.939 211.597 132.95 211.091 132.983 210.556H152.651V175.198H147.578L148.12 173.672H154.491Z" fill="#D68765"/>
<path d="M152.651 175.198V210.556H135.61L139.697 198.485L142.04 191.559L147.577 175.198H152.651Z" fill="#C45028"/>
<path d="M98.8342 210.144C93.5483 213.433 87.4973 215.45 81.308 216.091C80.8417 215.927 80.379 215.748 79.9201 215.57C78.0949 214.853 75.8764 214.175 74.259 213.057C72.8164 212.056 72.2663 210.494 70.6925 209.678C69.1006 208.855 67.8765 207.42 67.1334 205.785C65.7199 202.668 66.0806 198.892 67.7672 195.917C69.2427 193.324 71.636 191.325 74.3646 190.098C73.7197 191.008 73.2426 192.039 72.9329 193.099C71.6834 197.356 72.9948 202.253 76.2005 205.316C79.0566 208.043 83.0711 209.223 86.9982 209.642C90.9254 210.061 94.8962 209.809 98.8342 210.144Z" fill="#324C2F"/>
<path d="M132.281 174.342H130.694V209.782H132.281V174.342Z" fill="#E5EEDB"/>
<path d="M110.387 173.98L109.031 174.803L130.49 210.15L131.846 209.327L110.387 173.98Z" fill="#E5EEDB"/>
<path d="M142.039 191.559L139.697 198.485L132.375 210.563L131.02 209.744L142.039 191.559Z" fill="#E5EEDB"/>
<path d="M153.806 175.201L152.651 177.106L139.697 198.484L142.039 191.558L151.955 175.198L152.451 174.378L153.806 175.201Z" fill="#D68765"/>
<path d="M387 214.612V318.197H-23V209.856C10.3422 205.52 209.635 209.757 387 214.612Z" fill="#A1BC32"/>
<path d="M275.351 250.611C265.514 251.236 321.876 249.362 387 246.873V383.727H-23V209.857C10.9473 209.711 118.979 209.513 233.217 212.097C268.07 212.884 349.564 220.274 383.224 225.919C384.51 226.134 385.766 226.349 387 226.557V246.113C353.866 247.577 310.102 248.407 275.351 250.611Z" fill="#5C7D31"/>
<path d="M387 234.952V249.144C241.744 247.703 -0.426758 259.499 -0.426758 259.499C-0.426758 259.499 -0.416838 259.499 -0.393693 259.496C125.556 250.519 276.72 240.376 387 234.952Z" fill="#7E9B2C"/>
<path d="M387 244.09V267.937C232.562 282.902 26.5901 296.4 -23 295.98V261.363C51.2 255.235 255.803 243.386 387 244.09Z" fill="#516419"/>
<path d="M387 242.147V383.727H-23V286.128C-1.22704 282.32 218.033 251.768 387 242.147Z" fill="#7E9B2C"/>
<path d="M233.218 212.096L229.477 212.493L226.082 212.854L-23 239.279V209.857C10.9484 209.711 118.979 209.514 233.218 212.096Z" fill="#7E9B2C"/>
<path d="M131.847 138.864L100.862 159.145L96.9359 178.488L95.3479 178.509V175.176H95.3843L99.0746 157.016L129.788 137.56L131.847 138.864Z" fill="#2D4143"/>
<path d="M44.7282 178.509H36.4307V182.851H44.7282V178.509Z" fill="#96A1A3"/>
<path d="M43.9487 179.19H37.2104V182.169H43.9487V179.19Z" fill="#546466"/>
<path d="M57.2861 178.509H48.9885V182.851H57.2861V178.509Z" fill="#96A1A3"/>
<path d="M56.5065 179.19H49.7683V182.169H56.5065V179.19Z" fill="#546466"/>
<path d="M27.1416 196.093H25.167V212.495H27.1416V196.093Z" fill="#E5EEDB"/>
<path d="M40.0933 196.913H38.1187V212.495H40.0933V196.913Z" fill="#E5EEDB"/>
<path d="M53.0459 197.692H51.0713V212.495H53.0459V197.692Z" fill="#E5EEDB"/>
<path d="M1.23731 194.321H-0.737305V212.495H1.23731V194.321Z" fill="#E5EEDB"/>
<path d="M14.1892 195.23H12.2146V212.495H14.1892V195.23Z" fill="#E5EEDB"/>
<path d="M65.9976 198.432H64.0229V212.495H65.9976V198.432Z" fill="#E5EEDB"/>
<path d="M78.0042 199.102H76.0295V212.495H78.0042V199.102Z" fill="#E5EEDB"/>
<path d="M90.0103 199.74H88.0356V212.495H90.0103V199.74Z" fill="#E5EEDB"/>
<path d="M101.969 200.347H100.089V212.495H101.969V200.347Z" fill="#E5EEDB"/>
<path d="M113.931 200.925H112.14V212.495H113.931V200.925Z" fill="#E5EEDB"/>
<path d="M123.749 201.476H122.043V212.495H123.749V201.476Z" fill="#E5EEDB"/>
<path d="M133.531 202.501H131.984V212.495H133.531V202.501Z" fill="#E5EEDB"/>
<path d="M143.866 202.977H142.393V212.495H143.866V202.977Z" fill="#E5EEDB"/>
<path d="M152.485 203.862H151.148V212.495H152.485V203.862Z" fill="#E5EEDB"/>
<path d="M161.172 203.862H159.836V212.495H161.172V203.862Z" fill="#E5EEDB"/>
<path d="M169.826 204.293H168.556V212.495H169.826V204.293Z" fill="#E5EEDB"/>
<path d="M178.48 204.725H177.277V212.495H178.48V204.725Z" fill="#E5EEDB"/>
<path d="M187.184 205.156H186.048V212.495H187.184V205.156Z" fill="#E5EEDB"/>
<path d="M195.863 205.588H194.794V212.495H195.863V205.588Z" fill="#E5EEDB"/>
<path d="M204.408 206.452H203.473V212.495H204.408V206.452Z" fill="#E5EEDB"/>
<path d="M213.062 206.883H212.194V212.495H213.062V206.883Z" fill="#E5EEDB"/>
<path d="M221.736 207.056H220.894V212.495H221.736V207.056Z" fill="#E5EEDB"/>
<path d="M229.933 207.328H229.133V212.495H229.933V207.328Z" fill="#E5EEDB"/>
<path d="M238.129 207.6H237.371V212.495H238.129V207.6Z" fill="#E5EEDB"/>
<path d="M246.325 207.871H245.61V212.495H246.325V207.871Z" fill="#E5EEDB"/>
<path d="M254.522 208.144H253.848V212.495H254.522V208.144Z" fill="#E5EEDB"/>
<path d="M262.717 208.415H262.086V212.495H262.717V208.415Z" fill="#E5EEDB"/>
<path d="M269.329 208.62H268.729V212.495H269.329V208.62Z" fill="#E5EEDB"/>
<path d="M275.94 208.823H275.372V212.495H275.94V208.823Z" fill="#E5EEDB"/>
<path d="M282.551 209.027H282.014V212.495H282.551V209.027Z" fill="#E5EEDB"/>
<path d="M289.162 209.231H288.657V212.495H289.162V209.231Z" fill="#E5EEDB"/>
<path d="M289.162 212.493L226.082 212.854L-23 214.277V212.493H289.162Z" fill="#5C7D31"/>
<path d="M289.162 210.222L-23 200.399V201.644L289.162 210.417L289.162 210.222Z" fill="#E5EEDB"/>
<path d="M379.798 113.768C256.134 115.318 81.2192 118.719 81.2192 118.719C154.801 116.065 235.882 113.398 307.479 111.636C332.453 112.192 357.47 112.892 379.798 113.768Z" fill="#FFDC00"/>
<path d="M44.158 70.8682C44.158 70.8682 249.886 71.0603 237.055 62.8755C224.223 54.6906 34.6802 67.493 44.158 70.8682Z" fill="#F3FBF3"/>
<path d="M387 -194V35.0085C311.51 40.8089 209.754 48.0272 114.294 52.8427C65.4244 55.3083 18.205 57.1459 -23 57.84V-194H387Z" fill="#D2E9D2"/>
<path d="M387 27.1919V35.0084C311.51 40.8088 209.754 48.0271 114.294 52.8426C109.992 52.5683 105.664 52.3898 101.409 51.6693C17.4514 37.4541 232.245 29.4526 387 27.1919Z" fill="#E0F0E0"/>
<path d="M-14.7648 25.4016C-14.7648 25.4016 109.679 23.6153 115.823 19.3714C121.968 15.1274 -42.3213 18.6999 -14.7648 25.4016Z" fill="#E0F0E0"/>
</g>
<defs>
<clipPath id="clip0_501_27005">
<rect width="375" height="248" fill="white"/>
</clipPath>
</defs>
</svg>
