<svg width="375" height="248" viewBox="0 0 375 248" fill="none" xmlns="http://www.w3.org/2000/svg">
<g clip-path="url(#clip0_501_34435)">
<path d="M375 -95H0V280H375V-95Z" fill="white"/>
<path d="M375 -95H0V280H375V-95Z" fill="#F7931E"/>
<path d="M143.04 279.25H231.81C294.99 260.207 341.01 201.58 341.01 132.19C341.01 47.365 272.25 -21.395 187.425 -21.395C102.6 -21.395 33.8474 47.365 33.8474 132.19C33.8474 201.58 79.8674 260.207 143.047 279.25H143.04Z" fill="#FBB03B"/>
<g style="mix-blend-mode:soft-light">
<path d="M82.2824 279.25H292.102C338.085 246.453 368.077 192.67 368.077 131.883C368.077 31.9826 287.092 -49.0024 187.192 -49.0024C87.2924 -49.0024 6.30737 31.9826 6.30737 131.883C6.30737 192.67 36.2924 246.453 82.2824 279.25Z" fill="#FBB03B"/>
</g>
<g style="mix-blend-mode:soft-light">
<path d="M187.425 132.19L55.4324 8.51502C60.9824 2.59751 66.9149 -2.94499 73.2074 -8.06749C79.4999 -13.19 86.1224 -17.885 93.0449 -22.115L187.432 132.19H187.425Z" fill="#FBB03B"/>
</g>
<path d="M39.2026 280H336.84V257.83H342.083V249.67H341.978V242.71H337.163V249.67H332.64V242.71H327.825V249.67H323.303V242.71H318.488V249.67H313.965V242.71H309.293V249.67H306.105V221.59H311.918V238.743L326.16 225.865V180.04H332.61C332.61 180.04 323.07 160.818 319.988 143.89H317.7C315.983 153.738 312.368 169.255 305.468 180.04H311.918V206.65H306.105V183.393H297.705V195.55H296.64V175.78H298.53V168.715H296.64V142.45H298.53V135.385H296.64V109.54H299.768V107.275L282.668 80.08V64.5025L300.803 60.2875L282.668 56.0725V52.6525H280.013V79.6825L262.658 107.275V109.54H265.785V135.385H263.895V142.45H265.785V168.715H263.895V175.78H265.785V183.4H263.303V195.558H257.175V183.4H249.015V195.558H240.855V183.4H232.695V195.558H229.178V142.75H234.42V134.59H234.315V127.63H229.5V134.59H224.978V127.63H220.163V134.59H215.64V127.63H212.063V123.775H214.92V113.095H212.063V74.0425H216.795V70.615L210.008 66.5875L204.465 63.3025L191.528 55.63V37.405L219.983 30.7975L191.528 24.19V18.415H185.985V55.6375L173.04 63.3175L167.498 66.6025L160.718 70.6225V74.05H165.45V113.103H162.593V123.783H165.45V127.638H161.925V134.598H157.253V127.638H152.58V134.598H147.908V127.638H143.235V142.758H148.478V195.565H143.543V183.408H135.128V195.565H127.223V183.408H121.23V175.788H123.12V168.723H121.23V142.458H123.12V135.393H121.23V109.548H124.358V107.283L107.13 79.885V64.51L125.265 60.295L107.13 56.08V52.66H104.475V79.885L87.2476 107.283V109.548H90.3751V135.393H88.4851V142.458H90.3751V168.723H88.4851V175.788H90.3751V183.408H86.4376V195.565H78.2776V183.408H70.1176V206.665H64.3051V180.055H70.7551C63.8476 169.27 60.2326 153.753 58.5226 143.905H56.2351C53.1526 160.833 43.6126 180.055 43.6126 180.055H50.0626V225.88L64.3051 238.758V221.605H70.1176V249.685H66.6976V242.725H61.8826V249.685H57.3601V242.725H52.6876V249.685H48.0151V242.725H43.3426V249.685H38.6701V242.725H33.9976V257.845H39.2401V280.015L39.2026 280ZM306.098 212.215H311.91V215.41H306.098V212.215ZM64.2676 215.403V212.208H70.0801V215.403H64.2676Z" fill="#270035"/>
<path style="mix-blend-mode:soft-light" opacity="0.34" d="M39.2026 280H336.84V257.83H342.083V249.67H341.978V242.71H337.163V249.67H332.64V242.71H327.825V249.67H323.303V242.71H318.488V249.67H313.965V242.71H309.293V249.67H306.105V221.59H311.918V238.743L326.16 225.865V180.04H332.61C332.61 180.04 323.07 160.818 319.988 143.89H317.7C315.983 153.738 312.368 169.255 305.468 180.04H311.918V206.65H306.105V183.393H297.705V195.55H296.64V175.78H298.53V168.715H296.64V142.45H298.53V135.385H296.64V109.54H299.768V107.275L282.668 80.08V64.5025L300.803 60.2875L282.668 56.0725V52.6525H280.013V79.6825L262.658 107.275V109.54H265.785V135.385H263.895V142.45H265.785V168.715H263.895V175.78H265.785V183.4L265.86 195.558H257.175V183.4H249.015V195.558H240.855V183.4H232.695V195.558H229.178V142.75H234.42V134.59H234.315V127.63H229.5V134.59H224.978V127.63H220.163V134.59H215.64V127.63H212.063V123.775H214.92V113.095H212.063V74.0425H216.795V70.615L210.008 66.5875L204.465 63.3025L191.528 55.63V37.405L219.983 30.7975L191.528 24.19V18.415H185.985V55.6375L173.04 63.3175L167.498 66.6025L160.718 70.6225V74.05H165.45V113.103H162.593V123.783H165.45V127.638H161.925V134.598H157.253V127.638H152.58V134.598H147.908V127.638H143.235V142.758H148.478V195.565H143.543V183.408H135.128V195.565H127.223V183.408H121.23V175.788H123.12V168.723H121.23V142.458H123.12V135.393H121.23V109.548H124.358V107.283L107.13 79.885V64.51L125.265 60.295L107.13 56.08V52.66H104.475V79.885L87.2476 107.283V109.548H90.3751V135.393H88.4851V142.458H90.3751V168.723H88.4851V175.788H90.3751V183.408H86.4376V195.565H78.2776V183.408H70.1176V206.665H64.3051V180.055H70.7551C63.8476 169.27 60.2326 153.753 58.5226 143.905H56.2351C53.1526 160.833 43.6126 180.055 43.6126 180.055H50.0626V225.88L64.3051 238.758V221.605H70.1176V249.685H66.6976V242.725H61.8826V249.685H57.3601V242.725H52.6876V249.685H48.0151V242.725H43.3426V249.685H38.6701V242.725H33.9976V257.845H39.2401V280.015L39.2026 280ZM306.098 212.215H311.91V215.41H306.098V212.215ZM64.2676 215.403V212.208H70.0801V215.403H64.2676Z" fill="url(#paint0_linear_501_34435)"/>
<g style="mix-blend-mode:soft-light" opacity="0.56">
<path d="M39.2026 280H336.84V257.83H342.083V249.67H341.978V242.71H337.163V249.67H332.64V242.71H327.825V249.67H323.303V242.71H318.488V249.67H313.965V242.71H309.293V249.67H306.105V221.59H311.918V238.743L326.16 225.865V180.04H332.61C332.61 180.04 323.07 160.818 319.988 143.89H317.7C315.983 153.738 312.368 169.255 305.468 180.04H311.918V206.65H306.105V183.393H297.705V195.55H296.64V175.78H298.53V168.715H296.64V142.45H298.53V135.385H296.64V109.54H299.768V107.275L282.668 80.08V64.5025L300.803 60.2875L282.668 56.0725V52.6525H280.013V79.6825L262.658 107.275V109.54H265.785V135.385H263.895V142.45H265.785V168.715H263.895V175.78H265.785V183.4H263.303V195.558H257.175V183.4H249.015V195.558H240.855V183.4H232.695V195.558H229.178V142.75H234.42V134.59H234.315V127.63H229.5V134.59H224.978V127.63H220.163V134.59H215.64V127.63H212.063V123.775H214.92V113.095H212.063V74.0425H216.795V70.615L210.008 66.5875L204.465 63.3025L191.528 55.63V37.405L219.983 30.7975L191.528 24.19V18.415H185.985V55.6375L173.04 63.3175L167.498 66.6025L160.718 70.6225V74.05H165.45V113.103H162.593V123.783H165.45V127.638H161.925V134.598H157.253V127.638H152.58V134.598H147.908V127.638H143.235V142.758H148.478V195.565H143.543V183.408H135.128V195.565H127.223V183.408H121.23V175.788H123.12V168.723H121.23V142.458H123.12V135.393H121.23V109.548H124.358V107.283L107.13 79.885V64.51L125.265 60.295L107.13 56.08V52.66H104.475V79.885L87.2476 107.283V109.548H90.3751V135.393H88.4851V142.458H90.3751V168.723H88.4851V175.788H90.3751V183.408H86.4376V195.565H78.2776V183.408H70.1176V206.665H64.3051V180.055H70.7551C63.8476 169.27 60.2326 153.753 58.5226 143.905H56.2351C53.1526 160.833 43.6126 180.055 43.6126 180.055H50.0626V225.88L64.3051 238.758V221.605H70.1176V249.685H66.6976V242.725H61.8826V249.685H57.3601V242.725H52.6876V249.685H48.0151V242.725H43.3426V249.685H38.6701V242.725H33.9976V257.845H39.2401V280.015L39.2026 280ZM306.098 212.215H311.91V215.41H306.098V212.215ZM64.2676 215.403V212.208H70.0801V215.403H64.2676Z" fill="url(#paint1_radial_501_34435)"/>
<path style="mix-blend-mode:soft-light" opacity="0.34" d="M39.2026 280H336.84V257.83H342.083V249.67H341.978V242.71H337.163V249.67H332.64V242.71H327.825V249.67H323.303V242.71H318.488V249.67H313.965V242.71H309.293V249.67H306.105V221.59H311.918V238.743L326.16 225.865V180.04H332.61C332.61 180.04 323.07 160.818 319.988 143.89H317.7C315.983 153.738 312.368 169.255 305.468 180.04H311.918V206.65H306.105V183.393H297.705V195.55H296.64V175.78H298.53V168.715H296.64V142.45H298.53V135.385H296.64V109.54H299.768V107.275L282.668 80.08V64.5025L300.803 60.2875L282.668 56.0725V52.6525H280.013V79.6825L262.658 107.275V109.54H265.785V135.385H263.895V142.45H265.785V168.715H263.895V175.78H265.785V183.4L265.86 195.558H257.175V183.4H249.015V195.558H240.855V183.4H232.695V195.558H229.178V142.75H234.42V134.59H234.315V127.63H229.5V134.59H224.978V127.63H220.163V134.59H215.64V127.63H212.063V123.775H214.92V113.095H212.063V74.0425H216.795V70.615L210.008 66.5875L204.465 63.3025L191.528 55.63V37.405L219.983 30.7975L191.528 24.19V18.415H185.985V55.6375L173.04 63.3175L167.498 66.6025L160.718 70.6225V74.05H165.45V113.103H162.593V123.783H165.45V127.638H161.925V134.598H157.253V127.638H152.58V134.598H147.908V127.638H143.235V142.758H148.478V195.565H143.543V183.408H135.128V195.565H127.223V183.408H121.23V175.788H123.12V168.723H121.23V142.458H123.12V135.393H121.23V109.548H124.358V107.283L107.13 79.885V64.51L125.265 60.295L107.13 56.08V52.66H104.475V79.885L87.2476 107.283V109.548H90.3751V135.393H88.4851V142.458H90.3751V168.723H88.4851V175.788H90.3751V183.408H86.4376V195.565H78.2776V183.408H70.1176V206.665H64.3051V180.055H70.7551C63.8476 169.27 60.2326 153.753 58.5226 143.905H56.2351C53.1526 160.833 43.6126 180.055 43.6126 180.055H50.0626V225.88L64.3051 238.758V221.605H70.1176V249.685H66.6976V242.725H61.8826V249.685H57.3601V242.725H52.6876V249.685H48.0151V242.725H43.3426V249.685H38.6701V242.725H33.9976V257.845H39.2401V280.015L39.2026 280ZM306.098 212.215H311.91V215.41H306.098V212.215ZM64.2676 215.403V212.208H70.0801V215.403H64.2676Z" fill="url(#paint2_radial_501_34435)"/>
</g>
<path d="M183.095 195.705V195.428C183.126 192.488 183.434 190.149 184.018 188.411C184.603 186.672 185.434 185.264 186.511 184.186C187.589 183.109 188.881 182.117 190.389 181.209C191.297 180.655 192.113 180.001 192.836 179.247C193.559 178.477 194.129 177.593 194.544 176.592C194.975 175.592 195.19 174.484 195.19 173.268C195.19 171.76 194.836 170.452 194.129 169.344C193.421 168.237 192.474 167.382 191.289 166.782C190.105 166.182 188.789 165.882 187.342 165.882C186.08 165.882 184.865 166.144 183.695 166.667C182.526 167.19 181.549 168.013 180.764 169.137C179.979 170.26 179.525 171.73 179.402 173.545H173.585C173.708 170.929 174.385 168.69 175.616 166.828C176.863 164.967 178.502 163.543 180.533 162.558C182.58 161.573 184.849 161.081 187.342 161.081C190.051 161.081 192.405 161.62 194.406 162.697C196.421 163.774 197.976 165.251 199.068 167.129C200.176 169.006 200.73 171.145 200.73 173.545C200.73 175.238 200.469 176.769 199.945 178.139C199.438 179.508 198.699 180.732 197.729 181.809C196.775 182.886 195.621 183.84 194.267 184.671C192.913 185.518 191.828 186.41 191.012 187.349C190.197 188.272 189.604 189.372 189.235 190.65C188.866 191.927 188.666 193.519 188.635 195.428V195.705H183.095ZM186.05 209.369C184.911 209.369 183.934 208.962 183.118 208.146C182.303 207.33 181.895 206.353 181.895 205.214C181.895 204.076 182.303 203.099 183.118 202.283C183.934 201.467 184.911 201.06 186.05 201.06C187.188 201.06 188.166 201.467 188.981 202.283C189.797 203.099 190.205 204.076 190.205 205.214C190.205 205.969 190.012 206.661 189.627 207.292C189.258 207.923 188.758 208.431 188.127 208.815C187.512 209.185 186.819 209.369 186.05 209.369Z" fill="white"/>
</g>
<defs>
<linearGradient id="paint0_linear_501_34435" x1="78.4725" y1="78.61" x2="322.943" y2="323.08" gradientUnits="userSpaceOnUse">
<stop stop-color="white"/>
<stop offset="1"/>
</linearGradient>
<radialGradient id="paint1_radial_501_34435" cx="0" cy="0" r="1" gradientUnits="userSpaceOnUse" gradientTransform="translate(188.025 163.788) scale(149.79 149.79)">
<stop stop-color="white"/>
<stop offset="1"/>
</radialGradient>
<radialGradient id="paint2_radial_501_34435" cx="0" cy="0" r="1" gradientUnits="userSpaceOnUse" gradientTransform="translate(188.025 163.788) scale(149.79 149.79)">
<stop stop-color="white"/>
<stop offset="1"/>
</radialGradient>
<clipPath id="clip0_501_34435">
<rect width="375" height="248" fill="white"/>
</clipPath>
</defs>
</svg>
