<svg width="24" height="25" viewBox="0 0 24 25" fill="none" xmlns="http://www.w3.org/2000/svg">
<path d="M9.75 17.625V10.125L8.25 11.5312" stroke="#4A4A4A" stroke-width="1.5" stroke-linecap="round" stroke-linejoin="round"/>
<path d="M12.75 17.1564C13.1417 17.4507 13.6286 17.625 14.1562 17.625C15.4507 17.625 16.5 16.5757 16.5 15.2812C16.5 13.9868 15.4507 12.9375 14.1562 12.9375C13.6286 12.9375 13.1417 13.1118 12.75 13.4061L13.2188 10.125H16.5" stroke="#4A4A4A" stroke-width="1.5" stroke-linecap="round" stroke-linejoin="round"/>
<path d="M4.83904 5.94021C0.597948 9.86911 0.365929 16.4696 4.32082 20.6828C8.2757 24.8961 14.9199 25.1266 19.161 21.1977C23.4021 17.2688 23.6341 10.6683 19.6792 6.45503C17.4296 4.05854 14.31 2.9506 11.2574 3.16373M12.75 0.75L10.0757 3.2833L12.75 6" stroke="#4A4A4A" stroke-width="1.5" stroke-linecap="round" stroke-linejoin="round"/>
</svg>
