<svg width="24" height="25" viewBox="0 0 24 25" fill="none" xmlns="http://www.w3.org/2000/svg">
<path d="M9.75 17.625V10.125L8.25 11.5312" stroke="#4A4A4A" stroke-width="1.5" stroke-linecap="round" stroke-linejoin="round"/>
<path d="M12.75 17.1564C13.1417 17.4507 13.6286 17.625 14.1562 17.625C15.4507 17.625 16.5 16.5757 16.5 15.2812C16.5 13.9868 15.4507 12.9375 14.1562 12.9375C13.6286 12.9375 13.1417 13.1118 12.75 13.4061L13.2188 10.125H16.5" stroke="#4A4A4A" stroke-width="1.5" stroke-linecap="round" stroke-linejoin="round"/>
<path d="M19.161 5.94021C23.4021 9.86911 23.6341 16.4696 19.6792 20.6828C15.7243 24.8961 9.08014 25.1266 4.83904 21.1977C0.597948 17.2688 0.365929 10.6683 4.32082 6.45503C6.57036 4.05854 9.68998 2.9506 12.7426 3.16373M11.25 0.75L13.9243 3.2833L11.25 6" stroke="#4A4A4A" stroke-width="1.5" stroke-linecap="round" stroke-linejoin="round"/>
</svg>
