<svg width="80" height="52" viewBox="0 0 80 52" fill="none" xmlns="http://www.w3.org/2000/svg">
<path d="M20.8336 15.9367C20.8336 15.9367 21.9029 0.632379 40.9939 1.30019C60.0852 1.968 62.1263 18.5067 62.1263 18.5067C62.1263 18.5067 73.707 17.0488 77.3202 24.6063C82.3996 35.2302 78.8419 39.4939 71.5234 44.4317C61.0203 51.5181 55.0639 52.4522 35.7406 50.7148C16.4173 48.9772 0.707825 45.1726 2.2255 27.4625C3.74317 9.75237 20.8336 15.9367 20.8336 15.9367Z" fill="#DBF1F5"/>
<path d="M19.7979 12.8522C18.4427 12.2205 16.9912 11.9617 15.502 12.1023C14.0358 12.2408 12.6132 12.6208 11.2565 13.1891C8.94108 14.1587 6.88639 15.614 5.17731 17.453C3.50289 19.2548 2.16515 21.3265 1.25042 23.612C0.269762 26.0622 -0.127727 28.7503 0.0356093 31.3816C0.127912 32.868 0.360372 34.4084 0.8574 35.8172C1.36315 37.25 2.04223 38.6164 2.89124 39.8767C3.10264 40.1907 3.59733 39.9115 3.40358 39.5773C2.75682 38.4616 2.23703 37.2806 1.85528 36.0485C1.47671 34.8265 1.15918 33.58 1.00839 32.3076C0.709368 29.7854 0.939066 27.2169 1.7398 24.8036C3.21366 20.3618 6.61012 16.8544 10.8058 14.868C12.0866 14.2616 13.4671 13.8175 14.8722 13.6208C15.6234 13.5157 16.372 13.5417 17.1268 13.5304C17.8767 13.5191 18.6547 13.6583 19.3763 13.8524C19.9552 14.0077 20.3755 13.1214 19.7979 12.8522Z" fill="black"/>
<path d="M60.5646 14.1546C59.9523 11.1791 58.2372 8.67754 56.139 6.68879C53.8948 4.562 51.2599 2.93101 48.4725 1.78234C42.8719 -0.525855 36.5198 -0.73665 31.0174 2.0052C29.6072 2.70788 28.3177 3.58859 27.1516 4.69451C26.0282 5.75982 24.9852 7.03227 24.2315 8.42957C24.1216 8.63331 24.3944 8.87933 24.5441 8.68877C25.3963 7.60454 26.2932 6.61709 27.3317 5.73703C28.3472 4.87653 29.4817 4.12681 30.6289 3.4875C32.9532 2.19251 35.5509 1.43476 38.166 1.30226C41.1362 1.15168 44.0942 1.71191 46.887 2.78955C48.2737 3.32465 49.6059 4.00228 50.9013 4.75516C52.0819 5.44147 53.2316 6.21108 54.2912 7.09753C56.5624 8.9978 58.5226 11.5042 59.3402 14.5179C59.5699 15.3646 60.7409 15.0111 60.5646 14.1546Z" fill="black"/>
<path d="M78.6469 29.3608C78.5801 28.8953 78.4933 28.4326 78.38 27.976C78.143 27.0213 77.7893 26.0864 77.3242 25.2193C76.4157 23.5251 74.9397 22.1425 73.3236 21.1352C71.7142 20.1322 70.0166 19.3484 68.2473 18.6729C66.2207 17.8992 63.8153 17.4461 61.8017 18.4855C61.4051 18.6901 61.753 19.2616 62.148 19.078C63.8906 18.2679 65.8134 18.7598 67.4979 19.4517C67.9326 19.6301 68.3584 19.8292 68.7792 20.0385C68.9632 20.1299 69.1463 20.2231 69.3288 20.3177C69.5289 20.4213 69.6965 20.5642 69.892 20.6746C70.6551 21.1059 71.4001 21.5706 72.1087 22.087C72.7695 22.5685 73.3995 23.1528 73.9675 23.7459C74.5786 24.384 74.9746 24.915 75.4248 25.7061C75.5297 25.8905 75.633 26.0753 75.7287 26.2648C75.7798 26.3663 75.8293 26.4683 75.8768 26.5715C75.8972 26.6155 75.9167 26.66 75.9367 26.7042C75.9454 26.7234 75.951 26.7353 75.9544 26.7427L75.9546 26.7432C76.1275 27.1592 76.2702 27.5886 76.3891 28.0231C76.5046 28.4444 76.5966 28.8719 76.6685 29.3028C76.6868 29.4127 76.7036 29.5228 76.7196 29.6332C76.7272 29.6942 76.7345 29.7554 76.7415 29.8164C76.7672 30.0442 76.7881 30.2725 76.8042 30.5012C76.8136 30.6322 76.8153 30.7647 76.8276 30.8953C76.8374 30.9986 76.8523 31.1045 76.8725 31.2064C76.8744 31.2155 76.8878 31.264 76.8982 31.2993C76.901 31.3259 76.9189 31.4238 76.9204 31.4399C76.9263 31.5061 76.9316 31.5724 76.937 31.6386C76.9474 31.7713 76.9565 31.904 76.9646 32.0367C76.9948 32.5357 77.0084 33.0357 77.0099 33.5355C77.0114 34.051 76.9995 34.5667 76.9786 35.0818C76.9567 35.6233 76.8997 36.1635 77.031 36.6944C77.1328 37.1063 77.7424 37.191 77.9461 36.8141C78.1826 36.3764 78.2613 35.903 78.341 35.4162C78.4244 34.9075 78.4978 34.397 78.5631 33.8855C78.6267 33.387 78.679 32.8873 78.7158 32.386C78.7328 32.1537 78.7466 31.921 78.7564 31.6883C78.7607 31.5894 78.7679 31.4895 78.767 31.3904C78.7658 31.253 78.7602 31.2688 78.7568 31.3053C78.7668 31.1854 78.8043 31.0658 78.8077 30.945C78.8223 30.4244 78.7205 29.874 78.6469 29.3608Z" fill="black"/>
<path d="M65.8871 46.83C64.1038 47.0218 62.3513 47.4457 60.591 47.7793C58.8351 48.1122 57.078 48.4324 55.3091 48.6894C51.8365 49.1938 48.3471 49.5435 44.8403 49.6858C37.7945 49.9716 30.6951 49.5459 23.7458 48.3408C19.8272 47.6613 15.9497 46.7796 12.13 45.6698C11.8635 45.5924 11.7605 45.9907 12.0166 46.0811C18.7717 48.4655 25.8069 49.9684 32.932 50.6792C40.0437 51.3884 47.2297 51.2419 54.3151 50.3114C56.3283 50.0471 58.343 49.7153 60.329 49.291C62.2828 48.8736 64.2659 48.428 66.1025 47.6249C66.4832 47.4582 66.2982 46.7857 65.8871 46.83Z" fill="black"/>
</svg>
