<svg width="443" height="641" viewBox="0 0 443 641" fill="none" xmlns="http://www.w3.org/2000/svg">
<mask id="path-1-inside-1_12_42" fill="white">
<path d="M0 44C0 19.6995 19.6995 0 44 0H399C423.301 0 443 19.6995 443 44V641H0V44Z"/>
</mask>
<path d="M-5 44C-5 16.938 16.938 -5 44 -5H399C426.062 -5 448 16.938 448 44H438C438 22.4609 420.539 5 399 5H44C22.4609 5 5 22.4609 5 44H-5ZM5 44M443 641H0H443M-5 641V44C-5 16.938 16.938 -5 44 -5V5C22.4609 5 5 22.4609 5 44V641H-5ZM399 -5C426.062 -5 448 16.938 448 44V641H438V44C438 22.4609 420.539 5 399 5V-5Z" fill="white" mask="url(#path-1-inside-1_12_42)"/>
</svg>
