<svg width="19" height="20" viewBox="0 0 19 20" fill="none" xmlns="http://www.w3.org/2000/svg">
<path d="M15.0975 8.78396C15.0975 8.78396 19.2834 13.2316 18.8693 13.7896C18.4551 14.3477 12.1176 14.2111 12.1176 14.2111C12.1176 14.2111 8.95527 19.3159 8.39255 19.1851C7.82971 19.0544 6.04959 12.9456 6.04959 12.9456C6.04959 12.9456 1.12824 11.5567 0.718227 11.3786C0.308216 11.2005 -0.103949 10.982 0.0236274 10.7669C0.151204 10.5518 5.36737 6.67773 5.36737 6.67773C5.36737 6.67773 5.84321 1.31649 6.05622 0.512067C6.26922 -0.292356 6.43348 -0.130388 7.57809 0.867104C8.72275 1.86466 10.9152 4.09267 10.9152 4.09267C10.9152 4.09267 17.8055 2.4555 17.7514 2.97288C17.6971 3.4901 15.0975 8.78396 15.0975 8.78396Z" fill="#F7E043"/>
</svg>
