<svg width="398" height="80" viewBox="0 0 398 80" fill="none" xmlns="http://www.w3.org/2000/svg">
<path d="M75.25 39H73.9625C73.65 30.2 69.925 22.2375 64.1 16.4C58.2625 10.575 50.3 6.85 41.5 6.5375V5.25C41.5 4.5625 40.9375 4 40.25 4C39.5625 4 39 4.5625 39 5.25V6.5375C30.2 6.85 22.2375 10.575 16.4 16.4C10.575 22.2375 6.85 30.2 6.5375 39H5.25C4.5625 39 4 39.5625 4 40.25C4 40.9375 4.5625 41.5 5.25 41.5H6.5375C6.85 50.3 10.575 58.2625 16.4 64.1C22.2375 69.925 30.2 73.65 39 73.9625V75.25C39 75.9375 39.5625 76.5 40.25 76.5C40.9375 76.5 41.5 75.9375 41.5 75.25V73.9625C50.3 73.65 58.2625 69.925 64.1 64.1C69.925 58.2625 73.65 50.3 73.9625 41.5H75.25C75.9375 41.5 76.5 40.9375 76.5 40.25C76.5 39.5625 75.9375 39 75.25 39ZM70.25 41.5H71.4625C71.15 49.625 67.7125 56.95 62.325 62.325C56.95 67.7125 49.625 71.15 41.5 71.4625V70.25C41.5 69.5625 40.9375 69 40.25 69C39.5625 69 39 69.5625 39 70.25V71.4625C30.875 71.15 23.55 67.7125 18.175 62.325C12.7875 56.95 9.35 49.625 9.0375 41.5H10.25C10.9375 41.5 11.5 40.9375 11.5 40.25C11.5 39.5625 10.9375 39 10.25 39H9.0375C9.35 30.875 12.7875 23.55 18.175 18.175C23.55 12.7875 30.875 9.35 39 9.0375V10.25C39 10.9375 39.5625 11.5 40.25 11.5C40.9375 11.5 41.5 10.9375 41.5 10.25V9.0375C49.625 9.35 56.95 12.7875 62.325 18.175C67.7125 23.55 71.15 30.875 71.4625 39H70.25C69.5625 39 69 39.5625 69 40.25C69 40.9375 69.5625 41.5 70.25 41.5Z" fill="#EF9302"/>
<rect x="22" y="22" width="36" height="36" rx="18" fill="white"/>
<path d="M40.0016 40.4234C43.1935 40.4234 45.8027 37.8544 45.8027 34.7117C45.8027 31.569 43.1935 29 40.0016 29C36.8096 29 34.2004 31.569 34.2004 34.7117C34.2004 37.8544 36.8097 40.4234 40.0016 40.4234Z" fill="#2A2929"/>
<path d="M49.9573 44.9898C49.8052 44.6156 49.6026 44.2664 49.3746 43.9422C48.2093 42.2461 46.4107 41.1237 44.3841 40.8494C44.1308 40.8245 43.8522 40.8743 43.6495 41.024C42.5855 41.7972 41.3189 42.1962 40.0016 42.1962C38.6842 42.1962 37.4176 41.7972 36.3537 41.024C36.151 40.8743 35.8723 40.7995 35.619 40.8494C33.5924 41.1237 31.7685 42.2461 30.6285 43.9422C30.4005 44.2664 30.1978 44.6406 30.0459 44.9898C29.9699 45.1394 29.9952 45.314 30.0712 45.4637C30.2739 45.8129 30.5272 46.1621 30.7552 46.4614C31.1098 46.9353 31.4898 47.3593 31.9205 47.7583C32.2751 48.1075 32.6804 48.4317 33.0858 48.756C35.0871 50.2276 37.4937 51.0008 39.9763 51.0008C42.4589 51.0008 44.8655 50.2276 46.8667 48.756C47.272 48.4567 47.6773 48.1075 48.032 47.7583C48.4373 47.3593 48.8427 46.9352 49.1973 46.4614C49.4506 46.1371 49.6787 45.8129 49.8813 45.4637C50.0079 45.314 50.0332 45.1394 49.9573 44.9898Z" fill="#2A2929"/>
</svg>
