<svg width="40" height="40" viewBox="0 0 40 40" fill="none" xmlns="http://www.w3.org/2000/svg">
<rect width="40" height="40" rx="20" fill="#141414"/>
<path d="M15 19.5C15 19.2236 14.7764 19 14.5 19C14.2236 19 14 19.2236 14 19.5C14 20.813 15.4483 22.6158 15.6133 22.8174C15.7124 22.9375 15.856 23 16.0005 23C16.1118 23 16.2241 22.9629 16.3174 22.8867C16.5307 22.7114 16.5615 22.3965 16.3867 22.1826C15.8506 21.5293 15 20.2236 15 19.5Z" fill="white"/>
<path d="M25.5001 19C25.2237 19 25.0001 19.2236 25.0001 19.5C25.0001 20.2212 24.1495 21.5283 23.6134 22.1831C23.4386 22.3965 23.4698 22.7115 23.6832 22.8867C23.776 22.9629 23.8883 23 24.0001 23C24.1446 23 24.2877 22.9375 24.3868 22.8174C24.5518 22.6158 26.0001 20.813 26.0001 19.5C26.0001 19.2236 25.7765 19 25.5001 19Z" fill="white"/>
<path d="M20 19C19.7236 19 19.5 19.2236 19.5 19.5V22.5C19.5 22.7764 19.7236 23 20 23C20.2764 23 20.5 22.7764 20.5 22.5V19.5C20.5 19.2236 20.2763 19 20 19Z" fill="white"/>
<path d="M25.5 11C25.197 11 24.8804 11.0401 24.5515 11.1012C23.4503 9.81745 21.8201 9 20 9C18.1799 9 16.5497 9.81745 15.4485 11.1011C15.1196 11.0401 14.803 11 14.5 11C11.4673 11 9 13.4673 9 16.5C9 18.5781 10.1719 20.4673 12.0117 21.4014L12.002 28.9575C12.0015 29.5029 12.2134 30.0156 12.5986 30.4014C12.9844 30.7876 13.4966 31 14.042 31H25.96C27.085 31 28 30.085 28 28.96V21.394C29.833 20.4575 31 18.5713 31 16.5C31 13.4673 28.5327 11 25.5 11ZM27 28.96C27 29.5332 26.5332 30.0001 25.96 30.0001H14.042C13.7641 30.0001 13.5029 29.8916 13.3061 29.6949C13.1098 29.4981 13.0014 29.2369 13.0019 28.9586L13.0045 27H27V28.96ZM27.3096 20.6157C27.2832 20.6265 27.2583 20.6392 27.2349 20.6543C27.1719 20.6934 27.1201 20.7451 27.0815 20.8047C27.0425 20.8637 27.0161 20.9321 27.0054 21.0054C27.001 21.0332 26.9995 21.061 27 21.0894V26H13.0058L13.0122 21.0961C13.0127 21.0688 13.0112 21.041 13.0073 21.0141C12.9966 20.9384 12.9688 20.8681 12.9282 20.8071C12.8901 20.7499 12.8403 20.7001 12.7798 20.662C12.7549 20.6464 12.7285 20.6327 12.7012 20.6215C11.0601 19.9038 9.99999 18.2876 9.99999 16.5C9.99999 14.0185 12.0186 12 14.5 12C14.597 12 14.6993 12.0117 14.7998 12.0196C14.2939 12.8988 14 13.9148 14 15C14 15.2764 14.2236 15.5 14.5 15.5C14.7764 15.5 15 15.2764 15 15C15 12.2431 17.2432 9.99999 20 9.99999C22.7569 9.99999 25 12.2431 25 15C25 15.2764 25.2236 15.5 25.5 15.5C25.7764 15.5 26 15.2764 26 15C26 13.9148 25.7061 12.8989 25.2002 12.0196C25.3007 12.0117 25.403 12 25.5 12C27.9815 12 30 14.0186 30 16.5C30 18.2813 28.9443 19.8955 27.3096 20.6157Z" fill="white"/>
</svg>
