<svg width="632" height="80" viewBox="0 0 632 80" fill="none" xmlns="http://www.w3.org/2000/svg">
<path d="M75.25 39H73.9625C73.65 30.2 69.925 22.2375 64.1 16.4C58.2625 10.575 50.3 6.85 41.5 6.5375V5.25C41.5 4.5625 40.9375 4 40.25 4C39.5625 4 39 4.5625 39 5.25V6.5375C30.2 6.85 22.2375 10.575 16.4 16.4C10.575 22.2375 6.85 30.2 6.5375 39H5.25C4.5625 39 4 39.5625 4 40.25C4 40.9375 4.5625 41.5 5.25 41.5H6.5375C6.85 50.3 10.575 58.2625 16.4 64.1C22.2375 69.925 30.2 73.65 39 73.9625V75.25C39 75.9375 39.5625 76.5 40.25 76.5C40.9375 76.5 41.5 75.9375 41.5 75.25V73.9625C50.3 73.65 58.2625 69.925 64.1 64.1C69.925 58.2625 73.65 50.3 73.9625 41.5H75.25C75.9375 41.5 76.5 40.9375 76.5 40.25C76.5 39.5625 75.9375 39 75.25 39ZM70.25 41.5H71.4625C71.15 49.625 67.7125 56.95 62.325 62.325C56.95 67.7125 49.625 71.15 41.5 71.4625V70.25C41.5 69.5625 40.9375 69 40.25 69C39.5625 69 39 69.5625 39 70.25V71.4625C30.875 71.15 23.55 67.7125 18.175 62.325C12.7875 56.95 9.35 49.625 9.0375 41.5H10.25C10.9375 41.5 11.5 40.9375 11.5 40.25C11.5 39.5625 10.9375 39 10.25 39H9.0375C9.35 30.875 12.7875 23.55 18.175 18.175C23.55 12.7875 30.875 9.35 39 9.0375V10.25C39 10.9375 39.5625 11.5 40.25 11.5C40.9375 11.5 41.5 10.9375 41.5 10.25V9.0375C49.625 9.35 56.95 12.7875 62.325 18.175C67.7125 23.55 71.15 30.875 71.4625 39H70.25C69.5625 39 69 39.5625 69 40.25C69 40.9375 69.5625 41.5 70.25 41.5Z" fill="white"/>
<rect x="22" y="22" width="36" height="36" rx="18" fill="white"/>
<path d="M51.0167 32.0556C49.7226 30.652 47.9469 29.8789 46.0162 29.8789C44.5731 29.8789 43.2515 30.3351 42.0881 31.2348C41.501 31.689 40.969 32.2446 40.5 32.8931C40.0312 32.2448 39.499 31.689 38.9118 31.2348C37.7485 30.3351 36.4269 29.8789 34.9838 29.8789C33.0531 29.8789 31.2772 30.652 29.9831 32.0556C28.7044 33.4428 28 35.3379 28 37.3921C28 39.5064 28.7879 41.4418 30.4796 43.4831C31.9928 45.309 34.1678 47.1625 36.6864 49.3089C37.5465 50.0419 38.5213 50.8727 39.5335 51.7577C39.801 51.9919 40.1441 52.1209 40.5 52.1209C40.8557 52.1209 41.199 51.9919 41.4661 51.7581C42.4783 50.8729 43.4537 50.0417 44.3141 49.3083C46.8324 47.1623 49.0073 45.309 50.5206 43.4829C52.2123 41.4418 53 39.5064 53 37.392C53 35.3379 52.2956 33.4428 51.0167 32.0556Z" fill="#B92F2F"/>
</svg>
