<svg width="404" height="80" viewBox="0 0 404 80" fill="none" xmlns="http://www.w3.org/2000/svg">
<path d="M75.25 39H73.9625C73.65 30.2 69.925 22.2375 64.1 16.4C58.2625 10.575 50.3 6.85 41.5 6.5375V5.25C41.5 4.5625 40.9375 4 40.25 4C39.5625 4 39 4.5625 39 5.25V6.5375C30.2 6.85 22.2375 10.575 16.4 16.4C10.575 22.2375 6.85 30.2 6.5375 39H5.25C4.5625 39 4 39.5625 4 40.25C4 40.9375 4.5625 41.5 5.25 41.5H6.5375C6.85 50.3 10.575 58.2625 16.4 64.1C22.2375 69.925 30.2 73.65 39 73.9625V75.25C39 75.9375 39.5625 76.5 40.25 76.5C40.9375 76.5 41.5 75.9375 41.5 75.25V73.9625C50.3 73.65 58.2625 69.925 64.1 64.1C69.925 58.2625 73.65 50.3 73.9625 41.5H75.25C75.9375 41.5 76.5 40.9375 76.5 40.25C76.5 39.5625 75.9375 39 75.25 39ZM70.25 41.5H71.4625C71.15 49.625 67.7125 56.95 62.325 62.325C56.95 67.7125 49.625 71.15 41.5 71.4625V70.25C41.5 69.5625 40.9375 69 40.25 69C39.5625 69 39 69.5625 39 70.25V71.4625C30.875 71.15 23.55 67.7125 18.175 62.325C12.7875 56.95 9.35 49.625 9.0375 41.5H10.25C10.9375 41.5 11.5 40.9375 11.5 40.25C11.5 39.5625 10.9375 39 10.25 39H9.0375C9.35 30.875 12.7875 23.55 18.175 18.175C23.55 12.7875 30.875 9.35 39 9.0375V10.25C39 10.9375 39.5625 11.5 40.25 11.5C40.9375 11.5 41.5 10.9375 41.5 10.25V9.0375C49.625 9.35 56.95 12.7875 62.325 18.175C67.7125 23.55 71.15 30.875 71.4625 39H70.25C69.5625 39 69 39.5625 69 40.25C69 40.9375 69.5625 41.5 70.25 41.5Z" fill="#EF9302"/>
<path d="M40 22C30.0526 22 22 30.0526 22 40C22 49.9474 30.0526 58 40 58C49.9474 58 58 49.9474 58 40C58 30.0526 49.9079 22 40 22ZM41.6184 49.3158C41.1447 49.75 40.5526 49.9474 39.8421 49.9474C39.1316 49.9474 38.5395 49.75 38.0658 49.3158C37.5921 48.8816 37.3553 48.3289 37.3553 47.6974C37.3553 47.0263 37.5921 46.4737 38.0658 46.0789C38.5395 45.6447 39.1316 45.4474 39.8421 45.4474C40.5526 45.4474 41.1447 45.6447 41.6184 46.0789C42.0921 46.5132 42.3289 47.0658 42.3289 47.6974C42.3289 48.3684 42.0921 48.9211 41.6184 49.3158ZM45.8421 37.3553C45.5658 37.9474 45.0526 38.5789 44.4211 39.2105L42.8816 40.6316C42.4474 41.0658 42.1316 41.5 41.9737 41.9342C41.8158 42.3684 41.6974 42.9211 41.6974 43.6316H37.8684C37.8684 42.3289 38.0263 41.3026 38.3026 40.5526C38.5789 39.8026 39.0921 39.1316 39.7237 38.5789C40.3947 38.0263 40.9079 37.5132 41.2237 37.0395C41.5789 36.5658 41.7368 36.0526 41.7368 35.5C41.7368 34.1579 41.1447 33.4868 40 33.4868C39.4474 33.4868 39.0132 33.6842 38.6974 34.0789C38.3816 34.4737 38.1842 34.9868 38.1842 35.6579H33.6447C33.6447 33.8816 34.2368 32.4605 35.3421 31.4737C36.4474 30.4868 38.0263 29.9737 40 29.9737C42.0132 29.9737 43.5526 30.4474 44.6579 31.3553C45.7632 32.2632 46.3158 33.6053 46.3158 35.3026C46.3158 36.0526 46.1579 36.7237 45.8421 37.3553Z" fill="white"/>
</svg>
