<svg width="35" height="35" viewBox="0 0 35 35" fill="none" xmlns="http://www.w3.org/2000/svg">
<path d="M34.1387 16.0817L26.6883 23.3444L28.4478 33.602C28.5243 34.0505 28.3401 34.5038 27.9717 34.7717C27.7636 34.9236 27.516 35.0002 27.2684 35.0002C27.0782 35.0002 26.8869 34.9547 26.7122 34.8626L17.5 30.0197L8.28896 34.8615C7.88707 35.0744 7.39788 35.0397 7.02948 34.7706C6.66109 34.5026 6.47689 34.0493 6.55344 33.6008L8.31288 23.3432L0.861274 16.0817C0.535939 15.7636 0.417527 15.2875 0.558665 14.8557C0.699803 14.424 1.07418 14.107 1.5251 14.0412L11.8222 12.5461L16.4271 3.21426C16.8302 2.39733 18.1698 2.39733 18.5729 3.21426L23.1778 12.5461L33.4749 14.0412C33.9258 14.107 34.3002 14.4228 34.4413 14.8557C34.5825 15.2887 34.4641 15.7624 34.1387 16.0817Z" fill="white"/>
</svg>
