<svg width="35" height="35" viewBox="0 0 35 35" fill="none" xmlns="http://www.w3.org/2000/svg">
<path d="M17.5 32.5C17.328 32.5 17.1561 32.4547 17.002 32.3639C16.8347 32.2654 12.8589 29.9103 8.82602 26.3618C6.43581 24.2586 4.52783 22.1727 3.15522 20.1619C1.37899 17.5599 0.485761 15.0572 0.500172 12.723C0.517039 10.007 1.47056 7.4527 3.1853 5.53067C4.92899 3.57626 7.25599 2.5 9.73778 2.5C12.9184 2.5 15.8264 4.3177 17.5 7.19715C19.1737 4.31777 22.0817 2.5 25.2623 2.5C27.607 2.5 29.844 3.47111 31.5615 5.23447C33.4464 7.16958 34.5173 9.90378 34.4998 12.7359C34.4853 15.066 33.5753 17.5649 31.7952 20.1633C30.4183 22.1731 28.513 24.2581 26.1322 26.3606C22.1141 29.9088 18.1668 32.2638 18.0007 32.3623C17.846 32.4541 17.6729 32.5 17.5 32.5Z" fill="white"/>
</svg>
