<svg width="35" height="35" viewBox="0 0 35 35" fill="none" xmlns="http://www.w3.org/2000/svg">
<g clip-path="url(#clip0_497_34423)">
<path d="M1.51873 15.938C0.963241 15.938 0.512939 16.3884 0.512939 16.9438V31.7164C0.512939 32.2719 0.963307 32.7222 1.51873 32.7222H7.57851V15.938H1.51873Z" fill="white"/>
<path d="M34.4871 21.4922C34.4871 20.2154 33.8011 19.0957 32.7783 18.4825C33.1701 17.9167 33.4 17.2303 33.4 16.4914C33.4 14.5581 31.8271 12.9852 29.8938 12.9852H22.4922C22.7191 11.9572 23.0293 10.4146 23.2454 8.79983C23.8076 4.59757 23.4233 2.26704 22.0363 1.46558C21.1716 0.966005 20.2392 0.864668 19.411 1.17997C18.7712 1.42368 17.9071 2.02286 17.4147 3.49343L15.4694 8.58687C14.4832 11.0225 11.4631 13.5794 9.59009 14.9933V33.1673C13.0614 34.3836 16.6837 35.0001 20.3793 35.0001H28.4441C30.3773 35.0001 31.9502 33.4272 31.9502 31.4939C31.9502 30.8169 31.7573 30.184 31.4236 29.6475C32.5925 29.0783 33.3998 27.8781 33.3998 26.493C33.3998 25.754 33.17 25.0677 32.7781 24.5018C33.8011 23.8886 34.4871 22.7689 34.4871 21.4922Z" fill="white"/>
</g>
<defs>
<clipPath id="clip0_497_34423">
<rect width="34" height="34" fill="white" transform="translate(0.5 1)"/>
</clipPath>
</defs>
</svg>
