<svg width="628" height="80" viewBox="0 0 628 80" fill="none" xmlns="http://www.w3.org/2000/svg">
<path d="M75.25 39H73.9625C73.65 30.2 69.925 22.2375 64.1 16.4C58.2625 10.575 50.3 6.85 41.5 6.5375V5.25C41.5 4.5625 40.9375 4 40.25 4C39.5625 4 39 4.5625 39 5.25V6.5375C30.2 6.85 22.2375 10.575 16.4 16.4C10.575 22.2375 6.85 30.2 6.5375 39H5.25C4.5625 39 4 39.5625 4 40.25C4 40.9375 4.5625 41.5 5.25 41.5H6.5375C6.85 50.3 10.575 58.2625 16.4 64.1C22.2375 69.925 30.2 73.65 39 73.9625V75.25C39 75.9375 39.5625 76.5 40.25 76.5C40.9375 76.5 41.5 75.9375 41.5 75.25V73.9625C50.3 73.65 58.2625 69.925 64.1 64.1C69.925 58.2625 73.65 50.3 73.9625 41.5H75.25C75.9375 41.5 76.5 40.9375 76.5 40.25C76.5 39.5625 75.9375 39 75.25 39ZM70.25 41.5H71.4625C71.15 49.625 67.7125 56.95 62.325 62.325C56.95 67.7125 49.625 71.15 41.5 71.4625V70.25C41.5 69.5625 40.9375 69 40.25 69C39.5625 69 39 69.5625 39 70.25V71.4625C30.875 71.15 23.55 67.7125 18.175 62.325C12.7875 56.95 9.35 49.625 9.0375 41.5H10.25C10.9375 41.5 11.5 40.9375 11.5 40.25C11.5 39.5625 10.9375 39 10.25 39H9.0375C9.35 30.875 12.7875 23.55 18.175 18.175C23.55 12.7875 30.875 9.35 39 9.0375V10.25C39 10.9375 39.5625 11.5 40.25 11.5C40.9375 11.5 41.5 10.9375 41.5 10.25V9.0375C49.625 9.35 56.95 12.7875 62.325 18.175C67.7125 23.55 71.15 30.875 71.4625 39H70.25C69.5625 39 69 39.5625 69 40.25C69 40.9375 69.5625 41.5 70.25 41.5Z" fill="#EF9302"/>
<rect x="22" y="22" width="36" height="36" rx="18" fill="white"/>
<path d="M47.9916 30.5543C47.3598 30.5529 46.7333 30.6498 46.1442 30.8398C46.6489 31.428 47.0255 32.0856 47.2567 32.7824C47.274 32.8319 47.2793 32.8836 47.2723 32.9348C47.2653 32.9859 47.2462 33.0354 47.2161 33.0804C47.1859 33.1253 47.1454 33.1648 47.0968 33.1966C47.0482 33.2284 46.9925 33.2518 46.9329 33.2655C46.8733 33.2792 46.8111 33.2829 46.7498 33.2764C46.6885 33.2699 46.6293 33.2533 46.5758 33.2276C46.5222 33.2019 46.4754 33.1675 46.4379 33.1266C46.4004 33.0857 46.3731 33.039 46.3575 32.9891C46.0526 32.072 45.4643 31.2374 44.6513 30.5688C43.8382 29.9003 42.8289 29.421 41.724 29.1789C40.6191 28.9369 39.4573 28.9405 38.3545 29.1893C37.2518 29.4382 36.2468 29.9237 35.4397 30.5972C36.2854 31.0558 36.9804 31.683 37.4617 32.4219C37.9429 33.1608 38.1951 33.9881 38.1955 34.8287C38.1955 34.9317 38.1464 35.0306 38.0589 35.1035C37.9714 35.1763 37.8528 35.2173 37.729 35.2173C37.6053 35.2173 37.4867 35.1763 37.3992 35.1035C37.3117 35.0306 37.2626 34.9317 37.2626 34.8287C37.2623 34.0203 36.987 33.2286 36.4683 32.5453C35.9497 31.862 35.2091 31.3153 34.3325 30.9685C33.4559 30.6217 32.4792 30.4891 31.5158 30.5861C30.5524 30.683 29.6417 31.0056 28.8895 31.5163C28.1373 32.027 27.5743 32.7049 27.2659 33.4714C26.9576 34.2379 26.9165 35.0615 27.1474 35.8467C27.3783 36.6318 27.8717 37.3463 28.5705 37.9073C29.2692 38.4683 30.1446 38.8527 31.0951 39.0159C31.1872 39.0317 31.2715 39.0702 31.3368 39.1266C31.4022 39.1829 31.4456 39.2544 31.4613 39.3316L32.992 46.8747H35.8286L35.3979 41.8508H35.3983C35.3975 41.8416 35.3966 41.8325 35.3966 41.8232C35.3982 41.7234 35.4458 41.6279 35.5295 41.5566C35.6133 41.4852 35.7267 41.4434 35.8465 41.4399C35.9662 41.4363 36.083 41.4713 36.1726 41.5375C36.2622 41.6037 36.3178 41.6961 36.3279 41.7955H36.3284L36.7639 46.8747H39.595V42.6003C39.595 42.4972 39.6441 42.3984 39.7316 42.3255C39.8191 42.2526 39.9377 42.2117 40.0614 42.2117C40.1852 42.2117 40.3038 42.2526 40.3913 42.3255C40.4788 42.3984 40.5279 42.4972 40.5279 42.6003V46.8747H43.3589L43.7945 41.7954H43.795C43.805 41.696 43.8607 41.6036 43.9503 41.5374C44.0399 41.4712 44.1567 41.4362 44.2764 41.4398C44.3962 41.4433 44.5096 41.4851 44.5934 41.5565C44.6771 41.6279 44.7247 41.7233 44.7262 41.8231C44.7262 41.8325 44.7254 41.8416 44.7245 41.8508H44.725L44.2943 46.8747H47.1309L48.6616 39.3318C48.6773 39.2545 48.7207 39.1831 48.786 39.1267C48.8514 39.0704 48.9357 39.0318 49.0278 39.0161C50.2726 38.8024 51.378 38.2115 52.1298 37.3579C52.8816 36.5043 53.2265 35.4486 53.0975 34.3953C52.9685 33.3421 52.3749 32.3662 51.4316 31.6566C50.4884 30.947 49.2626 30.5542 47.9916 30.5543Z" fill="#2A2929"/>
<path d="M33.8748 48.25H46.2493V50.9999H33.8748V48.25Z" fill="#2A2929"/>
</svg>
