<svg width="398" height="80" viewBox="0 0 398 80" fill="none" xmlns="http://www.w3.org/2000/svg">
<path d="M75.25 39H73.9625C73.65 30.2 69.925 22.2375 64.1 16.4C58.2625 10.575 50.3 6.85 41.5 6.5375V5.25C41.5 4.5625 40.9375 4 40.25 4C39.5625 4 39 4.5625 39 5.25V6.5375C30.2 6.85 22.2375 10.575 16.4 16.4C10.575 22.2375 6.85 30.2 6.5375 39H5.25C4.5625 39 4 39.5625 4 40.25C4 40.9375 4.5625 41.5 5.25 41.5H6.5375C6.85 50.3 10.575 58.2625 16.4 64.1C22.2375 69.925 30.2 73.65 39 73.9625V75.25C39 75.9375 39.5625 76.5 40.25 76.5C40.9375 76.5 41.5 75.9375 41.5 75.25V73.9625C50.3 73.65 58.2625 69.925 64.1 64.1C69.925 58.2625 73.65 50.3 73.9625 41.5H75.25C75.9375 41.5 76.5 40.9375 76.5 40.25C76.5 39.5625 75.9375 39 75.25 39ZM70.25 41.5H71.4625C71.15 49.625 67.7125 56.95 62.325 62.325C56.95 67.7125 49.625 71.15 41.5 71.4625V70.25C41.5 69.5625 40.9375 69 40.25 69C39.5625 69 39 69.5625 39 70.25V71.4625C30.875 71.15 23.55 67.7125 18.175 62.325C12.7875 56.95 9.35 49.625 9.0375 41.5H10.25C10.9375 41.5 11.5 40.9375 11.5 40.25C11.5 39.5625 10.9375 39 10.25 39H9.0375C9.35 30.875 12.7875 23.55 18.175 18.175C23.55 12.7875 30.875 9.35 39 9.0375V10.25C39 10.9375 39.5625 11.5 40.25 11.5C40.9375 11.5 41.5 10.9375 41.5 10.25V9.0375C49.625 9.35 56.95 12.7875 62.325 18.175C67.7125 23.55 71.15 30.875 71.4625 39H70.25C69.5625 39 69 39.5625 69 40.25C69 40.9375 69.5625 41.5 70.25 41.5Z" fill="#EF9302"/>
<path fill-rule="evenodd" clip-rule="evenodd" d="M40 22C30.0658 22 22 30.0658 22 40C22 49.9342 30.0658 58 40 58C49.9342 58 58 49.9342 58 40C58 30.0658 49.9342 22 40 22ZM44.3146 34.2364C46.066 35.5522 47.2 37.6438 47.2 40C47.2 43.9744 43.9744 47.2 40 47.2C36.0256 47.2 32.8 43.9744 32.8 40C32.8 37.6438 33.934 35.5522 35.6854 34.2364C36.481 33.6406 36.6412 32.512 36.0454 31.7164C35.4478 30.9226 34.3192 30.7624 33.5254 31.3582C30.8992 33.3292 29.2 36.4684 29.2 40C29.2 45.9598 34.0402 50.8 40 50.8C45.9598 50.8 50.8 45.9598 50.8 40C50.8 36.4684 49.1008 33.3292 46.4746 31.3582C45.6808 30.7624 44.5522 30.9226 43.9546 31.7164C43.3588 32.512 43.519 33.6406 44.3146 34.2364ZM38.2 31V38.2C38.2 39.1936 39.0064 40 40 40C40.9936 40 41.8 39.1936 41.8 38.2V31C41.8 30.0064 40.9936 29.2 40 29.2C39.0064 29.2 38.2 30.0064 38.2 31Z" fill="white"/>
</svg>
