<svg width="40" height="40" viewBox="0 0 40 40" fill="none" xmlns="http://www.w3.org/2000/svg">
<path d="M20 0C12.347 0 6.12048 6.22602 6.12048 13.8795C6.12048 18.9716 8.94798 23.6684 13.3976 26.0959V28.9639C13.3976 29.7624 14.0449 30.4097 14.8434 30.4097H25.1089C25.9074 30.4097 26.5547 29.7625 26.5547 28.9639V26.0998C31.0338 23.682 33.8795 18.9832 33.8795 13.8796C33.8795 6.22602 27.6531 0 20 0ZM24.5094 23.8891C23.9938 24.1238 23.6627 24.638 23.6627 25.2048V27.5181H16.2892V25.2048C16.2892 24.6405 15.9605 24.1273 15.4482 23.8916C11.5384 22.0906 9.01205 18.1605 9.01205 13.8795C9.01205 7.8207 13.9412 2.89156 20 2.89156C26.0588 2.89156 30.988 7.8207 30.988 13.8795C30.988 18.1673 28.4449 22.0964 24.5094 23.8891Z" fill="white"/>
<path d="M24 32.3374H16C15.2015 32.3374 14.5542 32.9847 14.5542 33.7832C14.5542 34.5817 15.2014 35.229 16 35.229H24C24.7985 35.229 25.4458 34.5817 25.4458 33.7832C25.4458 32.9847 24.7985 32.3374 24 32.3374Z" fill="white"/>
<path d="M21.6868 37.1084H18.3133C17.5148 37.1084 16.8676 37.7557 16.8676 38.5542C16.8676 39.3527 17.5148 40 18.3133 40H21.6869C22.4854 40 23.1326 39.3527 23.1326 38.5542C23.1326 37.7557 22.4854 37.1084 21.6868 37.1084Z" fill="white"/>
</svg>
