<svg width="1360" height="570" viewBox="0 0 1360 570" fill="none" xmlns="http://www.w3.org/2000/svg">
<g clip-path="url(#clip0_497_32751)">
<g clip-path="url(#clip1_497_32751)">
<path d="M136.131 41.3223H127.132V42.7471H136.131V41.3223Z" fill="white"/>
<path d="M100.135 41.3223H91.1355V42.7471H100.135V41.3223Z" fill="white"/>
<path d="M280.116 41.3223H271.117V42.7471H280.116V41.3223Z" fill="white"/>
<path d="M496.093 41.3223H487.094V42.7471H496.093V41.3223Z" fill="white"/>
<path d="M460.096 41.3223H451.097V42.7471H460.096V41.3223Z" fill="white"/>
<path d="M244.119 41.3223H235.12V42.7471H244.119V41.3223Z" fill="white"/>
<path d="M226.121 41.3223H217.122V42.7471H226.121V41.3223Z" fill="white"/>
<path d="M388.104 41.3223H379.105V42.7471H388.104V41.3223Z" fill="white"/>
<path d="M118.133 41.3223H109.134V42.7471H118.133V41.3223Z" fill="white"/>
<path d="M262.118 41.3223H253.118V42.7471H262.118V41.3223Z" fill="white"/>
<path d="M478.095 41.3223H469.095V42.7471H478.095V41.3223Z" fill="white"/>
<path d="M406.102 41.3223H397.103V42.7471H406.102V41.3223Z" fill="white"/>
<path d="M28.1421 41.3223H19.1431V42.7471H28.1421V41.3223Z" fill="white"/>
<path d="M550.087 41.3223H541.088V42.7471H550.087V41.3223Z" fill="white"/>
<path d="M298.114 41.3223H289.115V42.7471H298.114V41.3223Z" fill="white"/>
<path d="M334.11 41.3223H325.111V42.7471H334.11V41.3223Z" fill="white"/>
<path d="M190.125 41.3223H181.126V42.7471H190.125V41.3223Z" fill="white"/>
<path d="M10.1439 41.3223H1.47974V42.7471H10.1439V41.3223Z" fill="white"/>
<path d="M316.112 41.3223H307.113V42.7471H316.112V41.3223Z" fill="white"/>
<path d="M568.085 41.3223H559.086V42.7471H568.085V41.3223Z" fill="white"/>
<path d="M424.1 41.3223H415.101V42.7471H424.1V41.3223Z" fill="white"/>
<path d="M442.098 41.3223H433.099V42.7471H442.098V41.3223Z" fill="white"/>
<path d="M64.1382 41.3223H55.1392V42.7471H64.1382V41.3223Z" fill="white"/>
<path d="M352.108 41.3223H343.109V42.7471H352.108V41.3223Z" fill="white"/>
<path d="M82.1365 41.3223H73.1375V42.7471H82.1365V41.3223Z" fill="white"/>
<path d="M514.09 41.3223H505.091V42.7471H514.09V41.3223Z" fill="white"/>
<path d="M172.127 41.3223H163.128V42.7471H172.127V41.3223Z" fill="white"/>
<path d="M154.129 41.3223H145.13V42.7471H154.129V41.3223Z" fill="white"/>
<path d="M316.112 125.389H307.113V126.814H316.112V125.389Z" fill="white"/>
<path d="M298.114 125.389H289.115V126.814H298.114V125.389Z" fill="white"/>
<path d="M334.11 125.389H325.111V126.814H334.11V125.389Z" fill="white"/>
<path d="M352.108 125.389H343.109V126.814H352.108V125.389Z" fill="white"/>
<path d="M244.119 125.389H235.12V126.814H244.119V125.389Z" fill="white"/>
<path d="M262.118 125.389H253.118V126.814H262.118V125.389Z" fill="white"/>
<path d="M208.123 125.389H199.124V126.814H208.123V125.389Z" fill="white"/>
<path d="M388.104 125.389H379.105V126.814H388.104V125.389Z" fill="white"/>
<path d="M226.121 125.389H217.122V126.814H226.121V125.389Z" fill="white"/>
<path d="M280.116 125.389H271.117V126.814H280.116V125.389Z" fill="white"/>
<path d="M370.106 125.389H361.107V126.814H370.106V125.389Z" fill="white"/>
<path d="M424.1 125.389H415.101V126.814H424.1V125.389Z" fill="white"/>
<path d="M406.102 125.389H397.103V126.814H406.102V125.389Z" fill="white"/>
<path d="M118.133 125.389H109.134V126.814H118.133V125.389Z" fill="white"/>
<path d="M64.1382 125.389H55.1392V126.814H64.1382V125.389Z" fill="white"/>
<path d="M28.1421 125.389H19.1431V126.814H28.1421V125.389Z" fill="white"/>
<path d="M82.1365 125.389H73.1375V126.814H82.1365V125.389Z" fill="white"/>
<path d="M514.09 125.389H505.091V126.814H514.09V125.389Z" fill="white"/>
<path d="M136.131 125.389H127.132V126.814H136.131V125.389Z" fill="white"/>
<path d="M460.096 125.389H451.097V126.814H460.096V125.389Z" fill="white"/>
<path d="M550.087 125.389H541.088V126.814H550.087V125.389Z" fill="white"/>
<path d="M496.093 125.389H487.094V126.814H496.093V125.389Z" fill="white"/>
<path d="M46.1402 125.389H37.1414V126.814H46.1402V125.389Z" fill="white"/>
<path d="M478.095 125.389H469.095V126.814H478.095V125.389Z" fill="white"/>
<path d="M100.135 125.389H91.1355V126.814H100.135V125.389Z" fill="white"/>
<path d="M154.129 125.389H145.13V126.814H154.129V125.389Z" fill="white"/>
<path d="M532.089 125.389H523.09V126.814H532.089V125.389Z" fill="white"/>
<path d="M10.1439 125.389H1.47974V126.814H10.1439V125.389Z" fill="white"/>
<path d="M568.085 125.389H559.086V126.814H568.085V125.389Z" fill="white"/>
<path d="M172.127 125.389H163.128V126.814H172.127V125.389Z" fill="white"/>
<path d="M190.125 125.389H181.126V126.814H190.125V125.389Z" fill="white"/>
<path d="M442.098 125.389H433.099V126.814H442.098V125.389Z" fill="white"/>
<path d="M298.114 204.229H289.115V205.653H298.114V204.229Z" fill="white"/>
<path d="M37.1414 205.654H41.1141V208.432H42.5381V205.654H46.1402V204.229H42.5381V199.428H41.1141V204.229H37.1414V205.654Z" fill="white"/>
<path d="M10.1439 204.229H1.47974V205.653H10.1439V204.229Z" fill="white"/>
<path d="M28.1421 204.229H19.1431V205.653H28.1421V204.229Z" fill="white"/>
<path d="M136.131 204.229H127.132V205.653H136.131V204.229Z" fill="white"/>
<path d="M154.129 204.229H145.13V205.653H154.129V204.229Z" fill="white"/>
<path d="M244.119 204.229H235.12V205.653H244.119V204.229Z" fill="white"/>
<path d="M226.121 204.229H217.122V205.653H226.121V204.229Z" fill="white"/>
<path d="M172.127 204.229H163.128V205.653H172.127V204.229Z" fill="white"/>
<path d="M64.1382 204.229H55.1392V205.653H64.1382V204.229Z" fill="white"/>
<path d="M199.124 205.654H202.499V208.432H203.923V205.654H208.123V204.229H203.923V199.428H202.499V204.229H199.124V205.654Z" fill="white"/>
<path d="M280.116 204.229H271.117V205.653H280.116V204.229Z" fill="white"/>
<path d="M118.133 204.229H109.134V205.653H118.133V204.229Z" fill="white"/>
<path d="M100.135 204.229H91.1355V205.653H100.135V204.229Z" fill="white"/>
<path d="M82.1365 204.229H73.1375V205.653H82.1365V204.229Z" fill="white"/>
<path d="M316.112 204.229H307.113V205.653H316.112V204.229Z" fill="white"/>
<path d="M262.118 204.229H253.118V205.653H262.118V204.229Z" fill="white"/>
<path d="M190.125 204.229H181.126V205.653H190.125V204.229Z" fill="white"/>
<path d="M523.09 205.654H526.692V208.432H528.116V205.654H532.089V204.229H528.116V199.428H526.692V204.229H523.09V205.654Z" fill="white"/>
<path d="M442.098 204.229H433.099V205.653H442.098V204.229Z" fill="white"/>
<path d="M550.087 204.229H541.088V205.653H550.087V204.229Z" fill="white"/>
<path d="M568.085 204.229H559.086V205.653H568.085V204.229Z" fill="white"/>
<path d="M352.108 204.229H343.109V205.653H352.108V204.229Z" fill="white"/>
<path d="M361.107 205.654H363.884V208.432H365.308V205.654H370.106V204.229H365.308V199.428H363.884V204.229H361.107V205.654Z" fill="white"/>
<path d="M406.102 204.229H397.103V205.653H406.102V204.229Z" fill="white"/>
<path d="M388.104 204.229H379.105V205.653H388.104V204.229Z" fill="white"/>
<path d="M424.1 204.229H415.101V205.653H424.1V204.229Z" fill="white"/>
<path d="M334.11 204.229H325.111V205.653H334.11V204.229Z" fill="white"/>
<path d="M514.09 204.229H505.091V205.653H514.09V204.229Z" fill="white"/>
<path d="M478.095 204.229H469.095V205.653H478.095V204.229Z" fill="white"/>
<path d="M496.093 204.229H487.094V205.653H496.093V204.229Z" fill="white"/>
<path d="M460.096 204.229H451.097V205.653H460.096V204.229Z" fill="white"/>
<path d="M172.127 284.973H163.128V286.398H172.127V284.973Z" fill="white"/>
<path d="M424.1 284.973H415.101V286.398H424.1V284.973Z" fill="white"/>
<path d="M46.1402 284.973H37.1414V286.398H46.1402V284.973Z" fill="white"/>
<path d="M316.112 284.973H307.113V286.398H316.112V284.973Z" fill="white"/>
<path d="M388.104 284.973H379.105V286.398H388.104V284.973Z" fill="white"/>
<path d="M532.089 284.973H523.09V286.398H532.089V284.973Z" fill="white"/>
<path d="M226.121 284.973H217.122V286.398H226.121V284.973Z" fill="white"/>
<path d="M64.1382 284.973H55.1392V286.398H64.1382V284.973Z" fill="white"/>
<path d="M298.114 284.973H289.115V286.398H298.114V284.973Z" fill="white"/>
<path d="M568.085 284.973H559.086V286.398H568.085V284.973Z" fill="white"/>
<path d="M442.098 284.973H433.099V286.398H442.098V284.973Z" fill="white"/>
<path d="M406.102 284.973H397.103V286.398H406.102V284.973Z" fill="white"/>
<path d="M460.096 284.973H451.097V286.398H460.096V284.973Z" fill="white"/>
<path d="M190.125 284.973H181.126V286.398H190.125V284.973Z" fill="white"/>
<path d="M478.095 284.973H469.095V286.398H478.095V284.973Z" fill="white"/>
<path d="M208.123 284.973H199.124V286.398H208.123V284.973Z" fill="white"/>
<path d="M334.11 284.973H325.111V286.398H334.11V284.973Z" fill="white"/>
<path d="M118.133 284.973H109.134V286.398H118.133V284.973Z" fill="white"/>
<path d="M280.116 284.973H271.117V286.398H280.116V284.973Z" fill="white"/>
<path d="M154.129 284.973H145.13V286.398H154.129V284.973Z" fill="white"/>
<path d="M28.1421 284.973H19.1431V286.398H28.1421V284.973Z" fill="white"/>
<path d="M352.108 284.973H343.109V286.398H352.108V284.973Z" fill="white"/>
<path d="M136.131 284.973H127.132V286.398H136.131V284.973Z" fill="white"/>
<path d="M82.1365 284.973H73.1375V286.398H82.1365V284.973Z" fill="white"/>
<path d="M262.118 284.973H253.118V286.398H262.118V284.973Z" fill="white"/>
<path d="M370.106 284.973H361.107V286.398H370.106V284.973Z" fill="white"/>
<path d="M496.093 284.973H487.094V286.398H496.093V284.973Z" fill="white"/>
<path d="M244.119 284.973H235.12V286.398H244.119V284.973Z" fill="white"/>
<path d="M550.087 284.973H541.088V286.398H550.087V284.973Z" fill="white"/>
<path d="M100.135 284.973H91.1355V286.398H100.135V284.973Z" fill="white"/>
<path d="M514.09 284.973H505.091V286.398H514.09V284.973Z" fill="white"/>
<path d="M10.1439 284.973H1.47974V286.398H10.1439V284.973Z" fill="white"/>
<path d="M496.093 365.713H487.094V367.138H496.093V365.713Z" fill="white"/>
<path d="M82.1365 365.713H73.1375V367.138H82.1365V365.713Z" fill="white"/>
<path d="M316.112 365.713H307.113V367.138H316.112V365.713Z" fill="white"/>
<path d="M334.11 365.713H325.111V367.138H334.11V365.713Z" fill="white"/>
<path d="M352.108 365.713H343.109V367.138H352.108V365.713Z" fill="white"/>
<path d="M460.096 365.713H451.097V367.138H460.096V365.713Z" fill="white"/>
<path d="M478.095 365.713H469.095V367.138H478.095V365.713Z" fill="white"/>
<path d="M136.131 365.713H127.132V367.138H136.131V365.713Z" fill="white"/>
<path d="M118.133 365.713H109.134V367.138H118.133V365.713Z" fill="white"/>
<path d="M514.09 365.713H505.091V367.138H514.09V365.713Z" fill="white"/>
<path d="M64.1382 365.713H55.1392V367.138H64.1382V365.713Z" fill="white"/>
<path d="M100.135 365.713H91.1355V367.138H100.135V365.713Z" fill="white"/>
<path d="M298.114 365.713H289.115V367.138H298.114V365.713Z" fill="white"/>
<path d="M568.085 365.713H559.086V367.138H568.085V365.713Z" fill="white"/>
<path d="M388.104 365.713H379.105V367.138H388.104V365.713Z" fill="white"/>
<path d="M190.125 365.713H181.126V367.138H190.125V365.713Z" fill="white"/>
<path d="M424.1 365.713H415.101V367.138H424.1V365.713Z" fill="white"/>
<path d="M442.098 365.713H433.099V367.138H442.098V365.713Z" fill="white"/>
<path d="M550.087 365.713H541.088V367.138H550.087V365.713Z" fill="white"/>
<path d="M172.127 365.713H163.128V367.138H172.127V365.713Z" fill="white"/>
<path d="M226.121 365.713H217.122V367.138H226.121V365.713Z" fill="white"/>
<path d="M406.102 365.713H397.103V367.138H406.102V365.713Z" fill="white"/>
<path d="M199.124 367.14H202.499V370.516H203.923V367.14H208.123V365.715H203.923V361.512H202.499V365.715H199.124V367.14Z" fill="white"/>
<path d="M523.09 367.14H526.692V370.516H528.116V367.14H532.089V365.715H528.116V361.512H526.692V365.715H523.09V367.14Z" fill="white"/>
<path d="M10.1439 365.713H1.47974V367.138H10.1439V365.713Z" fill="white"/>
<path d="M361.107 367.14H363.884V370.516H365.308V367.14H370.106V365.715H365.308V361.512H363.884V365.715H361.107V367.14Z" fill="white"/>
<path d="M154.129 365.713H145.13V367.138H154.129V365.713Z" fill="white"/>
<path d="M262.118 365.713H253.118V367.138H262.118V365.713Z" fill="white"/>
<path d="M280.116 365.713H271.117V367.138H280.116V365.713Z" fill="white"/>
<path d="M244.119 365.713H235.12V367.138H244.119V365.713Z" fill="white"/>
<path d="M28.1421 365.713H19.1431V367.138H28.1421V365.713Z" fill="white"/>
<path d="M37.1414 367.14H41.1141V370.516H42.5381V367.14H46.1402V365.715H42.5381V361.512H41.1141V365.715H37.1414V367.14Z" fill="white"/>
<path d="M514.09 445.982H505.091V447.407H514.09V445.982Z" fill="white"/>
<path d="M550.087 445.982H541.088V447.407H550.087V445.982Z" fill="white"/>
<path d="M568.085 445.982H559.086V447.407H568.085V445.982Z" fill="white"/>
<path d="M532.089 445.982H523.09V447.407H532.089V445.982Z" fill="white"/>
<path d="M28.1421 445.982H19.1431V447.407H28.1421V445.982Z" fill="white"/>
<path d="M64.1382 445.982H55.1392V447.407H64.1382V445.982Z" fill="white"/>
<path d="M46.1402 445.982H37.1414V447.407H46.1402V445.982Z" fill="white"/>
<path d="M10.1439 445.982H1.47974V447.407H10.1439V445.982Z" fill="white"/>
<path d="M136.131 445.982H127.132V447.407H136.131V445.982Z" fill="white"/>
<path d="M424.1 445.982H415.101V447.407H424.1V445.982Z" fill="white"/>
<path d="M406.102 445.982H397.103V447.407H406.102V445.982Z" fill="white"/>
<path d="M154.129 445.982H145.13V447.407H154.129V445.982Z" fill="white"/>
<path d="M370.106 445.982H361.107V447.407H370.106V445.982Z" fill="white"/>
<path d="M82.1365 445.982H73.1375V447.407H82.1365V445.982Z" fill="white"/>
<path d="M280.116 445.982H271.117V447.407H280.116V445.982Z" fill="white"/>
<path d="M190.125 445.982H181.126V447.407H190.125V445.982Z" fill="white"/>
<path d="M244.119 445.982H235.12V447.407H244.119V445.982Z" fill="white"/>
<path d="M226.121 445.982H217.122V447.407H226.121V445.982Z" fill="white"/>
<path d="M262.118 445.982H253.118V447.407H262.118V445.982Z" fill="white"/>
<path d="M172.127 445.982H163.128V447.407H172.127V445.982Z" fill="white"/>
<path d="M442.098 445.982H433.099V447.407H442.098V445.982Z" fill="white"/>
<path d="M118.133 445.982H109.134V447.407H118.133V445.982Z" fill="white"/>
<path d="M478.095 445.982H469.095V447.407H478.095V445.982Z" fill="white"/>
<path d="M316.112 445.982H307.113V447.407H316.112V445.982Z" fill="white"/>
<path d="M388.104 445.982H379.105V447.407H388.104V445.982Z" fill="white"/>
<path d="M100.135 445.982H91.1355V447.407H100.135V445.982Z" fill="white"/>
<path d="M496.093 445.982H487.094V447.407H496.093V445.982Z" fill="white"/>
<path d="M298.114 445.982H289.115V447.407H298.114V445.982Z" fill="white"/>
<path d="M460.096 445.982H451.097V447.407H460.096V445.982Z" fill="white"/>
<path d="M334.11 445.982H325.111V447.407H334.11V445.982Z" fill="white"/>
<path d="M352.108 445.982H343.109V447.407H352.108V445.982Z" fill="white"/>
<path d="M208.123 445.982H199.124V447.407H208.123V445.982Z" fill="white"/>
<path d="M298.114 527.197H289.115V528.622H298.114V527.197Z" fill="white"/>
<path d="M262.118 527.197H253.118V528.622H262.118V527.197Z" fill="white"/>
<path d="M496.093 527.197H487.094V528.622H496.093V527.197Z" fill="white"/>
<path d="M334.11 527.197H325.111V528.622H334.11V527.197Z" fill="white"/>
<path d="M316.112 527.197H307.113V528.622H316.112V527.197Z" fill="white"/>
<path d="M280.116 527.197H271.117V528.622H280.116V527.197Z" fill="white"/>
<path d="M199.124 528.625H202.499V532.6H203.923V528.625H208.123V527.201H203.923V523.596H202.499V527.201H199.124V528.625Z" fill="white"/>
<path d="M226.121 527.197H217.122V528.622H226.121V527.197Z" fill="white"/>
<path d="M244.119 527.197H235.12V528.622H244.119V527.197Z" fill="white"/>
<path d="M388.104 527.197H379.105V528.622H388.104V527.197Z" fill="white"/>
<path d="M406.102 527.197H397.103V528.622H406.102V527.197Z" fill="white"/>
<path d="M352.108 527.197H343.109V528.622H352.108V527.197Z" fill="white"/>
<path d="M424.1 527.197H415.101V528.622H424.1V527.197Z" fill="white"/>
<path d="M361.107 528.625H363.884V532.6H365.308V528.625H370.106V527.201H365.308V523.596H363.884V527.201H361.107V528.625Z" fill="white"/>
<path d="M172.127 527.197H163.128V528.622H172.127V527.197Z" fill="white"/>
<path d="M478.095 527.197H469.095V528.622H478.095V527.197Z" fill="white"/>
<path d="M460.096 527.197H451.097V528.622H460.096V527.197Z" fill="white"/>
<path d="M442.098 527.197H433.099V528.622H442.098V527.197Z" fill="white"/>
<path d="M190.125 527.197H181.126V528.622H190.125V527.197Z" fill="white"/>
<path d="M514.09 527.197H505.091V528.622H514.09V527.197Z" fill="white"/>
<path d="M10.1439 527.197H1.47974V528.622H10.1439V527.197Z" fill="white"/>
<path d="M523.09 528.625H526.692V532.6H528.116V528.625H532.089V527.201H528.116V523.596H526.692V527.201H523.09V528.625Z" fill="white"/>
<path d="M568.085 527.197H559.086V528.622H568.085V527.197Z" fill="white"/>
<path d="M550.087 527.197H541.088V528.622H550.087V527.197Z" fill="white"/>
<path d="M28.1421 527.197H19.1431V528.622H28.1421V527.197Z" fill="white"/>
<path d="M37.1414 528.625H41.1141V532.6H42.5381V528.625H46.1402V527.201H42.5381V523.596H41.1141V527.201H37.1414V528.625Z" fill="white"/>
<path d="M154.129 527.197H145.13V528.622H154.129V527.197Z" fill="white"/>
<path d="M136.131 527.197H127.132V528.622H136.131V527.197Z" fill="white"/>
<path d="M64.1382 527.197H55.1392V528.622H64.1382V527.197Z" fill="white"/>
<path d="M100.135 527.197H91.1355V528.622H100.135V527.197Z" fill="white"/>
<path d="M82.1365 527.197H73.1375V528.622H82.1365V527.197Z" fill="white"/>
<path d="M118.133 527.197H109.134V528.622H118.133V527.197Z" fill="white"/>
<path d="M528.116 109.383H526.692V118.387H528.116V109.383Z" fill="white"/>
<path d="M528.116 73.3652H526.692V82.3699H528.116V73.3652Z" fill="white"/>
<path d="M528.116 55.3535H526.692V64.3582H528.116V55.3535Z" fill="white"/>
<path d="M528.116 163.41H526.692V172.415H528.116V163.41Z" fill="white"/>
<path d="M528.116 1.32812H526.692V10.3328H528.116V1.32812Z" fill="white"/>
<path d="M526.692 41.3209H523.09V42.7458H526.692V46.3501H528.116V42.7458H532.089V41.3209H528.116V37.3457H526.692V41.3209Z" fill="white"/>
<path d="M528.116 91.373H526.692V100.378H528.116V91.373Z" fill="white"/>
<path d="M528.116 19.3359H526.692V28.3406H528.116V19.3359Z" fill="white"/>
<path d="M528.116 145.4H526.692V154.405H528.116V145.4Z" fill="white"/>
<path d="M528.116 181.42H526.692V190.425H528.116V181.42Z" fill="white"/>
<path d="M528.116 343.502H526.692V352.506H528.116V343.502Z" fill="white"/>
<path d="M528.116 469.566H526.692V478.571H528.116V469.566Z" fill="white"/>
<path d="M528.116 307.484H526.692V316.489H528.116V307.484Z" fill="white"/>
<path d="M528.116 487.576H526.692V496.581H528.116V487.576Z" fill="white"/>
<path d="M528.116 325.496H526.692V334.501H528.116V325.496Z" fill="white"/>
<path d="M528.116 505.586H526.692V514.591H528.116V505.586Z" fill="white"/>
<path d="M528.116 289.475H526.692V298.479H528.116V289.475Z" fill="white"/>
<path d="M528.116 397.531H526.692V406.536H528.116V397.531Z" fill="white"/>
<path d="M528.116 433.547H526.692V442.551H528.116V433.547Z" fill="white"/>
<path d="M528.116 415.539H526.692V424.544H528.116V415.539Z" fill="white"/>
<path d="M528.116 379.52H526.692V388.524H528.116V379.52Z" fill="white"/>
<path d="M528.116 127.391H526.692V136.395H528.116V127.391Z" fill="white"/>
<path d="M528.116 235.445H526.692V244.45H528.116V235.445Z" fill="white"/>
<path d="M528.116 271.467H526.692V280.471H528.116V271.467Z" fill="white"/>
<path d="M528.116 253.457H526.692V262.462H528.116V253.457Z" fill="white"/>
<path d="M528.116 541.604H526.692V550.608H528.116V541.604Z" fill="white"/>
<path d="M528.116 217.439H526.692V226.444H528.116V217.439Z" fill="white"/>
<path d="M528.116 559.613H526.692V568.618H528.116V559.613Z" fill="white"/>
<path d="M528.116 451.559H526.692V460.563H528.116V451.559Z" fill="white"/>
<path d="M446.949 343.502H445.525V352.506H446.949V343.502Z" fill="white"/>
<path d="M446.949 415.539H445.525V424.544H446.949V415.539Z" fill="white"/>
<path d="M446.949 379.52H445.525V388.524H446.949V379.52Z" fill="white"/>
<path d="M446.949 397.531H445.525V406.536H446.949V397.531Z" fill="white"/>
<path d="M446.949 361.512H445.525V370.516H446.949V361.512Z" fill="white"/>
<path d="M446.949 325.496H445.525V334.501H446.949V325.496Z" fill="white"/>
<path d="M446.949 289.475H445.525V298.479H446.949V289.475Z" fill="white"/>
<path d="M446.949 307.484H445.525V316.489H446.949V307.484Z" fill="white"/>
<path d="M446.949 505.586H445.525V514.591H446.949V505.586Z" fill="white"/>
<path d="M446.949 271.467H445.525V280.471H446.949V271.467Z" fill="white"/>
<path d="M446.949 487.576H445.525V496.581H446.949V487.576Z" fill="white"/>
<path d="M446.949 559.613H445.525V568.618H446.949V559.613Z" fill="white"/>
<path d="M446.949 523.596H445.525V532.6H446.949V523.596Z" fill="white"/>
<path d="M446.949 541.604H445.525V550.608H446.949V541.604Z" fill="white"/>
<path d="M446.949 433.547H445.525V442.551H446.949V433.547Z" fill="white"/>
<path d="M446.949 451.559H445.525V460.563H446.949V451.559Z" fill="white"/>
<path d="M446.949 469.566H445.525V478.571H446.949V469.566Z" fill="white"/>
<path d="M446.949 91.373H445.525V100.378H446.949V91.373Z" fill="white"/>
<path d="M446.949 253.457H445.525V262.462H446.949V253.457Z" fill="white"/>
<path d="M446.949 109.383H445.525V118.387H446.949V109.383Z" fill="white"/>
<path d="M446.949 55.3535H445.525V64.3582H446.949V55.3535Z" fill="white"/>
<path d="M446.949 73.3652H445.525V82.3699H446.949V73.3652Z" fill="white"/>
<path d="M446.949 19.3359H445.525V28.3406H446.949V19.3359Z" fill="white"/>
<path d="M446.949 37.3457H445.525V46.3501H446.949V37.3457Z" fill="white"/>
<path d="M446.949 1.32812H445.525V10.3328H446.949V1.32812Z" fill="white"/>
<path d="M446.949 127.391H445.525V136.395H446.949V127.391Z" fill="white"/>
<path d="M446.949 199.428H445.525V208.432H446.949V199.428Z" fill="white"/>
<path d="M446.949 217.439H445.525V226.444H446.949V217.439Z" fill="white"/>
<path d="M446.949 145.4H445.525V154.405H446.949V145.4Z" fill="white"/>
<path d="M446.949 235.445H445.525V244.45H446.949V235.445Z" fill="white"/>
<path d="M446.949 163.41H445.525V172.415H446.949V163.41Z" fill="white"/>
<path d="M446.949 181.42H445.525V190.425H446.949V181.42Z" fill="white"/>
<path d="M365.307 181.42H363.883V190.425H365.307V181.42Z" fill="white"/>
<path d="M365.307 145.4H363.883V154.405H365.307V145.4Z" fill="white"/>
<path d="M365.307 127.391H363.883V136.395H365.307V127.391Z" fill="white"/>
<path d="M365.307 163.41H363.883V172.415H365.307V163.41Z" fill="white"/>
<path d="M365.307 235.445H363.883V244.45H365.307V235.445Z" fill="white"/>
<path d="M365.307 253.457H363.883V262.462H365.307V253.457Z" fill="white"/>
<path d="M365.307 271.467H363.883V280.471H365.307V271.467Z" fill="white"/>
<path d="M365.307 1.32812H363.883V10.3328H365.307V1.32812Z" fill="white"/>
<path d="M363.884 41.3209H361.107V42.7458H363.884V46.3501H365.308V42.7458H370.106V41.3209H365.308V37.3457H363.884V41.3209Z" fill="white"/>
<path d="M365.307 55.3535H363.883V64.3582H365.307V55.3535Z" fill="white"/>
<path d="M365.307 19.3359H363.883V28.3406H365.307V19.3359Z" fill="white"/>
<path d="M365.307 73.3652H363.883V82.3699H365.307V73.3652Z" fill="white"/>
<path d="M365.307 91.373H363.883V100.378H365.307V91.373Z" fill="white"/>
<path d="M365.307 109.383H363.883V118.387H365.307V109.383Z" fill="white"/>
<path d="M365.307 343.502H363.883V352.506H365.307V343.502Z" fill="white"/>
<path d="M365.307 469.566H363.883V478.571H365.307V469.566Z" fill="white"/>
<path d="M365.307 487.576H363.883V496.581H365.307V487.576Z" fill="white"/>
<path d="M365.307 505.586H363.883V514.591H365.307V505.586Z" fill="white"/>
<path d="M365.307 451.559H363.883V460.563H365.307V451.559Z" fill="white"/>
<path d="M365.307 541.604H363.883V550.608H365.307V541.604Z" fill="white"/>
<path d="M365.307 217.439H363.883V226.444H365.307V217.439Z" fill="white"/>
<path d="M365.307 559.613H363.883V568.618H365.307V559.613Z" fill="white"/>
<path d="M365.307 289.475H363.883V298.479H365.307V289.475Z" fill="white"/>
<path d="M365.307 325.496H363.883V334.501H365.307V325.496Z" fill="white"/>
<path d="M365.307 415.539H363.883V424.544H365.307V415.539Z" fill="white"/>
<path d="M365.307 379.52H363.883V388.524H365.307V379.52Z" fill="white"/>
<path d="M365.307 307.484H363.883V316.489H365.307V307.484Z" fill="white"/>
<path d="M365.307 433.547H363.883V442.551H365.307V433.547Z" fill="white"/>
<path d="M365.307 397.531H363.883V406.536H365.307V397.531Z" fill="white"/>
<path d="M284.615 325.496H283.191V334.501H284.615V325.496Z" fill="white"/>
<path d="M284.615 19.3359H283.191V28.3406H284.615V19.3359Z" fill="white"/>
<path d="M284.615 199.428H283.191V208.432H284.615V199.428Z" fill="white"/>
<path d="M284.615 145.4H283.191V154.405H284.615V145.4Z" fill="white"/>
<path d="M284.615 163.41H283.191V172.415H284.615V163.41Z" fill="white"/>
<path d="M284.615 271.467H283.191V280.471H284.615V271.467Z" fill="white"/>
<path d="M284.615 253.457H283.191V262.462H284.615V253.457Z" fill="white"/>
<path d="M284.615 235.445H283.191V244.45H284.615V235.445Z" fill="white"/>
<path d="M284.615 217.439H283.191V226.444H284.615V217.439Z" fill="white"/>
<path d="M284.615 37.3457H283.191V46.3501H284.615V37.3457Z" fill="white"/>
<path d="M284.615 127.391H283.191V136.395H284.615V127.391Z" fill="white"/>
<path d="M284.615 1.32812H283.191V10.3328H284.615V1.32812Z" fill="white"/>
<path d="M284.615 55.3535H283.191V64.3582H284.615V55.3535Z" fill="white"/>
<path d="M284.615 109.383H283.191V118.387H284.615V109.383Z" fill="white"/>
<path d="M284.615 91.373H283.191V100.378H284.615V91.373Z" fill="white"/>
<path d="M284.615 73.3652H283.191V82.3699H284.615V73.3652Z" fill="white"/>
<path d="M284.615 181.42H283.191V190.425H284.615V181.42Z" fill="white"/>
<path d="M284.615 487.576H283.191V496.581H284.615V487.576Z" fill="white"/>
<path d="M284.615 289.475H283.191V298.479H284.615V289.475Z" fill="white"/>
<path d="M284.615 469.566H283.191V478.571H284.615V469.566Z" fill="white"/>
<path d="M284.615 541.604H283.191V550.608H284.615V541.604Z" fill="white"/>
<path d="M284.615 559.613H283.191V568.618H284.615V559.613Z" fill="white"/>
<path d="M284.615 451.559H283.191V460.563H284.615V451.559Z" fill="white"/>
<path d="M284.615 523.596H283.191V532.6H284.615V523.596Z" fill="white"/>
<path d="M284.615 505.586H283.191V514.591H284.615V505.586Z" fill="white"/>
<path d="M284.615 343.502H283.191V352.506H284.615V343.502Z" fill="white"/>
<path d="M284.615 307.484H283.191V316.489H284.615V307.484Z" fill="white"/>
<path d="M284.615 433.547H283.191V442.551H284.615V433.547Z" fill="white"/>
<path d="M284.615 361.512H283.191V370.516H284.615V361.512Z" fill="white"/>
<path d="M284.615 379.52H283.191V388.524H284.615V379.52Z" fill="white"/>
<path d="M284.615 397.531H283.191V406.536H284.615V397.531Z" fill="white"/>
<path d="M284.615 415.539H283.191V424.544H284.615V415.539Z" fill="white"/>
<path d="M203.923 253.457H202.499V262.462H203.923V253.457Z" fill="white"/>
<path d="M203.923 19.3359H202.499V28.3406H203.923V19.3359Z" fill="white"/>
<path d="M203.923 325.496H202.499V334.501H203.923V325.496Z" fill="white"/>
<path d="M203.923 271.467H202.499V280.471H203.923V271.467Z" fill="white"/>
<path d="M203.923 127.391H202.499V136.395H203.923V127.391Z" fill="white"/>
<path d="M202.499 41.3209H199.124V42.7458H202.499V46.3501H203.923V42.7458H208.123V41.3209H203.923V37.3457H202.499V41.3209Z" fill="white"/>
<path d="M203.923 109.383H202.499V118.387H203.923V109.383Z" fill="white"/>
<path d="M203.923 91.373H202.499V100.378H203.923V91.373Z" fill="white"/>
<path d="M203.923 1.32812H202.499V10.3328H203.923V1.32812Z" fill="white"/>
<path d="M203.923 181.42H202.499V190.425H203.923V181.42Z" fill="white"/>
<path d="M203.923 145.4H202.499V154.405H203.923V145.4Z" fill="white"/>
<path d="M203.923 163.41H202.499V172.415H203.923V163.41Z" fill="white"/>
<path d="M203.923 73.3652H202.499V82.3699H203.923V73.3652Z" fill="white"/>
<path d="M203.923 55.3535H202.499V64.3582H203.923V55.3535Z" fill="white"/>
<path d="M203.923 559.613H202.499V568.618H203.923V559.613Z" fill="white"/>
<path d="M203.923 541.604H202.499V550.608H203.923V541.604Z" fill="white"/>
<path d="M203.923 433.547H202.499V442.551H203.923V433.547Z" fill="white"/>
<path d="M203.923 307.484H202.499V316.489H203.923V307.484Z" fill="white"/>
<path d="M203.923 217.439H202.499V226.444H203.923V217.439Z" fill="white"/>
<path d="M203.923 343.502H202.499V352.506H203.923V343.502Z" fill="white"/>
<path d="M203.923 397.531H202.499V406.536H203.923V397.531Z" fill="white"/>
<path d="M203.923 415.539H202.499V424.544H203.923V415.539Z" fill="white"/>
<path d="M203.923 469.566H202.499V478.571H203.923V469.566Z" fill="white"/>
<path d="M203.923 505.586H202.499V514.591H203.923V505.586Z" fill="white"/>
<path d="M203.923 451.559H202.499V460.563H203.923V451.559Z" fill="white"/>
<path d="M203.923 379.52H202.499V388.524H203.923V379.52Z" fill="white"/>
<path d="M203.923 235.445H202.499V244.45H203.923V235.445Z" fill="white"/>
<path d="M203.923 487.576H202.499V496.581H203.923V487.576Z" fill="white"/>
<path d="M203.923 289.475H202.499V298.479H203.923V289.475Z" fill="white"/>
<path d="M123.705 109.383H122.281V118.387H123.705V109.383Z" fill="white"/>
<path d="M123.705 73.3652H122.281V82.3699H123.705V73.3652Z" fill="white"/>
<path d="M123.705 91.373H122.281V100.378H123.705V91.373Z" fill="white"/>
<path d="M123.705 55.3535H122.281V64.3582H123.705V55.3535Z" fill="white"/>
<path d="M123.705 235.445H122.281V244.45H123.705V235.445Z" fill="white"/>
<path d="M123.705 559.613H122.281V568.618H123.705V559.613Z" fill="white"/>
<path d="M123.705 19.3359H122.281V28.3406H123.705V19.3359Z" fill="white"/>
<path d="M123.705 1.32812H122.281V10.3328H123.705V1.32812Z" fill="white"/>
<path d="M123.705 217.439H122.281V226.444H123.705V217.439Z" fill="white"/>
<path d="M123.705 37.3457H122.281V46.3501H123.705V37.3457Z" fill="white"/>
<path d="M123.705 199.428H122.281V208.432H123.705V199.428Z" fill="white"/>
<path d="M123.705 271.467H122.281V280.471H123.705V271.467Z" fill="white"/>
<path d="M123.705 163.41H122.281V172.415H123.705V163.41Z" fill="white"/>
<path d="M123.705 145.4H122.281V154.405H123.705V145.4Z" fill="white"/>
<path d="M123.705 181.42H122.281V190.425H123.705V181.42Z" fill="white"/>
<path d="M123.705 127.391H122.281V136.395H123.705V127.391Z" fill="white"/>
<path d="M123.705 253.457H122.281V262.462H123.705V253.457Z" fill="white"/>
<path d="M123.705 451.559H122.281V460.563H123.705V451.559Z" fill="white"/>
<path d="M123.705 469.566H122.281V478.571H123.705V469.566Z" fill="white"/>
<path d="M123.705 433.547H122.281V442.551H123.705V433.547Z" fill="white"/>
<path d="M123.705 523.596H122.281V532.6H123.705V523.596Z" fill="white"/>
<path d="M123.705 541.604H122.281V550.608H123.705V541.604Z" fill="white"/>
<path d="M123.705 505.586H122.281V514.591H123.705V505.586Z" fill="white"/>
<path d="M123.705 415.539H122.281V424.544H123.705V415.539Z" fill="white"/>
<path d="M123.705 487.576H122.281V496.581H123.705V487.576Z" fill="white"/>
<path d="M123.705 307.484H122.281V316.489H123.705V307.484Z" fill="white"/>
<path d="M123.705 325.496H122.281V334.501H123.705V325.496Z" fill="white"/>
<path d="M123.705 289.475H122.281V298.479H123.705V289.475Z" fill="white"/>
<path d="M123.705 361.512H122.281V370.516H123.705V361.512Z" fill="white"/>
<path d="M123.705 397.531H122.281V406.536H123.705V397.531Z" fill="white"/>
<path d="M123.705 379.52H122.281V388.524H123.705V379.52Z" fill="white"/>
<path d="M123.705 343.502H122.281V352.506H123.705V343.502Z" fill="white"/>
<path d="M42.538 109.383H41.114V118.387H42.538V109.383Z" fill="white"/>
<path d="M42.538 1.32812H41.114V10.3328H42.538V1.32812Z" fill="white"/>
<path d="M42.538 91.373H41.114V100.378H42.538V91.373Z" fill="white"/>
<path d="M41.1141 41.3209H37.1414V42.7458H41.1141V46.3501H42.5381V42.7458H46.1402V41.3209H42.5381V37.3457H41.1141V41.3209Z" fill="white"/>
<path d="M42.538 55.3535H41.114V64.3582H42.538V55.3535Z" fill="white"/>
<path d="M42.538 181.42H41.114V190.425H42.538V181.42Z" fill="white"/>
<path d="M42.538 73.3652H41.114V82.3699H42.538V73.3652Z" fill="white"/>
<path d="M42.538 163.41H41.114V172.415H42.538V163.41Z" fill="white"/>
<path d="M42.538 487.576H41.114V496.581H42.538V487.576Z" fill="white"/>
<path d="M42.538 505.586H41.114V514.591H42.538V505.586Z" fill="white"/>
<path d="M42.538 379.52H41.114V388.524H42.538V379.52Z" fill="white"/>
<path d="M42.538 397.531H41.114V406.536H42.538V397.531Z" fill="white"/>
<path d="M42.538 415.539H41.114V424.544H42.538V415.539Z" fill="white"/>
<path d="M42.538 433.547H41.114V442.551H42.538V433.547Z" fill="white"/>
<path d="M42.538 541.604H41.114V550.608H42.538V541.604Z" fill="white"/>
<path d="M42.538 19.3359H41.114V28.3406H42.538V19.3359Z" fill="white"/>
<path d="M42.538 289.475H41.114V298.479H42.538V289.475Z" fill="white"/>
<path d="M42.538 469.566H41.114V478.571H42.538V469.566Z" fill="white"/>
<path d="M42.538 451.559H41.114V460.563H42.538V451.559Z" fill="white"/>
<path d="M42.538 559.613H41.114V568.618H42.538V559.613Z" fill="white"/>
<path d="M42.538 127.391H41.114V136.395H42.538V127.391Z" fill="white"/>
<path d="M42.538 253.457H41.114V262.462H42.538V253.457Z" fill="white"/>
<path d="M42.538 145.4H41.114V154.405H42.538V145.4Z" fill="white"/>
<path d="M42.538 271.467H41.114V280.471H42.538V271.467Z" fill="white"/>
<path d="M42.538 217.439H41.114V226.444H42.538V217.439Z" fill="white"/>
<path d="M42.538 343.502H41.114V352.506H42.538V343.502Z" fill="white"/>
<path d="M42.538 325.496H41.114V334.501H42.538V325.496Z" fill="white"/>
<path d="M42.538 307.484H41.114V316.489H42.538V307.484Z" fill="white"/>
<path d="M42.538 235.445H41.114V244.45H42.538V235.445Z" fill="white"/>
</g>
<g clip-path="url(#clip2_497_32751)">
<path d="M690.734 41.3223H681.735V42.7471H690.734V41.3223Z" fill="white"/>
<path d="M654.738 41.3223H645.739V42.7471H654.738V41.3223Z" fill="white"/>
<path d="M834.72 41.3223H825.72V42.7471H834.72V41.3223Z" fill="white"/>
<path d="M1050.7 41.3223H1041.7V42.7471H1050.7V41.3223Z" fill="white"/>
<path d="M1014.7 41.3223H1005.7V42.7471H1014.7V41.3223Z" fill="white"/>
<path d="M798.723 41.3223H789.724V42.7471H798.723V41.3223Z" fill="white"/>
<path d="M780.725 41.3223H771.726V42.7471H780.725V41.3223Z" fill="white"/>
<path d="M942.708 41.3223H933.709V42.7471H942.708V41.3223Z" fill="white"/>
<path d="M672.736 41.3223H663.738V42.7471H672.736V41.3223Z" fill="white"/>
<path d="M816.721 41.3223H807.722V42.7471H816.721V41.3223Z" fill="white"/>
<path d="M1032.7 41.3223H1023.7V42.7471H1032.7V41.3223Z" fill="white"/>
<path d="M960.706 41.3223H951.707V42.7471H960.706V41.3223Z" fill="white"/>
<path d="M582.746 41.3223H573.747V42.7471H582.746V41.3223Z" fill="white"/>
<path d="M1104.69 41.3223H1095.69V42.7471H1104.69V41.3223Z" fill="white"/>
<path d="M852.717 41.3223H843.718V42.7471H852.717V41.3223Z" fill="white"/>
<path d="M888.714 41.3223H879.715V42.7471H888.714V41.3223Z" fill="white"/>
<path d="M744.729 41.3223H735.73V42.7471H744.729V41.3223Z" fill="white"/>
<path d="M564.748 41.3223H556.084V42.7471H564.748V41.3223Z" fill="white"/>
<path d="M870.716 41.3223H861.717V42.7471H870.716V41.3223Z" fill="white"/>
<path d="M1122.69 41.3223H1113.69V42.7471H1122.69V41.3223Z" fill="white"/>
<path d="M978.704 41.3223H969.705V42.7471H978.704V41.3223Z" fill="white"/>
<path d="M996.702 41.3223H987.703V42.7471H996.702V41.3223Z" fill="white"/>
<path d="M618.742 41.3223H609.743V42.7471H618.742V41.3223Z" fill="white"/>
<path d="M906.712 41.3223H897.713V42.7471H906.712V41.3223Z" fill="white"/>
<path d="M636.74 41.3223H627.741V42.7471H636.74V41.3223Z" fill="white"/>
<path d="M1068.69 41.3223H1059.7V42.7471H1068.69V41.3223Z" fill="white"/>
<path d="M726.731 41.3223H717.732V42.7471H726.731V41.3223Z" fill="white"/>
<path d="M708.733 41.3223H699.734V42.7471H708.733V41.3223Z" fill="white"/>
<path d="M870.716 125.389H861.717V126.814H870.716V125.389Z" fill="white"/>
<path d="M852.717 125.389H843.718V126.814H852.717V125.389Z" fill="white"/>
<path d="M888.714 125.389H879.715V126.814H888.714V125.389Z" fill="white"/>
<path d="M906.712 125.389H897.713V126.814H906.712V125.389Z" fill="white"/>
<path d="M798.723 125.389H789.724V126.814H798.723V125.389Z" fill="white"/>
<path d="M816.721 125.389H807.722V126.814H816.721V125.389Z" fill="white"/>
<path d="M762.727 125.389H753.728V126.814H762.727V125.389Z" fill="white"/>
<path d="M942.708 125.389H933.709V126.814H942.708V125.389Z" fill="white"/>
<path d="M780.725 125.389H771.726V126.814H780.725V125.389Z" fill="white"/>
<path d="M834.72 125.389H825.72V126.814H834.72V125.389Z" fill="white"/>
<path d="M924.71 125.389H915.711V126.814H924.71V125.389Z" fill="white"/>
<path d="M978.704 125.389H969.705V126.814H978.704V125.389Z" fill="white"/>
<path d="M960.706 125.389H951.707V126.814H960.706V125.389Z" fill="white"/>
<path d="M672.736 125.389H663.738V126.814H672.736V125.389Z" fill="white"/>
<path d="M618.742 125.389H609.743V126.814H618.742V125.389Z" fill="white"/>
<path d="M582.746 125.389H573.747V126.814H582.746V125.389Z" fill="white"/>
<path d="M636.74 125.389H627.741V126.814H636.74V125.389Z" fill="white"/>
<path d="M1068.69 125.389H1059.7V126.814H1068.69V125.389Z" fill="white"/>
<path d="M690.734 125.389H681.735V126.814H690.734V125.389Z" fill="white"/>
<path d="M1014.7 125.389H1005.7V126.814H1014.7V125.389Z" fill="white"/>
<path d="M1104.69 125.389H1095.69V126.814H1104.69V125.389Z" fill="white"/>
<path d="M1050.7 125.389H1041.7V126.814H1050.7V125.389Z" fill="white"/>
<path d="M600.744 125.389H591.745V126.814H600.744V125.389Z" fill="white"/>
<path d="M1032.7 125.389H1023.7V126.814H1032.7V125.389Z" fill="white"/>
<path d="M654.738 125.389H645.739V126.814H654.738V125.389Z" fill="white"/>
<path d="M708.733 125.389H699.734V126.814H708.733V125.389Z" fill="white"/>
<path d="M1086.69 125.389H1077.69V126.814H1086.69V125.389Z" fill="white"/>
<path d="M564.748 125.389H556.084V126.814H564.748V125.389Z" fill="white"/>
<path d="M1122.69 125.389H1113.69V126.814H1122.69V125.389Z" fill="white"/>
<path d="M726.731 125.389H717.732V126.814H726.731V125.389Z" fill="white"/>
<path d="M744.729 125.389H735.73V126.814H744.729V125.389Z" fill="white"/>
<path d="M996.702 125.389H987.703V126.814H996.702V125.389Z" fill="white"/>
<path d="M852.717 204.229H843.718V205.653H852.717V204.229Z" fill="white"/>
<path d="M591.745 205.654H595.718V208.432H597.142V205.654H600.744V204.229H597.142V199.428H595.718V204.229H591.745V205.654Z" fill="white"/>
<path d="M564.748 204.229H556.084V205.653H564.748V204.229Z" fill="white"/>
<path d="M582.746 204.229H573.747V205.653H582.746V204.229Z" fill="white"/>
<path d="M690.734 204.229H681.735V205.653H690.734V204.229Z" fill="white"/>
<path d="M708.733 204.229H699.734V205.653H708.733V204.229Z" fill="white"/>
<path d="M798.723 204.229H789.724V205.653H798.723V204.229Z" fill="white"/>
<path d="M780.725 204.229H771.726V205.653H780.725V204.229Z" fill="white"/>
<path d="M726.731 204.229H717.732V205.653H726.731V204.229Z" fill="white"/>
<path d="M618.742 204.229H609.743V205.653H618.742V204.229Z" fill="white"/>
<path d="M753.728 205.654H757.102V208.432H758.526V205.654H762.727V204.229H758.526V199.428H757.102V204.229H753.728V205.654Z" fill="white"/>
<path d="M834.72 204.229H825.72V205.653H834.72V204.229Z" fill="white"/>
<path d="M672.736 204.229H663.738V205.653H672.736V204.229Z" fill="white"/>
<path d="M654.738 204.229H645.739V205.653H654.738V204.229Z" fill="white"/>
<path d="M636.74 204.229H627.741V205.653H636.74V204.229Z" fill="white"/>
<path d="M870.716 204.229H861.717V205.653H870.716V204.229Z" fill="white"/>
<path d="M816.721 204.229H807.722V205.653H816.721V204.229Z" fill="white"/>
<path d="M744.729 204.229H735.73V205.653H744.729V204.229Z" fill="white"/>
<path d="M1077.69 205.654H1081.3V208.432H1082.72V205.654H1086.69V204.229H1082.72V199.428H1081.3V204.229H1077.69V205.654Z" fill="white"/>
<path d="M996.702 204.229H987.703V205.653H996.702V204.229Z" fill="white"/>
<path d="M1104.69 204.229H1095.69V205.653H1104.69V204.229Z" fill="white"/>
<path d="M1122.69 204.229H1113.69V205.653H1122.69V204.229Z" fill="white"/>
<path d="M906.712 204.229H897.713V205.653H906.712V204.229Z" fill="white"/>
<path d="M915.711 205.654H918.487V208.432H919.911V205.654H924.71V204.229H919.911V199.428H918.487V204.229H915.711V205.654Z" fill="white"/>
<path d="M960.706 204.229H951.707V205.653H960.706V204.229Z" fill="white"/>
<path d="M942.708 204.229H933.709V205.653H942.708V204.229Z" fill="white"/>
<path d="M978.704 204.229H969.705V205.653H978.704V204.229Z" fill="white"/>
<path d="M888.714 204.229H879.715V205.653H888.714V204.229Z" fill="white"/>
<path d="M1068.69 204.229H1059.7V205.653H1068.69V204.229Z" fill="white"/>
<path d="M1032.7 204.229H1023.7V205.653H1032.7V204.229Z" fill="white"/>
<path d="M1050.7 204.229H1041.7V205.653H1050.7V204.229Z" fill="white"/>
<path d="M1014.7 204.229H1005.7V205.653H1014.7V204.229Z" fill="white"/>
<path d="M726.731 284.973H717.732V286.398H726.731V284.973Z" fill="white"/>
<path d="M978.704 284.973H969.705V286.398H978.704V284.973Z" fill="white"/>
<path d="M600.744 284.973H591.745V286.398H600.744V284.973Z" fill="white"/>
<path d="M870.716 284.973H861.717V286.398H870.716V284.973Z" fill="white"/>
<path d="M942.708 284.973H933.709V286.398H942.708V284.973Z" fill="white"/>
<path d="M1086.69 284.973H1077.69V286.398H1086.69V284.973Z" fill="white"/>
<path d="M780.725 284.973H771.726V286.398H780.725V284.973Z" fill="white"/>
<path d="M618.742 284.973H609.743V286.398H618.742V284.973Z" fill="white"/>
<path d="M852.717 284.973H843.718V286.398H852.717V284.973Z" fill="white"/>
<path d="M1122.69 284.973H1113.69V286.398H1122.69V284.973Z" fill="white"/>
<path d="M996.702 284.973H987.703V286.398H996.702V284.973Z" fill="white"/>
<path d="M960.706 284.973H951.707V286.398H960.706V284.973Z" fill="white"/>
<path d="M1014.7 284.973H1005.7V286.398H1014.7V284.973Z" fill="white"/>
<path d="M744.729 284.973H735.73V286.398H744.729V284.973Z" fill="white"/>
<path d="M1032.7 284.973H1023.7V286.398H1032.7V284.973Z" fill="white"/>
<path d="M762.727 284.973H753.728V286.398H762.727V284.973Z" fill="white"/>
<path d="M888.714 284.973H879.715V286.398H888.714V284.973Z" fill="white"/>
<path d="M672.736 284.973H663.738V286.398H672.736V284.973Z" fill="white"/>
<path d="M834.72 284.973H825.72V286.398H834.72V284.973Z" fill="white"/>
<path d="M708.733 284.973H699.734V286.398H708.733V284.973Z" fill="white"/>
<path d="M582.746 284.973H573.747V286.398H582.746V284.973Z" fill="white"/>
<path d="M906.712 284.973H897.713V286.398H906.712V284.973Z" fill="white"/>
<path d="M690.734 284.973H681.735V286.398H690.734V284.973Z" fill="white"/>
<path d="M636.74 284.973H627.741V286.398H636.74V284.973Z" fill="white"/>
<path d="M816.721 284.973H807.722V286.398H816.721V284.973Z" fill="white"/>
<path d="M924.71 284.973H915.711V286.398H924.71V284.973Z" fill="white"/>
<path d="M1050.7 284.973H1041.7V286.398H1050.7V284.973Z" fill="white"/>
<path d="M798.723 284.973H789.724V286.398H798.723V284.973Z" fill="white"/>
<path d="M1104.69 284.973H1095.69V286.398H1104.69V284.973Z" fill="white"/>
<path d="M654.738 284.973H645.739V286.398H654.738V284.973Z" fill="white"/>
<path d="M1068.69 284.973H1059.7V286.398H1068.69V284.973Z" fill="white"/>
<path d="M564.748 284.973H556.084V286.398H564.748V284.973Z" fill="white"/>
<path d="M1050.7 365.713H1041.7V367.138H1050.7V365.713Z" fill="white"/>
<path d="M636.74 365.713H627.741V367.138H636.74V365.713Z" fill="white"/>
<path d="M870.716 365.713H861.717V367.138H870.716V365.713Z" fill="white"/>
<path d="M888.714 365.713H879.715V367.138H888.714V365.713Z" fill="white"/>
<path d="M906.712 365.713H897.713V367.138H906.712V365.713Z" fill="white"/>
<path d="M1014.7 365.713H1005.7V367.138H1014.7V365.713Z" fill="white"/>
<path d="M1032.7 365.713H1023.7V367.138H1032.7V365.713Z" fill="white"/>
<path d="M690.734 365.713H681.735V367.138H690.734V365.713Z" fill="white"/>
<path d="M672.736 365.713H663.738V367.138H672.736V365.713Z" fill="white"/>
<path d="M1068.69 365.713H1059.7V367.138H1068.69V365.713Z" fill="white"/>
<path d="M618.742 365.713H609.743V367.138H618.742V365.713Z" fill="white"/>
<path d="M654.738 365.713H645.739V367.138H654.738V365.713Z" fill="white"/>
<path d="M852.717 365.713H843.718V367.138H852.717V365.713Z" fill="white"/>
<path d="M1122.69 365.713H1113.69V367.138H1122.69V365.713Z" fill="white"/>
<path d="M942.708 365.713H933.709V367.138H942.708V365.713Z" fill="white"/>
<path d="M744.729 365.713H735.73V367.138H744.729V365.713Z" fill="white"/>
<path d="M978.704 365.713H969.705V367.138H978.704V365.713Z" fill="white"/>
<path d="M996.702 365.713H987.703V367.138H996.702V365.713Z" fill="white"/>
<path d="M1104.69 365.713H1095.69V367.138H1104.69V365.713Z" fill="white"/>
<path d="M726.731 365.713H717.732V367.138H726.731V365.713Z" fill="white"/>
<path d="M780.725 365.713H771.726V367.138H780.725V365.713Z" fill="white"/>
<path d="M960.706 365.713H951.707V367.138H960.706V365.713Z" fill="white"/>
<path d="M753.728 367.14H757.102V370.516H758.526V367.14H762.727V365.715H758.526V361.512H757.102V365.715H753.728V367.14Z" fill="white"/>
<path d="M1077.69 367.14H1081.3V370.516H1082.72V367.14H1086.69V365.715H1082.72V361.512H1081.3V365.715H1077.69V367.14Z" fill="white"/>
<path d="M564.748 365.713H556.084V367.138H564.748V365.713Z" fill="white"/>
<path d="M915.711 367.14H918.487V370.516H919.911V367.14H924.71V365.715H919.911V361.512H918.487V365.715H915.711V367.14Z" fill="white"/>
<path d="M708.733 365.713H699.734V367.138H708.733V365.713Z" fill="white"/>
<path d="M816.721 365.713H807.722V367.138H816.721V365.713Z" fill="white"/>
<path d="M834.72 365.713H825.72V367.138H834.72V365.713Z" fill="white"/>
<path d="M798.723 365.713H789.724V367.138H798.723V365.713Z" fill="white"/>
<path d="M582.746 365.713H573.747V367.138H582.746V365.713Z" fill="white"/>
<path d="M591.745 367.14H595.718V370.516H597.142V367.14H600.744V365.715H597.142V361.512H595.718V365.715H591.745V367.14Z" fill="white"/>
<path d="M1068.69 445.982H1059.7V447.407H1068.69V445.982Z" fill="white"/>
<path d="M1104.69 445.982H1095.69V447.407H1104.69V445.982Z" fill="white"/>
<path d="M1122.69 445.982H1113.69V447.407H1122.69V445.982Z" fill="white"/>
<path d="M1086.69 445.982H1077.69V447.407H1086.69V445.982Z" fill="white"/>
<path d="M582.746 445.982H573.747V447.407H582.746V445.982Z" fill="white"/>
<path d="M618.742 445.982H609.743V447.407H618.742V445.982Z" fill="white"/>
<path d="M600.744 445.982H591.745V447.407H600.744V445.982Z" fill="white"/>
<path d="M564.748 445.982H556.084V447.407H564.748V445.982Z" fill="white"/>
<path d="M690.734 445.982H681.735V447.407H690.734V445.982Z" fill="white"/>
<path d="M978.704 445.982H969.705V447.407H978.704V445.982Z" fill="white"/>
<path d="M960.706 445.982H951.707V447.407H960.706V445.982Z" fill="white"/>
<path d="M708.733 445.982H699.734V447.407H708.733V445.982Z" fill="white"/>
<path d="M924.71 445.982H915.711V447.407H924.71V445.982Z" fill="white"/>
<path d="M636.74 445.982H627.741V447.407H636.74V445.982Z" fill="white"/>
<path d="M834.72 445.982H825.72V447.407H834.72V445.982Z" fill="white"/>
<path d="M744.729 445.982H735.73V447.407H744.729V445.982Z" fill="white"/>
<path d="M798.723 445.982H789.724V447.407H798.723V445.982Z" fill="white"/>
<path d="M780.725 445.982H771.726V447.407H780.725V445.982Z" fill="white"/>
<path d="M816.721 445.982H807.722V447.407H816.721V445.982Z" fill="white"/>
<path d="M726.731 445.982H717.732V447.407H726.731V445.982Z" fill="white"/>
<path d="M996.702 445.982H987.703V447.407H996.702V445.982Z" fill="white"/>
<path d="M672.736 445.982H663.738V447.407H672.736V445.982Z" fill="white"/>
<path d="M1032.7 445.982H1023.7V447.407H1032.7V445.982Z" fill="white"/>
<path d="M870.716 445.982H861.717V447.407H870.716V445.982Z" fill="white"/>
<path d="M942.708 445.982H933.709V447.407H942.708V445.982Z" fill="white"/>
<path d="M654.738 445.982H645.739V447.407H654.738V445.982Z" fill="white"/>
<path d="M1050.7 445.982H1041.7V447.407H1050.7V445.982Z" fill="white"/>
<path d="M852.717 445.982H843.718V447.407H852.717V445.982Z" fill="white"/>
<path d="M1014.7 445.982H1005.7V447.407H1014.7V445.982Z" fill="white"/>
<path d="M888.714 445.982H879.715V447.407H888.714V445.982Z" fill="white"/>
<path d="M906.712 445.982H897.713V447.407H906.712V445.982Z" fill="white"/>
<path d="M762.727 445.982H753.728V447.407H762.727V445.982Z" fill="white"/>
<path d="M852.717 527.197H843.718V528.622H852.717V527.197Z" fill="white"/>
<path d="M816.721 527.197H807.722V528.622H816.721V527.197Z" fill="white"/>
<path d="M1050.7 527.197H1041.7V528.622H1050.7V527.197Z" fill="white"/>
<path d="M888.714 527.197H879.715V528.622H888.714V527.197Z" fill="white"/>
<path d="M870.716 527.197H861.717V528.622H870.716V527.197Z" fill="white"/>
<path d="M834.72 527.197H825.72V528.622H834.72V527.197Z" fill="white"/>
<path d="M753.728 528.625H757.102V532.6H758.526V528.625H762.727V527.201H758.526V523.596H757.102V527.201H753.728V528.625Z" fill="white"/>
<path d="M780.725 527.197H771.726V528.622H780.725V527.197Z" fill="white"/>
<path d="M798.723 527.197H789.724V528.622H798.723V527.197Z" fill="white"/>
<path d="M942.708 527.197H933.709V528.622H942.708V527.197Z" fill="white"/>
<path d="M960.706 527.197H951.707V528.622H960.706V527.197Z" fill="white"/>
<path d="M906.712 527.197H897.713V528.622H906.712V527.197Z" fill="white"/>
<path d="M978.704 527.197H969.705V528.622H978.704V527.197Z" fill="white"/>
<path d="M915.711 528.625H918.487V532.6H919.911V528.625H924.71V527.201H919.911V523.596H918.487V527.201H915.711V528.625Z" fill="white"/>
<path d="M726.731 527.197H717.732V528.622H726.731V527.197Z" fill="white"/>
<path d="M1032.7 527.197H1023.7V528.622H1032.7V527.197Z" fill="white"/>
<path d="M1014.7 527.197H1005.7V528.622H1014.7V527.197Z" fill="white"/>
<path d="M996.702 527.197H987.703V528.622H996.702V527.197Z" fill="white"/>
<path d="M744.729 527.197H735.73V528.622H744.729V527.197Z" fill="white"/>
<path d="M1068.69 527.197H1059.7V528.622H1068.69V527.197Z" fill="white"/>
<path d="M564.748 527.197H556.084V528.622H564.748V527.197Z" fill="white"/>
<path d="M1077.69 528.625H1081.3V532.6H1082.72V528.625H1086.69V527.201H1082.72V523.596H1081.3V527.201H1077.69V528.625Z" fill="white"/>
<path d="M1122.69 527.197H1113.69V528.622H1122.69V527.197Z" fill="white"/>
<path d="M1104.69 527.197H1095.69V528.622H1104.69V527.197Z" fill="white"/>
<path d="M582.746 527.197H573.747V528.622H582.746V527.197Z" fill="white"/>
<path d="M591.745 528.625H595.718V532.6H597.142V528.625H600.744V527.201H597.142V523.596H595.718V527.201H591.745V528.625Z" fill="white"/>
<path d="M708.733 527.197H699.734V528.622H708.733V527.197Z" fill="white"/>
<path d="M690.734 527.197H681.735V528.622H690.734V527.197Z" fill="white"/>
<path d="M618.742 527.197H609.743V528.622H618.742V527.197Z" fill="white"/>
<path d="M654.738 527.197H645.739V528.622H654.738V527.197Z" fill="white"/>
<path d="M636.74 527.197H627.741V528.622H636.74V527.197Z" fill="white"/>
<path d="M672.736 527.197H663.738V528.622H672.736V527.197Z" fill="white"/>
<path d="M1082.72 109.383H1081.3V118.387H1082.72V109.383Z" fill="white"/>
<path d="M1082.72 73.3652H1081.3V82.3699H1082.72V73.3652Z" fill="white"/>
<path d="M1082.72 55.3535H1081.3V64.3582H1082.72V55.3535Z" fill="white"/>
<path d="M1082.72 163.41H1081.3V172.415H1082.72V163.41Z" fill="white"/>
<path d="M1082.72 1.32812H1081.3V10.3328H1082.72V1.32812Z" fill="white"/>
<path d="M1081.3 41.3209H1077.69V42.7458H1081.3V46.3501H1082.72V42.7458H1086.69V41.3209H1082.72V37.3457H1081.3V41.3209Z" fill="white"/>
<path d="M1082.72 91.373H1081.3V100.378H1082.72V91.373Z" fill="white"/>
<path d="M1082.72 19.3359H1081.3V28.3406H1082.72V19.3359Z" fill="white"/>
<path d="M1082.72 145.4H1081.3V154.405H1082.72V145.4Z" fill="white"/>
<path d="M1082.72 181.42H1081.3V190.425H1082.72V181.42Z" fill="white"/>
<path d="M1082.72 343.502H1081.3V352.506H1082.72V343.502Z" fill="white"/>
<path d="M1082.72 469.566H1081.3V478.571H1082.72V469.566Z" fill="white"/>
<path d="M1082.72 307.484H1081.3V316.489H1082.72V307.484Z" fill="white"/>
<path d="M1082.72 487.576H1081.3V496.581H1082.72V487.576Z" fill="white"/>
<path d="M1082.72 325.496H1081.3V334.501H1082.72V325.496Z" fill="white"/>
<path d="M1082.72 505.586H1081.3V514.591H1082.72V505.586Z" fill="white"/>
<path d="M1082.72 289.475H1081.3V298.479H1082.72V289.475Z" fill="white"/>
<path d="M1082.72 397.531H1081.3V406.536H1082.72V397.531Z" fill="white"/>
<path d="M1082.72 433.547H1081.3V442.551H1082.72V433.547Z" fill="white"/>
<path d="M1082.72 415.539H1081.3V424.544H1082.72V415.539Z" fill="white"/>
<path d="M1082.72 379.52H1081.3V388.524H1082.72V379.52Z" fill="white"/>
<path d="M1082.72 127.391H1081.3V136.395H1082.72V127.391Z" fill="white"/>
<path d="M1082.72 235.445H1081.3V244.45H1082.72V235.445Z" fill="white"/>
<path d="M1082.72 271.467H1081.3V280.471H1082.72V271.467Z" fill="white"/>
<path d="M1082.72 253.457H1081.3V262.462H1082.72V253.457Z" fill="white"/>
<path d="M1082.72 541.604H1081.3V550.608H1082.72V541.604Z" fill="white"/>
<path d="M1082.72 217.439H1081.3V226.444H1082.72V217.439Z" fill="white"/>
<path d="M1082.72 559.613H1081.3V568.618H1082.72V559.613Z" fill="white"/>
<path d="M1082.72 451.559H1081.3V460.563H1082.72V451.559Z" fill="white"/>
<path d="M1001.55 343.502H1000.13V352.506H1001.55V343.502Z" fill="white"/>
<path d="M1001.55 415.539H1000.13V424.544H1001.55V415.539Z" fill="white"/>
<path d="M1001.55 379.52H1000.13V388.524H1001.55V379.52Z" fill="white"/>
<path d="M1001.55 397.531H1000.13V406.536H1001.55V397.531Z" fill="white"/>
<path d="M1001.55 361.512H1000.13V370.516H1001.55V361.512Z" fill="white"/>
<path d="M1001.55 325.496H1000.13V334.501H1001.55V325.496Z" fill="white"/>
<path d="M1001.55 289.475H1000.13V298.479H1001.55V289.475Z" fill="white"/>
<path d="M1001.55 307.484H1000.13V316.489H1001.55V307.484Z" fill="white"/>
<path d="M1001.55 505.586H1000.13V514.591H1001.55V505.586Z" fill="white"/>
<path d="M1001.55 271.467H1000.13V280.471H1001.55V271.467Z" fill="white"/>
<path d="M1001.55 487.576H1000.13V496.581H1001.55V487.576Z" fill="white"/>
<path d="M1001.55 559.613H1000.13V568.618H1001.55V559.613Z" fill="white"/>
<path d="M1001.55 523.596H1000.13V532.6H1001.55V523.596Z" fill="white"/>
<path d="M1001.55 541.604H1000.13V550.608H1001.55V541.604Z" fill="white"/>
<path d="M1001.55 433.547H1000.13V442.551H1001.55V433.547Z" fill="white"/>
<path d="M1001.55 451.559H1000.13V460.563H1001.55V451.559Z" fill="white"/>
<path d="M1001.55 469.566H1000.13V478.571H1001.55V469.566Z" fill="white"/>
<path d="M1001.55 91.373H1000.13V100.378H1001.55V91.373Z" fill="white"/>
<path d="M1001.55 253.457H1000.13V262.462H1001.55V253.457Z" fill="white"/>
<path d="M1001.55 109.383H1000.13V118.387H1001.55V109.383Z" fill="white"/>
<path d="M1001.55 55.3535H1000.13V64.3582H1001.55V55.3535Z" fill="white"/>
<path d="M1001.55 73.3652H1000.13V82.3699H1001.55V73.3652Z" fill="white"/>
<path d="M1001.55 19.3359H1000.13V28.3406H1001.55V19.3359Z" fill="white"/>
<path d="M1001.55 37.3457H1000.13V46.3501H1001.55V37.3457Z" fill="white"/>
<path d="M1001.55 1.32812H1000.13V10.3328H1001.55V1.32812Z" fill="white"/>
<path d="M1001.55 127.391H1000.13V136.395H1001.55V127.391Z" fill="white"/>
<path d="M1001.55 199.428H1000.13V208.432H1001.55V199.428Z" fill="white"/>
<path d="M1001.55 217.439H1000.13V226.444H1001.55V217.439Z" fill="white"/>
<path d="M1001.55 145.4H1000.13V154.405H1001.55V145.4Z" fill="white"/>
<path d="M1001.55 235.445H1000.13V244.45H1001.55V235.445Z" fill="white"/>
<path d="M1001.55 163.41H1000.13V172.415H1001.55V163.41Z" fill="white"/>
<path d="M1001.55 181.42H1000.13V190.425H1001.55V181.42Z" fill="white"/>
<path d="M919.911 181.42H918.487V190.425H919.911V181.42Z" fill="white"/>
<path d="M919.911 145.4H918.487V154.405H919.911V145.4Z" fill="white"/>
<path d="M919.911 127.391H918.487V136.395H919.911V127.391Z" fill="white"/>
<path d="M919.911 163.41H918.487V172.415H919.911V163.41Z" fill="white"/>
<path d="M919.911 235.445H918.487V244.45H919.911V235.445Z" fill="white"/>
<path d="M919.911 253.457H918.487V262.462H919.911V253.457Z" fill="white"/>
<path d="M919.911 271.467H918.487V280.471H919.911V271.467Z" fill="white"/>
<path d="M919.911 1.32812H918.487V10.3328H919.911V1.32812Z" fill="white"/>
<path d="M918.487 41.3209H915.711V42.7458H918.487V46.3501H919.911V42.7458H924.71V41.3209H919.911V37.3457H918.487V41.3209Z" fill="white"/>
<path d="M919.911 55.3535H918.487V64.3582H919.911V55.3535Z" fill="white"/>
<path d="M919.911 19.3359H918.487V28.3406H919.911V19.3359Z" fill="white"/>
<path d="M919.911 73.3652H918.487V82.3699H919.911V73.3652Z" fill="white"/>
<path d="M919.911 91.373H918.487V100.378H919.911V91.373Z" fill="white"/>
<path d="M919.911 109.383H918.487V118.387H919.911V109.383Z" fill="white"/>
<path d="M919.911 343.502H918.487V352.506H919.911V343.502Z" fill="white"/>
<path d="M919.911 469.566H918.487V478.571H919.911V469.566Z" fill="white"/>
<path d="M919.911 487.576H918.487V496.581H919.911V487.576Z" fill="white"/>
<path d="M919.911 505.586H918.487V514.591H919.911V505.586Z" fill="white"/>
<path d="M919.911 451.559H918.487V460.563H919.911V451.559Z" fill="white"/>
<path d="M919.911 541.604H918.487V550.608H919.911V541.604Z" fill="white"/>
<path d="M919.911 217.439H918.487V226.444H919.911V217.439Z" fill="white"/>
<path d="M919.911 559.613H918.487V568.618H919.911V559.613Z" fill="white"/>
<path d="M919.911 289.475H918.487V298.479H919.911V289.475Z" fill="white"/>
<path d="M919.911 325.496H918.487V334.501H919.911V325.496Z" fill="white"/>
<path d="M919.911 415.539H918.487V424.544H919.911V415.539Z" fill="white"/>
<path d="M919.911 379.52H918.487V388.524H919.911V379.52Z" fill="white"/>
<path d="M919.911 307.484H918.487V316.489H919.911V307.484Z" fill="white"/>
<path d="M919.911 433.547H918.487V442.551H919.911V433.547Z" fill="white"/>
<path d="M919.911 397.531H918.487V406.536H919.911V397.531Z" fill="white"/>
<path d="M839.219 325.496H837.795V334.501H839.219V325.496Z" fill="white"/>
<path d="M839.219 19.3359H837.795V28.3406H839.219V19.3359Z" fill="white"/>
<path d="M839.219 199.428H837.795V208.432H839.219V199.428Z" fill="white"/>
<path d="M839.219 145.4H837.795V154.405H839.219V145.4Z" fill="white"/>
<path d="M839.219 163.41H837.795V172.415H839.219V163.41Z" fill="white"/>
<path d="M839.219 271.467H837.795V280.471H839.219V271.467Z" fill="white"/>
<path d="M839.219 253.457H837.795V262.462H839.219V253.457Z" fill="white"/>
<path d="M839.219 235.445H837.795V244.45H839.219V235.445Z" fill="white"/>
<path d="M839.219 217.439H837.795V226.444H839.219V217.439Z" fill="white"/>
<path d="M839.219 37.3457H837.795V46.3501H839.219V37.3457Z" fill="white"/>
<path d="M839.219 127.391H837.795V136.395H839.219V127.391Z" fill="white"/>
<path d="M839.219 1.32812H837.795V10.3328H839.219V1.32812Z" fill="white"/>
<path d="M839.219 55.3535H837.795V64.3582H839.219V55.3535Z" fill="white"/>
<path d="M839.219 109.383H837.795V118.387H839.219V109.383Z" fill="white"/>
<path d="M839.219 91.373H837.795V100.378H839.219V91.373Z" fill="white"/>
<path d="M839.219 73.3652H837.795V82.3699H839.219V73.3652Z" fill="white"/>
<path d="M839.219 181.42H837.795V190.425H839.219V181.42Z" fill="white"/>
<path d="M839.219 487.576H837.795V496.581H839.219V487.576Z" fill="white"/>
<path d="M839.219 289.475H837.795V298.479H839.219V289.475Z" fill="white"/>
<path d="M839.219 469.566H837.795V478.571H839.219V469.566Z" fill="white"/>
<path d="M839.219 541.604H837.795V550.608H839.219V541.604Z" fill="white"/>
<path d="M839.219 559.613H837.795V568.618H839.219V559.613Z" fill="white"/>
<path d="M839.219 451.559H837.795V460.563H839.219V451.559Z" fill="white"/>
<path d="M839.219 523.596H837.795V532.6H839.219V523.596Z" fill="white"/>
<path d="M839.219 505.586H837.795V514.591H839.219V505.586Z" fill="white"/>
<path d="M839.219 343.502H837.795V352.506H839.219V343.502Z" fill="white"/>
<path d="M839.219 307.484H837.795V316.489H839.219V307.484Z" fill="white"/>
<path d="M839.219 433.547H837.795V442.551H839.219V433.547Z" fill="white"/>
<path d="M839.219 361.512H837.795V370.516H839.219V361.512Z" fill="white"/>
<path d="M839.219 379.52H837.795V388.524H839.219V379.52Z" fill="white"/>
<path d="M839.219 397.531H837.795V406.536H839.219V397.531Z" fill="white"/>
<path d="M839.219 415.539H837.795V424.544H839.219V415.539Z" fill="white"/>
<path d="M758.527 253.457H757.103V262.462H758.527V253.457Z" fill="white"/>
<path d="M758.527 19.3359H757.103V28.3406H758.527V19.3359Z" fill="white"/>
<path d="M758.527 325.496H757.103V334.501H758.527V325.496Z" fill="white"/>
<path d="M758.527 271.467H757.103V280.471H758.527V271.467Z" fill="white"/>
<path d="M758.527 127.391H757.103V136.395H758.527V127.391Z" fill="white"/>
<path d="M757.102 41.3209H753.728V42.7458H757.102V46.3501H758.526V42.7458H762.727V41.3209H758.526V37.3457H757.102V41.3209Z" fill="white"/>
<path d="M758.527 109.383H757.103V118.387H758.527V109.383Z" fill="white"/>
<path d="M758.527 91.373H757.103V100.378H758.527V91.373Z" fill="white"/>
<path d="M758.527 1.32812H757.103V10.3328H758.527V1.32812Z" fill="white"/>
<path d="M758.527 181.42H757.103V190.425H758.527V181.42Z" fill="white"/>
<path d="M758.527 145.4H757.103V154.405H758.527V145.4Z" fill="white"/>
<path d="M758.527 163.41H757.103V172.415H758.527V163.41Z" fill="white"/>
<path d="M758.527 73.3652H757.103V82.3699H758.527V73.3652Z" fill="white"/>
<path d="M758.527 55.3535H757.103V64.3582H758.527V55.3535Z" fill="white"/>
<path d="M758.527 559.613H757.103V568.618H758.527V559.613Z" fill="white"/>
<path d="M758.527 541.604H757.103V550.608H758.527V541.604Z" fill="white"/>
<path d="M758.527 433.547H757.103V442.551H758.527V433.547Z" fill="white"/>
<path d="M758.527 307.484H757.103V316.489H758.527V307.484Z" fill="white"/>
<path d="M758.527 217.439H757.103V226.444H758.527V217.439Z" fill="white"/>
<path d="M758.527 343.502H757.103V352.506H758.527V343.502Z" fill="white"/>
<path d="M758.527 397.531H757.103V406.536H758.527V397.531Z" fill="white"/>
<path d="M758.527 415.539H757.103V424.544H758.527V415.539Z" fill="white"/>
<path d="M758.527 469.566H757.103V478.571H758.527V469.566Z" fill="white"/>
<path d="M758.527 505.586H757.103V514.591H758.527V505.586Z" fill="white"/>
<path d="M758.527 451.559H757.103V460.563H758.527V451.559Z" fill="white"/>
<path d="M758.527 379.52H757.103V388.524H758.527V379.52Z" fill="white"/>
<path d="M758.527 235.445H757.103V244.45H758.527V235.445Z" fill="white"/>
<path d="M758.527 487.576H757.103V496.581H758.527V487.576Z" fill="white"/>
<path d="M758.527 289.475H757.103V298.479H758.527V289.475Z" fill="white"/>
<path d="M678.309 109.383H676.885V118.387H678.309V109.383Z" fill="white"/>
<path d="M678.309 73.3652H676.885V82.3699H678.309V73.3652Z" fill="white"/>
<path d="M678.309 91.373H676.885V100.378H678.309V91.373Z" fill="white"/>
<path d="M678.309 55.3535H676.885V64.3582H678.309V55.3535Z" fill="white"/>
<path d="M678.309 235.445H676.885V244.45H678.309V235.445Z" fill="white"/>
<path d="M678.309 559.613H676.885V568.618H678.309V559.613Z" fill="white"/>
<path d="M678.309 19.3359H676.885V28.3406H678.309V19.3359Z" fill="white"/>
<path d="M678.309 1.32812H676.885V10.3328H678.309V1.32812Z" fill="white"/>
<path d="M678.309 217.439H676.885V226.444H678.309V217.439Z" fill="white"/>
<path d="M678.309 37.3457H676.885V46.3501H678.309V37.3457Z" fill="white"/>
<path d="M678.309 199.428H676.885V208.432H678.309V199.428Z" fill="white"/>
<path d="M678.309 271.467H676.885V280.471H678.309V271.467Z" fill="white"/>
<path d="M678.309 163.41H676.885V172.415H678.309V163.41Z" fill="white"/>
<path d="M678.309 145.4H676.885V154.405H678.309V145.4Z" fill="white"/>
<path d="M678.309 181.42H676.885V190.425H678.309V181.42Z" fill="white"/>
<path d="M678.309 127.391H676.885V136.395H678.309V127.391Z" fill="white"/>
<path d="M678.309 253.457H676.885V262.462H678.309V253.457Z" fill="white"/>
<path d="M678.309 451.559H676.885V460.563H678.309V451.559Z" fill="white"/>
<path d="M678.309 469.566H676.885V478.571H678.309V469.566Z" fill="white"/>
<path d="M678.309 433.547H676.885V442.551H678.309V433.547Z" fill="white"/>
<path d="M678.309 523.596H676.885V532.6H678.309V523.596Z" fill="white"/>
<path d="M678.309 541.604H676.885V550.608H678.309V541.604Z" fill="white"/>
<path d="M678.309 505.586H676.885V514.591H678.309V505.586Z" fill="white"/>
<path d="M678.309 415.539H676.885V424.544H678.309V415.539Z" fill="white"/>
<path d="M678.309 487.576H676.885V496.581H678.309V487.576Z" fill="white"/>
<path d="M678.309 307.484H676.885V316.489H678.309V307.484Z" fill="white"/>
<path d="M678.309 325.496H676.885V334.501H678.309V325.496Z" fill="white"/>
<path d="M678.309 289.475H676.885V298.479H678.309V289.475Z" fill="white"/>
<path d="M678.309 361.512H676.885V370.516H678.309V361.512Z" fill="white"/>
<path d="M678.309 397.531H676.885V406.536H678.309V397.531Z" fill="white"/>
<path d="M678.309 379.52H676.885V388.524H678.309V379.52Z" fill="white"/>
<path d="M678.309 343.502H676.885V352.506H678.309V343.502Z" fill="white"/>
<path d="M597.142 109.383H595.718V118.387H597.142V109.383Z" fill="white"/>
<path d="M597.142 1.32812H595.718V10.3328H597.142V1.32812Z" fill="white"/>
<path d="M597.142 91.373H595.718V100.378H597.142V91.373Z" fill="white"/>
<path d="M595.718 41.3209H591.745V42.7458H595.718V46.3501H597.142V42.7458H600.744V41.3209H597.142V37.3457H595.718V41.3209Z" fill="white"/>
<path d="M597.142 55.3535H595.718V64.3582H597.142V55.3535Z" fill="white"/>
<path d="M597.142 181.42H595.718V190.425H597.142V181.42Z" fill="white"/>
<path d="M597.142 73.3652H595.718V82.3699H597.142V73.3652Z" fill="white"/>
<path d="M597.142 163.41H595.718V172.415H597.142V163.41Z" fill="white"/>
<path d="M597.142 487.576H595.718V496.581H597.142V487.576Z" fill="white"/>
<path d="M597.142 505.586H595.718V514.591H597.142V505.586Z" fill="white"/>
<path d="M597.142 379.52H595.718V388.524H597.142V379.52Z" fill="white"/>
<path d="M597.142 397.531H595.718V406.536H597.142V397.531Z" fill="white"/>
<path d="M597.142 415.539H595.718V424.544H597.142V415.539Z" fill="white"/>
<path d="M597.142 433.547H595.718V442.551H597.142V433.547Z" fill="white"/>
<path d="M597.142 541.604H595.718V550.608H597.142V541.604Z" fill="white"/>
<path d="M597.142 19.3359H595.718V28.3406H597.142V19.3359Z" fill="white"/>
<path d="M597.142 289.475H595.718V298.479H597.142V289.475Z" fill="white"/>
<path d="M597.142 469.566H595.718V478.571H597.142V469.566Z" fill="white"/>
<path d="M597.142 451.559H595.718V460.563H597.142V451.559Z" fill="white"/>
<path d="M597.142 559.613H595.718V568.618H597.142V559.613Z" fill="white"/>
<path d="M597.142 127.391H595.718V136.395H597.142V127.391Z" fill="white"/>
<path d="M597.142 253.457H595.718V262.462H597.142V253.457Z" fill="white"/>
<path d="M597.142 145.4H595.718V154.405H597.142V145.4Z" fill="white"/>
<path d="M597.142 271.467H595.718V280.471H597.142V271.467Z" fill="white"/>
<path d="M597.142 217.439H595.718V226.444H597.142V217.439Z" fill="white"/>
<path d="M597.142 343.502H595.718V352.506H597.142V343.502Z" fill="white"/>
<path d="M597.142 325.496H595.718V334.501H597.142V325.496Z" fill="white"/>
<path d="M597.142 307.484H595.718V316.489H597.142V307.484Z" fill="white"/>
<path d="M597.142 235.445H595.718V244.45H597.142V235.445Z" fill="white"/>
</g>
<g clip-path="url(#clip3_497_32751)">
<path d="M1263.33 41.3223H1254.33V42.7471H1263.33V41.3223Z" fill="white"/>
<path d="M1227.33 41.3223H1218.33V42.7471H1227.33V41.3223Z" fill="white"/>
<path d="M1353.32 41.3223H1344.32V42.7471H1353.32V41.3223Z" fill="white"/>
<path d="M1245.33 41.3223H1236.33V42.7471H1245.33V41.3223Z" fill="white"/>
<path d="M1155.34 41.3223H1146.34V42.7471H1155.34V41.3223Z" fill="white"/>
<path d="M1317.32 41.3223H1308.32V42.7471H1317.32V41.3223Z" fill="white"/>
<path d="M1137.34 41.3223H1128.67V42.7471H1137.34V41.3223Z" fill="white"/>
<path d="M1191.33 41.3223H1182.33V42.7471H1191.33V41.3223Z" fill="white"/>
<path d="M1209.33 41.3223H1200.33V42.7471H1209.33V41.3223Z" fill="white"/>
<path d="M1299.32 41.3223H1290.32V42.7471H1299.32V41.3223Z" fill="white"/>
<path d="M1281.32 41.3223H1272.32V42.7471H1281.32V41.3223Z" fill="white"/>
<path d="M1335.32 125.389H1326.32V126.814H1335.32V125.389Z" fill="white"/>
<path d="M1353.32 125.389H1344.32V126.814H1353.32V125.389Z" fill="white"/>
<path d="M1245.33 125.389H1236.33V126.814H1245.33V125.389Z" fill="white"/>
<path d="M1191.33 125.389H1182.33V126.814H1191.33V125.389Z" fill="white"/>
<path d="M1155.34 125.389H1146.34V126.814H1155.34V125.389Z" fill="white"/>
<path d="M1209.33 125.389H1200.33V126.814H1209.33V125.389Z" fill="white"/>
<path d="M1263.33 125.389H1254.33V126.814H1263.33V125.389Z" fill="white"/>
<path d="M1173.33 125.389H1164.34V126.814H1173.33V125.389Z" fill="white"/>
<path d="M1227.33 125.389H1218.33V126.814H1227.33V125.389Z" fill="white"/>
<path d="M1281.32 125.389H1272.32V126.814H1281.32V125.389Z" fill="white"/>
<path d="M1137.34 125.389H1128.67V126.814H1137.34V125.389Z" fill="white"/>
<path d="M1299.32 125.389H1290.32V126.814H1299.32V125.389Z" fill="white"/>
<path d="M1317.32 125.389H1308.32V126.814H1317.32V125.389Z" fill="white"/>
<path d="M1164.34 205.654H1168.31V208.432H1169.73V205.654H1173.33V204.229H1169.73V199.428H1168.31V204.229H1164.34V205.654Z" fill="white"/>
<path d="M1137.34 204.229H1128.67V205.653H1137.34V204.229Z" fill="white"/>
<path d="M1155.34 204.229H1146.34V205.653H1155.34V204.229Z" fill="white"/>
<path d="M1263.33 204.229H1254.33V205.653H1263.33V204.229Z" fill="white"/>
<path d="M1281.32 204.229H1272.32V205.653H1281.32V204.229Z" fill="white"/>
<path d="M1353.32 204.229H1344.32V205.653H1353.32V204.229Z" fill="white"/>
<path d="M1299.32 204.229H1290.32V205.653H1299.32V204.229Z" fill="white"/>
<path d="M1191.33 204.229H1182.33V205.653H1191.33V204.229Z" fill="white"/>
<path d="M1326.32 205.654H1329.69V208.432H1331.12V205.654H1335.32V204.229H1331.12V199.428H1329.69V204.229H1326.32V205.654Z" fill="white"/>
<path d="M1245.33 204.229H1236.33V205.653H1245.33V204.229Z" fill="white"/>
<path d="M1227.33 204.229H1218.33V205.653H1227.33V204.229Z" fill="white"/>
<path d="M1209.33 204.229H1200.33V205.653H1209.33V204.229Z" fill="white"/>
<path d="M1317.32 204.229H1308.32V205.653H1317.32V204.229Z" fill="white"/>
<path d="M1299.32 284.973H1290.32V286.398H1299.32V284.973Z" fill="white"/>
<path d="M1173.33 284.973H1164.34V286.398H1173.33V284.973Z" fill="white"/>
<path d="M1353.32 284.973H1344.32V286.398H1353.32V284.973Z" fill="white"/>
<path d="M1191.33 284.973H1182.33V286.398H1191.33V284.973Z" fill="white"/>
<path d="M1317.32 284.973H1308.32V286.398H1317.32V284.973Z" fill="white"/>
<path d="M1335.32 284.973H1326.32V286.398H1335.32V284.973Z" fill="white"/>
<path d="M1245.33 284.973H1236.33V286.398H1245.33V284.973Z" fill="white"/>
<path d="M1281.32 284.973H1272.32V286.398H1281.32V284.973Z" fill="white"/>
<path d="M1155.34 284.973H1146.34V286.398H1155.34V284.973Z" fill="white"/>
<path d="M1263.33 284.973H1254.33V286.398H1263.33V284.973Z" fill="white"/>
<path d="M1209.33 284.973H1200.33V286.398H1209.33V284.973Z" fill="white"/>
<path d="M1227.33 284.973H1218.33V286.398H1227.33V284.973Z" fill="white"/>
<path d="M1137.34 284.973H1128.67V286.398H1137.34V284.973Z" fill="white"/>
<path d="M1209.33 365.713H1200.33V367.138H1209.33V365.713Z" fill="white"/>
<path d="M1263.33 365.713H1254.33V367.138H1263.33V365.713Z" fill="white"/>
<path d="M1245.33 365.713H1236.33V367.138H1245.33V365.713Z" fill="white"/>
<path d="M1191.33 365.713H1182.33V367.138H1191.33V365.713Z" fill="white"/>
<path d="M1227.33 365.713H1218.33V367.138H1227.33V365.713Z" fill="white"/>
<path d="M1317.32 365.713H1308.32V367.138H1317.32V365.713Z" fill="white"/>
<path d="M1299.32 365.713H1290.32V367.138H1299.32V365.713Z" fill="white"/>
<path d="M1353.32 365.713H1344.32V367.138H1353.32V365.713Z" fill="white"/>
<path d="M1326.32 367.14H1329.69V370.516H1331.12V367.14H1335.32V365.715H1331.12V361.512H1329.69V365.715H1326.32V367.14Z" fill="white"/>
<path d="M1137.34 365.713H1128.67V367.138H1137.34V365.713Z" fill="white"/>
<path d="M1281.32 365.713H1272.32V367.138H1281.32V365.713Z" fill="white"/>
<path d="M1155.34 365.713H1146.34V367.138H1155.34V365.713Z" fill="white"/>
<path d="M1164.34 367.14H1168.31V370.516H1169.73V367.14H1173.33V365.715H1169.73V361.512H1168.31V365.715H1164.34V367.14Z" fill="white"/>
<path d="M1155.34 445.982H1146.34V447.407H1155.34V445.982Z" fill="white"/>
<path d="M1191.33 445.982H1182.33V447.407H1191.33V445.982Z" fill="white"/>
<path d="M1173.33 445.982H1164.34V447.407H1173.33V445.982Z" fill="white"/>
<path d="M1137.34 445.982H1128.67V447.407H1137.34V445.982Z" fill="white"/>
<path d="M1263.33 445.982H1254.33V447.407H1263.33V445.982Z" fill="white"/>
<path d="M1281.32 445.982H1272.32V447.407H1281.32V445.982Z" fill="white"/>
<path d="M1209.33 445.982H1200.33V447.407H1209.33V445.982Z" fill="white"/>
<path d="M1317.32 445.982H1308.32V447.407H1317.32V445.982Z" fill="white"/>
<path d="M1353.32 445.982H1344.32V447.407H1353.32V445.982Z" fill="white"/>
<path d="M1299.32 445.982H1290.32V447.407H1299.32V445.982Z" fill="white"/>
<path d="M1245.33 445.982H1236.33V447.407H1245.33V445.982Z" fill="white"/>
<path d="M1227.33 445.982H1218.33V447.407H1227.33V445.982Z" fill="white"/>
<path d="M1335.32 445.982H1326.32V447.407H1335.32V445.982Z" fill="white"/>
<path d="M1326.32 528.625H1329.69V532.6H1331.12V528.625H1335.32V527.201H1331.12V523.596H1329.69V527.201H1326.32V528.625Z" fill="white"/>
<path d="M1353.32 527.197H1344.32V528.622H1353.32V527.197Z" fill="white"/>
<path d="M1299.32 527.197H1290.32V528.622H1299.32V527.197Z" fill="white"/>
<path d="M1317.32 527.197H1308.32V528.622H1317.32V527.197Z" fill="white"/>
<path d="M1137.34 527.197H1128.67V528.622H1137.34V527.197Z" fill="white"/>
<path d="M1155.34 527.197H1146.34V528.622H1155.34V527.197Z" fill="white"/>
<path d="M1164.34 528.625H1168.31V532.6H1169.73V528.625H1173.33V527.201H1169.73V523.596H1168.31V527.201H1164.34V528.625Z" fill="white"/>
<path d="M1281.32 527.197H1272.32V528.622H1281.32V527.197Z" fill="white"/>
<path d="M1263.33 527.197H1254.33V528.622H1263.33V527.197Z" fill="white"/>
<path d="M1191.33 527.197H1182.33V528.622H1191.33V527.197Z" fill="white"/>
<path d="M1227.33 527.197H1218.33V528.622H1227.33V527.197Z" fill="white"/>
<path d="M1209.33 527.197H1200.33V528.622H1209.33V527.197Z" fill="white"/>
<path d="M1245.33 527.197H1236.33V528.622H1245.33V527.197Z" fill="white"/>
<path d="M1331.12 253.457H1329.69V262.462H1331.12V253.457Z" fill="white"/>
<path d="M1331.12 19.3359H1329.69V28.3406H1331.12V19.3359Z" fill="white"/>
<path d="M1331.12 325.496H1329.69V334.501H1331.12V325.496Z" fill="white"/>
<path d="M1331.12 271.467H1329.69V280.471H1331.12V271.467Z" fill="white"/>
<path d="M1331.12 127.391H1329.69V136.395H1331.12V127.391Z" fill="white"/>
<path d="M1329.69 41.3209H1326.32V42.7458H1329.69V46.3501H1331.12V42.7458H1335.32V41.3209H1331.12V37.3457H1329.69V41.3209Z" fill="white"/>
<path d="M1331.12 109.383H1329.69V118.387H1331.12V109.383Z" fill="white"/>
<path d="M1331.12 91.373H1329.69V100.378H1331.12V91.373Z" fill="white"/>
<path d="M1331.12 1.32812H1329.69V10.3328H1331.12V1.32812Z" fill="white"/>
<path d="M1331.12 181.42H1329.69V190.425H1331.12V181.42Z" fill="white"/>
<path d="M1331.12 145.4H1329.69V154.405H1331.12V145.4Z" fill="white"/>
<path d="M1331.12 163.41H1329.69V172.415H1331.12V163.41Z" fill="white"/>
<path d="M1331.12 73.3652H1329.69V82.3699H1331.12V73.3652Z" fill="white"/>
<path d="M1331.12 55.3535H1329.69V64.3582H1331.12V55.3535Z" fill="white"/>
<path d="M1331.12 559.613H1329.69V568.618H1331.12V559.613Z" fill="white"/>
<path d="M1331.12 541.604H1329.69V550.608H1331.12V541.604Z" fill="white"/>
<path d="M1331.12 433.547H1329.69V442.551H1331.12V433.547Z" fill="white"/>
<path d="M1331.12 307.484H1329.69V316.489H1331.12V307.484Z" fill="white"/>
<path d="M1331.12 217.439H1329.69V226.444H1331.12V217.439Z" fill="white"/>
<path d="M1331.12 343.502H1329.69V352.506H1331.12V343.502Z" fill="white"/>
<path d="M1331.12 397.531H1329.69V406.536H1331.12V397.531Z" fill="white"/>
<path d="M1331.12 415.539H1329.69V424.544H1331.12V415.539Z" fill="white"/>
<path d="M1331.12 469.566H1329.69V478.571H1331.12V469.566Z" fill="white"/>
<path d="M1331.12 505.586H1329.69V514.591H1331.12V505.586Z" fill="white"/>
<path d="M1331.12 451.559H1329.69V460.563H1331.12V451.559Z" fill="white"/>
<path d="M1331.12 379.52H1329.69V388.524H1331.12V379.52Z" fill="white"/>
<path d="M1331.12 235.445H1329.69V244.45H1331.12V235.445Z" fill="white"/>
<path d="M1331.12 487.576H1329.69V496.581H1331.12V487.576Z" fill="white"/>
<path d="M1331.12 289.475H1329.69V298.479H1331.12V289.475Z" fill="white"/>
<path d="M1250.9 109.383H1249.48V118.387H1250.9V109.383Z" fill="white"/>
<path d="M1250.9 73.3652H1249.48V82.3699H1250.9V73.3652Z" fill="white"/>
<path d="M1250.9 91.373H1249.48V100.378H1250.9V91.373Z" fill="white"/>
<path d="M1250.9 55.3535H1249.48V64.3582H1250.9V55.3535Z" fill="white"/>
<path d="M1250.9 235.445H1249.48V244.45H1250.9V235.445Z" fill="white"/>
<path d="M1250.9 559.613H1249.48V568.618H1250.9V559.613Z" fill="white"/>
<path d="M1250.9 19.3359H1249.48V28.3406H1250.9V19.3359Z" fill="white"/>
<path d="M1250.9 1.32812H1249.48V10.3328H1250.9V1.32812Z" fill="white"/>
<path d="M1250.9 217.439H1249.48V226.444H1250.9V217.439Z" fill="white"/>
<path d="M1250.9 37.3457H1249.48V46.3501H1250.9V37.3457Z" fill="white"/>
<path d="M1250.9 199.428H1249.48V208.432H1250.9V199.428Z" fill="white"/>
<path d="M1250.9 271.467H1249.48V280.471H1250.9V271.467Z" fill="white"/>
<path d="M1250.9 163.41H1249.48V172.415H1250.9V163.41Z" fill="white"/>
<path d="M1250.9 145.4H1249.48V154.405H1250.9V145.4Z" fill="white"/>
<path d="M1250.9 181.42H1249.48V190.425H1250.9V181.42Z" fill="white"/>
<path d="M1250.9 127.391H1249.48V136.395H1250.9V127.391Z" fill="white"/>
<path d="M1250.9 253.457H1249.48V262.462H1250.9V253.457Z" fill="white"/>
<path d="M1250.9 451.559H1249.48V460.563H1250.9V451.559Z" fill="white"/>
<path d="M1250.9 469.566H1249.48V478.571H1250.9V469.566Z" fill="white"/>
<path d="M1250.9 433.547H1249.48V442.551H1250.9V433.547Z" fill="white"/>
<path d="M1250.9 523.596H1249.48V532.6H1250.9V523.596Z" fill="white"/>
<path d="M1250.9 541.604H1249.48V550.608H1250.9V541.604Z" fill="white"/>
<path d="M1250.9 505.586H1249.48V514.591H1250.9V505.586Z" fill="white"/>
<path d="M1250.9 415.539H1249.48V424.544H1250.9V415.539Z" fill="white"/>
<path d="M1250.9 487.576H1249.48V496.581H1250.9V487.576Z" fill="white"/>
<path d="M1250.9 307.484H1249.48V316.489H1250.9V307.484Z" fill="white"/>
<path d="M1250.9 325.496H1249.48V334.501H1250.9V325.496Z" fill="white"/>
<path d="M1250.9 289.475H1249.48V298.479H1250.9V289.475Z" fill="white"/>
<path d="M1250.9 361.512H1249.48V370.516H1250.9V361.512Z" fill="white"/>
<path d="M1250.9 397.531H1249.48V406.536H1250.9V397.531Z" fill="white"/>
<path d="M1250.9 379.52H1249.48V388.524H1250.9V379.52Z" fill="white"/>
<path d="M1250.9 343.502H1249.48V352.506H1250.9V343.502Z" fill="white"/>
<path d="M1169.73 109.383H1168.31V118.387H1169.73V109.383Z" fill="white"/>
<path d="M1169.73 1.32812H1168.31V10.3328H1169.73V1.32812Z" fill="white"/>
<path d="M1169.73 91.373H1168.31V100.378H1169.73V91.373Z" fill="white"/>
<path d="M1168.31 41.3209H1164.34V42.7458H1168.31V46.3501H1169.73V42.7458H1173.33V41.3209H1169.73V37.3457H1168.31V41.3209Z" fill="white"/>
<path d="M1169.73 55.3535H1168.31V64.3582H1169.73V55.3535Z" fill="white"/>
<path d="M1169.73 181.42H1168.31V190.425H1169.73V181.42Z" fill="white"/>
<path d="M1169.73 73.3652H1168.31V82.3699H1169.73V73.3652Z" fill="white"/>
<path d="M1169.73 163.41H1168.31V172.415H1169.73V163.41Z" fill="white"/>
<path d="M1169.73 487.576H1168.31V496.581H1169.73V487.576Z" fill="white"/>
<path d="M1169.73 505.586H1168.31V514.591H1169.73V505.586Z" fill="white"/>
<path d="M1169.73 379.52H1168.31V388.524H1169.73V379.52Z" fill="white"/>
<path d="M1169.73 397.531H1168.31V406.536H1169.73V397.531Z" fill="white"/>
<path d="M1169.73 415.539H1168.31V424.544H1169.73V415.539Z" fill="white"/>
<path d="M1169.73 433.547H1168.31V442.551H1169.73V433.547Z" fill="white"/>
<path d="M1169.73 541.604H1168.31V550.608H1169.73V541.604Z" fill="white"/>
<path d="M1169.73 19.3359H1168.31V28.3406H1169.73V19.3359Z" fill="white"/>
<path d="M1169.73 289.475H1168.31V298.479H1169.73V289.475Z" fill="white"/>
<path d="M1169.73 469.566H1168.31V478.571H1169.73V469.566Z" fill="white"/>
<path d="M1169.73 451.559H1168.31V460.563H1169.73V451.559Z" fill="white"/>
<path d="M1169.73 559.613H1168.31V568.618H1169.73V559.613Z" fill="white"/>
<path d="M1169.73 127.391H1168.31V136.395H1169.73V127.391Z" fill="white"/>
<path d="M1169.73 253.457H1168.31V262.462H1169.73V253.457Z" fill="white"/>
<path d="M1169.73 145.4H1168.31V154.405H1169.73V145.4Z" fill="white"/>
<path d="M1169.73 271.467H1168.31V280.471H1169.73V271.467Z" fill="white"/>
<path d="M1169.73 217.439H1168.31V226.444H1169.73V217.439Z" fill="white"/>
<path d="M1169.73 343.502H1168.31V352.506H1169.73V343.502Z" fill="white"/>
<path d="M1169.73 325.496H1168.31V334.501H1169.73V325.496Z" fill="white"/>
<path d="M1169.73 307.484H1168.31V316.489H1169.73V307.484Z" fill="white"/>
<path d="M1169.73 235.445H1168.31V244.45H1169.73V235.445Z" fill="white"/>
</g>
</g>
<defs>
<clipPath id="clip0_497_32751">
<rect width="1360" height="570" fill="white"/>
</clipPath>
<clipPath id="clip1_497_32751">
<rect width="569.593" height="569.945" fill="white" transform="translate(-0.0141602)"/>
</clipPath>
<clipPath id="clip2_497_32751">
<rect width="569.593" height="569.945" fill="white" transform="translate(554.59)"/>
</clipPath>
<clipPath id="clip3_497_32751">
<rect width="235.832" height="570" fill="white" transform="translate(1123.18)"/>
</clipPath>
</defs>
</svg>
