<svg width="569" height="290" viewBox="0 0 569 290" fill="none" xmlns="http://www.w3.org/2000/svg">
<mask id="mask0_497_34324" style="mask-type:alpha" maskUnits="userSpaceOnUse" x="0" y="0" width="569" height="290">
<rect width="568.323" height="290" fill="#D9D9D9"/>
</mask>
<g mask="url(#mask0_497_34324)">
<path d="M-0.000829923 289.838C-0.000826071 245.924 10.3559 202.624 30.2336 163.434C50.1112 124.243 78.9531 90.2603 114.432 64.2265L186.553 161.888C166.432 176.653 150.075 195.925 138.802 218.151C127.529 240.377 121.655 264.933 121.655 289.838L-0.000829923 289.838Z" fill="#B92F2F"/>
<path d="M118.92 60.3988C163.155 28.6493 215.697 10.4077 270.148 7.89582C324.598 5.38397 378.606 18.7103 425.593 46.2517L363.929 150.788C337.281 135.169 306.652 127.611 275.772 129.036C244.892 130.46 215.093 140.805 190.007 158.811L118.92 60.3988Z" fill="#F09302"/>
<path d="M430.681 49.7499C464.419 69.9205 493.533 96.9272 516.139 129.023L416.573 198.706C403.753 180.504 387.241 165.188 368.107 153.748L430.681 49.7499Z" fill="white"/>
<path d="M518.888 133.654C550.316 179.233 567.507 233.065 568.295 288.367L446.651 290.088C446.205 258.725 436.455 228.196 418.631 202.347L518.888 133.654Z" fill="#7DD167"/>
</g>
</svg>
