<svg width="99" height="99" viewBox="0 0 99 99" fill="none" xmlns="http://www.w3.org/2000/svg">
<rect width="99" height="99" rx="49.5" fill="#121315"/>
<g clip-path="url(#clip0_497_34378)">
<path d="M49.5 73.5059C62.7581 73.5059 73.5059 62.7581 73.5059 49.5C73.5059 36.2419 62.7581 25.4941 49.5 25.4941C36.2419 25.4941 25.4941 36.2419 25.4941 49.5C25.4941 62.7581 36.2419 73.5059 49.5 73.5059Z" stroke="white" stroke-width="1.5" stroke-miterlimit="10" stroke-linecap="round" stroke-linejoin="round"/>
<path d="M49.5 67.5293C59.4573 67.5293 67.5293 59.4573 67.5293 49.5C67.5293 39.5427 59.4573 31.4707 49.5 31.4707C39.5427 31.4707 31.4707 39.5427 31.4707 49.5C31.4707 59.4573 39.5427 67.5293 49.5 67.5293Z" stroke="white" stroke-width="1.5" stroke-miterlimit="10" stroke-linecap="round" stroke-linejoin="round"/>
<path d="M43.6612 66.069C45.2964 66.069 46.622 64.7434 46.622 63.1082C46.622 61.4731 45.2964 60.1475 43.6612 60.1475C42.026 60.1475 40.7004 61.4731 40.7004 63.1082C40.7004 64.7434 42.026 66.069 43.6612 66.069Z" stroke="white" stroke-width="1.5" stroke-miterlimit="10" stroke-linecap="round" stroke-linejoin="round"/>
<path d="M49.5 53.5683C51.7469 53.5683 53.5683 51.7469 53.5683 49.5C53.5683 47.2531 51.7469 45.4316 49.5 45.4316C47.2531 45.4316 45.4316 47.2531 45.4316 49.5C45.4316 51.7469 47.2531 53.5683 49.5 53.5683Z" stroke="white" stroke-width="1.5" stroke-miterlimit="10" stroke-linecap="round" stroke-linejoin="round"/>
<path d="M33.6704 48.3281C32.8785 48.3281 32.1333 48.5282 31.4826 48.8804C31.4756 49.0864 31.4707 49.2928 31.4707 49.5004C31.4707 52.3813 32.151 55.106 33.3578 57.524C33.4612 57.5309 33.5652 57.5357 33.6704 57.5357C36.213 57.5357 38.2741 55.4745 38.2741 52.9319C38.2741 50.3892 36.213 48.3281 33.6704 48.3281Z" stroke="white" stroke-width="1.5" stroke-miterlimit="10" stroke-linecap="round" stroke-linejoin="round"/>
<path d="M60.2729 39.3016C61.4292 38.1453 61.4292 36.2707 60.2729 35.1144C59.1167 33.9582 57.242 33.9582 56.0858 35.1144C54.9295 36.2707 54.9295 38.1453 56.0858 39.3016C57.242 40.4578 59.1167 40.4578 60.2729 39.3016Z" stroke="white" stroke-width="1.5" stroke-miterlimit="10" stroke-linecap="round" stroke-linejoin="round"/>
<path d="M66.0675 56.593C66.7759 55.1192 66.1553 53.3502 64.6815 52.6418C63.2077 51.9334 61.4387 52.5539 60.7304 54.0277C60.022 55.5015 60.6425 57.2705 62.1163 57.9789C63.5901 58.6873 65.3591 58.0668 66.0675 56.593Z" stroke="white" stroke-width="1.5" stroke-miterlimit="10" stroke-linecap="round" stroke-linejoin="round"/>
<path d="M42.7938 39.3953C43.95 38.2391 43.95 36.3644 42.7938 35.2082C41.6375 34.0519 39.7629 34.0519 38.6066 35.2082C37.4504 36.3644 37.4504 38.2391 38.6066 39.3953C39.7629 40.5516 41.6375 40.5516 42.7938 39.3953Z" stroke="white" stroke-width="1.5" stroke-miterlimit="10" stroke-linecap="round" stroke-linejoin="round"/>
<circle cx="49.5" cy="36.5234" r="1.49414" fill="white"/>
<circle cx="59.0903" cy="45.3535" r="1.49414" fill="white"/>
<path d="M55.5897 58.0947C55.5897 59.5315 54.4249 60.6962 52.9882 60.6962" stroke="white" stroke-width="1.5" stroke-miterlimit="10" stroke-linecap="round" stroke-linejoin="round"/>
<path d="M40.0389 46.7509C40.0389 45.3141 41.2037 44.1494 42.6404 44.1494" stroke="white" stroke-width="1.5" stroke-miterlimit="10" stroke-linecap="round" stroke-linejoin="round"/>
</g>
<defs>
<clipPath id="clip0_497_34378">
<rect width="51" height="51" fill="white" transform="translate(24 24)"/>
</clipPath>
</defs>
</svg>
