<svg width="32" height="32" viewBox="0 0 32 32" fill="none" xmlns="http://www.w3.org/2000/svg">
<path d="M2.13018 23.2741C2.65782 23.2662 3.25743 23.2048 3.77206 23.3094L3.84696 23.4089C3.84114 23.9895 3.78288 24.6431 3.87231 25.2162L3.83478 25.2383L2.04587 25.2354C2.03472 24.5939 2.04706 23.9609 2.08084 23.3201L2.13018 23.2741Z" fill="#2C213A"/>
<path d="M2.16056 6.75684C2.22774 7.38353 2.16671 8.01278 2.2303 8.63315L2.23683 8.69724C2.0867 9.12173 2.15301 9.62914 2.15561 10.0761C2.15458 14.472 2.21952 18.8798 2.13026 23.2741L2.08092 23.3202C1.45319 23.1884 0.672609 23.2736 0.0263856 23.2733L0 8.6064L2.11159 8.61255C2.10466 8.0013 2.06081 7.3609 2.16056 6.75684Z" fill="#2C213A"/>
<path d="M27.7629 6.72888L29.7601 6.73611L29.77 8.51267C30.4915 8.54199 31.2153 8.55946 31.936 8.60368C32.0729 13.4759 31.9387 18.3598 31.9966 23.2339C31.2806 23.2376 30.559 23.222 29.8441 23.2531C29.762 22.092 29.8077 20.9048 29.8103 19.7405L29.83 12.6323C29.8337 11.2991 29.8903 9.941 29.8027 8.61069L27.7731 8.62267C27.7613 7.99205 27.766 7.35987 27.7629 6.72888Z" fill="#2C213A"/>
<path d="M4.05432 4.59055C11.9333 4.58456 19.8245 4.49612 27.7021 4.60562C27.7038 5.2904 27.6603 6.00773 27.7215 6.68843L5.01315 6.73538C4.69576 6.74686 4.37378 6.72287 4.05639 6.71089L4.05432 4.59055Z" fill="#2C213A"/>
<path d="M5.08273 25.2404L20.7266 25.2092L25.4039 25.1847C26.1961 25.1804 27.066 25.1038 27.8505 25.2048C27.9177 25.4947 27.9182 25.7509 27.9109 26.0476L27.897 27.4416L3.88471 27.449C3.88558 26.7265 3.95053 25.9502 3.83484 25.2383L3.87237 25.2162C4.2761 25.2297 4.67863 25.2438 5.08273 25.2404Z" fill="#2C213A"/>
<path d="M27.773 8.62269L29.8026 8.61072C29.8902 9.94103 29.8336 11.2991 29.8299 12.6324L29.8102 19.7405C29.8076 20.9048 29.7619 22.0921 29.844 23.2531L29.8556 25.1147C29.2205 25.1238 28.5835 25.122 27.949 25.1438L27.9107 26.0476C27.9181 25.7509 27.9176 25.4947 27.8504 25.2048C27.0659 25.1038 26.196 25.1804 25.4038 25.1847L20.7265 25.2092L5.08263 25.2404L5.02197 25.0543C6.07312 24.9438 7.17725 25.2383 8.19178 25.0958C9.26675 24.9446 8.70538 23.7593 9.18368 23.094C9.75843 22.7578 15.7133 22.9295 16.8855 22.928L16.9161 21.369C17.8431 21.3759 18.807 21.4357 19.7214 21.269C20.3253 20.6993 20.3401 20.2452 20.6115 19.5106C20.7044 19.2594 20.7947 19.2705 21.0333 19.1694C21.0261 18.5907 21.0358 18.0219 21.0741 17.4445C21.1164 17.4017 21.1267 17.3361 21.1503 17.2807C21.0137 16.6384 21.1016 15.8614 21.107 15.202C21.7424 15.2114 22.3775 15.196 23.0127 15.184L23.0257 12.4747C23.037 12.2627 23.0048 12.0667 22.9728 11.8583C22.8832 11.4751 22.9171 11.0402 22.9138 10.6469C23.4751 10.6536 24.0356 10.6685 24.5965 10.686C24.6635 10.0168 24.62 9.31401 24.6189 8.6407C25.3126 8.63384 26.0178 8.60147 26.7081 8.67616L26.7638 8.67051C27.1101 8.68801 27.4292 8.66708 27.773 8.62269Z" fill="#F2AA4E"/>
<path d="M27.9526 23.2587C28.5827 23.2676 29.2137 23.2572 29.844 23.2531L29.8556 25.1146C29.2205 25.1237 28.5835 25.122 27.949 25.1437C27.9719 24.5178 27.9533 23.8854 27.9526 23.2587Z" fill="#2C213A"/>
<path d="M21.1503 17.2806C21.7671 17.2355 22.3766 17.2139 22.9951 17.2115C22.9891 17.7645 23.0249 18.3628 22.9339 18.9074L24.7192 18.9204C24.7146 19.5181 24.7628 20.1729 24.6793 20.7617L25.2625 20.7604L26.5616 20.7732L26.5275 22.9702H24.4673C24.472 22.2984 24.444 21.6055 24.5187 20.9386L24.3976 20.821C23.8579 20.7491 23.3029 20.8049 22.7602 20.8296L22.7679 19.1509L21.0333 19.1692C21.0261 18.5905 21.0359 18.0218 21.0741 17.4444C21.1164 17.4016 21.1267 17.336 21.1503 17.2806Z" fill="#2C213A"/>
<path d="M27.773 8.62269L29.8027 8.61072C29.7945 8.9353 29.7866 9.25265 29.8097 9.57706C29.8255 9.79709 29.8005 9.91605 29.7174 10.1186C29.5052 10.2803 29.3736 10.2467 29.1116 10.2583C28.4765 10.3211 27.8482 10.2901 27.2149 10.3285C27.4241 11.6808 27.5106 18.238 27.2736 19.5437C27.202 19.9389 27.0766 20.1959 26.8428 20.5215L26.6948 20.7244C26.2141 20.7102 25.7384 20.6778 25.2625 20.7606L24.6793 20.7619C24.7627 20.1731 24.7146 19.5183 24.7192 18.9206L22.9339 18.9076C23.0249 18.363 22.9891 17.7647 22.9951 17.2117C22.3766 17.2141 21.767 17.2357 21.1503 17.2808C21.0137 16.6385 21.1016 15.8615 21.107 15.2021C21.7424 15.2115 22.3775 15.1961 23.0127 15.1841L23.0257 12.4748C23.037 12.2628 23.0048 12.0668 22.9728 11.8584C22.8832 11.4752 22.9171 11.0403 22.9138 10.647C23.4751 10.6537 24.0356 10.6686 24.5965 10.6861C24.6635 10.0169 24.62 9.31409 24.6189 8.64078C25.3126 8.63392 26.0178 8.60155 26.7081 8.67624L26.7638 8.67059C27.1102 8.68801 27.4293 8.66708 27.773 8.62269Z" fill="#F49631"/>
<path d="M24.5966 10.6859L24.628 10.9373L24.7143 10.8828C24.7923 11.4153 24.787 11.9463 24.7897 12.4832L23.0258 12.4747C23.0372 12.2627 23.0049 12.0666 22.9729 11.8583C22.8833 11.4751 22.9172 11.0401 22.9139 10.6469C23.4752 10.6535 24.0357 10.6684 24.5966 10.6859Z" fill="#2C213A"/>
<path d="M24.619 8.64067C25.3127 8.63381 26.0179 8.60144 26.7082 8.67613C26.7116 9.4262 26.7147 10.1751 26.6899 10.9248C26.0347 10.8938 25.3693 10.8384 24.7143 10.8828L24.6279 10.9373L24.5966 10.6859C24.6636 10.0168 24.6201 9.31398 24.619 8.64067Z" fill="#2C213A"/>
<path d="M27.773 8.62269L29.8027 8.61072C29.7945 8.9353 29.7866 9.25265 29.8097 9.57706C29.8255 9.79709 29.8004 9.91605 29.7173 10.1186C29.5052 10.2803 29.3735 10.2467 29.1115 10.2583C28.3381 10.2127 27.548 10.2449 26.7729 10.2444L26.7638 8.67055C27.1102 8.68801 27.4293 8.66708 27.773 8.62269Z" fill="#FCC64B"/>
<path d="M3.99381 6.7253L4.05637 6.71094C4.37372 6.72291 4.69574 6.74694 5.01313 6.73542L27.7214 6.68848L27.7629 6.7289C27.766 7.35989 27.7612 7.99207 27.773 8.62269C27.4292 8.66707 27.1102 8.68801 26.7638 8.6705L26.7081 8.67615C26.0178 8.60142 25.3126 8.63384 24.6189 8.64069C24.62 9.314 24.6635 10.0168 24.5965 10.686C24.0356 10.6685 23.475 10.6536 22.9138 10.6469C22.9171 11.0402 22.8832 11.4751 22.9728 11.8583C23.0048 12.0667 23.037 12.2627 23.0257 12.4747L23.0127 15.184C22.3775 15.196 21.7424 15.2114 21.107 15.202C21.1016 15.8615 21.0137 16.6384 21.1503 17.2807C21.1266 17.3361 21.1164 17.4017 21.074 17.4445C21.0358 18.0219 21.0261 18.5907 21.0332 19.1694C20.7947 19.2705 20.7044 19.2593 20.6115 19.5106C20.3401 20.2452 20.3253 20.6993 19.7214 21.269C18.807 21.4357 17.8431 21.3759 16.9161 21.369L16.8855 22.928C15.7133 22.9295 9.75842 22.7578 9.18367 23.094C8.70537 23.7592 9.26679 24.9446 8.19177 25.0958C7.17729 25.2383 6.07316 24.9437 5.02197 25.0543L5.08262 25.2404C4.67856 25.2438 4.27599 25.2297 3.87226 25.2162C3.78278 24.6432 3.84109 23.9896 3.84691 23.409L3.772 23.3094C3.25737 23.2049 2.65777 23.2663 2.13013 23.2741C2.2194 18.8798 2.15444 14.472 2.15547 10.0761C2.15291 9.62916 2.0866 9.12171 2.23669 8.69725L2.23017 8.63317C2.16658 8.01284 2.22761 7.38359 2.16043 6.75685C2.77404 6.76371 3.3812 6.75771 3.99381 6.7253Z" fill="#F2AA4E"/>
<path d="M22.9729 11.8583C23.0049 12.0667 23.0371 12.2627 23.0258 12.4747L23.0128 15.184C22.3776 15.196 21.7424 15.2114 21.107 15.202C21.1017 15.8614 21.0138 16.6384 21.1504 17.2807C21.1267 17.336 21.1164 17.4017 21.0741 17.4445C20.6231 17.1451 19.0324 17.3301 18.4457 17.336L18.368 17.1893C18.4592 16.5388 18.3864 15.8018 18.3814 15.1418L19.8283 15.1605C19.8393 14.7285 19.8739 14.2958 19.8998 13.8645L21.094 13.8538C21.1751 13.3855 21.1963 12.9112 21.2282 12.4375C21.7394 12.4212 22.229 12.5316 22.7316 12.4047C22.9624 12.22 22.9278 12.1421 22.9729 11.8583Z" fill="#2C213A"/>
<path d="M16.8069 17.1799L18.368 17.1893L18.4457 17.336C19.0324 17.3301 20.6231 17.1451 21.0741 17.4445C21.0359 18.0219 21.0261 18.5906 21.0333 19.1693C20.7947 19.2705 20.7045 19.2593 20.6116 19.5105C20.3402 20.2452 20.3254 20.6993 19.7215 21.2689C18.8071 21.4357 17.8432 21.3759 16.9162 21.369C16.9191 21.0766 16.8885 20.8144 16.8389 20.5266L14.9806 20.5364C14.9803 20.0204 14.996 19.5032 15.0039 18.9872L15.0988 18.7678C15.6645 18.7867 16.2274 18.7644 16.7926 18.7445C16.8262 18.2278 16.8065 17.6982 16.8069 17.1799Z" fill="#F49631"/>
<path d="M16.8069 17.1799L18.368 17.1893L18.4457 17.336L18.4563 18.927L16.8231 18.908C16.8271 19.4442 16.8074 19.9921 16.8389 20.5266L14.9806 20.5364C14.9803 20.0204 14.996 19.5032 15.0039 18.9872L15.0988 18.7678C15.6645 18.7867 16.2274 18.7644 16.7926 18.7445C16.8262 18.2278 16.8065 17.6982 16.8069 17.1799Z" fill="#2C213A"/>
<path d="M3.99378 6.7253L4.05633 6.71094C4.37368 6.72291 4.6957 6.74694 5.01309 6.73542C5.00983 7.41505 4.91676 8.01965 4.81655 8.68764L4.8827 8.71179L6.37396 8.72377L6.36128 10.2239L7.68957 10.2236L7.651 11.4412L9.02075 11.4342L8.99882 12.8188L10.7175 12.7979L10.6755 14.2177L11.9506 14.1694L11.9379 15.4713L13.3246 15.4141C13.3217 15.9644 13.3663 16.572 13.2661 17.112C13.8558 17.2431 14.5119 17.1811 15.1141 17.1698L15.0989 18.7679L15.0039 18.9873C14.9961 19.5033 14.9803 20.0205 14.9807 20.5365L16.839 20.5267C16.8885 20.8146 16.9192 21.0768 16.9163 21.3691L16.8856 22.9281C15.7134 22.9296 9.75855 22.7579 9.1838 23.0941C8.7055 23.7593 9.26692 24.9447 8.1919 25.0958C7.17741 25.2384 6.07329 24.9438 5.02209 25.0544L5.08275 25.2405C4.67869 25.2439 4.27611 25.2298 3.87238 25.2163C3.78291 24.6433 3.84121 23.9897 3.84703 23.4091L3.77213 23.3095C3.2575 23.205 2.65789 23.2663 2.13025 23.2742C2.21952 18.8799 2.15457 14.4721 2.1556 10.0762C2.15304 9.62924 2.08673 9.1218 2.23682 8.69734L2.2303 8.63326C2.16671 8.01293 2.22773 7.38367 2.16056 6.75693C2.774 6.76371 3.38116 6.75771 3.99378 6.7253Z" fill="#FAAB40"/>
<path d="M3.84701 23.409L3.94209 23.3033C4.32221 23.2541 4.69336 23.2832 5.07434 23.3034C5.06492 23.8734 5.10159 24.492 5.02207 25.0543L5.08272 25.2404C4.67866 25.2438 4.27609 25.2298 3.87236 25.2163C3.78292 24.6432 3.84118 23.9896 3.84701 23.409Z" fill="#FCC64B"/>
<path d="M2.15557 10.0761C2.15301 9.62917 2.0867 9.12172 2.23679 8.69727C2.84292 8.74442 3.47749 8.68666 4.07351 8.76924L4.03891 10.0685L2.15557 10.0761Z" fill="white"/>
<path d="M12.9777 17.2839C12.9986 17.1974 13.0412 17.1501 13.0925 17.0786L13.2661 17.1119C13.8558 17.243 14.5119 17.1809 15.1141 17.1696L15.0989 18.7678L15.004 18.9871C14.4114 18.9491 13.7989 18.9784 13.2041 18.9769C13.215 18.5541 13.258 18.099 13.2123 17.6793C13.1857 17.4359 13.1592 17.4306 12.9777 17.2839Z" fill="#2C213A"/>
<path d="M3.99378 6.7253L4.05634 6.71094C4.37369 6.72291 4.69571 6.74694 5.0131 6.73542C5.00984 7.41505 4.91677 8.01965 4.81656 8.68764C4.56824 8.72327 4.32493 8.76646 4.07351 8.76923C3.4775 8.68665 2.84292 8.74437 2.23679 8.69725L2.23026 8.63317C2.16667 8.01284 2.2277 7.38359 2.16052 6.75685C2.774 6.76371 3.38117 6.75771 3.99378 6.7253Z" fill="#2C213A"/>
<path d="M3.99387 6.7253L4.05642 6.71094C4.37378 6.72291 4.69579 6.74694 5.01319 6.73542C5.00993 7.41505 4.91686 8.01965 4.81665 8.68764C4.56833 8.72327 4.32501 8.76646 4.0736 8.76923C3.47759 8.68665 2.84301 8.74437 2.23687 8.69725L2.23035 8.63317L3.9944 8.64156L3.99387 6.7253Z" fill="#EFDCC2"/>
<path d="M8.91981 19.0824C8.9265 18.539 8.71778 17.6383 9.07027 17.2067L9.40426 17.208C9.82344 17.323 10.1513 17.2767 10.5735 17.2706C10.6995 17.2687 10.6724 17.2774 10.8264 17.3299L10.8321 19.2283C10.2868 19.2197 9.72215 19.2386 9.18081 19.1775C8.88587 19.4898 9.00978 20.354 9.02213 20.7862L9.02436 20.8629L7.71853 20.8436L7.72245 22.2416C7.43318 22.2358 7.03408 22.172 6.78386 22.3321C6.64694 22.5917 6.68311 22.9156 6.68344 23.2035C6.16522 23.2124 5.6422 23.2368 5.12418 23.2275C5.13 22.4169 5.11597 21.6059 5.10754 20.7951L6.84005 20.802L6.82977 19.0713L8.91981 19.0824Z" fill="#2C213A"/>
<path d="M4.88265 8.71179L6.37391 8.72377L6.36123 10.2239L7.68952 10.2236L7.65095 11.4412L9.0207 11.4342L8.99877 12.8188L10.7174 12.7979L10.6754 14.2177L11.9506 14.1694L11.9379 15.4713L13.3246 15.4141C13.3217 15.9644 13.3663 16.572 13.266 17.112L13.0924 17.0788C13.0412 17.1502 12.9985 17.1975 12.9776 17.2841C12.3495 17.4066 11.4548 17.4552 10.8264 17.33C10.6724 17.2775 10.6994 17.2688 10.5735 17.2707C10.1512 17.2768 9.82341 17.3231 9.40424 17.2081L10.6838 17.192L10.6835 15.2665C10.0723 15.2374 9.45085 15.264 8.8384 15.2696L8.84732 13.5124L7.52539 13.5117L7.52094 12.3061L6.27816 12.2583L6.28348 10.9335C5.79849 10.9259 5.31268 10.9004 4.8279 10.8817C4.82819 10.1804 4.74644 9.39844 4.88265 8.71179Z" fill="#2C213A"/>
</svg>
