<svg width="32" height="32" viewBox="0 0 32 32" fill="none" xmlns="http://www.w3.org/2000/svg">
<rect width="20" height="32" transform="translate(6)" fill="#2C213A"/>
<path d="M8 2.05941C13.4318 2.07688 18.8602 2.05941 24.292 2L24.2643 3.93601L24.2469 23.6665L20.6731 23.656C17.0646 23.6945 13.4526 23.6176 9.84411 23.6805L8.07279 23.6979L8 2.0629V2.05941Z" fill="#F2AA4E"/>
<path d="M8.00346 23.7155L9.77479 23.698V25.5082C9.19937 25.4488 8.58582 25.4733 8 25.4628V23.7155H8.00346Z" fill="#FEFEFE"/>
<path d="M8.08783 25.5082C8.67365 25.5187 9.28374 25.4942 9.86609 25.5536C10.6876 25.7912 13.1938 25.6375 14.1679 25.6375H24.255C24.255 27.1646 24.203 28.7197 24.2793 30.2503C23.3295 30.467 22.0608 30.3132 21.0764 30.3063C19.5824 30.2958 8.69792 30.0896 8.07744 30.3272C7.90759 28.8176 8.06704 27.0458 8.08783 25.5082Z" fill="#F2AA4E"/>
<path d="M14.6212 26.6497L17.5364 26.6357L17.5503 28.4949H14.6073L14.6212 26.6532V26.6497Z" fill="#2C213A"/>
<path d="M12.0734 3.57152C13.7338 3.42125 15.4427 3.49814 17.11 3.49115C18.1707 3.49115 19.3944 3.36534 20.4343 3.54706C21.131 3.59948 21.9283 3.48066 22.5939 3.6484C22.5453 10.2252 22.5349 16.8056 22.5696 23.3824C21.9144 23.3824 21.2558 23.3684 20.6007 23.3929L9.74398 23.4033C9.66772 21.0934 9.74398 18.759 9.76131 16.4456L9.8757 3.75324C10.5967 3.74625 11.3177 3.72179 12.0353 3.67985C12.0214 4.24598 12.0283 4.80512 12.0491 5.36775C12.0803 4.77017 12.0699 4.1656 12.0769 3.56802L12.0734 3.57152Z" fill="#FEFEFE"/>
<path d="M12.0735 3.57152C13.7339 3.42125 15.4428 3.49814 17.1101 3.49115C18.1708 3.49115 19.3945 3.36534 20.4344 3.54706V5.36775C20.4378 5.36775 12.0492 5.36775 12.0492 5.36775C12.0804 4.77017 12.07 4.1656 12.0769 3.56802L12.0735 3.57152Z" fill="#F2AA4E"/>
</svg>
