<svg width="60" height="60" viewBox="0 0 60 60" fill="none" xmlns="http://www.w3.org/2000/svg">
<g clip-path="url(#clip0_0_1427)">
<path d="M60 30C60 46.5687 46.5688 59.9999 30 59.9999C13.4317 59.9999 6.10352e-05 46.5687 6.10352e-05 30C6.10352e-05 13.4317 13.4317 0 30 0C46.5688 0 60 13.4317 60 30Z" fill="#4A3279"/>
<path d="M46.9966 36.611C52.7823 30.0833 58.4293 7.80122 59.9687 1.37194C60.1619 0.564899 59.4354 -0.161571 58.6289 0.0316047C52.1991 1.57106 29.917 7.21803 23.3893 13.0037C15.7323 19.79 14.0098 33.0922 14.0098 33.0922L20.4592 39.5411L26.9082 45.9901C26.9082 45.9906 40.2103 44.268 46.9966 36.611Z" fill="white"/>
<path d="M27.5325 17.1469C33.1086 12.2049 50.1785 7.36406 59.0454 5.09813C59.4318 3.58476 59.7444 2.30898 59.9687 1.37148C60.1619 0.564899 59.4354 -0.161571 58.6284 0.0316054C52.1991 1.57106 29.917 7.21803 23.3893 13.0037C15.7323 19.79 14.0098 33.0922 14.0098 33.0922L18.153 37.2354C18.1534 37.2354 19.8755 23.9333 27.5325 17.1469Z" fill="#F2F2F2"/>
<path d="M2.73535 42.5289C5.72638 49.0273 10.9723 54.2733 17.4712 57.2648L26.2177 48.5178L11.4818 33.782L2.73535 42.5289Z" fill="#465365"/>
<path d="M5.80832 47.7419L15.6255 37.9252L11.4823 33.782L2.73535 42.5289C3.58496 44.3755 4.61722 46.1205 5.80832 47.7419Z" fill="#3E4959"/>
<path d="M23.5345 52.7508L7.24915 36.4654C6.76347 35.9797 6.76347 35.1928 7.24915 34.7071L12.4077 29.5486C12.8934 29.0629 13.6803 29.0629 14.166 29.5486L30.4518 45.8344C30.937 46.3197 30.937 47.107 30.4518 47.5922L25.2928 52.7512C24.8071 53.2365 24.0202 53.2365 23.5345 52.7508Z" fill="#21D8DE"/>
<path d="M11.3924 38.8503L16.5509 33.6918C17.0366 33.2061 17.8235 33.2061 18.3092 33.6918L14.166 29.5486C13.6803 29.0629 12.8934 29.0629 12.4077 29.5486L7.24915 34.7071C6.76347 35.1928 6.76347 35.9797 7.24915 36.4654L11.3924 40.6086C10.9067 40.1229 10.9067 39.336 11.3924 38.8503Z" fill="#16C6CC"/>
<path d="M46.9965 36.611C52.7822 30.0833 58.4292 7.80122 59.9686 1.37148C60.1618 0.564899 59.4353 -0.161571 58.6288 0.0316054C54.3528 1.05516 43.0676 3.89558 34.0661 7.38557C41.0406 4.92693 42.906 14.5097 36.3187 21.5941C29.7315 28.6784 32.8828 36.3043 37.8944 36.8417C42.618 37.348 42.315 40.5331 39.6888 42.0012C42.3544 40.6599 44.9668 38.9012 46.9965 36.611Z" fill="#FF6D3B"/>
<path d="M40.2484 10.762C46.8118 8.3693 54.1681 6.34462 59.0447 5.09813C59.4315 3.58476 59.7437 2.30898 59.968 1.37148C60.1611 0.564899 59.4347 -0.161571 58.6281 0.0316054C54.3521 1.05516 43.0669 3.89558 34.0654 7.38557C37.4936 6.17708 39.6863 7.87904 40.2484 10.762Z" fill="#F15424"/>
</g>
<defs>
<clipPath id="clip0_0_1427">
<rect width="60" height="60" fill="white"/>
</clipPath>
</defs>
</svg>
