<svg width="60" height="60" viewBox="0 0 60 60" fill="none" xmlns="http://www.w3.org/2000/svg">
<g clip-path="url(#clip0_0_1577)">
<path d="M30 60C46.5685 60 60 46.5685 60 30C60 13.4315 46.5685 0 30 0C13.4315 0 0 13.4315 0 30C0 46.5685 13.4315 60 30 60Z" fill="#4A3279"/>
<path d="M49.1246 33.3095V26.6813L44.9246 25.9595C44.5777 24.6657 44.0621 23.4376 43.4059 22.3032L45.8621 18.8157L41.1746 14.1282L37.6871 16.5845C36.5527 15.9282 35.3246 15.422 34.0309 15.0657L33.309 10.8657H26.6809L25.959 15.0657C24.6652 15.4126 23.4371 15.9282 22.3027 16.5845L18.8152 14.1282L14.1277 18.8157L16.584 22.3032C15.9277 23.4376 15.4215 24.6657 15.0652 25.9595L10.8652 26.6813V33.3095L15.0652 34.0313C15.4121 35.3251 15.9277 36.5532 16.584 37.6876L14.1277 41.1751L18.8152 45.8626L22.3027 43.4063C23.4371 44.0626 24.6652 44.5688 25.959 44.9251L26.6809 49.1251H33.309L34.0309 44.9251C35.3246 44.5782 36.5527 44.0626 37.6871 43.4063L41.1746 45.8626L45.8621 41.1751L43.4059 37.6876C44.0621 36.5532 44.5684 35.3251 44.9246 34.0313L49.1246 33.3095ZM29.9996 37.697C25.7527 37.697 22.3027 34.2563 22.3027 30.0001C22.3027 25.7532 25.7434 22.3032 29.9996 22.3032C34.2465 22.3032 37.6965 25.7438 37.6965 30.0001C37.6965 34.247 34.2465 37.697 29.9996 37.697Z" fill="#DBDFE0"/>
<path d="M29.9996 19.9878C24.4683 19.9878 19.9871 24.469 19.9871 30.0003C19.9871 35.5315 24.4683 40.0128 29.9996 40.0128C35.5308 40.0128 40.0121 35.5315 40.0121 30.0003C40.0121 24.469 35.5308 19.9878 29.9996 19.9878ZM29.9996 36.694C26.3058 36.694 23.3058 33.7034 23.3058 30.0003C23.3058 26.3065 26.2964 23.3065 29.9996 23.3065C33.6933 23.3065 36.6933 26.2972 36.6933 30.0003C36.6933 33.694 33.6933 36.694 29.9996 36.694Z" fill="#788D9A"/>
</g>
<defs>
<clipPath id="clip0_0_1577">
<rect width="60" height="60" fill="white"/>
</clipPath>
</defs>
</svg>
