<svg width="60" height="60" viewBox="0 0 60 60" fill="none" xmlns="http://www.w3.org/2000/svg">
<path d="M3.66374 42.7357L49.2857 52.5583C55.0752 47.3056 58.7112 39.722 58.7112 31.2888C58.7112 15.432 45.8567 2.57764 30 2.57764C14.1432 2.57764 1.28882 15.432 1.28882 31.2888C1.28882 35.358 2.13714 39.2284 3.66374 42.7357Z" fill="#4A3279"/>
<path d="M43.6501 11.8682V16.9978C43.6501 18.2193 44.6405 19.2097 45.8621 19.2097C47.0836 19.2097 48.074 18.2193 48.074 16.9978V6.95129L43.6501 11.8682Z" fill="#FC51A3"/>
<path d="M3.66376 42.7357C8.08583 52.8955 18.2125 59.9999 30 59.9999C37.4237 59.9999 44.1891 57.1823 49.2856 52.5583C52.3006 45.7914 51.8966 37.5005 46.493 30.7362C40.5967 23.3552 33.4842 18.4546 26.5866 15.2014C20.9821 12.5581 14.9974 17.6013 16.3332 23.6524C16.8448 25.9696 16.5045 28.5025 14.8447 31.2101C13.8191 32.8833 12.2304 34.1677 10.3533 35.189C7.26997 36.8664 4.88462 39.5324 3.66376 42.7357Z" fill="#E8F8FC"/>
<path d="M33.5864 25.9385L16.0119 28.7711C15.7377 29.567 15.3534 30.3804 14.8449 31.2102C13.8192 32.8834 12.2305 34.1677 10.3534 35.189C7.27009 36.8664 4.88473 39.5325 3.66376 42.7357C5.61469 47.218 8.67657 51.1051 12.501 54.0504V54.0502L14.5351 53.172L17.2066 56.9968L17.207 56.9984C21.0588 58.9193 25.4031 60 30 60C37.4237 60 44.1891 57.1823 49.2856 52.5583C49.9227 51.1283 50.4064 49.63 50.7233 48.0927L33.5864 25.9385Z" fill="#BBF0F9"/>
<path d="M16.0115 28.7711C16.7199 30.7537 18.4444 33.3976 22.4816 31.9802C28.6299 29.8218 30.1317 38.1938 30.1317 38.1938C30.1317 38.1938 34.7335 53.39 50.723 48.0925C51.9054 42.3551 50.7543 36.071 46.4926 30.7361C40.5964 23.3551 33.4839 18.4545 26.5862 15.2013C20.9817 12.558 14.9971 17.6012 16.3329 23.6522C16.6875 25.2594 16.6321 26.9702 16.0115 28.7711Z" fill="#E8F8FC"/>
<path d="M29.8756 27.9827C27.7095 25.3911 23.5781 26.058 22.3356 29.1988C21.9233 30.2409 21.3506 31.3292 20.5592 32.4018C19.1036 34.3743 19.0829 36.5015 19.8956 38.234L19.8961 38.2334L23.1688 38.4555L24.5486 41.7497C26.0579 41.9759 27.6943 41.5916 29.1612 40.3217C29.3243 40.1805 29.4863 40.0304 29.6468 39.871C34.0847 35.4655 32.5486 31.181 29.8756 27.9827Z" fill="#4A3279"/>
<path d="M34.0645 45.475C31.2534 45.475 28.9746 47.7087 28.9746 50.4641V56.2969C28.9746 57.3714 29.8457 58.2424 30.9202 58.2424C31.9946 58.2424 32.8657 57.3714 32.8657 56.2969V55.3129C33.2503 55.4039 33.6514 55.4534 34.0645 55.4534C36.8756 55.4534 39.1545 53.2197 39.1545 50.4642C39.1545 47.7087 36.8756 45.475 34.0645 45.475Z" fill="#FC51A3"/>
<path d="M42.404 36.0365C39.9927 36.0365 38.038 37.9525 38.038 40.316C38.038 42.6794 39.9927 44.5954 42.404 44.5954C42.7824 44.5954 43.1494 44.5481 43.4995 44.4595V44.872C43.4995 45.775 44.2316 46.5071 45.1347 46.5071C46.0377 46.5071 46.7698 45.775 46.7698 44.872V40.316C46.7698 37.9524 44.8151 36.0365 42.404 36.0365Z" fill="#FCC459"/>
<path d="M18.2077 43.7173C15.0559 43.7173 12.5009 46.2217 12.5009 49.311V54.0502C13.9643 55.1769 15.5392 56.1654 17.2065 56.9969V54.8172C17.5317 54.8737 17.8658 54.9047 18.2077 54.9047C21.3594 54.9047 23.9143 52.4003 23.9143 49.311C23.9143 46.2217 21.3594 43.7173 18.2077 43.7173Z" fill="#27A6FF"/>
<path d="M28.9746 29.0043L25.1272 29.494L19.8962 38.2335C20.7528 40.061 22.5376 41.4488 24.549 41.7503L30.1322 32.4224L28.9746 29.0043Z" fill="#E7795F"/>
<path d="M30.1318 32.4223L37.1554 20.6879L36.0209 17.4161L32.18 17.7099L25.1267 29.4938C25.4103 30.6485 26.4775 33.3748 30.1318 32.4223Z" fill="#FF8F70"/>
<path d="M37.8608 2.2887C34.2546 5.22811 34.4781 9.9053 34.4781 9.9053L37.8604 14.9754H42.9488L45.0692 4.57479L37.8608 2.2887Z" fill="#FDE36C"/>
<path d="M47.0478 1.67332C46.5646 0.590269 45.4475 -0.0784025 44.2646 0.00737871C41.3477 0.219019 39.2996 1.11574 37.8605 2.28867C37.8463 3.28523 38.2494 4.70929 40.2723 5.79574C44.9816 8.32488 40.61 12.6436 42.9484 14.9755C42.9485 14.9755 51.2256 11.0368 47.0478 1.67332Z" fill="#FD77A6"/>
<path d="M37.9617 14.2115L33.3127 13.8638L32.1804 17.7101L37.1557 20.6881L40.0106 17.8729L37.9617 14.2115Z" fill="#BBF0F9"/>
<path d="M40.0111 17.8729L42.9493 14.9755L34.4785 9.90527L33.3132 13.8637L40.0111 17.8729Z" fill="#E8F8FC"/>
</svg>
