<svg width="60" height="60" viewBox="0 0 60 60" fill="none" xmlns="http://www.w3.org/2000/svg">
<g clip-path="url(#clip0_0_1542)">
<path d="M30 60C46.5685 60 60 46.5685 60 30C60 13.4315 46.5685 0 30 0C13.4315 0 0 13.4315 0 30C0 46.5685 13.4315 60 30 60Z" fill="#4A3279"/>
<g clip-path="url(#clip1_0_1542)">
<path d="M47.2397 23.7732C41.3849 21.7838 35.7402 20.4027 30 24.1882C24.2598 20.4027 18.6151 21.7838 12.7603 23.7732C12.0408 24.0177 11.5566 24.6949 11.5566 25.4563V46.7427C11.5566 47.8901 12.6782 48.7034 13.7681 48.3449C17.9789 46.9598 22.1413 45.4011 26.2638 46.5494C27.0851 46.7782 27.833 47.2231 28.4267 47.8349C29.1589 48.5894 30.8058 48.6365 31.5536 47.8945C32.2082 47.2452 32.9952 46.7424 33.8869 46.508C37.9602 45.4374 42.0724 46.9766 46.2319 48.3449C47.3218 48.7033 48.4433 47.8901 48.4433 46.7426V25.4563C48.4434 24.6949 47.9592 24.0177 47.2397 23.7732Z" fill="#FE7AB6"/>
<path d="M45.1768 23.9089C40.0226 22.1579 35.0533 20.9422 30 24.2742C24.9466 20.9422 19.9774 22.1579 14.8232 23.9089C14.1898 24.1241 13.7636 24.7202 13.7636 25.3904V43.4732C13.7636 44.4848 14.7529 45.1984 15.7139 44.8824C20.2812 43.38 24.7839 42.4303 29.2361 45.06C29.7082 45.3389 30.2921 45.3389 30.7641 45.06C35.2162 42.4304 39.7189 43.3801 44.2864 44.8824C45.2473 45.1984 46.2366 44.4848 46.2366 43.4732V25.3904C46.2365 24.7202 45.8103 24.1241 45.1768 23.9089Z" fill="#CFDBE4"/>
<path d="M46.2365 41.8328C40.7366 39.9161 35.3325 38.1759 30 41.8328V20.5598C35.0533 17.2278 40.0226 18.4435 45.1768 20.1945C45.8102 20.4098 46.2364 21.0059 46.2364 21.6761V41.8328H46.2365Z" fill="#F7F9FA"/>
<path d="M45.1768 20.1945C41.8966 19.0801 38.6912 18.1826 35.4913 18.5362C37.7097 18.7578 39.941 19.4243 42.2081 20.1945C42.8415 20.4097 43.2677 21.0059 43.2677 21.6761V40.8431C44.2543 41.1468 45.2438 41.487 46.2364 41.8329V21.676C46.2365 21.0058 45.8103 20.4097 45.1768 20.1945Z" fill="#ECF1F5"/>
<path d="M13.7635 41.8328C19.2635 39.9161 24.6675 38.1759 30 41.8328V20.5598C24.9467 17.2278 19.9774 18.4435 14.8232 20.1945C14.1898 20.4098 13.7636 21.0059 13.7636 21.6761L13.7635 41.8328Z" fill="#F7F9FA"/>
<path d="M21.54 18.5361C23.3679 18.7381 25.1941 19.3484 27.0313 20.5598V40.3239C28.0234 40.664 29.0129 41.156 30 41.833V20.5599C27.1694 18.6934 24.3651 18.2539 21.54 18.5361Z" fill="#ECF1F5"/>
<path d="M30.2706 11.7041L30.9011 12.8569C30.9295 12.9087 30.9721 12.9513 31.0239 12.9796L32.1767 13.61C32.3908 13.7271 32.3908 14.0348 32.1767 14.152L31.0239 14.7825C30.9721 14.8108 30.9295 14.8534 30.9011 14.9052L30.2706 16.058C30.1535 16.2722 29.8459 16.2722 29.7287 16.058L29.0983 14.9052C29.0699 14.8534 29.0273 14.8108 28.9755 14.7825L27.8228 14.1521C27.6086 14.0349 27.6086 13.7273 27.8228 13.6101L28.9755 12.9797C29.0273 12.9513 29.0699 12.9087 29.0983 12.8569L29.7287 11.7042C29.8458 11.4899 30.1534 11.4899 30.2706 11.7041Z" fill="#FFD15B"/>
<path d="M38.3889 23.0981L39.0194 24.2509C39.0477 24.3027 39.0903 24.3453 39.1421 24.3737L40.2949 25.0041C40.5091 25.1212 40.5091 25.4288 40.2949 25.546L39.1421 26.1765C39.0903 26.2049 39.0477 26.2475 39.0194 26.2993L38.3889 27.452C38.2717 27.6662 37.9641 27.6662 37.8469 27.452L37.2165 26.2993C37.1882 26.2475 37.1456 26.2049 37.0937 26.1765L35.941 25.546C35.7268 25.4289 35.7268 25.1213 35.941 25.0041L37.0937 24.3737C37.1456 24.3453 37.1882 24.3027 37.2165 24.2509L37.8469 23.0981C37.9641 22.884 38.2717 22.884 38.3889 23.0981Z" fill="#FFD15B"/>
<path d="M22.1525 31.5474L22.783 32.7001C22.8113 32.7519 22.8539 32.7945 22.9057 32.8229L24.0585 33.4534C24.2727 33.5705 24.2727 33.8781 24.0585 33.9953L22.9057 34.6257C22.8539 34.6541 22.8113 34.6967 22.783 34.7485L22.1525 35.9013C22.0354 36.1155 21.7277 36.1155 21.6105 35.9013L20.9801 34.7485C20.9518 34.6967 20.9092 34.6541 20.8574 34.6257L19.7046 33.9953C19.4904 33.8782 19.4904 33.5706 19.7046 33.4534L20.8574 32.8229C20.9092 32.7945 20.9518 32.7519 20.9801 32.7001L21.6105 31.5474C21.7276 31.3332 22.0353 31.3332 22.1525 31.5474Z" fill="#FFD15B"/>
<path d="M47.4188 23.2458C47.2003 23.1715 46.9931 23.1018 46.793 23.0354V21.6758C46.793 20.7665 46.2155 19.9593 45.3558 19.6673C42.8698 18.8227 40.2064 18.0259 37.574 17.9148C34.8034 17.7977 32.3221 18.447 29.9999 19.8983C26.9064 17.9649 23.5374 17.4574 19.4321 18.3001C19.131 18.3619 18.937 18.6561 18.9989 18.9572C19.0607 19.2584 19.355 19.4522 19.6561 19.3906C23.5306 18.5953 26.5634 19.0488 29.4433 20.8632V40.8223C24.2883 37.8275 19.04 39.417 14.3201 41.0499V21.6759C14.3201 21.2436 14.5942 20.8601 15.0022 20.7215C15.9769 20.3903 16.7704 20.1384 17.4995 19.9286C17.7949 19.8436 17.9655 19.5352 17.8805 19.2398C17.7955 18.9444 17.4873 18.7736 17.1917 18.8587C16.4454 19.0735 15.6359 19.3303 14.6441 19.6674C13.7845 19.9594 13.2069 20.7666 13.2069 21.6759V23.0355C12.0435 23.4219 11 24.0665 11 25.456V46.7424C11 48.2363 12.5049 49.3462 13.942 48.8733C17.7282 47.6284 24.6148 44.7058 28.0273 48.2223C28.9827 49.207 30.9605 49.2669 31.9456 48.2894C34.0735 46.1788 37.6636 46.5476 40.3284 47.1458C40.6283 47.2134 40.9261 47.0246 40.9935 46.7246C41.0608 46.4246 40.8723 46.1269 40.5723 46.0596C37.5051 45.3709 33.5856 45.0944 31.1616 47.4991C30.6227 48.0337 29.3626 47.9999 28.8262 47.4471C25.0236 43.5283 17.8726 46.4077 13.5942 47.8159C12.874 48.0524 12.1133 47.5 12.1133 46.7424V25.456C12.1133 24.7612 12.6178 24.4079 13.2069 24.2093V43.4729C13.2069 44.8347 14.5793 45.8409 15.8877 45.4108C17.8725 44.7579 20.2152 44.0771 22.5419 43.9775C24.9056 43.8763 27.0027 44.3871 28.9529 45.539C29.593 45.9171 30.4069 45.917 31.0471 45.539C32.9974 44.387 35.0948 43.8769 37.4581 43.9775C39.7849 44.0772 42.1276 44.758 44.1123 45.4108C45.4207 45.8414 46.7931 44.8346 46.7931 43.473V24.2094C47.3823 24.4078 47.8867 24.7614 47.8867 25.4561V46.7424C47.8867 47.4999 47.126 48.0525 46.4058 47.8159C45.2105 47.4227 44.0196 47.0153 42.8139 46.6545C42.5193 46.5668 42.2092 46.7337 42.121 47.0283C42.0329 47.3228 42.2002 47.6329 42.4947 47.7211C43.6908 48.079 44.8722 48.4833 46.058 48.8735C47.4952 49.3459 49 48.2366 49 46.7424V25.456C49 24.4553 48.3645 23.5671 47.4188 23.2458ZM44.9978 20.7214C45.4057 20.86 45.6798 21.2436 45.6798 21.6758V41.0499C42.894 40.0861 39.9247 39.1374 36.8985 39.1374C34.7976 39.1374 32.6691 39.5948 30.5566 40.8222V20.8633C35.3656 17.84 40.1325 19.0687 44.9978 20.7214ZM45.2966 44.2235C45.0522 44.4005 44.7473 44.4478 44.4602 44.3533C40.2354 42.9638 35.3225 41.7207 30.4809 44.5805C30.1843 44.7557 29.8157 44.7557 29.5191 44.5805C24.6773 41.7207 19.7646 42.9637 15.5398 44.3533C14.9478 44.5477 14.3202 44.0974 14.3202 43.473V42.2287C17.0578 41.2803 19.5409 40.4944 21.9891 40.2975C24.9128 40.0623 27.3583 40.6962 29.6852 42.2919C29.8805 42.4243 30.135 42.4197 30.3222 42.2869C32.6469 40.6948 35.0902 40.063 38.0109 40.2975C40.4591 40.4944 42.9422 41.2803 45.6798 42.2287V43.473C45.6798 43.7737 45.5401 44.0473 45.2966 44.2235Z" fill="black"/>
<path d="M27.2676 21.7823C25.9568 21.1684 24.5811 20.8701 23.0618 20.8701C21.2902 20.8701 19.346 21.2555 16.5609 22.1587C16.2685 22.2535 16.1082 22.5674 16.2031 22.8598C16.2915 23.1324 16.6343 23.3055 16.9043 23.2176C19.5721 22.3525 21.4135 21.9833 23.0618 21.9833C24.4144 21.9833 25.6357 22.2473 26.7955 22.7904C27.074 22.9207 27.4053 22.8008 27.5357 22.5224C27.666 22.2441 27.546 21.9126 27.2676 21.7823Z" fill="black"/>
<path d="M27.2676 24.4742C25.9568 23.8603 24.5811 23.562 23.0618 23.562C21.2902 23.562 19.346 23.9474 16.5609 24.8506C16.2685 24.9454 16.1082 25.2593 16.2031 25.5517C16.2915 25.8243 16.6343 25.9974 16.9043 25.9095C19.5721 25.0444 21.4135 24.6752 23.0618 24.6752C24.4144 24.6752 25.6357 24.9392 26.7955 25.4823C27.074 25.6127 27.4053 25.4927 27.5357 25.2143C27.666 24.9359 27.546 24.6045 27.2676 24.4742Z" fill="black"/>
<path d="M27.5357 27.9062C27.666 27.6278 27.546 27.2964 27.2676 27.1661C25.9568 26.5522 24.5811 26.2539 23.0618 26.2539C21.2902 26.2539 19.346 26.6392 16.5609 27.5425C16.2685 27.6373 16.1082 27.9512 16.2031 28.2436C16.2915 28.5162 16.6343 28.6892 16.9043 28.6014C19.5721 27.7363 21.4135 27.3671 23.0618 27.3671C24.4144 27.3671 25.6357 27.6311 26.7955 28.1742C27.0741 28.3046 27.4053 28.1846 27.5357 27.9062Z" fill="black"/>
<path d="M33.2048 32.4291C34.3646 31.886 35.5859 31.622 36.9385 31.622C38.5868 31.622 40.4282 31.9912 43.096 32.8563C43.366 32.9441 43.7088 32.7711 43.7972 32.4985C43.8921 32.2061 43.7319 31.8922 43.4394 31.7974C40.6543 30.8941 38.7101 30.5088 36.9385 30.5088C35.4192 30.5088 34.0435 30.8071 32.7327 31.4209C32.4543 31.5513 32.3343 31.8827 32.4646 32.1611C32.595 32.4394 32.9263 32.5594 33.2048 32.4291Z" fill="black"/>
<path d="M33.2048 35.1209C34.3646 34.5779 35.5859 34.3139 36.9385 34.3139C38.5868 34.3139 40.4282 34.6831 43.096 35.5481C43.366 35.6359 43.7088 35.4629 43.7972 35.1904C43.8921 34.898 43.7319 34.584 43.4394 34.4893C40.6543 33.586 38.7101 33.2007 36.9385 33.2007C35.4192 33.2007 34.0435 33.499 32.7327 34.1128C32.4543 34.2432 32.3343 34.5746 32.4646 34.853C32.595 35.1313 32.9263 35.2513 33.2048 35.1209Z" fill="black"/>
<path d="M33.2048 37.8128C34.3646 37.2698 35.5859 37.0058 36.9385 37.0058C38.5868 37.0058 40.4282 37.3749 43.096 38.24C43.366 38.3278 43.7088 38.1548 43.7972 37.8823C43.8921 37.5899 43.7319 37.2759 43.4394 37.1812C40.6543 36.2779 38.7101 35.8926 36.9385 35.8926C35.4192 35.8926 34.0435 36.1909 32.7327 36.8047C32.4543 36.9351 32.3343 37.2665 32.4646 37.5449C32.595 37.8232 32.9263 37.9431 33.2048 37.8128Z" fill="black"/>
<path d="M27.5556 14.6403L28.6447 15.2359L29.2403 16.3249C29.5599 16.9095 30.4383 16.9111 30.7589 16.3249L31.3545 15.2359L32.4436 14.6403C33.0334 14.3178 33.0334 13.4441 32.4436 13.1216L31.3545 12.526L30.7589 11.4369C30.4069 10.9108 29.578 10.8193 29.2403 11.4369L28.6447 12.526L27.5557 13.1216C26.9658 13.4441 26.9658 14.3178 27.5556 14.6403ZM29.2425 13.4679C29.388 13.3883 29.507 13.2694 29.5866 13.1238L29.9996 12.3686L30.4126 13.1238C30.4922 13.2694 30.6112 13.3883 30.7567 13.4679L31.5119 13.8809L30.7567 14.294C30.6112 14.3735 30.4922 14.4925 30.4126 14.638L29.9996 15.3932L29.5866 14.638C29.507 14.4925 29.388 14.3736 29.2425 14.294L28.4872 13.8809L29.2425 13.4679Z" fill="black"/>
<path d="M35.6738 26.034L36.7628 26.6296L37.3585 27.7187C37.681 28.3084 38.5546 28.3083 38.8771 27.7186L39.4727 26.6296L40.5618 26.034C41.1514 25.7114 41.1514 24.8378 40.5617 24.5153L39.4727 23.9197L38.8771 22.8307C38.5575 22.2461 37.679 22.2444 37.3584 22.8307L36.7628 23.9197L35.6737 24.5153C35.084 24.838 35.084 25.7115 35.6738 26.034ZM37.3606 24.8616C37.5061 24.7821 37.6251 24.6631 37.7047 24.5176L38.1177 23.7624L38.5308 24.5176C38.6103 24.6631 38.7294 24.782 38.8748 24.8616L39.6301 25.2747L38.8748 25.6877C38.7294 25.7673 38.6103 25.8862 38.5308 26.0318L38.1177 26.787L37.7047 26.0318C37.6251 25.8862 37.5061 25.7673 37.3606 25.6877L36.6054 25.2747L37.3606 24.8616Z" fill="black"/>
<path d="M23.2365 32.3693L22.6408 31.2803C22.3183 30.6905 21.4445 30.6904 21.1221 31.2803L20.5265 32.3693L19.4374 32.9649C18.8477 33.2874 18.8477 34.161 19.4374 34.4835L20.5265 35.0792L21.1221 36.1682C21.4418 36.7528 22.3202 36.7543 22.6408 36.1682L23.2365 35.0791L24.3254 34.4835C24.9152 34.1611 24.9152 33.2874 24.3254 32.9649L23.2365 32.3693ZM22.6385 34.1373C22.493 34.2168 22.374 34.3358 22.2945 34.4814L21.8814 35.2366L21.4684 34.4814C21.3889 34.3358 21.2698 34.2169 21.1243 34.1373L20.3691 33.7243L21.1243 33.3112C21.2698 33.2317 21.3889 33.1127 21.4684 32.9672L21.8814 32.212L22.2945 32.9672C22.3741 33.1127 22.4931 33.2317 22.6386 33.3112L23.3938 33.7243L22.6385 34.1373Z" fill="black"/>
</g>
</g>
<defs>
<clipPath id="clip0_0_1542">
<rect width="60" height="60" fill="white"/>
</clipPath>
<clipPath id="clip1_0_1542">
<rect width="38" height="38" fill="white" transform="translate(11 11)"/>
</clipPath>
</defs>
</svg>
