<svg width="60" height="60" viewBox="0 0 60 60" fill="none" xmlns="http://www.w3.org/2000/svg">
<path d="M27.7757 42.962L51.2999 50.54C55.9056 45.4474 58.711 38.6959 58.711 31.2887C58.711 15.4319 45.8566 2.57751 29.9999 2.57751C14.1431 2.57751 1.28882 15.432 1.28882 31.2888C1.28882 38.6959 4.09429 45.4474 8.69999 50.5401L27.7757 42.962Z" fill="#4A3279"/>
<path d="M16.4675 0C12.1846 0 8.69998 3.48445 8.69998 7.76742V50.54C9.81092 51.7685 11.0278 52.8991 12.3341 53.9203L23.3605 49.5885V0H16.4675Z" fill="#543E5B"/>
<path d="M43.533 0H23.3609C22.3134 0.721055 21.1611 2.05688 21.1611 4.45113V47.6564L47.6661 53.9204C48.9725 52.8991 50.1894 51.7685 51.3004 50.54V7.76742C51.3004 3.48445 47.8158 0 43.533 0Z" fill="#6C5475"/>
<path d="M12.3328 13.0651V53.9213C14.6249 55.7131 17.1961 57.164 19.9701 58.1987L21.1606 57.8777L24.2523 10.3995L12.3328 13.0651Z" fill="#27A6FF"/>
<path d="M47.6675 13.0651L37.7876 9.95166L21.1611 13.0651V57.8777L30.0003 55.4948L40.0301 58.1987C42.8042 57.1642 45.3754 55.7131 47.6675 53.9213V22.1278V17.5V13.0651Z" fill="#02C0FC"/>
<path d="M43.5326 3.63281H39.8673C39.3758 3.63281 38.9495 3.97219 38.8393 4.45113C38.6685 5.19434 37.9926 5.73375 37.2327 5.73375H22.7673C22.0073 5.73375 21.3315 5.19422 21.1606 4.45113L17.6092 10.2132L21.1606 13.065H47.6672V7.76742C47.6672 5.48391 45.816 3.63281 43.5326 3.63281Z" fill="#E8F8FC"/>
<path d="M43.2461 7.4563H41.0876C40.2782 7.4563 39.6159 8.11853 39.6159 8.92794C39.6159 9.73735 40.2782 10.3996 41.0876 10.3996H43.2461C44.0555 10.3996 44.7177 9.73735 44.7177 8.92794C44.7177 8.11853 44.0555 7.4563 43.2461 7.4563Z" fill="#6AD9FB"/>
<path d="M21.26 48.9759C21.26 48.1665 20.5978 47.5043 19.7884 47.5043H18.4802C17.6708 47.5043 17.0086 48.1665 17.0086 48.9759C17.0086 49.7853 17.6708 50.4476 18.4802 50.4476H19.7884C20.5978 50.4476 21.26 49.7853 21.26 48.9759Z" fill="#CBF1FA"/>
<path d="M28.5042 48.9759C28.5042 48.1665 27.8419 47.5043 27.0325 47.5043H25.7244C24.9149 47.5043 24.2527 48.1665 24.2527 48.9759C24.2527 49.7853 24.9149 50.4476 25.7244 50.4476H27.0325C27.8419 50.4476 28.5042 49.7853 28.5042 48.9759Z" fill="#CBF1FA"/>
<path d="M35.7476 48.9759C35.7476 48.1665 35.0853 47.5043 34.2759 47.5043H32.9678C32.1584 47.5043 31.4961 48.1665 31.4961 48.9759C31.4961 49.7853 32.1584 50.4476 32.9678 50.4476H34.2759C35.0853 50.4476 35.7476 49.7853 35.7476 48.9759Z" fill="#CBF1FA"/>
<path d="M42.9914 48.9759C42.9914 48.1665 42.3291 47.5043 41.5197 47.5043H40.2116C39.4022 47.5043 38.7399 48.1665 38.7399 48.9759C38.7399 49.7853 39.4022 50.4476 40.2116 50.4476H41.5197C42.3291 50.4476 42.9914 49.7853 42.9914 48.9759Z" fill="#CBF1FA"/>
<path d="M44.5852 29.4799C44.9198 29.161 44.9198 28.6271 44.5852 28.3081L43.0885 26.8813C42.869 26.6721 42.7849 26.3577 42.8704 26.0669L43.8275 24.1955C44.0782 23.7239 43.7334 23.153 43.2865 23.0821L40.8579 22.584C40.5625 22.5128 40.3319 22.2822 40.2607 21.9869L39.7762 19.9778C39.6677 19.5279 39.2048 19.2604 38.7608 19.3909L36.7779 19.9743C36.487 20.0598 36.1727 19.9757 35.9634 19.7562L34.5366 18.2595C34.2177 17.9249 33.6838 17.9249 33.3648 18.2595L31.938 19.7562C31.7288 19.9757 31.4144 20.0598 31.1236 19.9743L29.1408 19.3909C28.6967 19.2603 28.2337 19.5278 28.1253 19.9778L27.6409 21.9867C27.5696 22.2821 27.339 22.5127 27.0437 22.5839L25.0346 23.0684C24.5847 23.1769 24.3172 23.6398 24.4477 24.0838L25.0311 26.0667C25.1166 26.3576 25.0325 26.672 24.813 26.8812L23.3163 28.3079C22.9817 28.6269 22.9817 29.1608 23.3163 29.4798L24.813 30.9066C25.0325 31.1158 25.1166 31.4302 25.0311 31.721L24.4477 33.7038C24.3171 34.1479 24.5846 34.6108 25.0346 34.7193L27.0437 35.2037C27.339 35.275 27.5696 35.5056 27.6409 35.8009L28.1253 37.81C28.2338 38.2599 28.6967 38.5274 29.1408 38.3969L31.1237 37.8135C31.4145 37.7279 31.729 37.8121 31.9381 38.0316L33.3649 39.5283C33.6839 39.8629 34.2178 39.8629 34.5368 39.5283L35.9635 38.0316C36.1727 37.8121 36.4871 37.7279 36.778 37.8135L38.7608 38.3969C39.2048 38.5275 39.6677 38.26 39.7762 37.81L40.2607 35.801C40.3319 35.5057 40.5625 35.2751 40.8579 35.2038L42.8669 34.7194C43.3168 34.6109 43.5843 34.148 43.4538 33.704L42.8704 31.721C42.7849 31.4302 42.869 31.1158 43.0885 30.9066L44.5852 29.4799Z" fill="#FEF156"/>
<path d="M38.8796 33.83C41.6054 31.1042 41.6054 26.6848 38.8796 23.9591C36.1538 21.2333 31.7344 21.2333 29.0086 23.9591C26.2829 26.6848 26.2829 31.1042 29.0086 33.83C31.7344 36.5558 36.1538 36.5558 38.8796 33.83Z" fill="#FFDA4C"/>
<path d="M27.776 28.894C25.5704 28.894 23.7339 30.4708 23.3298 32.5583C23.0072 32.4739 22.6687 32.4288 22.3197 32.4288C20.1817 32.4288 18.4376 34.1129 18.3403 36.2267C18.2981 36.2252 18.2557 36.2244 18.2132 36.2244C16.2067 36.2244 14.58 37.8509 14.58 39.8574C14.58 41.8639 16.2066 43.4906 18.2132 43.4906C19.2356 43.4906 20.1588 43.0675 20.8191 42.3877C21.526 43.6872 22.9033 44.5692 24.4867 44.5692C25.8235 44.5692 27.0124 43.9399 27.776 42.9621L31.9388 38.0316L32.2222 32.5581C31.8182 30.4707 29.9816 28.894 27.776 28.894Z" fill="#CBF1FA"/>
<path d="M30.9909 53.6924H23.9252C21.7308 53.6924 19.9355 55.4878 19.9355 57.6822C19.9355 57.8572 19.9481 58.0294 19.9703 58.1987C23.0925 59.3632 26.4718 60 30 60C30.1452 60 30.2898 59.9973 30.4345 59.9951L32.9144 56.6195L30.9909 53.6924Z" fill="#6AD9FB"/>
<path d="M37.3385 36.2243C37.296 36.2243 37.2535 36.2252 37.2114 36.2266C37.1141 34.1127 35.37 32.4287 33.232 32.4287C32.8829 32.4287 32.5445 32.4739 32.2218 32.5582C32.2218 32.5582 27.5401 33.6725 29.4587 37.815C29.4587 37.815 25.7873 39.0394 27.7757 42.9621C28.5393 43.9398 29.7282 44.5692 31.065 44.5692C32.6483 44.5692 34.0256 43.6873 34.7326 42.3878C35.3928 43.0676 36.316 43.4906 37.3385 43.4906C39.345 43.4906 40.9717 41.8641 40.9717 39.8575C40.9717 37.8509 39.3451 36.2243 37.3385 36.2243Z" fill="#E8F8FC"/>
<path d="M36.0748 53.6924H30.9909C30.4075 54.5793 29.1233 57.0396 30.4345 59.9951C33.8057 59.945 37.0361 59.3152 40.0299 58.1987C40.052 58.0294 40.0647 57.8572 40.0647 57.6822C40.0647 55.4878 38.2692 53.6924 36.0748 53.6924Z" fill="#ADE9F7"/>
<path d="M21.1606 4.45113C21.0505 3.97219 20.6242 3.63281 20.1327 3.63281H16.4674C14.1839 3.63281 12.3328 5.48391 12.3328 7.76742V13.065H21.1606C21.1606 8.61129 21.1606 5.39895 21.1606 4.45113Z" fill="#CBF1FA"/>
<path d="M18.9124 7.4563H16.7539C15.9445 7.4563 15.2823 8.11853 15.2823 8.92794C15.2823 9.73735 15.9445 10.3996 16.7539 10.3996H18.9124C19.7218 10.3996 20.384 9.73735 20.384 8.92794C20.384 8.11853 19.7218 7.4563 18.9124 7.4563Z" fill="#6AD9FB"/>
</svg>
