<svg width="32" height="32" viewBox="0 0 32 32" fill="none" xmlns="http://www.w3.org/2000/svg">
<g clip-path="url(#clip0_0_1318)">
<path d="M16 32C24.8366 32 32 24.8366 32 16C32 7.16344 24.8366 0 16 0C7.16344 0 0 7.16344 0 16C0 24.8366 7.16344 32 16 32Z" fill="#4A3279"/>
<path opacity="0.8" d="M29.8077 7.91382C29.8935 8.64778 29.9367 9.3861 29.9371 10.1251C29.9371 20.5494 21.4864 29.0001 11.0621 29.0001C9.23594 29.0013 7.41929 28.7376 5.66895 28.2169C8.55429 30.6642 12.2161 32.0052 15.9996 32.0001C24.8358 32.0001 31.9996 24.8363 31.9996 16.0001C32.0038 13.1573 31.247 10.3653 29.8077 7.91382Z" fill="#433460"/>
<path d="M21.5 22.6H11.02V20.8C11.02 19.9333 11.1933 19.22 11.54 18.66C11.8867 18.0867 12.3333 17.6133 12.88 17.24C13.44 16.8533 14.0267 16.5133 14.64 16.22L16.96 15.12C17.36 14.92 17.6733 14.74 17.9 14.58C18.14 14.4067 18.3067 14.2133 18.4 14C18.5067 13.7867 18.56 13.5333 18.56 13.24C18.56 12.92 18.4933 12.6533 18.36 12.44C18.24 12.2133 18.02 12.04 17.7 11.92C17.3933 11.8 16.94 11.74 16.34 11.74C15.7 11.74 15.2067 11.8067 14.86 11.94C14.5133 12.06 14.28 12.2667 14.16 12.56C14.0533 12.8533 14 13.24 14 13.72V14.06H11V13.74C11 12.86 11.1867 12.0667 11.56 11.36C11.9467 10.64 12.5467 10.0667 13.36 9.64C14.1867 9.21333 15.26 9 16.58 9C17.7667 9 18.72 9.18667 19.44 9.56C20.1733 9.92 20.7067 10.42 21.04 11.06C21.3733 11.6867 21.54 12.4067 21.54 13.22C21.54 13.98 21.38 14.6333 21.06 15.18C20.74 15.7133 20.32 16.1667 19.8 16.54C19.2933 16.9133 18.7467 17.2333 18.16 17.5L16.14 18.38C15.5933 18.6333 15.1333 18.88 14.76 19.12C14.4 19.3467 14.22 19.62 14.22 19.94L16.38 19.9H21.5V22.6Z" fill="white"/>
</g>
<defs>
<clipPath id="clip0_0_1318">
<rect width="32" height="32" fill="white"/>
</clipPath>
</defs>
</svg>
