<svg width="60" height="60" viewBox="0 0 60 60" fill="none" xmlns="http://www.w3.org/2000/svg">
<g clip-path="url(#clip0_0_1589)">
<path d="M60 30C60 39.0914 55.9547 47.2395 49.5656 52.7402C48.2285 53.8922 46.7871 51.7877 45.2602 52.6924C40.7895 55.3397 35.5723 56.8596 30 56.8596C26.768 56.8596 23.6555 56.3487 20.7387 55.4006C18.627 54.7174 16.616 53.8045 14.7387 52.6924C13.2117 51.7889 11.7715 53.8934 10.4344 52.7426C4.04531 47.2406 0 39.0926 0 30C0 13.432 13.432 0 30 0C46.568 0 60 13.432 60 30Z" fill="#4A3279"/>
<path d="M49.5656 52.7404C48.2285 53.8924 46.7871 54.9283 45.2602 55.833C40.7895 58.4803 35.5723 55.1727 30 55.1727C26.768 55.1727 23.6555 56.0214 20.7387 55.0734C18.627 54.3902 16.616 56.9451 14.7387 55.833C13.2117 54.9295 11.7715 53.8936 10.4344 52.7428C11.55 47.0264 14.4234 42.1479 18.8145 41.6182L30 46.9502L41.1856 41.6182C45.5754 42.1479 48.4488 47.0252 49.5656 52.7404Z" fill="#EAE5E5"/>
<path d="M44.3813 24.7206H15.5473C13.7039 19.7823 12.9715 15.6913 12.7629 12.5413C12.5133 8.77603 16.1848 5.9729 19.759 7.18228C19.759 7.18228 19.7543 7.11548 19.7543 6.99595C19.7543 6.11119 19.9781 2.32251 23.7176 0.82017C24.832 0.372514 27.4875 0.0268111 30.6152 0.227202C39.4125 0.787358 51.941 5.66118 44.3813 24.7206Z" fill="#FFBF40"/>
<path d="M23.0121 15.0737L24.6797 24.7206H15.5473C13.7039 19.7823 12.9715 15.6913 12.7629 12.5413C12.5133 8.77603 16.1848 5.9729 19.759 7.18228C19.759 7.18228 19.7543 7.11548 19.7543 6.99595C19.7543 6.11119 19.9781 2.32251 23.7176 0.82017C24.832 0.372514 27.4875 0.0268111 30.6152 0.227202C20.427 2.29205 23.0121 15.0737 23.0121 15.0737Z" fill="#FFA543"/>
<path d="M18.6492 22.8027H44.2004C46.4578 22.8027 48.2878 24.6327 48.2878 26.8901C48.2878 29.1475 46.4578 30.9775 44.2004 30.9775H18.814L18.6492 22.8027Z" fill="#FFBDB8"/>
<path d="M42.7811 29.0599H44.3816C45.5799 29.0599 46.5512 28.0886 46.5512 26.8903C46.5512 25.6921 45.5799 24.7207 44.3816 24.7207H42.8685L42.7811 29.0599Z" fill="#FFAAA1"/>
<path d="M18.8145 30.9775H15.7991C13.5417 30.9775 11.7117 29.1475 11.7117 26.8901C11.7117 24.6327 13.5417 22.8027 15.7991 22.8027H18.6497L18.8145 30.9775Z" fill="#FFBDB8"/>
<path d="M17.1479 29.0599H15.5474C14.3491 29.0599 13.3777 28.0886 13.3777 26.8903C13.3777 25.6921 14.3491 24.7207 15.5474 24.7207H17.0605L17.1479 29.0599Z" fill="#FFAAA1"/>
<path d="M45.2606 55.8327C40.7899 58.48 35.5727 59.9999 30.0004 59.9999C24.4281 59.9999 19.2098 58.48 14.7391 55.8327L15.1633 50.087C15.2254 49.2304 15.7035 48.4593 16.4418 48.021L26.5152 42.0386H33.4856L43.5578 48.021C44.2961 48.4593 44.7742 49.2304 44.8375 50.087L45.2606 55.8327Z" fill="#FF5F5F"/>
<path d="M28.1875 42.0386L28.075 43.6581C28.075 43.6581 19.6621 46.419 20.7391 58.5409C18.6274 57.8577 16.6164 56.9448 14.7391 55.8327L15.1633 50.087C15.2254 49.2304 15.7035 48.4593 16.4418 48.021L26.5152 42.0386H28.1875Z" fill="#FF3E3E"/>
<path d="M33.4859 43.4643C36.2596 44.2085 36.5496 49.812 36.5496 49.812H39.2833C39.2833 49.812 45.3592 47.7936 43.7278 43.7111C43.3411 42.7434 42.3704 41.9641 41.186 41.6173C38.3224 40.779 34.0397 43.5695 29.977 40.3379H30.0239C25.9613 43.5696 21.6785 40.779 18.8149 41.6173C17.6305 41.9641 16.6599 42.7434 16.2731 43.7111C14.6418 47.7937 20.7177 49.812 20.7177 49.812H23.4513C23.4513 49.812 23.7414 44.2085 26.5151 43.4643H33.4859Z" fill="#F4F4F4"/>
<path d="M29.9997 46.9495C28.0749 46.9495 26.5145 45.3891 26.5145 43.4644V39.2944H33.4847V43.4644C33.4848 45.3891 31.9245 46.9495 29.9997 46.9495Z" fill="#FFBDB8"/>
<path d="M43.4294 19.7286V28.2117C43.4294 34.6372 38.9094 40.0062 32.8736 41.3129C31.9406 41.5159 30.9705 41.1135 29.9764 41.11C22.5671 41.0857 17.1485 35.4757 17.1485 28.0663L16.618 19.7285C16.618 18.0595 16.9224 16.461 17.4807 14.987C18.182 13.1312 20.5856 12.6941 21.9662 14.1209C22.2949 14.46 22.6443 14.7783 23.0123 15.0736C24.9327 16.6145 27.3698 17.5361 30.0238 17.5361C33.1851 17.5361 36.0422 16.227 38.0802 14.1209C39.4608 12.6941 41.8644 13.1312 42.5656 14.987C43.1238 16.4611 43.4294 18.0597 43.4294 19.7286Z" fill="#FFCDCC"/>
<path d="M31.3168 28.895H28.6827C27.996 28.895 27.4393 29.4518 27.4393 30.1385C27.4393 30.8252 27.996 31.382 28.6827 31.382H31.3168C32.0035 31.382 32.5602 30.8252 32.5602 30.1385C32.5601 29.4518 32.0035 28.895 31.3168 28.895Z" fill="#FFBDB8"/>
<path d="M32.8736 41.3129C31.9406 41.5159 30.9705 41.6209 29.9764 41.6174C22.5671 41.5931 16.618 35.4756 16.618 28.0663V19.7285C16.618 18.0595 16.9224 16.461 17.4807 14.987C18.182 13.1312 20.5856 12.6941 21.9662 14.1209C22.2949 14.46 22.6443 14.7783 23.0123 15.0736C22.5498 16.4299 22.2996 17.8843 22.2996 19.3964V28.0641C22.2995 34.5172 26.8127 39.9912 32.8736 41.3129Z" fill="#FFBDB8"/>
<path d="M42.4965 24.4169C42.4965 28.4446 39.677 31.7095 36.1988 31.7095C34.6086 31.7095 33.1555 31.0263 32.0469 29.8989C30.9395 28.7739 29.1067 28.7739 27.9992 29.8989C26.8906 31.0263 25.4375 31.7095 23.8473 31.7095C23.4781 31.7095 23.1172 31.6731 22.7656 31.6017C19.8031 31.0087 17.5496 28.0169 17.5496 24.4169C17.5496 20.9411 19.6508 18.0325 22.4621 17.3024C22.9074 17.1864 23.3715 17.1255 23.8473 17.1255C25.6356 17.1255 27.2504 17.9892 28.3965 19.3767C29.2414 20.3997 30.8035 20.3997 31.6496 19.3767C32.7957 17.9892 34.4106 17.1255 36.1988 17.1255C39.677 17.1255 42.4965 20.3903 42.4965 24.4169Z" fill="#FF5F5F"/>
<path d="M22.7656 31.602C19.8031 31.009 17.5496 28.0172 17.5496 24.4172C17.5496 20.9414 19.6508 18.0328 22.4621 17.3027C22.3543 17.9859 22.2992 18.6844 22.2992 19.3969V28.0641C22.2992 29.2863 22.461 30.4723 22.7656 31.602Z" fill="#FF3E3E"/>
<path d="M34.0402 32.1196C34.5204 32.1196 34.886 32.5558 34.7972 33.0277C34.3716 35.2901 32.3854 37.0017 29.9994 37.0017C27.6135 37.0017 25.6272 35.29 25.2017 33.0277C25.1128 32.5557 25.4784 32.1196 25.9587 32.1196H34.0402Z" fill="#F4F4F4"/>
<path d="M28.0748 22.4755V25.8412C28.0748 27.7008 26.5658 29.2098 24.7063 29.2098C22.8452 29.2098 21.3377 27.7008 21.3377 25.8412V22.4755C21.3377 20.616 22.8453 19.1069 24.7063 19.1069C25.6367 19.1069 26.4778 19.4835 27.0881 20.0937C27.6969 20.704 28.0748 21.5464 28.0748 22.4755Z" fill="#F4F4F4"/>
<path d="M25.5649 29.0989C25.2911 29.1714 25.0032 29.2091 24.7059 29.2091C22.8449 29.2091 21.3377 27.7004 21.3377 25.8409V22.4756C21.3377 20.6161 22.8449 19.1074 24.7059 19.1074C25.0017 19.1074 25.2896 19.1452 25.5649 19.2176C24.1192 19.5983 23.054 20.9135 23.054 22.4757V25.8409C23.054 27.403 24.119 28.7182 25.5649 29.0989Z" fill="#EAE5E5"/>
<path d="M25.4904 26.9522C24.5113 26.9522 23.7176 26.1585 23.7176 25.1794V23.4081C23.7176 22.429 24.5113 21.6353 25.4904 21.6353C26.4695 21.6353 27.2632 22.429 27.2632 23.4081V25.1794C27.2632 26.1586 26.4695 26.9522 25.4904 26.9522Z" fill="#601D7F"/>
<path d="M38.2657 22.4755V25.8412C38.2657 27.7008 36.7581 29.2098 34.8971 29.2098C33.0375 29.2098 31.53 27.7008 31.53 25.8412V22.4755C31.53 21.5464 31.9065 20.704 32.5168 20.0937C33.1256 19.4835 33.9666 19.1069 34.8971 19.1069C36.7581 19.1069 38.2657 20.616 38.2657 22.4755Z" fill="#F4F4F4"/>
<path d="M35.7572 29.0989C35.4834 29.1714 35.1955 29.2091 34.8982 29.2091C33.0371 29.2091 31.53 27.7004 31.53 25.8409V22.4756C31.53 20.6161 33.0371 19.1074 34.8982 19.1074C35.194 19.1074 35.4819 19.1452 35.7572 19.2176C34.3114 19.5983 33.2463 20.9135 33.2463 22.4757V25.8409C33.2463 27.403 34.3114 28.7182 35.7572 29.0989Z" fill="#EAE5E5"/>
<path d="M34.1134 26.9522C35.0926 26.9522 35.8863 26.1585 35.8863 25.1794V23.4081C35.8863 22.429 35.0926 21.6353 34.1134 21.6353C33.1343 21.6353 32.3406 22.429 32.3406 23.4081V25.1794C32.3406 26.1586 33.1343 26.9522 34.1134 26.9522Z" fill="#601D7F"/>
<path d="M18.1937 24.516L13.9943 23.0907C13.3651 22.8772 13.0282 22.1939 13.2417 21.5648C13.4552 20.9356 14.1384 20.5987 14.7676 20.8122L18.967 22.2375C19.5962 22.4511 19.9331 23.1343 19.7196 23.7634C19.5061 24.3926 18.8229 24.7297 18.1937 24.516Z" fill="#FF3E3E"/>
<path d="M41.8524 24.516L46.0518 23.0907C46.681 22.8772 47.0179 22.1939 46.8044 21.5648C46.5909 20.9356 45.9077 20.5987 45.2785 20.8122L41.0791 22.2375C40.4499 22.4511 40.113 23.1343 40.3265 23.7634C40.54 24.3926 41.2233 24.7297 41.8524 24.516Z" fill="#FF5F5F"/>
<path d="M35.7584 53.336C37.7046 53.336 39.2823 51.7583 39.2823 49.812C39.2823 47.8658 37.7046 46.2881 35.7584 46.2881C33.8122 46.2881 32.2344 47.8658 32.2344 49.812C32.2344 51.7583 33.8122 53.336 35.7584 53.336Z" fill="#FFDA3E"/>
<path d="M35.7588 51.4995C36.6908 51.4995 37.4463 50.744 37.4463 49.812C37.4463 48.88 36.6908 48.1245 35.7588 48.1245C34.8269 48.1245 34.0714 48.88 34.0714 49.812C34.0714 50.744 34.8269 51.4995 35.7588 51.4995Z" fill="#FFBF40"/>
<path d="M24.2407 53.336C26.187 53.336 27.7647 51.7583 27.7647 49.812C27.7647 47.8658 26.187 46.2881 24.2407 46.2881C22.2945 46.2881 20.7168 47.8658 20.7168 49.812C20.7168 51.7583 22.2945 53.336 24.2407 53.336Z" fill="#FFDA3E"/>
<path d="M24.2412 51.4995C25.1732 51.4995 25.9287 50.744 25.9287 49.812C25.9287 48.88 25.1732 48.1245 24.2412 48.1245C23.3092 48.1245 22.5537 48.88 22.5537 49.812C22.5537 50.744 23.3092 51.4995 24.2412 51.4995Z" fill="#FFBF40"/>
</g>
<defs>
<clipPath id="clip0_0_1589">
<rect width="60" height="60" fill="white"/>
</clipPath>
</defs>
</svg>
