<svg width="32" height="32" viewBox="0 0 32 32" fill="none" xmlns="http://www.w3.org/2000/svg">
<g clip-path="url(#clip0_0_1330)">
<path d="M16 32C24.8366 32 32 24.8366 32 16C32 7.16344 24.8366 0 16 0C7.16344 0 0 7.16344 0 16C0 24.8366 7.16344 32 16 32Z" fill="#4A3279"/>
<path opacity="0.8" d="M29.8077 7.91382C29.8935 8.64778 29.9367 9.3861 29.9371 10.1251C29.9371 20.5494 21.4864 29.0001 11.0621 29.0001C9.23594 29.0013 7.41929 28.7376 5.66895 28.2169C8.55429 30.6642 12.2161 32.0052 15.9996 32.0001C24.8358 32.0001 31.9996 24.8363 31.9996 16.0001C32.0038 13.1573 31.247 10.3653 29.8077 7.91382Z" fill="#433460"/>
<path d="M15.54 22.8C14.1933 22.8 13.1133 22.6267 12.3 22.28C11.4867 21.9333 10.9 21.44 10.54 20.8C10.18 20.1467 10 19.38 10 18.5V18.06H12.94V18.46C12.94 18.8733 13.0067 19.1933 13.14 19.42C13.2733 19.6467 13.5267 19.8067 13.9 19.9C14.2867 19.9933 14.8333 20.04 15.54 20.04C16.3667 20.04 16.9867 19.94 17.4 19.74C17.8133 19.54 18.02 19.1333 18.02 18.52C18.02 17.8533 17.8733 17.4267 17.58 17.24C17.2867 17.04 16.8133 16.94 16.16 16.94H13.34V14.5H15.84C16.44 14.5 16.8667 14.4133 17.12 14.24C17.3733 14.0667 17.5 13.7133 17.5 13.18C17.5 12.6467 17.3133 12.28 16.94 12.08C16.58 11.8667 16.0467 11.76 15.34 11.76C14.7533 11.76 14.28 11.8067 13.92 11.9C13.5733 11.9933 13.32 12.1533 13.16 12.38C13.0133 12.6067 12.94 12.9267 12.94 13.34V13.52H10V13.3C10 12.4067 10.2133 11.64 10.64 11C11.0667 10.36 11.6867 9.86667 12.5 9.52C13.3133 9.17333 14.2867 9 15.42 9C16.4867 9 17.3933 9.13333 18.14 9.4C18.9 9.66667 19.48 10.0733 19.88 10.62C20.2933 11.1533 20.5 11.82 20.5 12.62C20.5 13.4067 20.3 14.0533 19.9 14.56C19.5 15.0667 18.86 15.3733 17.98 15.48V15.6C18.94 15.68 19.6933 16.0067 20.24 16.58C20.7867 17.1533 21.06 17.9333 21.06 18.92C21.06 19.7867 20.8333 20.5133 20.38 21.1C19.94 21.6733 19.3 22.1 18.46 22.38C17.6333 22.66 16.66 22.8 15.54 22.8Z" fill="white"/>
</g>
<defs>
<clipPath id="clip0_0_1330">
<rect width="32" height="32" fill="white"/>
</clipPath>
</defs>
</svg>
