<svg width="32" height="32" viewBox="0 0 32 32" fill="none" xmlns="http://www.w3.org/2000/svg">
<g clip-path="url(#clip0_0_1306)">
<path d="M16 32C24.8366 32 32 24.8366 32 16C32 7.16344 24.8366 0 16 0C7.16344 0 0 7.16344 0 16C0 24.8366 7.16344 32 16 32Z" fill="#4A3279"/>
<path opacity="0.8" d="M29.8077 7.91357C29.8935 8.64754 29.9367 9.38586 29.9371 10.1248C29.9371 20.5492 21.4864 28.9998 11.0621 28.9998C9.23594 29.0011 7.41929 28.7373 5.66895 28.2167C8.55429 30.664 12.2161 32.005 15.9996 31.9998C24.8358 31.9998 31.9996 24.8361 31.9996 15.9998C32.0038 13.1571 31.247 10.365 29.8077 7.91357Z" fill="#433460"/>
<path d="M18.2307 22.8125H15.1963V12.75H12.2694V10.6081L18.2307 9.6875V22.8125Z" fill="white"/>
</g>
<defs>
<clipPath id="clip0_0_1306">
<rect width="32" height="32" fill="white"/>
</clipPath>
</defs>
</svg>
