<svg width="33" height="27" viewBox="0 0 33 27" fill="none" xmlns="http://www.w3.org/2000/svg">
<path d="M21.6659 3.77373C20.2684 4.51586 18.1207 5.77255 16.7122 6.92436L13.9865 7.28436L10.4265 6.74998C9.2093 4.98792 9.38561 2.22386 11.2803 0.576234C12.184 0.662484 12.9878 1.10123 13.5634 1.75623C14.0278 2.28436 14.8409 2.29623 15.3109 1.77311C15.9859 1.02248 16.9528 0.554359 18.0215 0.560609C19.7197 0.560609 21.1934 1.73186 21.5765 3.38686L21.6659 3.77373Z" fill="#FFAA75"/>
<path d="M22.2279 6.1958L16.7129 6.92455C17.7479 5.21205 19.5448 3.9933 21.6666 3.77393L22.2279 6.1958Z" fill="#FF9A5C"/>
<path d="M10.4266 6.74997L6.73535 6.1956L7.52785 3.18247C7.93473 1.63747 9.3316 0.560599 10.9291 0.560599C11.0479 0.559974 11.1647 0.564974 11.2804 0.576224C10.1485 2.32497 10.0141 4.73185 10.4266 6.74997Z" fill="#FF9A5C"/>
<path d="M17.2228 6.1958C17.0163 7.28455 16.4178 8.4108 15.8216 9.46643H11.4703C10.4275 8.77943 9.96265 7.5453 10.3291 6.1958H17.2228Z" fill="#F3F5FC"/>
<path d="M22.9854 9.46643H15.8223C15.981 8.2458 16.4791 7.12018 17.2235 6.1958H22.2279L22.9854 9.46643Z" fill="#D7DDF5"/>
<path d="M11.4706 9.46618H5.875L6.73562 6.19556H10.3294C10.5206 7.48056 10.9362 8.65306 11.4706 9.46618Z" fill="#D7DDF5"/>
<path d="M16.4178 13.1794H11.3791C10.2128 12.6869 9.4003 10.4763 11.3466 9.27441H15.8503C16.2936 10.0294 16.5019 11.9688 16.4178 13.1794Z" fill="#FFAA75"/>
<path d="M11.3794 13.1794H3.91124C2.83249 13.1794 1.95874 12.305 1.95874 11.2269C1.95874 10.6875 2.17749 10.1994 2.53062 9.84629C2.88374 9.49254 3.37187 9.27441 3.91124 9.27441H11.3469C10.4256 10.4644 10.6775 12.1632 11.3794 13.1794Z" fill="#FF9A5C"/>
<path d="M24.3203 8.04611L30.371 3.69361C31.2943 3.02948 31.3561 1.67767 30.4973 0.931983C29.6385 0.186295 28.3088 0.43717 27.7808 1.44455L24.3203 8.04611Z" fill="#7888AF"/>
<path d="M26.8856 11.2269C26.8856 11.7663 26.6675 12.2538 26.3138 12.6075C25.9606 12.9607 25.4725 13.1794 24.9331 13.1794H16.4181C16.06 12.4382 15.8431 11.6269 15.7831 10.7813C15.7469 10.2669 15.7713 9.76254 15.8506 9.27441H24.9331C26.0119 9.27441 26.8856 10.1482 26.8856 11.2269Z" fill="#FF9A5C"/>
<path d="M26.294 7.28462C27.1291 7.28462 27.806 6.6077 27.806 5.77268C27.806 4.93766 27.1291 4.26074 26.294 4.26074C25.459 4.26074 24.7821 4.93766 24.7821 5.77268C24.7821 6.6077 25.459 7.28462 26.294 7.28462Z" fill="#FFAA75"/>
<path d="M24.5022 15.1944C22.0642 14.5973 20.904 12.7313 20.7596 10.6931C20.5971 8.38939 21.904 5.89427 24.5016 5.44189C26.2485 6.21564 27.5204 7.90502 27.6641 9.94314C27.8266 12.2475 26.4997 14.3119 24.5022 15.1944Z" fill="#7888AF"/>
<path d="M24.5019 15.1945C23.9538 15.437 23.3544 15.5908 22.7219 15.6351C19.7856 15.8426 17.2375 13.6295 17.03 10.6933C16.8231 7.75701 19.0356 5.20826 21.9725 5.00138C22.8706 4.93826 23.7319 5.10138 24.5013 5.44201C22.5038 6.32451 21.1769 8.38951 21.3394 10.6933C21.4838 12.7314 22.7556 14.4214 24.5019 15.1945Z" fill="#687DAA"/>
<path d="M22.5478 13.1608C22.4122 13.1702 22.2784 13.1702 22.1472 13.1608C20.4133 11.6483 20.3172 8.79541 22.1478 7.47641C23.7172 7.36578 25.079 8.54828 25.1897 10.1183C25.3003 11.6877 24.1178 13.0502 22.5478 13.1608Z" fill="#83DEFF"/>
<path d="M21.3393 10.6932C21.4037 11.6019 21.6918 12.4413 22.1468 13.1607C20.7525 13.0644 19.6056 11.9532 19.505 10.5188C19.3943 8.94882 20.5768 7.58694 22.1468 7.47632H22.1475C21.5618 8.40257 21.2562 9.51694 21.3393 10.6932Z" fill="#2ECEFB"/>
<path d="M16.0317 21.6324C17.8029 21.9436 19.868 22.1847 22.1741 22.2322C25.1815 22.2943 27.8212 22.0113 29.9792 21.6324V18.7567C29.9792 18.6232 29.8711 18.5155 29.7376 18.5142C22.9111 18.45 18.8992 15.7014 16.0317 18.5154C15.8911 18.7339 15.5377 19.3466 15.5727 20.1928C15.6019 20.8999 15.8875 21.4089 16.0317 21.6324Z" fill="#F3F5FC"/>
<path d="M16.0312 21.6326C14.0562 22.0384 11.5509 22.374 8.64886 22.3397C6.10586 22.3097 3.88693 22.0032 2.0838 21.6326V18.7569C2.0838 18.6234 2.19186 18.5157 2.32536 18.5144C9.15186 18.4503 13.1638 15.7016 16.0313 18.5156V21.6326H16.0312Z" fill="#D7DDF5"/>
<path d="M31.5628 23.1901C31.5628 24.0501 30.8653 24.7476 30.0053 24.7476H11.0053C10.9121 24.6851 10.2321 24.2119 10.1471 23.3207C10.0515 22.3182 10.7959 21.6844 10.8584 21.6332C10.8571 21.6326 14.3309 21.6326 14.3309 21.6326L16.0309 22.6101L17.7321 21.6326H30.0053C30.8653 21.6326 31.5628 22.3301 31.5628 23.1901Z" fill="#FFAA75"/>
<path d="M16.4296 26.0924H15.6336C14.9142 26.0924 14.3311 25.5093 14.3311 24.7899V21.6323H17.7321V24.7899C17.7321 25.5093 17.149 26.0924 16.4296 26.0924Z" fill="#687DAA"/>
<path d="M11.005 24.7472H2.0575C1.1975 24.7472 0.5 24.0503 0.5 23.1897C0.5 22.3297 1.1975 21.6328 2.0575 21.6328H10.8581C10.7296 21.8533 10.4378 22.4212 10.4701 23.1959C10.5031 23.9894 10.8569 24.5406 11.005 24.7472Z" fill="#FF9A5C"/>
<path d="M16.0312 18.5154V21.6324" stroke="#292929" stroke-miterlimit="10" stroke-linecap="round" stroke-linejoin="round"/>
<path d="M21.9521 5.00444L21.5775 3.38675C21.1943 1.73219 19.7204 0.560626 18.0221 0.560626C16.9536 0.554564 15.9865 1.02231 15.3118 1.773C14.8417 2.29606 14.0289 2.28463 13.5644 1.7565C12.9146 1.01775 11.9761 0.553564 10.93 0.560626C9.33234 0.560626 7.93547 1.63744 7.52891 3.1825L5.92578 9.27438" stroke="#292929" stroke-miterlimit="10" stroke-linecap="round" stroke-linejoin="round"/>
<path d="M18.9687 6.1958H6.73535" stroke="#292929" stroke-miterlimit="10" stroke-linecap="round" stroke-linejoin="round"/>
<path d="M22.3467 15.6485C25.2905 15.6485 27.6769 13.2622 27.6769 10.3184C27.6769 7.37466 25.2905 4.98828 22.3467 4.98828C19.403 4.98828 17.0166 7.37466 17.0166 10.3184C17.0166 13.2622 19.403 15.6485 22.3467 15.6485Z" stroke="#292929" stroke-miterlimit="10" stroke-linecap="round" stroke-linejoin="round"/>
<path d="M22.3474 13.1675C23.9211 13.1675 25.1968 11.8918 25.1968 10.3181C25.1968 8.74446 23.9211 7.46875 22.3474 7.46875C20.7738 7.46875 19.498 8.74446 19.498 10.3181C19.498 11.8918 20.7738 13.1675 22.3474 13.1675Z" stroke="#292929" stroke-miterlimit="10" stroke-linecap="round" stroke-linejoin="round"/>
<path d="M26.6907 7.23155C27.3331 7.05712 27.8056 6.47024 27.8056 5.77268C27.8056 4.93768 27.1287 4.26074 26.2937 4.26074C25.5228 4.26074 24.887 4.83793 24.7939 5.58368" stroke="#292929" stroke-miterlimit="10" stroke-linecap="round" stroke-linejoin="round"/>
<path d="M26.2904 24.7473H30.0052C30.8653 24.7473 31.5626 24.0501 31.5626 23.1899C31.5626 22.3298 30.8653 21.6326 30.0052 21.6326H2.05737C1.19725 21.6326 0.5 22.3298 0.5 23.1899C0.5 24.0501 1.19725 24.7473 2.05737 24.7473H14.3308" stroke="#292929" stroke-miterlimit="10" stroke-linecap="round" stroke-linejoin="round"/>
<path d="M17.7314 24.7471H24.1026" stroke="#292929" stroke-miterlimit="10" stroke-linecap="round" stroke-linejoin="round"/>
<path d="M17.7321 21.6323V24.7506C17.7321 25.4917 17.1314 26.0924 16.3903 26.0924H15.6729C14.9318 26.0924 14.3311 25.4917 14.3311 24.7506V21.6323" stroke="#292929" stroke-miterlimit="10" stroke-linecap="round" stroke-linejoin="round"/>
<path d="M29.9787 21.6326V18.5156C23.0049 18.5156 18.9324 15.6686 16.0312 18.5156C13.1301 15.6686 9.05749 18.5156 2.0838 18.5156V21.6326" stroke="#292929" stroke-miterlimit="10" stroke-linecap="round" stroke-linejoin="round"/>
<path d="M27.7891 5.55036L30.3703 3.69361C31.2936 3.02948 31.3555 1.67767 30.4966 0.931983C29.6378 0.186295 28.3081 0.437171 27.7801 1.44455L26.3037 4.26098" stroke="#292929" stroke-miterlimit="10" stroke-linecap="round" stroke-linejoin="round"/>
<path d="M7.96332 9.27441H3.91057C2.8322 9.27441 1.95801 10.1486 1.95801 11.227C1.95801 12.3054 2.8322 13.1795 3.91057 13.1795H17.8506" stroke="#292929" stroke-miterlimit="10" stroke-linecap="round" stroke-linejoin="round"/>
<path d="M17.1199 9.27441H10.1512" stroke="#292929" stroke-miterlimit="10" stroke-linecap="round" stroke-linejoin="round"/>
</svg>
