<svg width="27" height="31" viewBox="0 0 27 31" fill="none" xmlns="http://www.w3.org/2000/svg">
<path d="M13.0755 23.5447V26.0685" stroke="#292929" stroke-miterlimit="10" stroke-linecap="round" stroke-linejoin="round"/>
<path d="M19.5928 5.98448C19.4338 5.98448 19.275 5.92393 19.1538 5.80268C18.3752 5.0241 17.3401 4.59544 16.2393 4.59544C15.1383 4.59544 14.1032 5.0241 13.3248 5.80268C13.0822 6.04502 12.6891 6.04502 12.4466 5.80268C12.2041 5.56016 12.2041 5.16704 12.4466 4.92452C13.4597 3.91143 14.8065 3.35352 16.2393 3.35352C17.6718 3.35352 19.0188 3.9116 20.0318 4.92452C20.2743 5.16704 20.2743 5.56016 20.0318 5.80268C19.9105 5.92393 19.7517 5.98448 19.5928 5.98448Z" fill="#809FDD"/>
<path d="M12.8856 5.98451C12.8064 5.98451 12.7258 5.96934 12.6482 5.93715C12.3313 5.80588 12.1809 5.44261 12.3122 5.12587C13.4438 2.3935 16.5875 1.0912 19.3201 2.22304C19.6368 2.3543 19.7872 2.71741 19.656 3.03431C19.5249 3.35122 19.1616 3.50166 18.8447 3.3704C16.745 2.50058 14.3292 3.50133 13.4593 5.60106C13.3603 5.84024 13.1291 5.98451 12.8856 5.98451Z" fill="#5E82C9"/>
<path d="M12.8857 5.98447C12.5428 5.98447 12.2647 5.70659 12.2647 5.3635C12.2647 2.40613 14.6708 0 17.6284 0C17.9713 0 18.2492 0.277874 18.2492 0.620797C18.2492 0.963886 17.9713 1.24176 17.6284 1.24176C15.3555 1.24176 13.5065 3.09081 13.5065 5.3635C13.5066 5.70659 13.2286 5.98447 12.8857 5.98447Z" fill="#809FDD"/>
<path d="M11.9125 5.50802L6.09869 19.5652H20.0946L14.2808 5.50802C13.8443 4.4524 12.349 4.4524 11.9125 5.50802Z" fill="#FDE77C"/>
<path d="M15.161 19.5652C12.1696 17.4153 11.7861 9.6093 12.3057 4.98535C12.1414 5.11378 12.0036 5.28758 11.9125 5.50808L6.09869 19.5652H15.161Z" fill="#FAB25F"/>
<path d="M11.5043 8.18765C11.5621 8.19516 11.6157 8.22234 11.6557 8.26471L12.0427 8.67368C12.1758 8.81412 12.4083 8.77726 12.4913 8.60263L12.733 8.09408C12.758 8.04154 12.8006 7.99901 12.8533 7.97399L13.3617 7.73231C13.5363 7.64925 13.5731 7.41657 13.4327 7.28364L13.0239 6.89669C12.9815 6.85666 12.9542 6.80312 12.9467 6.74524L12.874 6.18699C12.8489 5.99518 12.6391 5.88827 12.4692 5.98084L11.9748 6.25004C11.9236 6.27789 11.8644 6.2874 11.807 6.27672L11.61 6.23986L10.8478 8.08274C10.8771 8.09892 10.9102 8.11009 10.946 8.11493L11.5043 8.18765Z" fill="#91D1E0"/>
<path d="M16.983 16.4059L17.4914 16.6476C17.6662 16.7307 17.703 16.9632 17.5624 17.0961L17.1536 17.4832C17.1113 17.5233 17.0841 17.5768 17.0766 17.6347L17.0037 18.1928C16.9788 18.3846 16.769 18.4915 16.599 18.3989L16.1047 18.1297C16.0535 18.1019 15.9941 18.0923 15.9367 18.1032L15.3835 18.2064C15.1933 18.242 15.0267 18.0755 15.0622 17.8854L15.1655 17.3319C15.1763 17.2746 15.1668 17.2152 15.139 17.164L14.8698 16.6696C14.7772 16.4998 14.8841 16.29 15.0759 16.265L15.6342 16.1923C15.6919 16.1848 15.7454 16.1574 15.7856 16.115L16.1726 15.7062C16.3055 15.5658 16.538 15.6025 16.6211 15.7773L16.8627 16.2857C16.8879 16.3384 16.9303 16.3809 16.983 16.4059Z" fill="#91D1E0"/>
<path d="M13.925 10.6063L14.4537 10.7623C14.5084 10.7785 14.5561 10.813 14.5883 10.8602L14.9 11.3149C15.0071 11.4711 15.2378 11.4711 15.3448 11.3149L15.6564 10.8602C15.6888 10.813 15.7363 10.7785 15.7912 10.7623L16.3199 10.6063C16.3413 10.6002 16.3609 10.5913 16.3791 10.5808L15.6444 8.80431L15.2056 8.96026C15.1517 8.97944 15.093 8.97944 15.0391 8.96026L14.5197 8.77562C14.3413 8.71208 14.1546 8.84768 14.1598 9.03698L14.175 9.58806C14.1766 9.64527 14.1585 9.70115 14.1236 9.74651L13.7873 10.1833C13.6719 10.3335 13.7431 10.5528 13.925 10.6063Z" fill="#91D1E0"/>
<path d="M11.52 16.5596L11.6796 16.1109C11.7343 15.9568 11.6172 15.7957 11.4538 15.8L10.9778 15.8132C10.9284 15.8146 10.88 15.7989 10.841 15.7689L10.4635 15.4785C10.3338 15.3786 10.1443 15.4401 10.0981 15.5971L9.96351 16.0539C9.9495 16.1013 9.91964 16.1423 9.87894 16.1702L9.48615 16.4395C9.35122 16.5319 9.35122 16.7312 9.48615 16.8236L9.87894 17.0928C9.91964 17.1209 9.9495 17.1619 9.96351 17.2093L10.0981 17.6659C10.1443 17.8229 10.3338 17.8846 10.4635 17.7847L10.841 17.4943C10.88 17.4643 10.9284 17.4486 10.9778 17.4499L11.4538 17.463C11.6172 17.4675 11.7343 17.3063 11.6796 17.1522L11.52 16.7034C11.5035 16.657 11.5035 16.6061 11.52 16.5596Z" fill="#56B9D1"/>
<path d="M18.8327 17.3571C18.5505 17.3571 18.2823 17.4067 18.0393 17.4959C17.869 17.5583 17.6814 17.5474 17.5209 17.4625C17.1823 17.2834 16.7817 17.1797 16.3522 17.1797C16.0005 17.1797 15.6684 17.2494 15.3735 17.373C15.1904 17.4497 14.9795 17.4323 14.8121 17.3258C14.3419 17.0265 13.7459 16.8474 13.097 16.8474C12.4481 16.8474 11.8522 17.0265 11.382 17.3258C11.2146 17.4323 11.0036 17.4497 10.8204 17.373C10.5257 17.2494 10.1935 17.1797 9.84186 17.1797C9.41237 17.1797 9.01174 17.2834 8.67299 17.4625C8.5127 17.5474 8.32506 17.5584 8.15477 17.4959C7.91159 17.4067 7.64339 17.3571 7.36134 17.3571C6.26152 17.3571 5.36969 18.108 5.36969 19.0342C5.36969 19.9604 6.26152 20.7113 7.36134 20.7113C7.64339 20.7113 7.91159 20.6618 8.15477 20.5725C8.32506 20.5101 8.51254 20.521 8.67299 20.6059C9.01174 20.785 9.41237 20.8888 9.84186 20.8888C10.1935 20.8888 10.5257 20.819 10.8204 20.6955C11.0036 20.6187 11.2146 20.6361 11.382 20.7427C11.8522 21.0419 12.4481 21.221 13.097 21.221C13.7459 21.221 14.3419 21.0419 14.8121 20.7427C14.9795 20.6361 15.1904 20.6187 15.3735 20.6955C15.6684 20.819 16.0005 20.8888 16.3522 20.8888C16.7817 20.8888 17.1823 20.785 17.5209 20.6059C17.6814 20.521 17.869 20.51 18.0393 20.5725C18.2823 20.6618 18.5505 20.7113 18.8327 20.7113C19.9326 20.7113 20.8242 19.9604 20.8242 19.0342C20.8242 18.108 19.9326 17.3571 18.8327 17.3571Z" fill="#E889C2"/>
<path d="M11.2432 14.0334C11.2432 13.5569 10.758 13.1704 10.1594 13.1704C9.56094 13.1704 9.07574 13.5569 9.07574 14.0334C9.07574 14.5101 9.56094 14.8965 10.1594 14.8965C10.758 14.8965 11.2432 14.5101 11.2432 14.0334Z" fill="#E889C2"/>
<path d="M17.1175 14.0334C17.1175 13.5569 16.6323 13.1704 16.0338 13.1704C15.4352 13.1704 14.95 13.5569 14.95 14.0334C14.95 14.5101 15.4352 14.8965 16.0338 14.8965C16.6323 14.8965 17.1175 14.5101 17.1175 14.0334Z" fill="#E889C2"/>
<path d="M13.0966 14.1553C12.6629 14.1553 12.3113 13.8037 12.3113 13.3702V12.7993C12.3113 12.681 12.4072 12.585 12.5257 12.585H13.6674C13.7858 12.585 13.8817 12.6809 13.8817 12.7993V13.3702C13.8817 13.8037 13.5303 14.1553 13.0966 14.1553Z" fill="#4C5969"/>
<path d="M11.5043 8.18782C11.5621 8.19533 11.6157 8.22252 11.6557 8.26488L12.0427 8.67385C12.0635 8.6957 12.0869 8.71288 12.1116 8.72623C12.1101 7.81988 12.1424 6.94139 12.2015 6.12695L11.9748 6.25038C11.9236 6.27823 11.8644 6.28757 11.807 6.2769L11.61 6.2402L10.8478 8.08291C10.8771 8.09926 10.9102 8.11043 10.946 8.1151L11.5043 8.18782Z" fill="#56B9D1"/>
<path d="M11.3818 20.7428C11.852 21.042 12.448 21.2211 13.097 21.2211C13.6477 21.2211 14.1599 21.0917 14.5899 20.8697C11.819 20.3328 11.7398 17.8633 12.6326 16.8789C12.1648 16.9423 11.7373 17.0997 11.3818 17.3259C11.2144 17.4325 11.0036 17.4498 10.8204 17.3731C10.5255 17.2495 10.1935 17.1798 9.84169 17.1798C9.41221 17.1798 9.01158 17.2835 8.67282 17.4627C8.51254 17.5476 8.32506 17.5586 8.1546 17.496C7.91159 17.4068 7.64339 17.3573 7.36134 17.3573C6.26136 17.3573 5.36969 18.1082 5.36969 19.0343C5.36969 19.9605 6.26136 20.7114 7.36134 20.7114C7.64339 20.7114 7.91159 20.6619 8.1546 20.5727C8.32506 20.5103 8.51254 20.5211 8.67282 20.606C9.01158 20.7852 9.41221 20.8889 9.84169 20.8889C10.1935 20.8889 10.5255 20.8192 10.8204 20.6956C11.0036 20.6189 11.2144 20.6362 11.3818 20.7428Z" fill="#DB5AC6"/>
<path d="M5.10352 28.5906H11.6988" stroke="#292929" stroke-miterlimit="10" stroke-linecap="round" stroke-linejoin="round"/>
<path d="M14.4524 28.5903H24.39C25.0865 28.5903 25.651 28.0258 25.651 27.3294C25.651 26.6329 25.0865 26.0684 24.39 26.0684H1.76099C1.06456 26.0684 0.5 26.6329 0.5 27.3294C0.5 28.0258 1.06456 28.5903 1.76099 28.5903H3.33215" stroke="#292929" stroke-miterlimit="10" stroke-linecap="round" stroke-linejoin="round"/>
<path d="M24.3688 26.0684V23.5445C18.7222 23.5445 15.4247 21.2394 13.0757 23.5445C10.7267 21.2394 7.42912 23.5445 1.78259 23.5445V26.0684" stroke="#292929" stroke-miterlimit="10" stroke-linecap="round" stroke-linejoin="round"/>
<path d="M14.4527 26.0684V28.5932C14.4527 29.1933 13.9663 29.6797 13.3663 29.6797H12.7854C12.1853 29.6797 11.6989 29.1933 11.6989 28.5932V26.0684" stroke="#292929" stroke-miterlimit="10" stroke-linecap="round" stroke-linejoin="round"/>
</svg>
