<svg width="33" height="32" viewBox="0 0 33 32" fill="none" xmlns="http://www.w3.org/2000/svg">
<path d="M22.7629 7.91636C20.8235 8.08636 18.496 7.91636 16.0317 7.91636H15.2523C14.1485 5.63917 14.4734 2.54492 16.3585 0.547607C16.5092 0.591357 16.6523 0.666982 16.7779 0.773857C18.1292 1.92011 21.0042 4.59198 22.7629 7.91636Z" fill="#BD9CDE"/>
<path d="M15.2519 7.91634H9.29999C11.0587 4.59196 13.9337 1.92009 15.285 0.773839C15.5894 0.515714 15.9944 0.440089 16.3581 0.547589C15.0606 2.66384 14.8425 5.46571 15.2519 7.91634Z" fill="#A57CD2"/>
<path d="M24.0803 11.5783C21.8678 11.0101 19.074 10.6708 16.0365 10.6701C15.0677 9.89158 14.7821 8.57065 15.1653 7.31577C15.4515 7.30952 15.7403 7.3064 16.0315 7.3064C18.4959 7.3064 20.799 7.52952 22.7628 7.9164C23.374 9.07015 23.849 10.3033 24.0803 11.5783Z" fill="#FFEAB7"/>
<path d="M16.0362 10.67H16.0312C12.9919 10.67 10.1962 11.0094 7.98248 11.5782C8.21373 10.3032 8.68873 9.07005 9.29998 7.9163C11.0319 7.57505 13.0275 7.3613 15.165 7.31567C15.3144 8.53817 15.6225 9.6963 16.0362 10.67Z" fill="#FAD989"/>
<path d="M29.0306 14.4177C29.0306 16.7527 23.2106 18.6452 16.0313 18.6452H15.9788C13.6596 17.3287 12.5376 12.9316 15.8475 10.1908C15.9088 10.1902 15.97 10.1902 16.0313 10.1902C23.2106 10.1902 29.0306 12.0827 29.0306 14.4177Z" fill="#BD9CDE"/>
<path d="M15.9791 18.645C8.8241 18.6357 3.03223 16.7469 3.03223 14.4175C3.03223 12.1025 8.75348 10.2225 15.8479 10.1907C13.6766 12.7275 14.3522 16.6169 15.9791 18.645Z" fill="#A57CD2"/>
<path d="M22.3578 14.7725C22.3578 15.6138 19.5253 16.2957 16.0309 16.2957C15.6028 16.2957 15.1853 16.2857 14.7815 16.2657C13.9849 15.4467 13.8583 14.2705 14.5228 13.2925C15.0059 13.2638 15.5109 13.2488 16.0309 13.2488C19.5253 13.2488 22.3578 13.9307 22.3578 14.7725Z" fill="#7888AF"/>
<path d="M14.7816 16.2656C11.8854 16.1262 9.7041 15.5106 9.7041 14.7725C9.7041 14.0556 11.7566 13.455 14.5229 13.2925C14.401 14.2994 14.5085 15.3275 14.7816 16.2656Z" fill="#687DAA"/>
<path d="M16.0311 26.1426C17.7749 26.5343 19.9543 26.8701 22.4707 26.9123C25.4644 26.9626 28.0211 26.5821 29.9785 26.1426V23.2669C29.9785 23.1334 29.8704 23.0257 29.7369 23.0244C22.9104 22.9603 18.8986 20.2116 16.0311 23.0256C15.8868 23.2621 15.538 23.9054 15.5941 24.7759C15.6359 25.4269 15.8851 25.905 16.0311 26.1426Z" fill="#F3F5FC"/>
<path d="M16.0311 26.1426C14.0049 26.5164 11.5079 26.809 8.65062 26.7788C6.14274 26.7522 3.92837 26.483 2.08374 26.1426V23.2669C2.08374 23.1334 2.1918 23.0257 2.3253 23.0244C9.1518 22.9603 13.1637 20.2116 16.0311 23.0256V26.1426Z" fill="#D7DDF5"/>
<path d="M31.5629 27.7003C31.5629 28.5603 30.8654 29.2571 30.0054 29.2571H11.0056C10.9629 29.2345 10.094 28.7538 10.0442 27.7459C9.99412 26.7328 10.8202 26.1681 10.8587 26.1428C17.2409 26.1428 23.6232 26.1428 30.0054 26.1428C30.8654 26.1428 31.5629 26.8403 31.5629 27.7003Z" fill="#83DEFF"/>
<path d="M16.4296 30.6027H15.6336C14.9142 30.6027 14.3311 30.0196 14.3311 29.3002V26.1426H17.7321V29.3002C17.7321 30.0196 17.1489 30.6027 16.4296 30.6027Z" fill="#687DAA"/>
<path d="M11.0049 29.2574H2.0575C1.1975 29.2574 0.5 28.5606 0.5 27.6999C0.5 26.8399 1.1975 26.1431 2.0575 26.1431H10.8581C10.7295 26.3636 10.4378 26.9314 10.47 27.7062C10.5031 28.4997 10.8568 29.0509 11.0049 29.2574Z" fill="#2ECEFB"/>
<path d="M16.0312 23.0256V26.1427" stroke="#292929" stroke-miterlimit="10" stroke-linecap="round" stroke-linejoin="round"/>
<path d="M16.0312 18.6452C23.2104 18.6452 29.0304 16.7524 29.0304 14.4176C29.0304 12.0827 23.2104 10.1899 16.0312 10.1899C8.85201 10.1899 3.0321 12.0827 3.0321 14.4176C3.0321 16.7524 8.85201 18.6452 16.0312 18.6452Z" stroke="#292929" stroke-miterlimit="10" stroke-linecap="round" stroke-linejoin="round"/>
<path d="M16.0309 16.2958C19.5251 16.2958 22.3577 15.6137 22.3577 14.7723C22.3577 13.9309 19.5251 13.2488 16.0309 13.2488C12.5367 13.2488 9.7041 13.9309 9.7041 14.7723C9.7041 15.6137 12.5367 16.2958 16.0309 16.2958Z" stroke="#292929" stroke-miterlimit="10" stroke-linecap="round" stroke-linejoin="round"/>
<path d="M6.1853 29.2573H14.3307" stroke="#292929" stroke-miterlimit="10" stroke-linecap="round" stroke-linejoin="round"/>
<path d="M17.7318 29.2573H30.0051C30.8653 29.2573 31.5625 28.5601 31.5625 27.7C31.5625 26.8398 30.8653 26.1426 30.0051 26.1426H2.05737C1.19725 26.1426 0.5 26.8398 0.5 27.7C0.5 28.5601 1.19725 29.2573 2.05737 29.2573H3.99781" stroke="#292929" stroke-miterlimit="10" stroke-linecap="round" stroke-linejoin="round"/>
<path d="M18.401 2.26C17.7654 1.63463 17.1976 1.13019 16.7773 0.77375C16.347 0.40875 15.7154 0.40875 15.2851 0.77375C13.527 2.265 9.19004 6.33956 8.08691 11.0715" stroke="#292929" stroke-miterlimit="10" stroke-linecap="round" stroke-linejoin="round"/>
<path d="M23.9755 11.0715C23.3328 8.31421 21.592 5.78046 19.9033 3.85059" stroke="#292929" stroke-miterlimit="10" stroke-linecap="round" stroke-linejoin="round"/>
<path d="M22.7628 7.91646C20.7993 7.52915 18.4954 7.30615 16.0312 7.30615C13.5671 7.30615 11.2631 7.52915 9.29962 7.91646" stroke="#292929" stroke-miterlimit="10" stroke-linecap="round" stroke-linejoin="round"/>
<path d="M29.9787 26.1426V23.0256C23.0049 23.0256 18.9324 20.1786 16.0312 23.0256C13.1301 20.1786 9.05749 23.0256 2.0838 23.0256V26.1426" stroke="#292929" stroke-miterlimit="10" stroke-linecap="round" stroke-linejoin="round"/>
<path d="M17.7321 26.1426V29.2609C17.7321 30.002 17.1314 30.6027 16.3903 30.6027H15.6729C14.9318 30.6027 14.3311 30.002 14.3311 29.2609V26.1426" stroke="#292929" stroke-miterlimit="10" stroke-linecap="round" stroke-linejoin="round"/>
</svg>
