<svg width="32" height="32" viewBox="0 0 32 32" fill="none" xmlns="http://www.w3.org/2000/svg">
<path d="M32 16C32 17.3653 30.3227 18.4907 29.9867 19.7493C29.64 21.0507 30.5173 22.864 29.8587 24.0027C29.1893 25.16 27.176 25.2987 26.2373 26.2373C25.2987 27.176 25.16 29.1893 24.0027 29.8587C22.864 30.5173 21.0507 29.64 19.7493 29.9867C18.4907 30.3227 17.3653 32 16 32C14.6347 32 13.5093 30.3227 12.2507 29.9867C10.9493 29.64 9.136 30.5173 7.99733 29.8587C6.84 29.1893 6.70133 27.176 5.76267 26.2373C4.824 25.2987 2.81067 25.16 2.14133 24.0027C1.48267 22.864 2.36 21.0507 2.01333 19.7493C1.67733 18.4907 0 17.3653 0 16C0 14.6347 1.67733 13.5093 2.01333 12.2507C2.36 10.9493 1.48267 9.136 2.14133 7.99733C2.81067 6.84 4.824 6.70133 5.76267 5.76267C6.70133 4.824 6.84 2.81067 7.99733 2.14133C9.136 1.48267 10.9493 2.36 12.2507 2.01333C13.5093 1.67733 14.6347 0 16 0C17.3653 0 18.4907 1.67733 19.7493 2.01333C21.0507 2.36 22.864 1.48267 24.0027 2.14133C25.16 2.81067 25.2987 4.824 26.2373 5.76267C27.176 6.70133 29.1893 6.84 29.8587 7.99733C30.5173 9.136 29.64 10.9493 29.9867 12.2507C30.3227 13.5093 32 14.6347 32 16Z" fill="#4A3279"/>
<path d="M20.6236 11.232L14.5329 17.3227L11.3756 14.168C10.6902 13.4827 9.57824 13.4827 8.89291 14.168C8.20757 14.8534 8.20757 15.9654 8.89291 16.6507L13.3222 21.08C13.9889 21.7467 15.0716 21.7467 15.7382 21.08L23.1036 13.7147C23.7889 13.0294 23.7889 11.9174 23.1036 11.232C22.4182 10.5467 21.3089 10.5467 20.6236 11.232Z" fill="#FFFCEE"/>
</svg>
