<svg width="33" height="30" viewBox="0 0 33 30" fill="none" xmlns="http://www.w3.org/2000/svg">
<path d="M16.0311 24.0913C17.7749 24.483 19.9543 24.8188 22.4707 24.861C25.4644 24.9113 28.021 24.5308 29.9785 24.0913V21.2156C29.9785 21.0821 29.8704 20.9744 29.7369 20.9732C22.9104 20.909 18.8986 18.1604 16.0311 20.9743C15.8868 21.2108 15.538 21.8541 15.5941 22.7246C15.6359 23.3757 15.8851 23.8537 16.0311 24.0913Z" fill="white"/>
<path d="M16.0311 24.0913C14.0049 24.4652 11.5079 24.7577 8.65061 24.7275C6.14274 24.7009 3.92836 24.4317 2.08374 24.0913V21.2156C2.08374 21.0821 2.1918 20.9744 2.3253 20.9732C9.1518 20.909 13.1637 18.1604 16.0311 20.9743V24.0913Z" fill="white"/>
<path d="M31.5629 25.6487C31.5629 26.5087 30.8654 27.2056 30.0054 27.2056H11.0056C10.9629 27.183 10.094 26.7023 10.0442 25.6944C9.99412 24.6812 10.8202 24.1166 10.8587 24.0913C17.2409 24.0913 23.6232 24.0913 30.0054 24.0913C30.8654 24.0912 31.5629 24.7887 31.5629 25.6487Z" fill="#E1B89A"/>
<path d="M16.4296 28.5512H15.6336C14.9142 28.5512 14.3311 27.9681 14.3311 27.2487V24.0911H17.7321V27.2487C17.7321 27.9681 17.1489 28.5512 16.4296 28.5512Z" fill="white"/>
<path d="M11.0049 27.2059H2.0575C1.1975 27.2059 0.5 26.5091 0.5 25.6484C0.5 24.7884 1.1975 24.0916 2.0575 24.0916H10.8581C10.7295 24.3121 10.4377 24.8799 10.47 25.6547C10.5031 26.4482 10.8568 26.9994 11.0049 27.2059Z" fill="#D89C73"/>
<path d="M16.0312 20.9741V24.0912" stroke="#292929" stroke-miterlimit="10" stroke-linecap="round" stroke-linejoin="round"/>
<path d="M17.5378 0.660579L16.6614 0.895049C16.0864 1.04892 15.481 1.04892 14.906 0.895049L14.0296 0.660579C11.609 0.0129412 9.10629 1.37954 8.34245 3.76598L5.6416 12.2047L15.5626 13.8307L25.9259 12.2047L23.225 3.76598C22.4612 1.37949 19.9584 0.0129412 17.5378 0.660579Z" fill="#E1B89A"/>
<path d="M11.2122 12.6717C10.8546 11.7965 10.0902 9.58523 10.647 6.83766C11.3689 3.27514 13.8103 1.28745 14.4756 0.779924L14.0296 0.660575C11.609 0.0129373 9.10629 1.37954 8.34245 3.76597L5.6416 12.2048C7.49845 12.3604 9.35534 12.5161 11.2122 12.6717Z" fill="#D89C73"/>
<path d="M21.6573 9.48244L19.0197 10.3128C16.7694 11.0212 14.3557 11.0212 12.1055 10.3128L9.46786 9.48244C8.53193 9.18781 7.55763 9.09231 6.60712 9.18802L5.6416 12.2048L15.5626 13.8308L25.9259 12.2048L24.9802 9.25003C23.8859 9.06618 22.7456 9.13984 21.6573 9.48244Z" fill="#D89C73"/>
<path d="M10.501 9.80777L9.46786 9.48257C8.53193 9.18794 7.55763 9.09244 6.60712 9.18816L5.6416 12.2049C7.4985 12.3606 9.35534 12.5163 11.2122 12.6719C10.9967 12.1443 10.6337 11.1309 10.501 9.80777Z" fill="#D89C73"/>
<path d="M26.953 16.0729H4.17195C3.0242 16.0729 2.09375 15.1424 2.09375 13.9947C2.09375 13.3813 2.36475 12.7992 2.83423 12.4043C2.87781 12.3677 2.92177 12.3315 2.96605 12.2959C4.7882 10.8306 7.23745 10.4063 9.46779 11.1085L12.1054 11.9388C14.3557 12.6472 16.7693 12.6472 19.0196 11.9388L21.6572 11.1085C23.8875 10.4063 26.3368 10.8306 28.1589 12.2959C28.2032 12.3315 28.2472 12.3677 28.2908 12.4043C28.7602 12.7992 29.0312 13.3813 29.0312 13.9947C29.0312 15.1425 28.1008 16.0729 26.953 16.0729Z" fill="#E1B89A"/>
<path d="M8.53869 10.8835C6.57654 10.5433 4.53802 11.0318 2.96605 12.2959C2.92177 12.3315 2.87781 12.3677 2.83423 12.4043C2.36475 12.7992 2.09375 13.3814 2.09375 13.9948C2.09375 15.1425 3.0242 16.073 4.17195 16.073C5.31091 16.073 6.44993 16.073 7.58889 16.073C7.34656 15.7307 7.02846 15.1676 6.94228 14.4254C6.71063 12.4302 8.373 11.0197 8.53869 10.8835Z" fill="#D89C73"/>
<path d="M11.5352 8.23181C12.4008 8.23181 13.1026 7.67296 13.1026 6.98358C13.1026 6.2942 12.4008 5.73535 11.5352 5.73535C10.6695 5.73535 9.96777 6.2942 9.96777 6.98358C9.96777 7.67296 10.6695 8.23181 11.5352 8.23181Z" fill="white"/>
<path d="M20.0314 8.23181C20.8971 8.23181 21.5989 7.67296 21.5989 6.98358C21.5989 6.2942 20.8971 5.73535 20.0314 5.73535C19.1657 5.73535 18.4639 6.2942 18.4639 6.98358C18.4639 7.67296 19.1657 8.23181 20.0314 8.23181Z" fill="white"/>
<path d="M7.75821 5.59229L6.0625 10.8902" stroke="#292929" stroke-miterlimit="10" stroke-linecap="round" stroke-linejoin="round"/>
<path d="M25.5378 10.9922L23.2251 3.76624C22.4614 1.37981 19.9585 0.0128817 17.5379 0.660574L16.6615 0.895261C16.0864 1.04919 15.4815 1.04919 14.9065 0.895261L14.0301 0.660574C11.6095 0.0128817 9.10651 1.37981 8.34283 3.76624" stroke="#292929" stroke-miterlimit="10" stroke-linecap="round" stroke-linejoin="round"/>
<path d="M24.9798 9.25007C23.8855 9.06633 22.7451 9.1395 21.6568 9.48259L19.0188 10.3129C16.769 11.0213 14.3549 11.0213 12.1051 10.3129L9.46713 9.48259C8.53109 9.18774 7.55712 9.09235 6.60645 9.18774" stroke="#292929" stroke-miterlimit="10" stroke-linecap="round" stroke-linejoin="round"/>
<path d="M19.3772 16.0729H4.17195C3.0242 16.0729 2.09375 15.1424 2.09375 13.9947C2.09375 13.3813 2.36475 12.7992 2.83423 12.4043C2.87781 12.3677 2.92177 12.3315 2.96605 12.2959C4.7882 10.8306 7.23745 10.4063 9.46779 11.1085L12.1054 11.9388C14.3557 12.6472 16.7693 12.6472 19.0196 11.9388L21.6572 11.1085C23.8875 10.4063 26.3368 10.8306 28.1589 12.2959C28.2032 12.3315 28.2472 12.3677 28.2908 12.4043C28.7602 12.7992 29.0312 13.3813 29.0312 13.9947C29.0312 15.1424 28.1008 16.0729 26.953 16.0729H21.2742" stroke="#292929" stroke-miterlimit="10" stroke-linecap="round" stroke-linejoin="round"/>
<path d="M13.1955 5.62546C13.1955 5.21343 12.8615 4.87939 12.4494 4.87939C12.0374 4.87939 11.7034 5.21343 11.7034 5.62546" stroke="#292929" stroke-miterlimit="10" stroke-linecap="round" stroke-linejoin="round"/>
<path d="M18.3722 5.62546C18.3722 5.21343 18.7062 4.87939 19.1183 4.87939C19.5303 4.87939 19.8643 5.21343 19.8643 5.62546" stroke="#292929" stroke-miterlimit="10" stroke-linecap="round" stroke-linejoin="round"/>
<path d="M14.9923 6.49731C15.1847 6.71813 15.4678 6.85785 15.7837 6.85785C16.0996 6.85785 16.3827 6.71813 16.5751 6.49731" stroke="#292929" stroke-miterlimit="10" stroke-linecap="round" stroke-linejoin="round"/>
<path d="M6.1853 27.2061H14.3307" stroke="#292929" stroke-miterlimit="10" stroke-linecap="round" stroke-linejoin="round"/>
<path d="M17.7317 27.2061H30.0051C30.8652 27.2061 31.5625 26.5088 31.5625 25.6487C31.5625 24.7886 30.8652 24.0913 30.0051 24.0913H2.05737C1.19725 24.0913 0.5 24.7886 0.5 25.6487C0.5 26.5088 1.19725 27.2061 2.05737 27.2061H3.99781" stroke="#292929" stroke-miterlimit="10" stroke-linecap="round" stroke-linejoin="round"/>
<path d="M29.9787 24.0913V20.9743C23.0049 20.9743 18.9324 18.1273 16.0312 20.9743C13.1301 18.1273 9.05749 20.9743 2.0838 20.9743V24.0913" stroke="#292929" stroke-miterlimit="10" stroke-linecap="round" stroke-linejoin="round"/>
<path d="M17.7321 24.0913V27.2096C17.7321 27.9507 17.1314 28.5514 16.3903 28.5514H15.6729C14.9318 28.5514 14.3311 27.9507 14.3311 27.2096V24.0913" stroke="#292929" stroke-miterlimit="10" stroke-linecap="round" stroke-linejoin="round"/>
</svg>
