<svg width="545" height="246" viewBox="0 0 545 246" fill="none" xmlns="http://www.w3.org/2000/svg">
<path d="M54.6547 80.0198C94.5481 30.4361 166.028 1.24219 239.67 1.24219C366.842 1.24219 430.438 100.918 445.191 157.516C448.752 171.182 462.559 179.53 476.36 176.543C482.751 175.16 488.544 174.174 492.982 175.258C502.824 177.663 496.885 186.575 492.763 188.861C513.626 187.052 527.21 182.536 533.511 192.192C537.814 198.785 533.962 206.376 522.782 209.374C540.891 213.243 545.951 221.357 541.265 227.517C527.251 245.94 478.729 231.442 448.55 233.701C313.108 245.65 181.438 244.365 45.4434 244.365C-10.1992 244.365 -10.3438 187.846 28.563 169.516C26.1431 150.089 28.5168 131.766 34.9197 114.729C27.5236 107.379 20.1276 100.028 12.7316 92.6782C18.3001 93.092 23.8677 93.504 29.5911 94.1315C26.9831 89.4484 24.3751 84.7652 21.7671 80.0821C26.5598 81.4391 31.3534 82.796 36.4353 84.082C34.2931 78.7819 32.151 73.4817 30.0088 68.1825C38.1428 71.967 48.2366 76.5169 54.6547 80.0198Z" fill="#D3D8DD"/>
<path d="M445.695 161.768C452.966 174.663 445.406 195.579 433.537 191.611C420.295 187.183 418.274 223.588 434.838 234.859C458.449 231.021 501.058 237.489 517.497 236.927C532.044 236.43 545.95 226.01 543.235 221.032C538.255 211.899 523.954 209.633 523.954 209.633C523.954 209.633 536.089 206.433 535.198 196.919C534.666 191.219 527.694 187.751 522.189 186.177C515.959 184.396 498.417 188.653 492.763 188.863C504.674 178.989 494.555 172.223 481.809 175.473C466.888 179.276 453.548 176.066 445.695 161.768Z" fill="#ABB6C2"/>
<path d="M401.706 164.602C411.261 175.001 433.387 201.071 454.391 193.235C469.283 187.679 486.137 186.876 477.879 201.618C501.193 190.63 517.882 205.798 499.395 214.511C524.343 212.211 537.511 232.523 523.783 236.16C499.162 240.175 478.729 231.443 448.55 233.698C341.131 243.177 222.517 244.332 115.804 244.403C88.7509 237.938 129.535 151.007 195.352 125.358C201.165 164.851 216.257 168.435 221.713 167.909C233.284 166.794 251.761 157.067 261.099 108.917C313.499 103.871 361.233 120.564 401.706 164.602Z" fill="#E2E3E7"/>
<path d="M127.77 124.662C126.915 119.942 133.927 117.042 136.624 120.07C138.413 122.076 136.58 127.399 133.499 128.015C131.076 128.499 128.222 127.154 127.77 124.662Z" fill="#ABB6C2"/>
<path d="M144.779 122.43C143.923 117.71 150.936 114.811 153.633 117.838C155.421 119.844 153.588 125.167 150.508 125.783C148.084 126.267 145.229 124.921 144.779 122.43Z" fill="#ABB6C2"/>
<path d="M126.784 138.375C125.928 133.654 132.941 130.755 135.638 133.783C137.427 135.789 135.594 141.112 132.513 141.728C130.09 142.212 127.236 140.866 126.784 138.375Z" fill="#ABB6C2"/>
<path d="M22.5241 180.702C22.388 178.307 20.4461 176.815 18.2992 176.368C16.0739 177.39 13.8637 179.596 12.9481 181.459C13.7702 183.467 15.7309 185.379 17.737 185.301C20.2071 185.206 22.6677 183.229 22.5241 180.702Z" fill="#ABB6C2"/>
<path d="M26.6869 193.806C26.4157 189.016 18.9195 187.837 17.0041 191.409C15.7341 193.778 18.7607 198.525 21.8998 198.404C24.3699 198.308 26.8305 196.333 26.6869 193.806Z" fill="#ABB6C2"/>
<path d="M98.1018 41.3766C93.3317 46.1476 91.0421 74.561 135.563 60.2187C158.411 52.8586 162.076 20.3026 148.895 15.8784C135.302 21.3024 106.801 32.6775 98.1018 41.3766Z" fill="#ABB6C2"/>
<path d="M111.929 72.6474C106.532 77.2341 105.149 91.9269 111.851 94.2118C117.167 96.0232 129.184 89.1857 127.837 82.2328C126.661 76.1578 117.464 67.9425 111.929 72.6474Z" fill="#ABB6C2"/>
<path d="M192.721 48.5512C187.324 53.1379 185.941 67.8307 192.643 70.1156C197.958 71.927 209.975 65.0895 208.629 58.1366C207.452 52.0616 198.256 43.8463 192.721 48.5512Z" fill="#ABB6C2"/>
<path d="M292.953 7.56348C284.6 12.1502 283.605 27.5555 293.885 30.2392C304.08 32.901 324.511 27.8834 323.134 17.6063C316.768 14.4965 299.845 9.08199 292.953 7.56348Z" fill="#ABB6C2"/>
<path d="M180.623 7.68976C166.943 13.0551 192.509 46.5947 248.933 40.052C269.789 37.6339 281.872 3.55472 261.86 1.51176C240.366 -0.682384 193.198 2.75718 180.623 7.68976Z" fill="#ABB6C2"/>
<path d="M337.318 25.5044C334.662 28.6019 336.181 34.899 340.492 37.1914C344.803 39.4838 353.079 39.224 356.412 35.6568C351.695 31.2912 341.584 26.0619 337.318 25.5044Z" fill="#ABB6C2"/>
<path d="M375.742 50.1929C365.489 51.7095 364.707 77.2634 380.12 86.0514C394.972 94.5199 405.997 81.8908 402.041 76.7787C397.547 70.972 386.621 59.4977 375.742 50.1929Z" fill="#ABB6C2"/>
<path d="M159.331 45.1494C156.23 49.514 159.043 56.2656 164.371 55.9226C168.595 55.6514 174.908 47.3284 171.915 42.8192C169.301 38.8778 161.803 41.6682 159.331 45.1494Z" fill="#ABB6C2"/>
<path d="M72.3595 62.3106C70.891 67.4586 75.7915 72.8873 80.7014 70.7904C84.5936 69.1274 87.7733 59.1762 83.4492 55.9209C79.6704 53.0766 73.5312 58.2058 72.3595 62.3106Z" fill="#ABB6C2"/>
<path d="M28.6594 148.291C67.2223 159.522 74.6325 108.104 46.9203 94.7471C34.0852 110.73 27.4026 131.531 28.6594 148.291Z" fill="#ABB6C2"/>
<path d="M48.7848 88.2589C54.4828 93.44 64.4471 92.8248 69.4648 86.9832C74.4824 81.1397 73.5847 71.1971 67.6023 66.3477C59.3218 73.1569 52.8641 82.1631 48.7848 88.2589Z" fill="#ABB6C2"/>
<path d="M81.6798 130.847C68.8504 123.937 64.122 101.596 70.1072 96.3204C77.1914 90.0753 97.8024 97.6858 99.3955 105.241C102.949 122.089 88.7035 134.632 81.6798 130.847Z" fill="#ABB6C2"/>
<path d="M288.897 47.0346C283.015 56.5681 289.724 76.8427 304.049 84.6942C318.81 92.7857 351.735 90.3468 354.246 70.4105C357.141 47.4088 298.505 31.463 288.897 47.0346Z" fill="#ABB6C2"/>
<path d="M179.364 148.789L284.025 146.682L283.565 235.979L178.193 235.132L179.364 148.789Z" fill="#75C3E2"/>
<path d="M254.185 217.284C248.909 215.074 246.101 210.949 246.101 193.38C240.779 184.534 229.263 181.72 220.356 181.957C215.475 182.088 211.821 177.503 213.202 172.82C214.287 169.142 216.471 165.843 219.512 164.249C224.989 161.378 229.262 161.764 232.215 163.465C237.768 166.66 244.158 168.112 250.563 168.182C254.367 168.224 258.143 168.18 261.131 167.914C261.86 167.849 261.926 172.699 261.336 172.699C241.953 172.699 237.735 171.886 238.908 175.284C241.582 183.025 262.069 182.617 262.069 190.807C262.069 199.779 261.904 204.38 261.904 215.204C261.904 217.237 256.403 218.214 254.185 217.284Z" fill="#C7E3EB"/>
<path d="M200.652 180.029L188.827 178.59L194.769 175.401L188.824 172.141L194.459 169.481L188.813 166.007L200.282 164.148L200.652 180.029Z" fill="#E5C27E"/>
<path d="M219.497 188.328L215.368 192.458L219.497 196.587L223.626 192.458L219.497 188.328Z" fill="#C8DFE6"/>
<path d="M236.328 204.804L232.199 208.934L236.328 213.063L240.457 208.934L236.328 204.804Z" fill="#C8DFE6"/>
<path d="M262.197 154.132L258.067 158.261L262.196 162.391L266.326 158.262L262.197 154.132Z" fill="#C8DFE6"/>
<path d="M198.875 203.703L194.746 207.833L198.875 211.962L203.004 207.833L198.875 203.703Z" fill="#C8DFE6"/>
<path d="M195.352 125.358C192.922 101.278 264.771 74.0367 262.072 103.643C261.465 110.315 252.075 148.697 246.352 160.388C243.42 166.378 239.663 174.869 233.262 174.526C231.482 174.43 231.714 172.343 231.733 170.561C230.83 173.392 228.943 175.878 227.095 178.208C221.362 185.436 214.028 180.45 216.278 175.45C215.868 180.909 206.07 190.135 204.088 178.186C202.618 163.628 196.224 134.006 195.352 125.358Z" fill="#ABB6C2"/>
<path d="M34.7562 114.871C35.6719 111.083 40.1018 115.394 40.1018 115.394C40.1018 115.394 30.6618 151.056 37.1536 171.769C23.8422 180.575 12.9178 199.732 17.1237 215.129C24.0548 240.498 55.2312 243.559 71.1713 244.375C34.1524 244.375 18.2548 243.487 7.38612 228.612C-0.01369 218.484 0.99174 193.059 11.3067 182.744C20.7079 173.342 28.5083 169.06 28.5083 169.06C28.5083 169.06 23.8885 141.771 34.7562 114.871Z" fill="#ABB6C2"/>
<path d="M178.536 149.231C176.369 177.742 174.202 206.252 172.037 234.763C174.023 235.002 176.01 235.241 177.997 235.479C178.192 205.582 178.387 175.684 178.536 149.231Z" fill="#ABB6C2"/>
<path d="M58.8061 82.6575C93.1027 46.4985 140.765 19.032 189.161 7.13525C127.62 15.3316 69.3668 53.081 43.9376 93.8154C47.191 90.8313 55.6189 86.0168 58.8061 82.6575Z" fill="#ABB6C2"/>
<path d="M79.6409 208.755C78.043 207.333 80.2155 204.407 82.7092 203.914C85.2028 203.42 89.8491 204.204 89.6809 206.114C89.5467 207.648 81.7302 210.614 79.6409 208.755Z" fill="#ABB6C2"/>
<path d="M62.6579 190.989C63.6283 192.646 65.7327 193.551 67.6037 193.114C69.4737 192.677 70.9601 190.934 71.0962 189.019C72.2027 192.074 75.2662 194.315 78.5139 194.448C73.965 196.595 71.0867 201.83 71.7066 206.821C70.8807 200.666 67.479 194.898 62.6579 190.989Z" fill="#ABB6C2"/>
<path d="M199.168 147.557C195.821 132.852 188.854 118.985 179.054 107.523C177.489 105.692 177.898 102.536 179.878 101.165C181.857 99.7946 184.956 100.52 186.118 102.63C194.178 117.235 198.825 133.71 199.168 147.557Z" fill="#ABB6C2"/>
<path d="M335.915 240.925C431.171 226.722 440.915 221.667 493.385 236.17C441.926 229.265 387.355 239.148 335.915 240.925Z" fill="#ABB6C2"/>
<path d="M205.036 181.648C209.614 182.35 213.42 173.633 213.967 168.611C216.312 170.789 216.93 176.834 214.609 179.706C212.288 182.579 208.377 186.276 205.036 181.648Z" fill="#C4CED6"/>
<path d="M217.003 177.972C218.692 179.147 221.185 178.984 222.707 177.6C227.522 173.224 231.309 167.725 233.682 161.667C232.85 167.789 230.367 173.679 226.566 178.55C224.162 181.627 219.07 182.084 217.003 177.972Z" fill="#C4CED6"/>
<path d="M233.201 171.766C242.124 164.348 249.045 154.544 253.047 143.653C249.357 154.349 244.115 164.508 237.537 173.714C236.698 174.886 234.912 175.246 233.686 174.487C232.46 173.731 231.983 171.971 233.201 171.766Z" fill="#C4CED6"/>
<path d="M467.723 178.011C474.765 178.908 481.915 178.955 488.969 178.152C491.324 177.884 493.772 179.363 494.628 181.575C495.485 183.786 494.676 186.527 492.754 187.917C496.055 187.38 498.637 184.031 498.318 180.702C497.999 177.373 494.826 174.575 491.484 174.674C483.821 174.904 476.19 176.211 467.723 178.011Z" fill="#C4CED6"/>
<path d="M501.997 188.154C507.844 188.076 513.69 187.998 519.537 187.921C524.428 187.856 529.067 191.759 529.839 196.588C530.611 201.417 527.421 206.572 522.754 208.035C528.726 208.477 534.508 203.217 534.629 197.23C534.751 191.242 529.191 185.751 523.206 185.948C517.868 186.124 512.53 186.298 501.997 188.154Z" fill="#C4CED6"/>
<path d="M523.032 210.787C528.444 210.385 533.915 213.899 535.801 218.988C537.687 224.077 535.826 230.307 531.459 233.529C535.097 232.563 538.738 230.849 540.898 227.766C543.057 224.683 543.217 219.99 540.459 217.429C535.806 213.11 529.641 210.452 523.032 210.787Z" fill="#C4CED6"/>
<path d="M375.822 57.5834C419.721 101.483 426.13 116.195 447.487 160.379C422.387 73.3204 343.626 2.9187 253.045 0.837006C251.51 0.801098 329.517 11.2786 375.822 57.5834Z" fill="#E1E2E6"/>
<path d="M12.2587 91.9595L29.5076 93.3949L21.1884 80.2347L36.8271 83.9105L29.6323 67.8872L58.606 81.8298C58.606 81.8298 63.7002 89.3524 55.4301 103.057C49.1179 113.517 36.932 115.905 34.9193 114.729C32.9066 113.55 12.2587 91.9595 12.2587 91.9595Z" fill="#EABB82"/>
<path d="M37.9074 83.3737L36.6648 74.925L58.318 82.9569L29.317 67.9126L37.9074 83.3737Z" fill="#F1D4A3"/>
<path d="M29.7097 92.3587L27.1565 84.2739L36.2099 85.0412L21.2846 80.6396L29.7097 92.3587Z" fill="#F1D4A3"/>
<path d="M12.9481 92.0171C18.8246 95.5351 26.0808 100.86 31.3847 104.786C36.6405 108.675 44.4362 107.161 49.5219 103.051C54.6075 98.9407 57.602 92.8458 60.3783 86.9268C60.3783 102.106 44.0875 117.64 36.8408 116.133C34.7931 115.707 18.5222 99.4566 12.9481 92.0171Z" fill="#E1A66E"/>
<path d="M117.993 245.645C105.902 245.645 93.7698 245.634 81.5574 245.624C69.5492 245.615 57.5135 245.604 45.4438 245.604C21.5256 245.604 4.86252 234.951 0.869209 217.107C-3.28568 198.537 7.77387 178.349 27.2254 168.782C25.0341 150.1 27.1744 131.823 33.5934 114.441C33.8296 113.799 34.543 113.47 35.1865 113.708C35.8281 113.946 36.157 114.659 35.9198 115.302C29.5386 132.581 27.4777 150.77 29.7947 169.362C29.8609 169.894 29.5774 170.408 29.0917 170.638C10.1797 179.548 -0.671029 198.863 3.29015 216.567C7.01132 233.196 22.7701 243.124 45.4438 243.124C57.5145 243.124 69.5511 243.134 81.5593 243.144C206.791 243.251 325.075 243.349 448.442 232.464C458.704 231.696 471.217 232.858 483.315 233.982C506.952 236.175 531.392 238.447 540.278 226.765C541.684 224.918 542.03 222.997 541.31 221.055C539.659 216.6 532.812 212.784 522.524 210.586C521.964 210.466 521.558 209.978 521.543 209.405C521.528 208.833 521.908 208.324 522.462 208.175C528.126 206.657 532.145 203.765 533.494 200.244C534.41 197.847 534.057 195.297 532.473 192.868C527.942 185.925 518.934 187.039 505.295 188.725C501.573 189.186 497.353 189.708 492.871 190.096C492.295 190.149 491.747 189.782 491.577 189.223C491.406 188.663 491.65 188.06 492.161 187.776C494.37 186.552 497.455 182.811 497.073 179.966C496.848 178.297 495.373 177.117 492.688 176.462C488.312 175.393 482.353 176.513 476.624 177.753C462.061 180.905 447.725 172.153 443.991 157.827C429.986 104.097 369.257 2.48046 239.669 2.48046C165.636 2.48046 93.648 32.7922 56.2709 79.6998C55.8438 80.2356 55.0623 80.3235 54.5285 79.8964C53.9917 79.4702 53.9039 78.6897 54.331 78.1539C92.1606 30.6774 164.91 0 239.669 0C269.663 0 297.984 5.57136 323.843 16.5572C346.4 26.1408 367.125 39.8329 385.442 57.2547C414.496 84.8866 437.28 122.25 446.39 157.202C449.789 170.237 462.839 178.201 476.099 175.33C482.112 174.029 488.389 172.86 493.276 174.052C497.981 175.202 499.273 177.724 499.53 179.636C499.886 182.289 498.424 185.131 496.57 187.249C499.561 186.935 502.398 186.585 504.99 186.264C519.03 184.525 529.173 183.272 534.549 191.513C536.556 194.589 537.005 198.004 535.809 201.129C534.52 204.5 531.506 207.277 527.158 209.17C536.115 211.677 541.906 215.527 543.637 220.192C544.641 222.904 544.15 225.771 542.252 228.267C532.533 241.043 507.395 238.709 483.085 236.45C471.091 235.337 458.683 234.183 448.644 234.936C337.218 244.766 229.95 245.645 117.993 245.645Z" fill="#0D0D0D"/>
<path d="M69.8959 201.536C69.3705 201.536 68.8829 201.2 68.7147 200.672C67.7537 197.658 70.2105 194.356 74.6886 192.643C75.3283 192.4 76.0455 192.72 76.2893 193.359C76.5341 193.998 76.2137 194.716 75.574 194.96C72.537 196.122 70.562 198.299 71.078 199.919C71.2859 200.571 70.9249 201.27 70.2729 201.477C70.1472 201.517 70.0206 201.536 69.8959 201.536Z" fill="#675253"/>
<path d="M85.301 193.248C84.7813 193.248 84.2975 192.918 84.1246 192.399C83.9082 191.75 84.2606 191.046 84.9108 190.831C86.8715 190.18 88.3314 189.489 89.6184 188.881C91.9959 187.756 93.8726 186.86 97.0249 187.066C97.7081 187.109 98.2278 187.697 98.1853 188.381C98.1418 189.065 97.5626 189.594 96.869 189.54C94.3573 189.387 92.8936 190.075 90.6796 191.123C89.3284 191.763 87.7957 192.486 85.6922 193.186C85.5618 193.227 85.4296 193.248 85.301 193.248Z" fill="#675253"/>
<path d="M71.3669 182.449C71.1845 182.449 71.0012 182.409 70.8292 182.326L63.4341 178.762C62.8171 178.467 62.5572 177.724 62.8549 177.107C63.1525 176.49 63.8915 176.229 64.5104 176.528L71.072 179.69L75.9357 174.334C76.3959 173.827 77.1811 173.79 77.6885 174.248C78.195 174.709 78.2328 175.494 77.7726 176.001L72.2853 182.042C72.0444 182.308 71.708 182.449 71.3669 182.449Z" fill="#675253"/>
<path d="M76.8847 195.303C75.4352 195.303 74.2898 194.957 73.3383 194.266C70.6632 192.322 70.1265 187.829 70.1265 181.208C70.1265 180.522 70.6812 179.968 71.3662 179.968C72.0513 179.968 72.6069 180.522 72.6069 181.208C72.6069 187.928 73.241 191.129 74.7964 192.259C75.9794 193.119 78.1726 192.985 81.6944 191.841C82.3436 191.628 83.0457 191.985 83.2573 192.637C83.469 193.288 83.1128 193.989 82.4617 194.199C80.1967 194.936 78.3786 195.303 76.8847 195.303Z" fill="#675253"/>
<path d="M42.1289 173.939C37.2615 173.939 32.396 172.947 27.9199 170.973C27.1138 170.618 26.7481 169.677 27.1034 168.87C27.4597 168.064 28.3999 167.701 29.2059 168.055C36.7418 171.378 45.4919 171.642 53.214 168.783C54.0399 168.479 54.9574 168.9 55.2636 169.725C55.5688 170.551 55.1473 171.468 54.3214 171.774C50.4179 173.221 46.2724 173.939 42.1289 173.939Z" fill="#675253"/>
<path d="M84.6934 160.172C83.9421 160.172 83.2731 159.639 83.1285 158.873C82.9651 158.008 83.5339 157.174 84.3985 157.009C97.6314 154.509 109.237 144.199 113.279 131.354C113.543 130.514 114.438 130.05 115.279 130.311C116.119 130.575 116.585 131.472 116.321 132.311C111.937 146.246 99.3456 157.431 84.991 160.143C84.8909 160.161 84.7916 160.172 84.6934 160.172Z" fill="#675253"/>
<path d="M71.6803 211.155C71.6397 211.155 71.5991 211.153 71.5575 211.148C70.8762 211.082 70.3773 210.474 70.4444 209.793C71.2088 202.03 65.3124 191.477 54.1215 187.254C53.4809 187.012 53.1567 186.296 53.3986 185.656C53.6405 185.017 54.3549 184.693 54.9975 184.933C67.3015 189.576 73.7696 201.342 72.9135 210.035C72.8511 210.677 72.3106 211.155 71.6803 211.155Z" fill="#675253"/>
<path d="M208.578 185.248C207.623 185.248 206.754 184.997 205.978 184.497C204.19 183.34 203.103 180.966 202.743 177.435C197.995 130.699 191.943 114.276 183.719 102.922C183.316 102.367 183.44 101.593 183.995 101.19C184.551 100.789 185.325 100.913 185.727 101.467C194.194 113.153 200.407 129.896 205.212 177.186C205.482 179.85 206.233 181.707 207.325 182.413C207.97 182.83 208.794 182.877 209.836 182.553C212.991 180.599 214.238 177.317 215.332 173.842C215.335 173.835 215.337 173.826 215.339 173.821C215.339 173.82 215.339 173.819 215.339 173.819C215.534 173.231 216.137 172.88 216.745 172.994C216.83 173.011 216.911 173.035 216.988 173.067C216.989 173.067 216.99 173.069 216.991 173.068C217.193 173.151 217.365 173.286 217.494 173.451C217.495 173.451 217.496 173.452 217.496 173.454C217.581 173.563 217.647 173.687 217.691 173.82C217.736 173.954 217.759 174.095 217.755 174.24C217.752 174.513 217.731 175.031 217.635 175.58C217.524 177.682 217.882 179.378 218.615 180.062C218.829 180.262 219.21 180.508 220.035 180.346C220.114 180.329 220.196 180.321 220.278 180.321C225.133 180.321 228.995 174.609 231.061 169.106C231.113 168.968 231.167 168.82 231.223 168.666C231.327 168.383 231.524 168.159 231.769 168.018V168.017C231.77 168.017 231.771 168.016 231.772 168.016L231.773 168.015C231.864 167.962 231.961 167.922 232.063 167.895C232.261 167.84 232.474 167.835 232.685 167.887C232.775 167.909 232.86 167.941 232.94 167.981C233.135 168.078 233.297 168.222 233.414 168.395C233.489 168.505 233.547 168.626 233.582 168.757C233.618 168.884 233.634 169.019 233.627 169.156C233.613 169.566 233.568 170.051 233.522 170.567C233.456 171.287 233.328 172.696 233.443 173.297C236.791 174.074 238.533 171.533 240.991 167.283C241.517 166.373 242.061 165.432 242.633 164.574C248.126 155.416 250.963 146.182 253.967 136.407C254.384 135.044 254.806 133.672 255.238 132.29C261.415 108.347 263.491 86.6947 261.565 66.1583C261.502 65.4761 262.002 64.8723 262.684 64.8071C263.368 64.7476 263.971 65.2437 264.035 65.9278C265.987 86.7542 263.89 108.685 257.623 132.971C257.175 134.409 256.754 135.776 256.338 137.134C253.288 147.058 250.408 156.433 244.728 165.898C244.169 166.741 243.668 167.607 243.138 168.523C240.959 172.293 238.248 176.979 232.852 175.706C232.376 175.662 231.944 175.451 231.621 175.096C231.472 174.932 231.351 174.748 231.256 174.544C229.08 178.403 225.503 182.734 220.398 182.801C218.675 183.107 217.561 182.47 216.923 181.875C216.319 181.311 215.908 180.574 215.635 179.769C214.583 181.709 213.151 183.456 210.994 184.752C210.916 184.798 210.834 184.836 210.748 184.864C209.985 185.12 209.26 185.248 208.578 185.248Z" fill="#675253"/>
<path d="M283.564 237.219H283.554L178.183 236.372C177.852 236.37 177.537 236.233 177.306 235.998C177.075 235.762 176.948 235.444 176.953 235.115L178.123 148.772C178.133 148.104 178.669 147.562 179.339 147.549C182.882 147.477 186.184 147.406 189.485 147.335C192.788 147.264 196.091 147.193 199.636 147.121C200.303 147.093 200.887 147.651 200.9 148.336C200.914 149.02 200.371 149.586 199.685 149.602C196.141 149.672 192.84 149.743 189.538 149.815C186.611 149.878 183.683 149.941 180.588 150.005L179.45 233.902L282.33 234.729L282.778 147.948C266.351 148.278 251.799 148.579 251.799 148.579C251.113 148.593 250.547 148.049 250.533 147.365C250.519 146.68 251.063 146.113 251.747 146.099C251.747 146.099 267.059 145.782 284 145.442C284.339 145.44 284.657 145.564 284.895 145.798C285.133 146.033 285.266 146.354 285.265 146.688L284.804 235.985C284.803 236.315 284.67 236.63 284.435 236.861C284.203 237.091 283.89 237.219 283.564 237.219Z" fill="#675253"/>
<path d="M261.248 226.846H190.624C189.939 226.846 189.385 226.291 189.385 225.607C189.385 224.92 189.939 224.365 190.624 224.365H261.248C261.933 224.365 262.488 224.92 262.488 225.607C262.488 226.292 261.933 226.846 261.248 226.846Z" fill="#675253"/>
<path d="M37.8347 116.956C36.4078 116.956 35.1321 116.58 34.0606 115.809C34.0199 115.78 33.9812 115.748 33.9444 115.715C26.1666 108.558 11.503 92.967 11.3556 92.8092C11.0013 92.4322 10.9181 91.8747 11.1477 91.4107C11.3773 90.9486 11.8715 90.6784 12.3856 90.7266L27.3194 92.2527L19.9234 80.5524C19.6512 80.1234 19.6692 79.5716 19.9668 79.1606C20.2654 78.7486 20.7842 78.5624 21.2756 78.6862L34.6455 82.0776L28.5015 68.3958C28.2917 67.9281 28.391 67.3791 28.7519 67.0153C29.1129 66.6515 29.66 66.5466 30.1306 66.7516C31.0481 67.1542 52.6957 76.6489 59.8007 81.7591C59.9519 81.8678 60.0757 82.0095 60.1645 82.1711C64.6671 90.4015 58.1423 103.468 49.2325 111.344C45.0672 115.025 41.0635 116.956 37.8347 116.956ZM35.5649 113.834C37.9953 115.506 42.702 113.806 47.5893 109.485C55.5012 102.492 61.701 90.686 58.1178 83.6065C52.57 79.7209 38.3043 73.1394 32.0951 70.3433L37.9594 83.4033C38.154 83.837 38.0841 84.3445 37.778 84.7083C37.4718 85.073 36.9852 85.2308 36.5231 85.1137L23.6823 81.8574L30.7788 93.0833C31.032 93.4849 31.0349 93.9951 30.7854 94.3986C30.535 94.8021 30.0767 95.027 29.6043 94.9807L15.4557 93.5349C19.8837 98.1935 29.6902 108.42 35.5649 113.834Z" fill="#675253"/>
</svg>
