<svg width="268" height="300" viewBox="0 0 268 300" fill="none" xmlns="http://www.w3.org/2000/svg">
<mask id="mask0_0_1398" style="mask-type:alpha" maskUnits="userSpaceOnUse" x="0" y="0" width="268" height="300">
<path d="M0 0H268V256C268 280.301 248.301 300 224 300H44C19.6995 300 0 280.301 0 256V0Z" fill="#FFCFCF"/>
</mask>
<g mask="url(#mask0_0_1398)">
<path d="M161.053 183.73C172.687 39.1691 -23.8497 48.0468 -125.687 70.9116C-127.061 71.2201 -128.122 72.2253 -128.555 73.5658L-137.528 101.355C-137.811 102.234 -137.782 103.184 -137.445 104.044L-0.864919 452.578C-0.0979614 454.536 2.05305 455.565 4.05846 454.935L460.878 311.39C356.054 329.501 149.336 329.325 161.053 183.73Z" fill="#FFB5B5"/>
</g>
</svg>
