<svg width="1360" height="740" viewBox="0 0 1360 740" fill="none" xmlns="http://www.w3.org/2000/svg">
<mask id="mask0_0_409" style="mask-type:alpha" maskUnits="userSpaceOnUse" x="0" y="0" width="1360" height="740">
<rect width="1360" height="740" rx="44" fill="#9D88CD"/>
</mask>
<g mask="url(#mask0_0_409)">
<path d="M1029.5 545.5C1255.76 545.5 1244 257.833 1368 267C1377 315.833 1394.2 436.9 1391 530.5C1387 647.5 1357.5 934 1236 1084.5C1114.5 1235 283 852.5 594.5 856.5C906 860.5 735.5 545.5 1029.5 545.5Z" fill="#9078C7"/>
<path d="M203.5 133.5C330 415 8 467 -0.5 473.5L-119 411L-80 -30L137.66 -175.434C138.909 -176.545 140.197 -177.394 141.5 -178L137.66 -175.434C118.292 -158.208 108.431 -78.0565 203.5 133.5Z" fill="#9078C7"/>
</g>
</svg>
