<svg width="21" height="21" viewBox="0 0 21 21" fill="none" xmlns="http://www.w3.org/2000/svg">
<path d="M0.440346 6.67421C-0.688831 5.25342 0.505845 3.18418 2.30087 3.45168L7.71493 4.2585C8.26296 4.34017 8.82032 4.19083 9.2541 3.84608L13.5394 0.440328C14.9602 -0.688849 17.0294 0.505827 16.7619 2.30086L15.9551 7.71491C15.8734 8.26295 16.0228 8.8203 16.3675 9.25408L19.7733 13.5394C20.9025 14.9602 19.7078 17.0294 17.9127 16.7619L12.4987 15.9551C11.9507 15.8734 11.3933 16.0228 10.9595 16.3675L6.67423 19.7733C5.25344 20.9024 3.1842 19.7078 3.4517 17.9127L4.25852 12.4987C4.34019 11.9506 4.19085 11.3933 3.8461 10.9595L0.440346 6.67421Z" fill="#F7E043"/>
</svg>
