<svg width="39" height="44" viewBox="0 0 39 44" fill="none" xmlns="http://www.w3.org/2000/svg">
<path d="M23.5877 32.654C23.5877 32.654 16.1778 43.7956 14.8916 43.1088C13.6054 42.4219 11.4769 28.2995 11.4769 28.2995C11.4769 28.2995 -0.0508287 23.4058 0.000153178 22.1025C0.0511245 20.7989 11.7347 14.3052 11.7347 14.3052C11.7347 14.3052 12.6772 2.80452 12.882 1.82039C13.0868 0.836256 13.3724 -0.169446 13.856 0.024152C14.3397 0.21775 24.1568 10.182 24.1568 10.182C24.1568 10.182 35.184 9.00643 36.8923 9.14432C38.6006 9.28221 38.3353 9.7142 36.7515 12.6698C35.1676 15.6255 31.4919 21.4189 31.4919 21.4189C31.4919 21.4189 37.4187 36.0298 36.3515 36.1251C35.2844 36.2199 23.5877 32.654 23.5877 32.654Z" fill="#F7E043"/>
</svg>
