<svg width="32" height="32" viewBox="0 0 32 32" fill="none" xmlns="http://www.w3.org/2000/svg">
<path d="M28.0001 16.6401H29.3335V17.9202H32V21.7601H30.6667V23.0401H29.3335V24.3201H28.0001V26.8802H22.6667V28.1602H18.6667H17.3334V29.4402H16H14.6667V30.7201H9.33337V21.7601H24V16.6401H28.0001Z" fill="#AA7A41"/>
<path d="M9.33337 28.1601H14.6667V26.8801H20.0001H22.6667V25.6H26.6668V24.32H28.0001V23.04H29.3335V21.76H30.6667V19.2001H32V21.76H30.6667V23.04H29.3335V24.32H28.0001V25.6H26.6668V26.8801H22.6667V28.1601H17.3334V29.4401H14.6667V30.72H9.33337V28.1601Z" fill="#754F26"/>
<path d="M13.3335 23.04V25.6001H12.0001V26.8801H10.6667V28.1601H9.33338V29.4402H8.00002V30.72H5.33329V32H4.0001V30.72H2.66674V29.4402H1.33337V28.1601H5.33329V23.04H13.3335Z" fill="#9B3A38"/>
<path d="M21.3335 3.84007H20.0001V5.1201H18.6667V6.39995H16V8.96H17.3334V10.24H16V11.5201H14.6667V12.8001H13.3335V14.0799H12.0001V15.36H10.6667V16.64H9.33337V20.4801H6.66664V21.7599H5.33328V23.0399H2.66673V24.32H1.33336V25.6H0V28.16H1.33336V29.4401H6.66664V28.16H8.00001H9.33337V26.88H10.6667V25.6H12.0001V24.32V23.0399H14.6667V24.32H22.6667V23.0399H24V21.7599H25.3334V20.4801H26.6668V19.2H28.0001V17.92V16.64V15.36H29.3335V11.5201H28.0001V8.96V7.67998H29.3335V3.84007H28.0001V5.1201H26.6668V1.28002H25.3334V2.56005H24V0H22.6667V1.28002H21.3335V3.84007Z" fill="#FFB031"/>
<path d="M17.3334 10.24V11.5201H18.6667V12.8001H20.0001V15.36H21.3335V16.64H22.6666V17.92H24H25.3334V19.2H28.0001V15.36H29.3335V11.5201H28.0001V7.67998H29.3335V3.84007H28.0001V5.1201H26.6667V1.28002H25.3334V2.56005H24V0H22.6666V1.28002H21.3335V3.84007H20.0001V5.1201H18.6667V6.39995H16V8.96H17.3334V10.24Z" fill="white"/>
<path d="M18.6667 8.96007V10.2401H20.0001V11.5201H22.6667V12.8001H24V11.5201H25.3334V10.2401H26.6668V7.68005H25.3334V6.40003V3.84014H24V2.56012H21.3335V3.84014H20.0001V5.12017H18.6667V8.96007Z" fill="#CACEE0"/>
<path d="M22.6669 5.12003H21.3335V6.40005H22.6669V5.12003Z" fill="#28211C"/>
<path d="M18.6667 6.39988V5.12003H15.9999V6.39988H13.3334V7.67991H14.6666V8.95993H15.9999V10.24H18.6667V8.95993H20V6.39988H18.6667Z" fill="#9B3A38"/>
<path d="M14.6667 7.67993H16.0001V8.95996H18.6668V10.24H16.0001V8.95996H14.6667V7.67993Z" fill="#722626"/>
<path d="M21.3334 15.3601V16.6401H20V17.9201H18.6666V19.2001H17.3333V20.4802H15.9999V21.76H13.3334V20.4802H12V19.2001H13.3334V20.4802H15.9999V19.2001H17.3333V17.9201H18.6666V16.6401H20V15.3601H21.3334Z" fill="#F0923D"/>
<path d="M17.3334 23.04V24.3201H18.6667V25.6001H20.0001V26.8801H18.6667V28.1601H20.0001V26.8801H21.3335V28.1601H22.6667V26.8801H21.3335V25.6001H20.0001V24.3201H18.6667V23.04H17.3334Z" fill="#28211C"/>
<path d="M22.6667 21.7599V23.04H24.0001V24.32H25.3335V25.6H24.0001V26.88H25.3335V25.6H26.6668V26.88H28.0002V25.6H26.6668V24.32H25.3335V23.04H24.0001V21.7599H22.6667Z" fill="#28211C"/>
</svg>
