<svg width="32" height="32" viewBox="0 0 32 32" fill="none" xmlns="http://www.w3.org/2000/svg">
<path d="M20.8129 24.3878L22.6773 24.4067L22.6546 25.9163C22.6358 26.0521 22.6622 26.1616 22.5376 26.2408C22.1451 26.4899 21.3337 26.3729 20.8733 26.3616C20.8657 26.9579 20.911 27.6146 20.794 28.1958L18.9787 28.2033L18.9674 30.0753C18.3636 30.0753 17.7522 30.0979 17.1483 30.0639C17.1295 30.7093 17.1257 31.3547 17.1332 32H15.1368C15.1368 31.4943 15.1028 30.9659 15.1707 30.464C15.1292 30.3206 15.099 30.2526 15.0236 30.1281C14.4235 29.9809 13.7479 30.0639 13.129 30.0715L13.1139 28.1996C13.7819 28.1731 14.4461 28.1505 15.1104 28.1543C15.1028 28.6902 14.9971 29.4978 15.1707 29.996C15.7897 29.9922 16.4086 29.9771 17.0276 29.9545C16.986 29.3808 17.0049 28.7959 17.0011 28.2222L18.9674 28.2071V26.2673H20.7827C20.8695 25.6634 20.8129 24.9916 20.8091 24.3802L20.8129 24.3878Z" fill="#2C213A"/>
<path d="M3.71656 6.28003H5.82247C5.64131 7.7519 5.75831 9.33699 5.75076 10.824C5.73566 14.0017 5.75831 17.1945 5.67905 20.3722L5.55451 20.4289C4.92047 20.4175 4.29021 20.4175 3.65618 20.4289C3.62976 15.7151 3.69391 10.9938 3.71656 6.28003Z" fill="#2C213A"/>
<path d="M26.3682 6.42712C27.0174 6.45354 27.6665 6.46486 28.3156 6.46109C28.3534 11.1182 28.3609 15.7754 28.3345 20.4288C27.9533 20.4439 27.5797 20.459 27.1985 20.4288C26.9268 20.4061 26.6362 20.4061 26.4097 20.5911C26.2814 20.6929 26.2852 21.0666 26.2701 21.2326C26.1758 20.9798 26.2059 20.7156 26.2135 20.4476V11.1937C26.2135 9.74827 26.1191 8.23866 26.2324 6.80075C26.2437 6.6347 26.2663 6.56299 26.3645 6.4309L26.3682 6.42712Z" fill="#2C213A"/>
<path d="M10.1738 0H22.3715C22.3715 0.00377403 22.3903 2.13233 22.3903 2.13233L24.334 2.17384C24.3792 2.87203 24.3604 3.56269 24.3377 4.26088L26.3304 4.28353C26.3304 4.95908 26.2776 5.67992 26.3531 6.3517L26.3682 6.43095C26.27 6.56304 26.2474 6.63475 26.2361 6.80081C26.1228 8.23871 26.2172 9.7521 26.2172 11.1938V20.4477C26.2096 20.7119 26.1757 20.9798 26.27 21.2327C26.3115 21.6365 26.3266 22.0252 26.3191 22.4291L24.5076 22.4366C24.4472 23.1008 24.4585 23.7688 24.4585 24.4368H22.7073C22.7149 24.935 22.7262 25.4181 22.6507 25.9163L22.6734 24.4066L20.809 24.3878C20.809 24.9992 20.8694 25.6709 20.7826 26.2748H18.9711V28.2109L17.0048 28.226C17.0086 28.7996 16.9897 29.3884 17.0312 29.9582C16.4123 29.9809 15.7933 29.9922 15.1744 29.9998C14.997 29.5054 15.1065 28.6977 15.114 28.158C14.446 28.158 13.7818 28.1769 13.1175 28.2033C12.6911 28.2033 12.2646 28.1656 11.8381 28.1354C11.5438 28.1278 11.4343 28.1618 11.1966 27.9807C11.1249 27.7882 11.0833 27.6561 11.0947 27.4523C11.1173 27.09 11.1135 26.7277 11.1135 26.3654L10.672 26.3201C10.2191 26.2899 9.75866 26.2899 9.30577 26.2748C9.25671 25.6257 9.27935 24.9614 9.27181 24.3123C8.67174 24.2029 7.95089 24.2632 7.3395 24.2557V22.3875L5.53174 22.3611C5.52797 21.7195 5.54684 21.0742 5.55439 20.4288L5.67893 20.3722C5.76196 17.1945 5.73931 14.0054 5.75064 10.8239C5.75818 9.33317 5.64119 7.75186 5.82234 6.27999C5.91292 5.94788 5.91292 5.58557 5.93556 5.24591L5.92802 4.1703C6.61866 4.1854 7.30176 4.18541 7.99618 4.15899V2.09836C8.69815 2.03043 9.42654 2.06062 10.1285 2.0493C10.1361 1.3662 10.1512 0.683098 10.1776 0.00377229L10.1738 0Z" fill="#F2AA4E"/>
<path d="M11.1136 26.3616C11.7627 26.3389 12.4043 26.3201 13.0535 26.3465C13.0723 26.9466 13.0799 27.5504 13.0799 28.1505C12.6685 28.1392 12.2458 28.1052 11.8344 28.1316C11.5401 28.1241 11.4306 28.158 11.1929 27.9769C11.1212 27.7844 11.0796 27.6523 11.091 27.4485C11.1136 27.0862 11.1098 26.7239 11.1098 26.3616H11.1136Z" fill="#2C213A"/>
<path d="M15.2574 16.5001L17.2086 16.4812V18.4286L15.2385 18.421C15.28 17.787 15.2574 17.1341 15.2574 16.5001Z" fill="#2C213A"/>
<path d="M19.2354 12.5411L21.1677 12.5336C21.1752 13.1865 21.1677 13.8394 21.1639 14.4885L19.2391 14.5036V12.5411H19.2354Z" fill="#2C213A"/>
<path d="M17.2012 14.5942L19.2316 14.5715V16.485L17.2125 16.4812L17.2012 14.5942Z" fill="#2C213A"/>
<path d="M7.9962 2.0946C8.67552 2.12102 9.34352 2.11725 10.0228 2.0946L10.0078 4.12503C9.33975 4.13258 8.65665 4.10993 7.98865 4.15522V2.0946H7.9962Z" fill="#2C213A"/>
<path d="M11.0646 16.4057L13.1139 16.3831L13.1252 18.372L11.0608 18.3908V16.4057H11.0646Z" fill="#2C213A"/>
<path d="M24.3341 4.25708L26.3268 4.27972C26.3268 4.95528 26.2739 5.67611 26.3494 6.34789C25.6701 6.39695 24.9719 6.37054 24.2888 6.37809C24.2888 5.67234 24.2661 4.96282 24.3341 4.25708Z" fill="#2C213A"/>
<path d="M7.99249 4.15515L7.98495 6.26107C7.56226 6.26862 7.13956 6.26862 6.71687 6.30258C6.5244 6.31768 6.33192 6.3139 6.16586 6.20445C5.95074 6.06859 5.95074 5.91008 5.93942 5.68364C5.93187 5.53645 5.93565 5.38927 5.93565 5.24208L5.9281 4.16648C6.61875 4.18158 7.30185 4.18157 7.99627 4.15515H7.99249Z" fill="#2C213A"/>
<path d="M13.1554 18.4248H15.2387C15.1858 19.2438 15.2047 20.0816 15.1934 20.9081L13.1629 20.8628L13.1554 18.4248Z" fill="#2C213A"/>
<path d="M24.4057 20.4627L26.2135 20.4476C26.2059 20.7118 26.1757 20.9798 26.2701 21.2326C26.3116 21.6364 26.3267 22.0252 26.3191 22.429L24.5076 22.4366C24.4472 23.1008 24.4585 23.7688 24.4585 24.4368H22.7074C22.6583 23.7575 22.6885 23.0593 22.681 22.3799C23.198 22.3686 23.7339 22.5045 24.2359 22.3422C24.4661 22.1158 24.4095 22.0025 24.4246 21.6893L24.4095 20.4627H24.4057Z" fill="#2C213A"/>
<path d="M5.67906 20.3722H7.43776L7.40379 22.312L9.29081 22.2818C9.29081 22.9423 9.26439 23.6141 9.29836 24.2707L11.0646 24.2519C11.091 24.7651 11.2495 25.8181 10.9703 26.2559L10.6759 26.3163C10.223 26.2861 9.76256 26.2861 9.30968 26.271C9.26062 25.6219 9.28326 24.9576 9.27571 24.3085C8.67564 24.199 7.9548 24.2594 7.34341 24.2519V22.3837L5.53565 22.3573C5.53188 21.7157 5.55075 21.0704 5.55829 20.425L5.68284 20.3684L5.67906 20.3722Z" fill="#2C213A"/>
<path d="M12.495 6.09127C14.0008 6.07618 15.5104 6.0724 17.0163 6.07994V8.04244L12.6799 8.03489V9.69546H14.6311C14.7556 9.71433 14.6801 9.69546 14.8462 9.80868C14.9556 10.405 14.8952 11.0541 14.8839 11.6617H10.5589C10.5174 10.405 10.54 9.14068 10.5325 7.88015C11.1892 7.88015 11.8458 7.89148 12.5025 7.90658L12.495 6.09882V6.09127Z" fill="#FEFEFE"/>
<path d="M10.1738 0H22.3715C22.3715 0.00377403 22.3904 2.13233 22.3904 2.13233L24.334 2.17384C24.2661 2.84562 24.3038 3.55514 24.3 4.23069C23.9717 4.23824 23.6396 4.24201 23.3112 4.24578C23.0508 4.24578 22.7149 4.22314 22.5375 4.00047C22.2168 3.60043 22.3677 2.62673 22.3828 2.11346C18.3257 2.00401 14.2498 2.07572 10.1927 2.0493C10.2078 1.3662 10.1965 0.683099 10.1814 0H10.1738Z" fill="#2C213A"/>
</svg>
