<svg width="32" height="32" viewBox="0 0 32 32" fill="none" xmlns="http://www.w3.org/2000/svg">
<path d="M11.1304 13.9131H9.73914V18.087H12.5217V16.6957H11.1304V13.9131Z" fill="#1A252E"/>
<path d="M9.73914 12.5217H8.34784V13.913H9.73914V12.5217Z" fill="#1A252E"/>
<path d="M6.95655 13.9131H5.56525V15.3044H6.95655V13.9131Z" fill="#1A252E"/>
<path d="M8.34786 18.0869H5.56525V19.4782H8.34786V18.0869Z" fill="#1A252E"/>
<path d="M15.3044 15.3044H13.9131V16.6957H15.3044V15.3044Z" fill="#1A252E"/>
<path d="M13.9131 19.4783H12.5218V20.8696H13.9131V19.4783Z" fill="#1A252E"/>
<path d="M13.9131 9.73914H12.5218V15.3044H13.9131V9.73914Z" fill="#1A252E"/>
<path d="M15.3044 6.95651H13.9131V9.73912H15.3044V6.95651Z" fill="#1A252E"/>
<path d="M16.6957 5.56522H15.3044V6.95652H16.6957V5.56522Z" fill="#1A252E"/>
<path d="M23.6522 12.5217H22.2609V13.913H23.6522V12.5217Z" fill="#1A252E"/>
<path d="M26.4348 13.9131H25.0435V15.3044H26.4348V13.9131Z" fill="#1A252E"/>
<path d="M26.4348 18.0869H23.6522V19.4782H26.4348V18.0869Z" fill="#1A252E"/>
<path d="M18.087 15.3044H16.6957V16.6957H18.087V15.3044Z" fill="#1A252E"/>
<path d="M19.4783 18.087H22.2609V13.9131H20.8696V16.6957H19.4783V18.087Z" fill="#1A252E"/>
<path d="M19.4783 19.4783H18.087V20.8696H19.4783V19.4783Z" fill="#1A252E"/>
<path d="M19.4783 9.73914H18.087V15.3044H19.4783V9.73914Z" fill="#1A252E"/>
<path d="M18.087 6.95651H16.6957V9.73912H18.087V6.95651Z" fill="#1A252E"/>
<path d="M16.6957 16.6956H15.3044V18.087H16.6957V16.6956Z" fill="#1A252E"/>
<path d="M4.17393 15.3044H2.78262V16.6957H4.17393V15.3044Z" fill="#BCC7B4"/>
<path d="M12.5218 9.73914H11.1305V11.1304H12.5218V9.73914Z" fill="#BCC7B4"/>
<path d="M15.3044 2.78262H13.9131V5.56523H15.3044V2.78262Z" fill="#BCC7B4"/>
<path d="M13.9131 5.56522H12.5218V9.73913H13.9131V5.56522Z" fill="#BCC7B4"/>
<path d="M16.6957 1.3913H15.3044V2.7826H16.6957V1.3913Z" fill="#BCC7B4"/>
<path d="M5.56523 8.34784H2.78262V9.73914H5.56523V8.34784Z" fill="#BCC7B4"/>
<path d="M29.2174 15.3044H27.8261V16.6957H29.2174V15.3044Z" fill="#BCC7B4"/>
<path d="M20.8696 9.73914H19.4783V11.1304H20.8696V9.73914Z" fill="#BCC7B4"/>
<path d="M29.2174 8.34784H26.4348V9.73914H29.2174V8.34784Z" fill="#BCC7B4"/>
<path d="M18.087 2.78262H16.6957V5.56523H18.087V2.78262Z" fill="#BCC7B4"/>
<path d="M19.4783 5.56522H18.087V9.73913H19.4783V5.56522Z" fill="#BCC7B4"/>
<path d="M6.95654 12.5217V15.3043H9.73915V13.913H8.34785V12.5217H6.95654Z" fill="#485451"/>
<path d="M11.1304 11.1304H9.73914V13.913H11.1304V11.1304Z" fill="#485451"/>
<path d="M4.17393 18.0869H2.78262V19.4782H4.17393V18.0869Z" fill="#485451"/>
<path d="M5.56523 15.3043V11.1304H4.17393V12.5217H2.78262V13.913H4.17393V15.3043H5.56523Z" fill="#485451"/>
<path d="M13.9131 15.3044H12.5218V16.6957H13.9131V15.3044Z" fill="#485451"/>
<path d="M15.3044 16.6956H13.9131V18.087H15.3044V16.6956Z" fill="#485451"/>
<path d="M9.73914 18.0869V19.4782H4.17392V20.8696H5.56522V22.2609H8.34783V20.8696H11.1304V19.4782H13.913V18.0869H9.73914Z" fill="#485451"/>
<path d="M12.5218 8.34784H11.1305V9.73914H12.5218V8.34784Z" fill="#485451"/>
<path d="M13.9131 4.17392H12.5218V5.56522H13.9131V4.17392Z" fill="#485451"/>
<path d="M16.6957 0H15.3044V1.3913H16.6957V0Z" fill="#485451"/>
<path d="M25.0435 15.3043V12.5217H23.6522V13.913H22.2609V15.3043H25.0435Z" fill="#485451"/>
<path d="M22.2609 11.1304H20.8696V13.913H22.2609V11.1304Z" fill="#485451"/>
<path d="M29.2174 18.0869H27.8261V19.4782H29.2174V18.0869Z" fill="#485451"/>
<path d="M22.2609 19.4782V18.0869H18.087V19.4782H20.8696V20.8696H23.6522V22.2609H26.4348V20.8696H27.8261V19.4782H22.2609Z" fill="#485451"/>
<path d="M19.4783 15.3044H18.087V16.6957H19.4783V15.3044Z" fill="#485451"/>
<path d="M18.087 16.6956H16.6957V18.087H18.087V16.6956Z" fill="#485451"/>
<path d="M20.8696 8.34784H19.4783V9.73914H20.8696V8.34784Z" fill="#485451"/>
<path d="M16.6957 18.0869H15.3044V19.4782H13.9131V20.8696H18.087V19.4782H16.6957V18.0869Z" fill="#485451"/>
<path d="M27.8261 11.1304H26.4348V15.3043H27.8261V13.913H29.2174V12.5217H27.8261V11.1304Z" fill="#485451"/>
<path d="M15.3044 1.3913H13.9131V2.7826H15.3044V1.3913Z" fill="#485451"/>
<path d="M18.087 1.3913H16.6957V2.7826H18.087V1.3913Z" fill="#485451"/>
<path d="M19.4783 4.17392H18.087V5.56522H19.4783V4.17392Z" fill="#485451"/>
<path d="M12.5218 11.1304H11.1305V16.6956H12.5218V11.1304Z" fill="#82948F"/>
<path d="M9.73915 11.1304H6.95654V12.5217H9.73915V11.1304Z" fill="#82948F"/>
<path d="M11.1304 9.73914H9.73914V11.1304H11.1304V9.73914Z" fill="#82948F"/>
<path d="M6.95655 12.5217H5.56525V13.913H6.95655V12.5217Z" fill="#82948F"/>
<path d="M5.56523 19.4783V15.3044H4.17393V16.6957H2.78262V18.087H4.17393V19.4783H5.56523Z" fill="#82948F"/>
<path d="M9.73914 15.3044H8.34784V19.4783H9.73914V15.3044Z" fill="#82948F"/>
<path d="M13.9131 16.6956H12.5218V18.087H13.9131V16.6956Z" fill="#82948F"/>
<path d="M15.3044 18.0869H13.9131V19.4782H15.3044V18.0869Z" fill="#82948F"/>
<path d="M15.3044 5.56522H13.9131V6.95652H15.3044V5.56522Z" fill="#82948F"/>
<path d="M12.5218 6.95651H11.1305V8.34782H12.5218V6.95651Z" fill="#82948F"/>
<path d="M16.6957 2.78262H15.3044V5.56523H16.6957V2.78262Z" fill="#82948F"/>
<path d="M5.56523 9.73914H2.78262V12.5217H4.17393V11.1304H5.56523V9.73914Z" fill="#82948F"/>
<path d="M25.0435 11.1304H22.2609V12.5217H25.0435V11.1304Z" fill="#82948F"/>
<path d="M22.2609 9.73914H20.8696V11.1304H22.2609V9.73914Z" fill="#82948F"/>
<path d="M23.6522 15.3044H22.2609V19.4783H23.6522V15.3044Z" fill="#82948F"/>
<path d="M26.4348 12.5217H25.0435V13.913H26.4348V12.5217Z" fill="#82948F"/>
<path d="M27.8261 15.3044H26.4348V19.4783H27.8261V18.087H29.2174V16.6957H27.8261V15.3044Z" fill="#82948F"/>
<path d="M20.8696 11.1304H19.4783V16.6956H20.8696V11.1304Z" fill="#82948F"/>
<path d="M19.4783 16.6956H18.087V18.087H19.4783V16.6956Z" fill="#82948F"/>
<path d="M18.087 18.0869H16.6957V19.4782H18.087V18.0869Z" fill="#82948F"/>
<path d="M26.4348 9.73914V11.1304H27.8261V12.5217H29.2174V9.73914H26.4348Z" fill="#82948F"/>
<path d="M18.087 5.56522H16.6957V6.95652H18.087V5.56522Z" fill="#82948F"/>
<path d="M20.8696 6.95651H19.4783V8.34782H20.8696V6.95651Z" fill="#82948F"/>
<path d="M13.9131 23.6521H12.5218V25.0434H13.9131V23.6521Z" fill="#A62E19"/>
<path d="M19.4783 25.0434H18.087V26.4347H19.4783V25.0434Z" fill="#A62E19"/>
<path d="M13.9131 26.4347H12.5218V27.826H13.9131V26.4347Z" fill="#A62E19"/>
<path d="M19.4783 27.826H18.087V29.2173H19.4783V27.826Z" fill="#A62E19"/>
<path d="M15.3044 29.2173H13.9131V30.6086H15.3044V29.2173Z" fill="#A62E19"/>
<path d="M16.6957 30.6086H15.3044V31.9999H16.6957V30.6086Z" fill="#A62E19"/>
<path d="M13.9131 20.8696H12.5218V22.2609H13.9131V20.8696Z" fill="#FFF059"/>
<path d="M19.4783 20.8695H18.087V22.2608H19.4783V20.8695Z" fill="#FFF059"/>
<path d="M18.087 22.2608H16.6957V25.0434H18.087V22.2608Z" fill="#FFF059"/>
<path d="M15.3044 22.2608H13.9131V25.0434H15.3044V22.2608Z" fill="#FFF059"/>
<path d="M16.6957 25.0434H15.3044V26.4347H16.6957V25.0434Z" fill="#FFF059"/>
<path d="M16.6957 27.826H15.3044V29.2173H16.6957V27.826Z" fill="#FFF059"/>
<path d="M19.4783 22.2608H18.087V25.0434H19.4783V22.2608Z" fill="#FF8B00"/>
<path d="M13.9131 22.2608H12.5218V23.6521H13.9131V22.2608Z" fill="#FF8B00"/>
<path d="M16.6957 26.4347H15.3044V25.0434H13.9131V27.826H16.6957V29.2173H18.087V25.0434H16.6957V26.4347Z" fill="#FF8B00"/>
<path d="M16.6957 29.2173H15.3044V30.6086H16.6957V29.2173Z" fill="#FF8B00"/>
<path d="M13.9131 20.8695V22.2608H15.3044V25.0434H16.6957V22.2608H18.087V20.8695H13.9131Z" fill="white"/>
<path d="M8.34786 15.3043H5.56525V16.6956H8.34786V15.3043Z" fill="#5EB1FF"/>
<path d="M15.3044 9.73911H13.9131V11.1304H15.3044V9.73911Z" fill="#5EB1FF"/>
<path d="M16.6957 6.95648H15.3044V9.73909H16.6957V6.95648Z" fill="#5EB1FF"/>
<path d="M26.4348 15.3043H23.6522V16.6956H26.4348V15.3043Z" fill="#5EB1FF"/>
<path d="M18.087 9.73911H16.6957V11.1304H18.087V9.73911Z" fill="#5EB1FF"/>
<path d="M8.34786 16.6956H5.56525V18.0869H8.34786V16.6956Z" fill="#2853E0"/>
<path d="M26.4348 16.6956H23.6522V18.0869H26.4348V16.6956Z" fill="#2853E0"/>
<path d="M16.6957 9.73911H15.3044V11.1304H13.9131V15.3043H15.3044V16.6956H16.6957V15.3043H18.087V11.1304H16.6957V9.73911Z" fill="#2853E0"/>
</svg>
